<svg width="45" height="52" viewBox="0 0 45 52" fill="none" xmlns="http://www.w3.org/2000/svg">
<rect width="44.73" height="42.6" fill="#FFFCDC"/>
<path d="M38.1724 28.7507C37.9899 23.6352 36.682 18.6196 34.3383 14.0621L34.0887 14.1845L34.2268 14.0096C32.0601 12.299 29.4143 11.3061 26.6572 11.1689L26.6356 11.1674L26.2656 11.1409L26.0214 11.42L25.6636 11.829L25.1664 12.3972C24.2124 12.2751 23.2485 12.2147 22.2808 12.2177C22.2804 12.2177 22.2801 12.2177 22.2797 12.2177L22.282 12.9632C20.2353 12.9632 18.2547 13.2464 16.3773 13.7759L38.1724 28.7507ZM38.1724 28.7507H38.8702L38.0606 29.9205L38.0414 29.9482L38.0371 29.9545L38.0326 29.9607C37.0982 31.2532 35.8702 32.3052 34.4497 33.0303C33.0292 33.7553 31.4568 34.1326 29.862 34.1311L29.8559 34.1311L29.6195 34.129L29.2755 34.1259L29.0546 33.8621L29.6262 33.3835L29.0546 33.862L29.0545 33.862L29.0544 33.8618L29.0538 33.8611L29.0518 33.8586L29.0437 33.849L29.0128 33.812L28.8971 33.6731C28.7982 33.5541 28.6584 33.3854 28.4946 33.1861C28.1673 32.7882 27.742 32.2663 27.3541 31.7751L27.047 31.3861C25.5903 31.7291 24.0953 31.9027 22.5916 31.901C21.0305 31.9061 19.4811 31.7203 17.9767 31.3521L17.6848 31.7218C17.2983 32.2114 16.8677 32.7449 16.5345 33.155C16.3677 33.3602 16.225 33.535 16.1239 33.6585L16.0057 33.8029L15.9741 33.8414L15.9659 33.8513L15.9638 33.8539L15.9632 33.8546L15.9631 33.8548L15.963 33.8548L15.4107 33.4007L15.4209 34.1266C15.2366 34.1317 15.0524 34.1318 14.8686 34.1269H13.8091L13.8722 34.05C12.7645 33.9087 11.6844 33.5827 10.6781 33.082C9.20683 32.3499 7.93827 31.2671 6.98434 29.929L6.84587 29.7348V29.4962V29.4664V29.4541L6.84598 29.4541C6.93733 23.9185 8.31614 18.6914 10.6097 14.2525L11.1848 14.5497L10.7839 14.0293C12.9675 12.3014 15.6372 11.3003 18.4185 11.1663L18.7894 11.1485L19.0271 11.4337L19.2827 11.7404L19.794 12.354L38.1724 28.7507ZM26.0356 22.4971C26.3363 22.3009 26.6869 22.1952 27.0457 22.1925C28.0653 22.2437 28.8766 23.0603 28.9233 24.0744V24.2694C28.8858 24.6147 28.753 24.9431 28.5394 25.2177C28.3158 25.5052 28.0133 25.7213 27.6688 25.8396C27.3244 25.9579 26.9529 25.9733 26.5998 25.8839C26.2467 25.7945 25.9274 25.6042 25.6807 25.3362C25.4341 25.0682 25.2708 24.7342 25.211 24.3749C25.1511 24.0156 25.1972 23.6467 25.3437 23.3132C25.4901 22.9798 25.7305 22.6962 26.0356 22.4971ZM16.4445 22.8679C16.7932 22.4859 17.2703 22.2459 17.7844 22.1933C18.7956 22.2648 19.595 23.106 19.6003 24.1376L19.5964 24.2683L20.0051 24.2805L19.5961 24.2841V24.2905L19.807 24.2937L19.5962 24.2974L19.5982 24.4095C19.5967 24.9174 19.3997 25.4053 19.048 25.772C18.7052 26.1294 18.2411 26.3446 17.7479 26.3762C17.245 26.3159 16.78 26.076 16.4392 25.6998C16.0875 25.3117 15.8932 24.8065 15.8942 24.2828C15.8952 23.7591 16.0914 23.2546 16.4445 22.8679ZM43.9824 6.01086H43.9846V49.4669C41.8725 47.6028 40.8963 46.748 39.9324 45.8794C38.6362 44.7113 37.3623 43.5185 33.3779 39.8133L31.4155 37.9884L32.1535 40.5646L33.2358 44.3423H5.23984C4.04646 44.339 2.90308 43.8626 2.06026 43.0178C1.21751 42.1729 0.743982 41.0285 0.743425 39.8353C0.743425 39.8352 0.743425 39.8351 0.743425 39.835L0.743425 5.25258C0.74342 4.05944 1.21651 2.91498 2.05899 2.0701C2.90123 1.22547 4.04393 0.749153 5.2367 0.7455H39.487C40.68 0.749152 41.823 1.22544 42.6656 2.07008C43.5083 2.91489 43.9819 4.0593 43.9824 5.25258C43.9824 5.25268 43.9824 5.25278 43.9824 5.25288V5.26536V6.01086Z" fill="#E27FA5" stroke="black" stroke-width="1.491"/>
</svg>
