<svg width="379" height="103" viewBox="0 0 379 103" fill="none" xmlns="http://www.w3.org/2000/svg">
<path d="M2.77069 41.3841C2.26404 41.1276 1.59467 40.7839 0.5 40.2273C1.68015 40.0161 2.39639 39.8887 3.16959 39.7512C3.16959 38.6112 3.14514 37.4577 3.17566 36.3059C3.21228 34.9111 1.20395 34.502 1.02286 33.1943C1.43741 32.5279 2.03558 31.9508 2.76944 31.5092C3.5033 31.0675 4.35251 30.7736 5.24899 30.651C5.70581 29.8015 5.87204 28.8653 5.72968 27.9436C5.58731 27.022 5.14178 26.1499 4.44125 25.4219C5.17105 24.1631 6.02719 22.9569 7.00085 21.8156C7.70782 21.1544 8.70145 20.7481 9.7681 20.684C11.052 20.6756 11.7092 20.1408 12.8486 19.45C11.5688 19.3444 10.6593 19.2706 9.74979 19.1952C9.76605 19.041 9.78232 18.885 9.79858 18.7275C11.701 19.3059 13.6544 17.7534 15.6646 19.2237C17.7584 18.3133 19.909 17.3795 22.015 16.4658C21.9112 15.2973 21.1278 15.0542 20.0759 15.1061C17.8031 15.2201 15.5303 15.337 13.2576 15.4566C16.644 14.7378 20.0773 14.1786 23.541 13.7817C26.1353 13.5001 28.7763 13.4732 31.399 13.4011C31.9487 13.4368 32.4991 13.3395 32.9827 13.1212C33.4663 12.9029 33.8621 12.5731 34.1215 12.1722C34.4333 11.7745 34.9208 11.4925 35.4807 11.3859C36.968 11.1479 38.4799 11.007 39.9876 10.8897C42.3214 10.712 44.6633 10.5862 47.164 10.427C46.694 10.0011 46.1568 9.69932 47.105 9.6222C48.0797 9.53838 49.0501 9.45623 50.0268 9.40594C53.8093 9.2081 57.5919 9.02534 61.3784 8.83925C62.2229 8.84282 63.0666 8.79803 63.9035 8.70514C67.1071 8.08539 70.4465 8.12453 73.6274 8.81914C74.1266 8.90277 74.6383 8.92424 75.1453 8.88284C79.6929 8.76883 84.2384 8.6565 88.7819 8.514C90.8146 8.45197 92.8432 8.3145 94.8779 8.22564C96.9126 8.13846 98.9554 8.13513 100.982 7.96915C102.884 7.81491 104.887 8.37652 106.7 7.44437C106.948 7.31863 107.367 7.42761 107.707 7.40917C112.682 7.14763 117.659 6.90455 122.629 6.60948C127.706 6.30603 132.772 5.85336 137.853 5.64044C143.048 5.42249 148.238 5.1576 153.423 4.78877C156.804 4.54567 160.21 4.5205 163.6 4.34446C168.3 4.10136 173.013 4.38973 177.715 3.99742C180.918 3.72917 184.161 3.82306 187.386 3.73085C195.765 3.49111 204.144 3.23292 212.523 2.99318C214.728 2.93114 216.936 2.92779 219.142 2.87749C225.404 2.73667 231.669 2.40471 237.926 2.48016C249.469 2.62099 261.008 3.08203 272.551 3.25304C283.506 3.41231 294.393 4.18352 305.267 5.19782C307.694 5.42415 310.134 5.58009 312.816 5.78631C312.268 6.20879 311.945 6.45858 311.546 6.76706C313.436 8.26421 315.098 7.02192 316.433 6.72015C317.593 7.06216 318.427 7.36726 319.296 7.55504C321.903 8.09737 324.567 8.43199 327.252 8.55426C331.607 8.92762 335.936 9.48497 340.221 10.2241C340.687 10.2912 341.088 10.6684 341.519 10.8981C341.47 11.0406 341.419 11.1831 341.371 11.3239C339.812 11.4003 338.249 11.2862 336.732 10.9853C335.188 10.4167 333.491 10.1868 331.808 10.318C327.081 10.8612 322.688 9.0673 318.049 9.19975C314.932 7.73613 311.648 9.16452 308.463 8.83592C308.406 8.82921 308.317 9.03711 308.17 9.24835C308.499 9.49562 308.892 9.67728 309.319 9.77933C309.746 9.88137 310.196 9.90102 310.634 9.83678C311.493 9.68757 312.714 9.55013 313.269 9.92064C314.211 10.5493 315.276 10.1922 316.234 10.5745C316.708 10.7741 317.234 10.8754 317.767 10.8695C318.3 10.8637 318.822 10.7509 319.29 10.541C319.544 10.4202 320.077 10.6835 320.48 10.779C320.932 10.9581 321.418 11.0705 321.917 11.111C326.144 10.9172 330.38 11.3238 334.44 12.3131C335.779 12.5645 337.045 12.7657 338.074 11.8973C340.226 12.8996 342.655 13.4296 345.127 13.4363C346.791 13.5688 348.496 13.443 350.136 13.6677C356.845 14.578 363.535 15.5789 370.231 16.5463L370.158 16.9034C366.587 16.6117 363.016 16.3205 359.445 16.0299C360.586 16.5309 361.805 16.8994 363.069 17.1247C364.762 17.5321 366.426 18.0284 368.121 18.4341C368.764 18.5883 369.472 18.5582 370.131 18.6805C370.718 18.757 371.28 18.9273 371.788 19.1818C372.121 19.3813 372.133 19.9212 372.451 20.1676C372.937 20.4796 373.461 20.7503 374.013 20.9757C373.981 21.088 373.95 21.2037 373.918 21.316C371.661 21.4954 369.403 21.6714 367.159 21.8492C367.346 23.6363 369.342 23.2558 370.473 23.9851C370.375 24.426 370.276 24.882 370.182 25.3129C370.638 25.7782 371.216 26.1525 371.872 26.4077C372.529 26.6629 373.247 26.7924 373.973 26.7866C375.48 26.8659 376.991 26.8754 378.5 26.8151C377.544 27.4857 377.035 28.2418 375.796 28.1244C374.654 28.0138 375.23 28.8554 375.039 29.236C371.946 29.6165 371.946 29.6165 371.411 30.9091C372.226 30.6739 373.071 30.5175 373.93 30.4431C374.729 30.5255 375.512 30.6888 376.262 30.9293C376.274 31.0651 376.286 31.2009 376.3 31.3367C374.376 31.7726 372.449 32.2118 370.506 32.6527C370.477 32.2923 370.449 31.9637 370.42 31.6284C368.493 31.4591 368.803 32.8456 367.942 33.5514C370.349 34.6042 373.104 33.0702 375.436 34.6478C370.416 36.1271 365.235 37.2017 359.964 37.8567C358.446 38.0713 357.001 38.1652 356.314 39.5366C358.794 40.6264 359.728 40.5828 360.434 39.441C361.26 39.5634 362.07 39.6841 362.896 39.8065C363.405 39.2516 363.856 38.7604 364.119 38.4737C365.433 38.6682 366.589 38.8375 368.023 39.0487C365.736 39.8518 364.44 41.8854 361.64 41.4663C361.212 41.4417 360.787 41.5466 360.446 41.7614C358.726 42.6207 356.779 43.1219 354.771 43.2216C350.85 43.7028 346.919 44.132 342.988 44.5477C341.411 44.7137 339.806 44.7204 338.237 44.9183C336.05 45.1949 333.891 45.6174 331.706 45.9141C329.732 46.1807 327.74 46.3618 325.756 46.5948C325.648 46.6065 325.565 46.7608 325.41 46.9033C326.039 47.0843 326.621 47.2554 327.305 47.4549C327 47.7248 326.871 47.9142 326.78 47.9042C325.598 47.765 324.391 48.1875 323.227 47.356C321.935 46.4355 320.922 48.0567 319.542 47.9796C317.139 47.8455 314.718 47.9427 312.305 47.9427C312.914 48.147 313.558 48.2704 314.213 48.3082C319.481 48.947 324.747 49.5841 330.009 50.2597C330.275 50.2932 330.481 50.6587 330.88 51.0175C328.53 51.4735 326.462 50.1507 324.159 51.0795C326.253 51.4333 328.054 51.7384 330.023 52.072C329.358 52.6709 328.524 53.1257 327.595 53.3964C326.666 53.6671 325.671 53.7455 324.696 53.6245C322.351 53.7367 320.018 53.9764 317.711 54.3421C317.542 54.3639 317.418 54.6506 317.272 54.8132C320.161 55.727 323.192 56.2999 326.275 56.5148C329.384 56.9658 332.613 56.3841 335.671 57.3665C334.269 57.7662 332.764 57.8558 331.307 57.6264C328.861 57.0991 326.322 56.93 323.805 57.1268C323.382 57.1385 322.979 57.6247 322.568 57.8929C322.991 58.1746 323.378 58.6457 323.846 58.7078C325.579 58.9375 327.337 59.0481 329.089 59.1671C329.762 59.2544 330.448 59.2431 331.116 59.1336C333.021 58.9048 334.966 59.1659 336.685 59.8813C336.16 60.7095 336.011 61.526 334.646 61.6081C334.171 61.6338 333.722 61.7989 333.382 62.0736C333.042 62.3483 332.833 62.7143 332.792 63.1053C332.569 64.2805 333.915 64.2739 334.819 64.7148C334.219 65.8196 333.648 66.8736 333.106 67.8767C331.903 68.098 330.825 68.2992 329.618 68.5222C329.757 68.8682 330.048 69.1589 330.434 69.3367C330.82 69.5146 331.273 69.5667 331.704 69.4828C332.414 69.4711 333.122 69.5499 333.905 69.5918C332.802 71.7696 330.725 72.0714 328.371 71.9473C329.586 73.8116 328.703 75.4747 326.538 75.6675C325.624 75.6915 324.711 75.6422 323.809 75.5201C323.309 75.4849 322.747 75.2585 322.324 75.3809C319.773 75.8676 317.15 76.0449 314.537 75.9073C313.794 75.9739 313.056 76.0764 312.327 76.2141C312.341 76.3533 312.358 76.4924 312.376 76.6315L314.677 77.0792C310.308 77.8061 305.845 78.0703 301.395 77.8655C301.657 77.1094 301.822 76.6449 302.019 76.0783C300.327 76.0967 298.79 75.691 297.238 76.6315C297.924 76.9652 298.469 77.2285 299.014 77.4933C295.504 78.4552 291.696 78.3739 288.251 77.2636C289.203 76.94 290.156 76.617 291.109 76.2946L291.014 76.0582H286.134C286.554 76.6903 286.842 77.1261 287.203 77.666C286.561 77.9596 285.868 78.1688 285.148 78.2863C280.883 78.2963 276.614 78.2058 272.345 78.1991C267.442 78.1924 262.538 78.2377 257.634 78.2628C257.587 79.0626 258.32 79.1078 258.991 79.1329C262.375 79.2604 265.76 79.3738 269.147 79.4733C273.676 79.6007 278.236 78.8932 282.736 79.8204C283.073 79.8621 283.415 79.8677 283.754 79.8371C286.289 79.7918 288.824 79.6996 291.36 79.7013C294.049 79.7029 296.739 79.8555 299.429 79.827C302.477 79.7918 305.523 79.6225 308.571 79.5202C312.038 79.4029 315.503 79.3023 318.969 79.1699C319.552 79.0915 320.15 79.162 320.684 79.3721C321.217 79.5822 321.659 79.9218 321.951 80.3451C320.981 80.4725 320.114 80.5965 319.243 80.7005C318.755 80.7592 318.022 80.6435 317.819 80.8665C317.488 81.3316 317.245 81.836 317.101 82.362C315.489 83.3226 314.565 81.9596 313.585 81.4969C312.024 80.7592 311.888 80.4825 309.936 81.2336C310.15 81.7248 310.368 82.2194 310.655 82.88C307.588 83.0007 304.622 82.9907 301.7 83.274C300.732 83.474 299.711 83.4106 298.79 83.0933C297.87 82.7761 297.098 82.2219 296.591 81.5136C295.14 81.6829 294.298 82.1927 294.546 83.4836H277.503C277.304 82.7711 277.151 82.2328 276.895 81.3208C276.366 82.3167 276.046 82.9202 275.753 83.4701H271.558C271.104 82.1825 270.178 82.7458 269.462 83.1851C269.263 83.3597 269.017 83.4936 268.743 83.5759C268.47 83.6582 268.177 83.6867 267.888 83.6592C267.599 83.6317 267.322 83.5488 267.079 83.4173C266.836 83.2858 266.633 83.1093 266.487 82.9018C265.456 83.1314 264.668 83.3327 263.865 83.4852C258.713 84.466 253.492 83.4986 248.305 83.8356C246.116 83.8483 243.928 83.7194 241.764 83.45C241.523 83.4174 241.28 83.4028 241.037 83.4064C239.462 83.5556 237.896 83.735 236.319 83.8742C235.772 83.9756 235.199 83.9063 234.711 83.6796C234.222 83.4528 233.854 83.0849 233.676 82.647C233.619 82.5246 233.297 82.4861 233.016 82.3788C232.874 82.8968 232.752 83.331 232.624 83.8004C228.758 83.8004 225.028 83.7618 221.298 83.8088C209.245 83.9496 197.189 84.1256 185.132 84.2849C179.784 84.357 174.437 84.3906 169.09 84.5012C164.335 84.6002 159.584 84.8181 154.831 84.8952C153.923 84.7939 153.038 84.5838 152.204 84.2715C151.644 85.2338 150.387 85.1282 149.231 85.1902C144.002 85.4719 138.765 85.6747 133.541 86.0369C126.442 86.5298 119.355 87.1468 112.258 87.695C111.335 87.7654 110.13 88.0538 109.524 87.6967C109.306 87.514 109.043 87.3719 108.753 87.2803C108.463 87.1886 108.152 87.1495 107.842 87.1655C107.532 87.1816 107.229 87.2525 106.955 87.3734C106.681 87.4942 106.442 87.6622 106.254 87.866C105.998 88.045 105.682 88.1555 105.349 88.1829C101.91 88.5685 98.4631 88.9088 95.0285 89.3145C91.1951 89.7689 87.3535 90.2098 83.5466 90.7899C79.6481 91.3834 75.7781 92.111 71.9081 92.8353C67.9526 93.578 63.9666 94.2502 60.0905 95.2142C57.6141 95.9391 55.2036 96.8086 52.8774 97.8162C51.2822 98.4298 49.7623 99.2128 48.0002 98.1013C47.754 97.947 47.162 98.0442 46.7957 98.1599C45.0426 98.6729 43.3223 99.2594 41.6418 99.917C39.8476 100.642 37.8555 100.969 35.8612 100.868C35.2634 101.275 34.6065 101.619 33.9058 101.894C32.9474 102.115 31.9098 102.103 30.9352 102.293C27.9156 102.881 27.1241 102.561 26.1454 100.22C25.9826 99.8297 25.9094 99.4156 25.7873 98.9848C26.8271 98.0426 27.8342 97.1306 28.9025 96.1632C28.8516 95.5379 28.7946 94.8286 28.7275 93.987C26.7905 94.5755 25.0935 95.1958 23.3253 95.6065C20.0312 96.3744 19.1868 96.0525 17.207 93.5629C17.6587 92.5016 18.2081 91.4035 18.5987 90.2651C19.5937 87.3714 18.5214 86.1677 14.9098 86.0218C14.6249 86.0101 14.3401 86.0202 13.9311 86.0202C14.0297 84.8614 14.0127 83.6979 13.8802 82.5414C13.6707 81.5639 15.2231 80.449 13.4489 79.4397C13.0562 80.055 12.7286 80.5614 12.3827 81.1012C11.5627 80.4155 11.5627 80.4155 9.26141 80.4507C9.3428 78.4456 9.53815 76.2577 6.27448 75.8319C6.82791 74.9969 7.29184 74.2995 7.95718 73.2969C6.72211 73.0907 5.87772 72.9499 5.37311 72.8661C4.98651 71.8937 4.7179 70.985 4.26416 70.1434C3.80838 69.2984 3.27118 68.5188 3.88974 67.5766C5.64545 64.6918 6.18671 61.4077 5.42807 58.2417C5.01096 55.9012 4.45749 53.5742 4.13602 51.2271C4.25134 49.9153 3.9805 48.5999 3.34653 47.3928C3.29114 47.2692 3.26794 47.1375 3.27847 47.0061C3.289 46.8746 3.33292 46.7465 3.40753 46.63C3.7482 46.0799 3.88788 45.4601 3.80951 44.8459C3.73114 44.2317 3.43811 43.6494 2.96603 43.1696C2.63855 42.7622 2.82767 42.0732 2.77069 41.3841ZM353.866 38.6933C353.811 38.8106 353.758 38.9263 353.656 39.1493C353.892 39.265 354.149 39.3891 354.405 39.5148C354.49 39.3606 354.684 39.099 354.641 39.0672C354.399 38.921 354.139 38.7956 353.866 38.6933ZM328.523 43.2585C337.735 42.9464 346.897 41.9907 355.913 40.4017C355.153 40.4468 354.389 40.3855 353.654 40.2206C353.084 40.0043 352.736 39.3891 352.293 38.9582C350.236 39.6322 348.032 40.3564 345.641 41.1411C345.07 39.198 343.167 39.0856 341.743 38.9129C340.188 39.8736 338.829 40.7118 337.346 41.6289C336.335 40.6934 335.427 39.4176 333.877 40.9667C333.73 41.1142 333.032 41.0472 332.721 40.8946C331.016 40.0681 329.683 40.5911 328.314 41.7178C328.375 42.1738 328.45 42.7388 328.523 43.2585ZM325.215 43.6542C325.646 43.6475 326.065 43.0841 326.605 42.6918C325.396 42.2677 324.56 41.9743 323.575 41.6272C322.79 43.2283 321.121 42.8779 319.573 42.6181C318.763 42.4806 318.018 42.1268 317.068 42.8863C319.684 43.6269 322.464 43.8889 325.215 43.6542ZM281.534 76.4388L281.564 76.1136H279.951L279.926 76.3382C280.462 76.3717 280.999 76.4052 281.534 76.4388ZM300.859 81.8909C300.902 81.7601 300.945 81.631 300.988 81.5019C300.621 81.4214 300.255 81.3326 299.881 81.279C299.809 81.3885 299.751 81.5043 299.71 81.6243C300.092 81.7132 300.475 81.8003 300.859 81.8909ZM291.675 82.5816C291.948 82.3167 292.221 82.0513 292.497 81.7853C292.338 81.7048 292.183 81.6209 292.029 81.5388L291.408 82.4223C291.496 82.4759 291.585 82.5296 291.675 82.5816ZM281.21 82.419C281.552 82.2312 281.892 82.0434 282.234 81.8539C282.161 81.755 282.087 81.6544 282.016 81.5572C281.65 81.6779 281.286 81.7969 280.921 81.9193C281.017 82.0853 281.113 82.253 281.21 82.419ZM232.835 75.2702C232.265 75.3188 231.698 75.3674 231.126 75.4177C231.157 75.5686 231.185 75.7212 231.211 75.8738C231.765 75.7833 232.314 75.6927 232.866 75.6005L232.835 75.2702ZM248.474 6.38482H246.201C246.203 6.46026 246.203 6.53572 246.205 6.61117H248.476C248.474 6.53572 248.474 6.46026 248.474 6.38482ZM269.047 75.6625C268.485 75.7329 267.924 75.8016 267.413 75.8637C267.366 76.6181 267.59 76.6181 269.047 75.6625ZM261.496 6.70505L260.119 7.04371C260.169 7.1795 260.218 7.31362 260.271 7.44775C260.725 7.32536 261.181 7.20407 261.638 7.08392C261.59 6.95818 261.543 6.83079 261.496 6.70505ZM260.407 75.9392C260.412 75.8923 260.418 75.8453 260.422 75.7967H257.663C257.659 75.8453 257.655 75.8923 257.655 75.9392H260.407ZM259.227 6.51559H255.223C255.474 6.74842 255.783 6.93478 256.128 7.06238C256.473 7.18998 256.847 7.25593 257.225 7.25593C257.603 7.25593 257.977 7.18998 258.322 7.06238C258.668 6.93478 258.976 6.74842 259.227 6.51559ZM88.9425 85.7133C92.0455 85.3327 95.1281 84.8382 98.2351 84.5012C101.161 84.1827 104.115 84.02 107.053 83.7702C112.197 83.3326 117.339 82.8582 122.485 82.4424C128.4 81.9663 134.315 81.4835 140.24 81.0996C146.738 80.6788 153.245 80.3317 159.752 80.0266C163.041 79.8723 166.339 79.9059 169.627 79.7986C171.741 79.7282 173.849 79.4582 175.961 79.4397C181.184 79.3995 186.409 79.4448 191.63 79.4683C197.716 79.4917 203.765 79.0273 209.821 78.645C209.989 78.635 210.175 78.5412 210.319 78.5764C212.944 79.2386 215.662 78.8077 218.322 79.0374C219.04 79.0625 219.759 79.054 220.476 79.0122C221.648 78.8867 222.835 78.8987 224.002 79.0475C226.24 79.4435 228.543 79.5205 230.813 79.2755C232.485 79.2118 234.17 79.3258 235.846 79.3023C237.177 79.2822 238.506 79.1698 239.839 79.1111C240.331 79.0877 240.825 79.0944 241.318 79.1028C243.501 79.1363 245.684 79.2151 247.868 79.2051C249.954 79.0619 252.049 79.0271 254.141 79.1011C254.756 79.1634 255.381 79.1209 255.976 78.9765C256.571 78.832 257.123 78.5885 257.6 78.2611C252.049 78.0851 246.494 77.8152 240.941 77.7582C232.223 77.666 223.492 77.4765 214.791 77.7884C207.755 78.0382 200.76 77.6391 193.746 77.6576C190.871 77.6643 187.998 77.894 185.123 78.0063C184.364 78.0348 183.603 77.9846 182.842 77.9913C180.745 78.0064 178.645 78.0784 176.549 78.0399C174.726 77.9313 172.895 77.9593 171.078 78.1237C169.745 78.2048 168.407 78.2137 167.073 78.1505C165.562 78.1756 164.052 78.2444 162.54 78.298C159.856 78.3936 157.166 78.6233 154.489 78.5428C152.733 78.4892 150.96 79.2704 149.198 78.4489C148.861 78.2913 148.203 78.4708 147.758 78.62C145.891 79.23 143.881 79.4849 141.878 79.3659C141.396 79.3835 140.917 79.4437 140.451 79.5454C140.062 79.6541 139.651 79.6996 139.241 79.6795C135.2 78.7272 135.212 78.7289 131.669 80.2311C131.125 80.3992 130.557 80.509 129.979 80.558C129.121 80.7568 128.244 80.8959 127.358 80.9738C125.643 81.0208 123.962 81.5891 122.222 80.4641C121.65 80.1084 120.968 79.8915 120.254 79.8376C119.539 79.7837 118.821 79.8949 118.179 80.159C116.927 80.859 115.419 81.178 113.912 81.061C113.489 81.0641 113.075 81.1683 112.722 81.361C110.763 82.1808 110.767 82.1893 109.198 80.8246C107.812 81.1901 106.03 80.5781 104.931 82.0568C104.766 82.2748 103.519 81.9478 102.844 81.8807C101.548 82.5044 100.197 83.1952 98.7906 83.8021C98.5959 83.8511 98.3904 83.8636 98.1891 83.839C97.9878 83.8143 97.7957 83.7531 97.6267 83.6596C97.086 83.3767 96.4702 83.2061 95.832 83.1623C95.1938 83.1185 94.5522 83.2028 93.9622 83.4081C92.1204 84.0862 90.14 84.4719 88.1246 84.5448C87.6099 84.5147 87.0421 85.103 86.5762 85.7267C87.3643 85.7692 88.1552 85.7648 88.9425 85.7133ZM85.8071 85.0712C83.4081 85.0595 83.4082 85.0595 83.048 86.4795C84.5619 86.5583 85.4856 86.2397 85.8071 85.0712ZM77.3285 87.0177C77.7964 86.9674 78.2644 86.9205 78.7344 86.8719C78.7283 86.7478 78.7242 86.6254 78.7181 86.503H77.2735L77.3285 87.0177ZM23.191 17.3108C23.4467 17.3094 23.702 17.2965 23.956 17.2723C25.5146 17.0543 26.6357 15.5085 28.587 16.2864C28.8291 16.3837 29.5616 15.641 30.0642 15.2872C29.995 15.1346 29.9238 14.9804 29.8526 14.8262C27.5411 15.5102 25.0913 14.5261 22.5887 15.3945C22.8145 16.1087 22.9936 16.6871 23.191 17.3108ZM342.711 11.0976C344.146 10.6203 345.713 10.4788 347.239 10.6885C351.648 11.3507 356.061 11.9878 360.468 12.655C361.683 12.8395 362.879 13.1077 364.084 13.3357C364.039 13.5771 363.995 13.8169 363.952 14.0583C356.946 12.7255 349.68 12.9183 342.711 11.0976ZM117.809 5.12241C118.139 4.82118 118.539 4.57839 118.987 4.40877C119.434 4.23916 119.918 4.14627 120.411 4.13576C120.903 4.12526 121.392 4.19733 121.85 4.34763C122.307 4.49794 122.722 4.7233 123.071 5.01005C122.256 5.3422 121.363 5.52429 120.455 5.54369C119.546 5.56308 118.643 5.41935 117.809 5.12241ZM114.439 5.68741C111.28 5.94727 108.567 6.17188 105.853 6.39654C108.507 5.28421 111.57 5.03125 114.439 5.68741ZM125.901 4.66638C126.798 3.65879 127.93 4.17181 129.069 4.24055C130.143 4.21145 131.21 4.08207 132.249 3.85493C131.309 4.32875 130.263 4.64443 129.174 4.7837C128.084 4.92297 126.972 4.88309 125.901 4.66638ZM135.784 3.06864C136.699 3.09882 136.99 3.55819 137.238 4.09468C135.975 4.26736 134.901 4.41492 133.464 4.61107C133.967 3.58168 134.567 3.03008 135.784 3.06864ZM331.12 53.4501C330.55 52.8734 330.428 52.2279 331.586 51.7803C332.269 52.1877 332.922 52.6286 332.357 53.3948C332.172 53.4881 331.963 53.542 331.747 53.5516C331.531 53.5613 331.315 53.5264 331.12 53.4501ZM168.148 2.54053C167.248 2.47682 166.39 2.41645 165.354 2.34268C167.45 1.2479 167.79 1.27475 168.148 2.54053ZM12.2564 82.9739C12.1118 83.372 11.8973 83.7504 11.6196 84.0972C11.4202 84.2782 10.9461 84.2531 10.5941 84.3185C10.5147 83.9698 10.2462 83.5456 10.3947 83.2857C10.6755 82.7962 11.1943 82.3905 12.2564 82.9739ZM156.912 3.41737C156.029 3.48946 155.339 3.54645 154.295 3.63195C155.005 1.99231 155.024 1.99232 156.912 3.41737ZM338.703 70.3445H336.526C337.789 69.8718 337.789 69.8718 338.703 70.3445ZM76.7648 6.87103H74.8664C76.1747 5.83996 76.1748 5.83996 76.7648 6.87103ZM142.85 3.46097C142.954 3.51797 142.952 3.70238 143.052 3.96559C142.443 4.0578 141.857 4.14835 140.817 4.30762C141.45 3.30673 141.912 2.94124 142.85 3.46097ZM161.816 1.81963C161.989 2.15494 162.153 2.47848 162.306 2.77691C161.948 2.93618 161.6 3.0938 161.252 3.2514C161.063 2.69814 160.597 2.07614 161.816 1.81963ZM161.244 3.25472C160.66 3.18934 160.074 3.12395 159.297 3.03677C160.271 2.26724 160.66 3.20278 161.252 3.2514L161.254 3.25304L161.244 3.25472ZM330.955 8.24743C330.973 8.15523 330.989 8.05966 331.008 7.96578C331.679 8.0496 332.349 8.13177 333.022 8.21392C333.004 8.32122 332.984 8.4285 332.965 8.53579C332.294 8.43855 331.624 8.34244 330.955 8.24743ZM151.632 3.15081H153.882C152.834 3.70239 152.307 4.12488 151.632 3.15081ZM198.86 0.99646C198.933 0.840388 199.024 0.690489 199.132 0.548828C199.326 0.642714 199.444 0.699704 199.562 0.756706C199.442 0.903006 199.308 1.04147 199.163 1.17083C199.144 1.18424 198.847 1.02999 198.86 0.99646Z" fill="#FF914D"/>
</svg>
