<svg width="676" height="618" viewBox="0 0 676 618" fill="none" xmlns="http://www.w3.org/2000/svg">
<path fill-rule="evenodd" clip-rule="evenodd" d="M22.7858 4.27351C25.4481 6.62172 28.6946 9.12621 30.003 9.83805C31.3105 10.5517 32.6579 12.038 32.9973 13.1391C33.3371 14.2417 34.0893 14.9975 34.6701 14.8185C35.2494 14.6399 38.2106 17.0112 41.249 20.0867C48.111 27.0356 61.1526 39.1576 63.2764 40.5613C67.6556 43.457 73.7488 46.7153 76.0324 47.3815C77.44 47.7924 82.87 49.4027 88.0974 50.9587C98.9078 54.1777 99.0241 54.1664 103.595 49.647C107.018 46.2635 120.828 41.4168 127.227 41.3553C134.346 41.2852 139.588 45.0042 141.608 51.5592C144.509 60.9716 143.844 73.0194 140.201 77.0237C137.271 80.2433 137.285 81.1467 140.454 94.1352C142.295 101.678 144.107 108.01 144.48 108.207C144.852 108.404 146.289 107.109 147.672 105.329C150.828 101.269 170.618 94.7572 173.598 96.797C174.662 97.526 177.379 101.168 179.637 104.892C182.809 110.126 185.695 112.645 192.349 115.984C198.997 119.32 201.745 121.715 204.412 126.501C208.703 134.203 210.101 144.965 207.699 151.806C204.701 160.347 193.105 169.178 178.852 173.774C170.303 176.532 170.185 176.637 171.731 180.149C172.901 182.803 172.505 184.768 170.191 187.791C167.266 191.616 166.858 191.774 163.417 190.431C158.797 188.626 155.982 185.649 152.547 178.934C148.93 171.865 141.325 161.657 139.982 162.071C139.392 162.253 138.409 160.78 137.798 158.797C135.995 152.949 142.017 153.123 146.321 159.045C150.542 164.851 159.795 172.302 163.057 172.523C165.7 172.7 164.381 169.15 156.693 155.384C152.149 147.251 150.23 138.609 152.084 134.628C154.885 128.614 155.526 126.613 155.097 125.22C154.42 123.025 149.357 125.063 149.187 127.601C148.951 131.084 142.052 134.149 134.967 133.916L128.528 133.705L129.965 138.367C132.133 145.402 129.808 146.236 121.033 141.567C116.576 139.195 109.744 137.138 105.482 136.885C92.9981 136.14 93.2808 136.325 89.8038 126.689C88.0499 121.826 85.9005 117.469 85.0298 117.006C84.1412 116.535 84.947 119.827 86.8663 124.504C90.6459 133.712 89.6166 135.71 83.2369 131.561C80.4208 129.731 78.8995 126.883 76.2996 118.578C72.7699 107.301 73.2053 104.737 79.6952 98.5782C82.7395 95.6875 82.0963 89.0014 78.4057 85.1853C72.3916 78.9643 67.4059 70.5431 68.3667 68.2286C69.0986 66.467 67.6901 64.3837 62.6286 59.7383C53.6582 51.5055 48.8051 48.8618 44.8817 50.0711C41.9653 50.97 41.4188 50.4273 39.7317 44.9539C38.5457 41.1062 36.4873 37.8868 34.1942 36.2926C31.4469 34.3808 8.67263 14.1195 0.684689 6.47777C0.183513 5.99788 3.86308 4.34608 8.85963 2.80599C17.8526 0.0340717 17.9971 0.049424 22.7858 4.27351ZM387.61 38.6362C392.277 41.0899 394.246 45.2985 391.169 46.2467C388.656 47.0215 379.604 41.9733 379.651 39.8252C379.715 36.9884 383.425 36.4348 387.61 38.6362ZM444.939 69.5508C451.702 68.603 457.048 71.0963 460.69 76.898C463.176 80.8552 460.269 85.1487 454.819 85.5674C448.061 86.0868 428.773 74.5924 433.801 73.0423C434.51 72.824 435.859 72.1517 436.797 71.5491C437.737 70.9446 441.4 70.046 444.939 69.5508ZM445.307 92.6957C451.786 95.6002 455.605 101.293 450.859 100.973C449.494 100.881 447.911 100.949 447.342 101.125C445.186 101.789 434.899 96.1281 434.212 93.8991C433.065 90.1777 438.402 89.5986 445.307 92.6957ZM320.543 129.764C321.754 130.404 323.387 133.011 324.172 135.557C325.19 138.861 326.24 139.988 327.837 139.496C334.418 137.468 345.098 144.505 345.381 151.057C345.481 153.379 346.226 153.796 348.836 152.992C353.777 151.469 365.954 152.122 369.532 154.101C376.163 157.77 380.246 162.999 382.703 170.969C385.432 179.822 384.7 186.139 379.989 194.396C373.666 205.481 355.958 208.547 343.738 200.676C335.899 195.625 330.753 181.172 332.716 169.721C333.576 164.713 333.275 164.327 327.799 163.433C324.595 162.909 323.697 161.613 320.698 153.195C318.335 146.56 316.522 143.399 314.882 143.046C311.998 142.427 309.668 135.674 311.285 132.617C311.925 131.406 313.775 130.006 315.395 129.507C317.015 129.008 319.332 129.123 320.543 129.764ZM488.318 93.2332C499.507 98.2664 500.515 102.837 490.491 103.077C484.636 103.217 479.388 100.293 476.748 95.4204C474.804 91.8321 474.879 91.1012 477.259 90.3674C478.791 89.8953 483.767 91.1846 488.318 93.2332ZM443.737 116.498C448.366 117.495 455.256 122.305 456.134 125.154C457.259 128.805 452.704 129.016 444.553 125.69C433.412 121.143 432.792 114.142 443.737 116.498ZM437.872 167.611C461.79 180.743 485.301 194.226 496.99 201.511C498.887 202.694 504.821 206.203 510.174 209.308C522.359 216.375 548.561 232.638 563.746 242.558C567.977 245.322 572.301 248.094 573.355 248.718C579.687 252.471 587.978 259.686 587.605 261.121C587.052 263.248 550.642 243.489 508.643 218.268C506.569 217.023 498.111 212.008 489.847 207.122C481.583 202.237 472.647 196.792 469.99 195.023C467.332 193.252 463.904 191.1 462.372 190.241C460.839 189.381 452.985 184.399 444.917 179.169C430.545 169.853 430.294 169.761 432.542 174.632C434.122 178.057 434.349 180.346 433.275 181.989C431.976 183.978 430.763 183.701 426 180.329C420.051 176.115 413.748 169.117 410.173 162.755C407.948 158.796 407.428 153.364 409.221 152.811C409.819 152.627 422.711 159.287 437.872 167.611ZM200.924 230.159C203.009 230.831 205.162 232.831 205.708 234.604C206.963 238.674 203.23 246.587 198.782 249.283C190.908 254.056 183.182 243.473 188.443 235.119C191.642 230.037 195.631 228.451 200.924 230.159ZM626.137 106.943C628.752 108.325 629.246 114.14 626.947 116.463C625.157 118.269 623.356 118.746 619.868 118.334C610.641 117.242 610.089 110.865 618.985 108.123C622.246 107.118 625.465 106.587 626.137 106.943ZM517.243 142.293C521.12 144.597 521.553 145.835 518.782 146.689C516.124 147.508 508.456 145.404 507.934 143.712C507.238 141.452 514.074 140.409 517.243 142.293ZM88.3032 283.239C97.5099 288.885 104.828 296.013 106.291 300.76C107.547 304.835 105.505 305.793 99.4857 303.951C88.3684 300.549 81.9957 295.337 78.7366 286.981C75.4017 278.429 78.4875 277.223 88.3032 283.239ZM565.814 152.094C573.19 153.524 581.397 157.602 586.22 162.235C593.578 169.305 591.872 173.018 581.065 173.453C573.781 173.746 566.794 170.754 558.521 163.799C548.927 155.731 552.767 149.566 565.814 152.094ZM613.654 147.838C619.239 149.522 620.973 150.976 619.461 152.707C616.678 155.892 606.034 153.016 604.711 148.721C604.218 147.122 609.537 146.595 613.654 147.838ZM393.121 224.702C393.524 226.009 392.791 227.019 391.323 227.176C387.594 227.579 386.101 224.45 389.519 223.396C391.242 222.865 392.72 223.402 393.121 224.702ZM662.179 155.559C664.209 156.887 664.402 157.654 663.25 159.832C662.026 162.148 661.353 162.327 657.983 161.24C654.918 160.251 654.333 159.479 655.151 157.51C656.497 154.269 659.1 153.546 662.179 155.559ZM699.683 146.61C708.031 149.689 707.059 161.996 698.424 162.553C692.675 162.924 691.945 162.639 691.031 159.673C690.227 157.065 693.92 146.466 695.837 145.875C696.393 145.704 698.123 146.035 699.683 146.61ZM406.695 238.838C408.605 240.088 408.867 240.938 407.992 243.047C406.517 246.595 403.672 247.29 401.963 244.521C398.834 239.447 401.933 235.724 406.695 238.838ZM280.143 286.73C293.428 293.496 333.259 315.974 348.188 325.129C352.257 327.624 358.905 331.463 362.961 333.661C369.597 337.254 388.94 349.064 403.994 358.711C407.11 360.708 414.49 365.284 420.394 368.881C432.807 376.442 445.83 385.74 446.344 387.408C446.539 388.039 446.125 388.733 445.423 388.95C443.75 389.465 411.874 372.681 393.915 361.827C386.129 357.122 377.251 351.863 374.186 350.144C365.766 345.419 355.353 339.239 336.824 327.971C310.861 312.184 302.126 306.751 297.648 303.603C295.377 302.007 291.57 300.409 289.189 300.054C286.806 299.7 284.236 298.242 283.476 296.815C282.717 295.388 279.259 292.312 275.793 289.978C268.527 285.088 263.777 280.583 265.375 280.101C265.981 279.917 272.627 282.901 280.143 286.73ZM792.414 125.707C792.75 127.825 791.859 129.509 789.92 130.424C786.603 131.985 784.945 129.463 786.882 125.8C788.819 122.137 791.837 122.087 792.414 125.707ZM625.733 174.836C631.65 174.367 641.059 178.057 645.557 182.609C648.101 185.184 649.922 187.787 649.603 188.39C648.675 190.143 642.515 191.638 642.077 190.215C641.858 189.506 639.817 189.079 637.542 189.268C634.822 189.493 631.449 187.937 627.694 184.725C619.858 178.019 619.327 175.344 625.733 174.836ZM724.147 145.854C726.659 147.182 727.104 152.461 724.915 154.988C720.967 159.547 712.082 155.342 714.313 149.969C715.349 147.478 721.974 144.705 724.147 145.854ZM237.939 299.302C239.099 303.066 238.817 303.782 236.002 304.231C233.588 304.614 232.418 303.816 231.626 301.248C230.835 298.68 231.353 297.362 233.563 296.319C236.143 295.105 236.778 295.539 237.939 299.302ZM817.861 137.231C821.43 138.664 821.917 139.422 821.474 142.853C820.594 149.663 811.467 152.292 807.678 146.826C803.979 141.493 811.298 134.599 817.861 137.231ZM710.994 171.08C712.782 172.179 713.003 172.896 712.006 174.361C708 180.247 701.072 180.754 701.119 175.159C701.151 171.351 707.302 168.812 710.994 171.08ZM787.684 153.07C793.571 155.166 795.224 159.836 792.259 165.995C789.648 171.425 787.465 172.328 780.568 170.831C775.427 169.715 771.752 165.8 772.028 161.731C772.181 159.457 778.69 152.558 781.388 151.811C782.242 151.574 785.075 152.141 787.684 153.07ZM436.854 263.514C438.897 266.118 438.573 272.819 436.276 275.484C432.075 280.356 421.301 276.074 421.731 269.701C422.032 265.26 434.289 260.245 436.854 263.514ZM364.684 286.924C365.011 287.984 366.28 290.703 367.506 292.966C369.218 296.127 369.242 297.231 367.605 297.735C365.078 298.514 362.876 296.009 361.143 290.385C360.309 287.682 360.595 286.072 361.985 285.643C363.142 285.287 364.357 285.863 364.684 286.924ZM634.615 208.59C637.736 209.721 637.874 210.043 636.415 212.801C634.326 216.752 629.816 216.406 629.176 212.246C628.553 208.208 630.308 207.028 634.615 208.59ZM758.495 175.026C758.821 178.133 755.477 182.38 753.519 181.345C751.56 180.309 753.188 175.154 755.939 173.674C757.516 172.827 758.307 173.245 758.495 175.026ZM543.756 243.598C549.436 247.093 550.67 248.989 547.833 249.863C545.255 250.658 538.028 246.328 537.144 243.46C536.074 239.988 537.952 240.026 543.756 243.598ZM421.527 285.403C426.196 288.179 426.804 291.776 422.811 293.007C418.839 294.231 414.953 292.039 414.55 288.349C414.147 284.658 417.728 283.147 421.527 285.403ZM182.732 359.135C198 359.806 218.8 367.992 229.711 377.623C234.206 381.591 234.89 383.037 237.148 393.338C241.089 411.318 240.204 412.76 229.869 405.18C226.594 402.778 221.515 400.313 218.584 399.702C213.614 398.667 213.126 398.804 211.4 401.706C208.063 407.321 203.82 407.272 198.946 401.562C196.52 398.72 190.979 394.724 186.632 392.685C175.965 387.68 168.847 382.391 164.019 375.882C160.405 371.009 160.111 370.057 161.136 366.509C162.082 363.227 163.402 362.245 168.96 360.692C172.637 359.665 178.833 358.963 182.732 359.135ZM722.65 192.491C726.23 192.722 727.875 194.676 727.24 197.937C726.541 201.529 720.987 203.494 717.669 201.325C715.685 200.027 715.547 199.095 716.903 196.185C718.656 192.428 718.934 192.249 722.65 192.491ZM450.164 282.26C454.655 285.98 454.215 289.471 449.056 291.062C446.13 291.963 444.378 291.593 443.142 289.812C438.406 282.981 443.9 277.071 450.164 282.26ZM675.224 215.973C680.175 224.145 675.495 231.738 667.014 229.291C661.74 227.768 660.648 223.77 664.131 218.737C668.044 213.079 672.758 211.906 675.224 215.973ZM508.874 274.278C514.476 277.886 515.574 279.775 512.602 280.691C510.726 281.269 500.885 275.323 500.237 273.221C499.494 270.81 504.429 271.415 508.874 274.278ZM695.478 222.275C698.053 223.636 698.599 229.321 696.309 230.909C691.726 234.087 684.769 230.568 686.033 225.712C686.522 223.831 693.573 221.266 695.478 222.275ZM414.046 310.405C417.684 312.328 418.339 315.69 415.683 318.783C413.18 321.696 406.429 318.771 405.75 314.478C405.141 310.629 409.978 308.254 414.046 310.405ZM674.062 240.381C678.52 242.738 677.672 245.171 671.758 246.994C666.641 248.571 665.996 248.412 665.525 245.459C664.92 241.656 670.357 238.421 674.062 240.381ZM274.063 369.158C289.68 371.988 317.12 386.76 319.182 393.449C319.762 395.331 318.91 395.922 314.791 396.496C309.081 397.29 309.007 397.265 291.414 388.856C277.448 382.181 267.82 374.486 268.657 370.668C269.114 368.587 269.82 368.389 274.063 369.158ZM768.131 226.305C769.929 226.795 770.055 227.469 768.795 229.851C767.1 233.057 762.959 233.565 762.069 230.677C761.763 229.685 762.393 228.182 763.469 227.338C765.834 225.481 765.436 225.57 768.131 226.305ZM620.499 273.034C623.004 274.357 622.403 276.229 619.319 276.705C615.289 277.325 612.95 274.336 616.588 273.215C618.066 272.759 619.827 272.677 620.499 273.034ZM449.798 327.186C452.471 328.598 451.599 330.394 447.913 331.067C442.906 331.986 440.572 329.005 445.185 327.583C447.049 327.008 449.126 326.829 449.798 327.186ZM634.694 275.895C635.021 276.957 634.584 278.904 633.723 280.221C632.473 282.132 631.623 282.394 629.515 281.518C625.097 279.682 625.276 276.681 629.89 275.259C632.528 274.446 634.32 274.683 634.694 275.895ZM679.635 265.558C682.151 266.887 682.885 272.748 680.624 273.445C679.385 273.827 677.616 276.1 676.693 278.497C674.857 283.268 670.566 285.264 665.85 283.541C661.793 282.059 660.998 278.786 663.384 273.395C664.963 269.827 666.666 268.531 671.886 266.922C675.475 265.816 678.963 265.202 679.635 265.558ZM481.498 334.278C491.112 339.84 488.509 351.417 477.511 352.001C473.581 352.211 467.809 347.414 466.369 342.743C464.066 335.271 473.798 329.824 481.498 334.278ZM753.186 252.055C760.677 257.237 759.866 264.564 751.488 267.408C742.806 270.356 734.772 264.457 736.993 256.763C738.73 250.744 747.576 248.171 753.186 252.055ZM512.07 324.689C513.766 326.85 511.117 329.553 507.541 329.311C506.248 329.224 504.891 328.186 504.526 327.004C503.647 324.15 510.095 322.172 512.07 324.689ZM718.007 263.074C718.367 266.314 712.565 269.403 711.657 266.456C711.056 264.507 713.305 261.836 716.328 260.904C717.092 260.668 717.849 261.645 718.007 263.074ZM694.756 269.531C699.332 271.112 699.093 276.968 694.394 278.417C689.566 279.905 684.754 277.25 685.72 273.632C686.688 270.005 690.767 268.155 694.756 269.531ZM764.821 249.121C766.75 249.626 766.783 250.482 765.005 253.853C763.498 256.713 762.251 257.661 760.919 256.956C756.748 254.751 760.159 247.898 764.821 249.121ZM788.376 249.189C791.377 252.245 791.484 252.794 789.641 255.711C788.533 257.463 786.47 259.252 785.056 259.688C779.39 261.434 772.135 252.826 776.431 249.455C780.894 245.952 785.106 245.858 788.376 249.189ZM206.865 433.698C211.107 433.745 212.069 434.379 212.651 437.518C213.287 440.945 212.728 441.514 206.4 443.877C201.123 445.848 198.507 446.057 195.531 444.744C190.206 442.394 190.002 440.636 194.658 437.21C199.22 433.853 200.02 433.623 206.865 433.698ZM681.232 292.73C683.571 294.153 683.656 294.712 681.893 297.076C679.552 300.22 676.507 301.371 673.038 300.43C670.942 299.861 670.838 299.233 672.315 296.068C674.364 291.676 677.542 290.486 681.232 292.73ZM789.693 264.238C794.007 266.558 794.864 270.004 791.874 273.023C788.709 276.22 782.865 276.505 779.939 273.609C778.111 271.799 778.091 270.558 779.842 267.513C782.499 262.892 785.396 261.928 789.693 264.238ZM512.726 349.773C516.941 351.814 519.693 357.476 517.621 359.845C516.956 360.606 514.083 361.495 511.234 361.82C506.199 362.394 506.017 362.244 504.669 356.394C503.572 351.631 503.847 350.113 505.991 349.101C507.48 348.397 510.51 348.7 512.726 349.773ZM759.998 279.139C764.625 282.339 765.963 285.44 764.417 289.374C762.481 294.3 759.121 296.676 754.723 296.225C744.35 295.163 740.533 289.716 745.318 282.801C749.236 277.137 755.021 275.695 759.998 279.139ZM258.66 432.084C265.431 434.268 264.62 442.396 257.519 443.53C254.923 443.943 253.726 443.068 252.335 439.735C249.99 434.122 253.146 430.306 258.66 432.084ZM280.055 429.553C281.686 431.731 280.594 436.683 278.329 437.382C274.989 438.411 272.339 435.655 273.482 432.343C274.686 428.854 278.36 427.294 280.055 429.553ZM302.145 428.777C302.414 430.523 301.924 432.457 301.059 433.071C298.73 434.724 297.419 428.923 299.715 427.122C301.167 425.981 301.779 426.398 302.145 428.777ZM616.563 331.863C616.85 332.893 616.723 335.448 616.283 337.542C615.549 341.026 615.258 341.203 612.845 339.624C610.921 338.366 610.411 337.144 610.959 335.109C611.895 331.634 615.857 329.337 616.563 331.863ZM727.225 298.557C728.247 298.604 729.017 299.655 728.933 300.895C728.764 303.386 722.313 306.013 721.65 303.861C721.094 302.058 724.886 298.448 727.225 298.557ZM326.338 422.407C329.646 423.307 329.68 428.39 326.387 429.946C323.026 431.533 319.83 428.247 321.299 424.71C322.461 421.912 323.231 421.56 326.338 422.407ZM664.6 324.08C670.814 328.885 672.442 332.219 671.557 338.319C670.076 348.529 659.945 355.859 652.593 352.04C641.336 346.192 638.246 339.733 642.685 331.338C645.276 326.438 646.664 325.385 653.183 323.376C659.782 321.341 661.168 321.426 664.6 324.08ZM695.556 315.691C698.101 318.932 696.872 322.197 692.615 323.509C687.322 325.141 684.175 323.192 685.57 319.148C686.839 315.471 693.56 313.145 695.556 315.691ZM473.011 386.95C477.293 392.086 478.722 395.582 476.787 396.179C473.978 397.044 467.729 388.24 468.648 384.709C469.084 383.038 470.251 383.636 473.011 386.95ZM187.614 476.142C191.465 476.464 193.439 480.267 191.581 483.781C190.109 486.565 183.895 488.506 176.262 488.567C171.7 488.603 170.118 487.899 169.379 485.505C168.652 483.144 169.412 481.857 172.534 480.167C178.03 477.19 183.304 475.783 187.614 476.142ZM701.227 324.89C705.312 327.05 707.469 335.349 704.678 338.169C701.321 341.56 698.449 342.039 694.377 339.885C689.8 337.465 690.07 332.396 695.06 327.047C698.085 323.805 698.742 323.576 701.227 324.89ZM255.52 467.713C255.593 469.66 255.803 471.772 255.988 472.407C256.172 473.042 254.841 473.798 253.029 474.088C250.615 474.47 249.445 473.673 248.653 471.105C247.783 468.281 248.333 467.265 251.479 465.887C254.987 464.351 255.402 464.539 255.52 467.713ZM356.917 442.798C366.08 447.716 367.134 447.919 375.663 446.413C383.983 444.945 395.948 448.153 397.19 452.184C397.51 453.222 398.512 454.087 399.419 454.107C401.462 454.154 406.171 464.105 406.427 468.92C406.657 473.254 399.102 481.598 393.488 483.208C389.006 484.494 378.763 483.799 372.819 481.807C368.11 480.228 364.067 474.287 361.058 464.524C359.296 458.809 357.384 455.936 352.475 451.628C349.001 448.581 345.839 445.052 345.449 443.786C344.268 439.953 350.595 439.406 356.917 442.798ZM527.837 391.307C531.443 392.792 534.725 395.078 535.129 396.389C535.534 397.701 534.649 401.725 533.165 405.331C529.678 413.806 524.603 415.695 517.542 411.146C511.176 407.046 509.254 401.058 512.396 395.118C515.567 389.119 519.913 388.046 527.837 391.307ZM724.407 332.045C727.778 333.424 728.415 334.309 727.796 336.761C726.578 341.597 720.924 343.25 717.433 339.794C715.019 337.404 714.67 336.34 715.582 334.146C717.075 330.553 719.401 329.999 724.407 332.045ZM704.622 351.341C706.165 352.157 707.358 353.863 707.272 355.132C707.063 358.221 699.99 360.258 696.775 358.157C694.594 356.73 694.519 356.06 696.277 353.703C698.943 350.124 701.142 349.501 704.622 351.341ZM647.501 372.052C649.532 373.381 649.722 374.151 648.56 376.349C647.339 378.654 646.684 378.869 643.848 377.89C641.048 376.924 640.73 376.328 641.73 373.92C643.201 370.381 644.367 370.003 647.501 372.052ZM797.577 330.928C798.495 333.904 795.901 336.578 792.333 336.337C789.286 336.132 789.099 335.268 791.399 332.063C794.088 328.318 796.629 327.851 797.577 330.928ZM437.429 443.36C443.351 446.321 445.14 448.941 441.918 449.934C439.662 450.63 435.218 448.574 431.922 445.309C428.16 441.586 431.51 440.4 437.429 443.36ZM597.994 403.409C598.811 404.123 599.041 405.539 598.504 406.556C597.125 409.163 592.137 409.418 591.367 406.92C590.59 404.398 595.903 401.583 597.994 403.409ZM512.088 431.269C513.684 436.448 509.489 441.135 503.613 440.738C497.758 440.343 500.499 431.878 507.145 429.829C510.268 428.867 511.454 429.212 512.088 431.269ZM781.426 354.789C783.377 355.094 786.164 356.963 787.62 358.942C789.843 361.962 789.943 363.287 788.239 367.192C785.441 373.607 780.038 375.002 773.065 371.11C766.657 367.534 766.45 367.131 768.44 362.114C770.237 357.585 776.549 354.025 781.426 354.789ZM712.357 376.278C716.173 377.596 716.946 382.596 713.607 384.373C710.767 385.886 703.601 384.837 702.979 382.817C702.478 381.192 705.708 376.424 707.792 375.713C708.6 375.436 710.655 375.69 712.357 376.278ZM283.888 507.443C288.779 507.085 290.812 516.478 286.155 517.914C283.651 518.685 278.625 516.017 277.851 513.506C277.114 511.114 280.525 507.69 283.888 507.443ZM817.265 349.683C822.316 352.354 822.671 355.158 818.486 359.268C814.975 362.714 814.712 362.744 810.327 360.207C806.652 358.082 803.314 353.901 804.902 353.411C805.1 353.35 807.159 352.061 809.478 350.547C812.975 348.266 814.305 348.118 817.265 349.683ZM748.844 368.693C749.866 368.741 750.635 369.792 750.552 371.031C750.383 373.523 743.932 376.15 743.269 373.998C742.713 372.194 746.505 368.585 748.844 368.693ZM340.174 501.829C349.897 510.326 348.864 524.766 338.458 525.826C328.146 526.877 325.02 521.425 328.409 508.296C331.062 498.02 333.98 496.415 340.174 501.829ZM697.59 401.03C705.674 407.574 717.784 414.658 736.557 423.828C746.079 428.48 750.082 431.451 764.847 444.816C780.123 458.644 784.139 465.796 777.735 467.769C770.834 469.897 739.694 451.043 727.259 437.211C725.192 434.911 721.251 430.538 718.502 427.49C715.754 424.443 713.283 421.231 713.012 420.35C712.74 419.47 711.929 418.933 711.21 419.154C710.49 419.376 709.043 418.32 707.995 416.807C706.947 415.295 705.294 413.557 704.324 412.947C699.889 410.154 686.304 398.217 685.783 396.655C684.408 392.53 689.347 394.359 697.59 401.03ZM371.449 504.218C374.47 505.816 376.435 512.87 374.748 516.06C371.451 522.297 361.481 520.714 359.29 513.605C357.857 508.956 359.65 506.012 364.899 504.394C367.29 503.657 370.238 503.578 371.449 504.218ZM465.735 478.568C467.657 481.015 463.274 489.635 460.214 489.428C456.913 489.205 455.855 485.083 458.119 481.275C460.388 477.456 463.888 476.213 465.735 478.568ZM577.747 458.244C579.904 459.384 580.52 463.689 578.728 465.095C576.154 467.116 570.912 464.839 571.118 461.79C571.292 459.22 575.419 457.013 577.747 458.244ZM617.422 452.688C626.476 458.411 620.561 471.648 610.579 468.002C606.471 466.502 606.049 464.295 608.562 457.466C611.023 450.777 612.845 449.794 617.422 452.688ZM641.8 454.029C647.015 459.192 639.5 465.7 632.873 461.761C630.114 460.12 629.704 459.272 630.613 457.082C632.153 453.374 639.197 451.452 641.8 454.029ZM353.877 541.891C357.27 543.685 357.4 546.124 354.34 550.545C351.051 555.301 348.496 556.355 344.889 554.447C338.858 551.259 340.237 544.252 347.327 542.067C349.718 541.33 352.666 541.25 353.877 541.891ZM710.155 433.371C712.055 435.031 709.905 439.524 706.746 440.498C703.413 441.525 702.86 439.816 705.231 435.827C707.386 432.202 708.296 431.748 710.155 433.371ZM219.887 588.644C222.391 592.884 221.806 596.116 218.337 597.186C214.683 598.312 209.968 594.79 210.216 591.121C210.437 587.832 218.228 585.836 219.887 588.644ZM500.193 506.048C506.683 510.141 507.42 512.345 504.394 518.629C501.25 525.159 496.604 526.42 490.402 522.424C483.165 517.763 482.573 514.199 487.919 507.475C491.816 502.572 494.237 502.291 500.193 506.048ZM459.371 526.68C468.013 531.25 470.436 538.484 466.365 547.562C463.248 554.513 461.015 555.76 453.808 554.569C446.014 553.282 442.796 550.605 440.429 543.44C438.088 536.353 439.521 531.893 445.682 527.088C450.737 523.146 452.585 523.091 459.371 526.68ZM626.97 477.443C629.201 479.393 626.479 483.671 622.16 485.003C618.789 486.042 617.944 485.668 617.042 482.74C616.098 479.679 616.574 479.044 620.787 477.745C623.443 476.927 626.224 476.792 626.97 477.443ZM736.758 449.337C739.567 451.797 739.144 455.773 735.702 459.247C732.254 462.731 725.005 460.256 724.082 455.278C723.472 451.996 724.102 451.218 728.867 449.364C733.014 447.751 734.94 447.744 736.758 449.337ZM702.096 462.179C706.54 463.181 708.189 464.669 709.513 468.873C710.922 473.35 707.658 478.617 702.486 480.212C698.288 481.506 689.347 478.203 688.424 475.02C686.684 469.011 695.533 460.7 702.096 462.179ZM419.363 559.002C420.151 561.561 419.563 563.011 417.139 564.48C412.846 567.082 411.465 566.204 412.101 561.276C412.805 555.827 417.893 554.234 419.363 559.002ZM673.976 483.07C674.479 484.702 671.545 489.612 669.669 490.278C667.652 490.995 667.021 485.314 668.951 483.801C671.867 481.512 673.425 481.285 673.976 483.07ZM543.168 525.669C546.365 527.359 545.547 530.308 541.685 531.029C539.308 531.473 537.429 530.923 537.043 529.671C536.363 527.465 540.927 524.484 543.168 525.669ZM370.304 579.237C373.708 579.344 377.274 582.256 378.449 585.889C379.702 589.759 374.833 594.066 368.622 594.581C365.247 594.861 364.163 594.169 363.28 591.172C361.474 585.054 364.995 579.068 370.304 579.237ZM637.724 498.76C641.602 499.663 642.826 504.25 639.96 507.146C638.272 508.85 636.727 509.241 634.26 508.586C630.068 507.475 629.378 505.505 631.771 501.478C633.913 497.874 633.911 497.874 637.724 498.76ZM581.112 518.906C584.065 520.662 585.815 523.579 586.824 528.432C587.939 533.791 574.056 537.629 572.446 532.406C571.402 529.019 573.346 521.915 576.069 519.165C577.533 517.685 578.936 517.613 581.112 518.906ZM306.271 608.72C312.556 613.606 306.717 620.855 299.804 616.747C297.202 615.2 296.676 614.119 297.205 611.404C298.064 606.996 302.401 605.712 306.271 608.72ZM605.023 519.71C609.622 522.142 609.006 528.993 604.052 530.52C600.226 531.699 594.603 527.573 595.491 524.236C596.427 520.724 601.966 518.093 605.023 519.71ZM675.281 502.257C676.246 505.386 673.216 508.214 669.705 507.461C667.534 506.996 667.43 506.558 668.843 503.883C671.001 499.805 674.271 498.978 675.281 502.257ZM588.369 542.664C590.164 542.527 591.254 543.532 591.587 545.629C591.967 548.017 591.001 549.253 587.667 550.643C583.991 552.177 583.096 552.008 582.367 549.644C581.372 546.415 584.332 542.973 588.369 542.664ZM695.861 514.209C697.14 514.245 699.706 515.211 701.565 516.357C704.807 518.353 704.873 518.569 703.194 521.641C700.086 527.33 693.978 528.822 689.983 524.868C687.587 522.495 687.329 521.588 688.451 519.494C690.265 516.109 693.041 514.129 695.861 514.209ZM407.386 606.109C410.621 606.192 411.319 611.431 408.223 612.385C404.424 613.556 400.155 609.327 403.224 607.433C404.448 606.678 406.322 606.082 407.386 606.109ZM664.693 528.246C668.402 528.586 673.453 531.209 674.036 533.098C674.435 534.394 671.671 535.79 664.068 538.134C656.465 540.477 653.394 540.88 652.995 539.584C651.725 535.465 659.649 527.785 664.693 528.246ZM446.946 599.769C452.9 601.689 452.144 603.455 444.334 605.862L437.116 608.087L439.818 603.414C443.019 597.883 442.277 598.262 446.946 599.769Z" fill="#FF914D"/>
</svg>
