<svg width="31" height="30" viewBox="0 0 31 30" fill="none" xmlns="http://www.w3.org/2000/svg">
<rect x="1.26482" y="0.679549" width="28.1498" height="28.1498" rx="0.654647" fill="#FFB061" stroke="white" stroke-width="1.30929"/>
<path d="M18.3189 22.6178H12.1398C10.82 22.6178 9.55407 22.0942 8.61985 21.162C7.68562 20.2297 7.1594 18.9649 7.15665 17.645V12.1989C7.1594 10.879 7.68562 9.61422 8.61985 8.68194C9.55407 7.74966 10.82 7.22607 12.1398 7.22607H18.3189C19.6388 7.22607 20.9047 7.74966 21.8389 8.68194C22.7731 9.61422 23.2993 10.879 23.3021 12.1989V17.645C23.2993 18.9649 22.7731 20.2297 21.8389 21.162C20.9047 22.0942 19.6388 22.6178 18.3189 22.6178ZM12.1398 8.33068C11.1142 8.33178 10.131 8.73967 9.4058 9.46486C8.68062 10.19 8.27273 11.1733 8.27163 12.1989V17.645C8.27273 18.6706 8.68062 19.6539 9.4058 20.379C10.131 21.1042 11.1142 21.5121 12.1398 21.5132H18.3189C19.3438 21.511 20.326 21.1026 21.0502 20.3776C21.7745 19.6525 22.1819 18.6699 22.183 17.645V12.1989C22.1819 11.1733 21.774 10.19 21.0488 9.46486C20.3236 8.73967 19.3403 8.33178 18.3148 8.33068H12.1398Z" fill="#FFFCDC"/>
<path d="M15.2294 19.3503C14.3532 19.3507 13.4967 19.0912 12.7681 18.6047C12.0394 18.1182 11.4715 17.4266 11.136 16.6172C10.8005 15.8079 10.7127 14.9173 10.8835 14.058C11.0543 13.1987 11.4762 12.4093 12.0957 11.7898C12.7152 11.1703 13.5045 10.7485 14.3638 10.5777C15.2231 10.4069 16.1137 10.4947 16.9231 10.8302C17.7324 11.1657 18.4241 11.7336 18.9105 12.4623C19.397 13.1909 19.6565 14.0474 19.6561 14.9235C19.6544 16.0971 19.1875 17.2221 18.3577 18.0519C17.5279 18.8817 16.4029 19.3486 15.2294 19.3503ZM15.2294 11.6014C14.5723 11.6014 13.93 11.7963 13.3837 12.1613C12.8374 12.5263 12.4116 13.0452 12.1601 13.6522C11.9087 14.2593 11.8429 14.9272 11.9711 15.5717C12.0993 16.2161 12.4157 16.808 12.8803 17.2726C13.3449 17.7372 13.9368 18.0536 14.5812 18.1818C15.2257 18.31 15.8936 18.2442 16.5007 17.9928C17.1077 17.7413 17.6265 17.3155 17.9916 16.7692C18.3566 16.2229 18.5515 15.5806 18.5515 14.9235C18.5515 14.4873 18.4655 14.0553 18.2986 13.6522C18.1316 13.2492 17.8869 12.8829 17.5784 12.5745C17.27 12.266 16.9037 12.0213 16.5007 11.8543C16.0976 11.6874 15.6656 11.6014 15.2294 11.6014Z" fill="#FFFCDC"/>
<path d="M20.5075 10.6311C20.5079 10.8131 20.4543 10.9912 20.3535 11.1427C20.2527 11.2942 20.1092 11.4124 19.9411 11.4824C19.7731 11.5523 19.5881 11.5708 19.4095 11.5356C19.231 11.5003 19.0669 11.4129 18.938 11.2843C18.8092 11.1558 18.7214 10.9919 18.6857 10.8134C18.65 10.6349 18.6681 10.4499 18.7377 10.2817C18.8073 10.1135 18.9251 9.9697 19.0765 9.86854C19.2278 9.76738 19.4057 9.71338 19.5877 9.71338C19.7084 9.71311 19.8279 9.73665 19.9395 9.78264C20.0511 9.82864 20.1525 9.8962 20.238 9.98144C20.3234 10.0667 20.3912 10.168 20.4374 10.2794C20.4837 10.3909 20.5075 10.5104 20.5075 10.6311Z" fill="#FFFCDC"/>
</svg>
