<svg width="32" height="25" viewBox="0 0 32 25" fill="none" xmlns="http://www.w3.org/2000/svg">
<path d="M27.9157 3.56512L28.2037 4.41359C28.9846 4.31629 29.7507 4.15657 30.4924 3.93406C29.8601 4.64962 29.1485 5.28899 28.3657 5.83372L28.1565 5.97932L28.1702 6.23387C28.1844 6.49715 28.1845 6.74796 28.1845 7.02721C28.1845 15.1007 21.8553 24.4054 10.3343 24.4054C7.48208 24.4054 4.78274 23.7487 2.38856 22.5848C5.25011 22.5154 8.01665 21.5427 10.2688 19.8057L11.3015 19.0093L9.99757 18.9861C8.74909 18.9639 7.54033 18.5611 6.54116 17.8359C5.74936 17.2612 5.12109 16.5074 4.70691 15.6457C5.47743 15.7022 6.25427 15.63 7.00353 15.4302L6.97274 14.5392C4.46098 14.0522 2.52457 12.0199 2.22542 9.51596C2.96899 9.80311 3.78484 9.98251 4.65159 9.98251H6.23612L4.89539 9.13801C3.28564 8.12406 2.24517 6.3402 2.24517 4.32484C2.24517 3.4969 2.42475 2.70297 2.74993 1.98856C5.98605 5.58069 10.6656 7.92793 15.8896 8.18525L16.4944 8.21505L16.3577 7.62508C16.2602 7.20423 16.2046 6.75684 16.2046 6.29684C16.2046 3.09735 18.8687 0.487715 22.1496 0.487715C23.9169 0.487715 25.4595 1.16903 26.5549 2.3307L26.729 2.51534L26.9778 2.46536C28.0309 2.25381 29.0483 1.93044 30.0078 1.49438C29.5003 2.34671 28.7777 3.05933 27.9157 3.56512Z" fill="#BFE0F7" stroke="white" stroke-width="0.914883"/>
</svg>
