<svg width="28" height="32" viewBox="0 0 28 32" fill="none" xmlns="http://www.w3.org/2000/svg">
<g clip-path="url(#clip0_1_379)">
<rect width="25.1578" height="23.9306" transform="translate(1.22717 1.33594)" fill="black"/>
<path d="M13.6716 7.60619C14.2654 7.60437 14.8568 7.6414 15.4422 7.71634L15.7473 7.3677L15.9668 7.11676L16.1167 6.9455L16.3437 6.96171L16.357 6.96266C18.0487 7.04684 19.6722 7.65609 21.0017 8.70575L20.917 8.81302L21.0701 8.73795C22.5082 11.5344 23.3107 14.612 23.4227 17.7509H23.8509L23.3541 18.4687L23.3423 18.4857L23.337 18.4934L23.3369 18.4934C22.7636 19.2864 22.0101 19.932 21.1384 20.3769C20.2668 20.8218 19.302 21.0533 18.3234 21.0524L18.3197 21.0524V21.0523L18.1746 21.051L17.9635 21.0491L17.828 20.8873L18.1788 20.5936L17.828 20.8872L17.828 20.8872L17.8279 20.8871L17.8275 20.8867L17.8263 20.8852L17.8213 20.8793L17.8023 20.8565L17.7314 20.7713C17.6707 20.6983 17.5849 20.5948 17.4844 20.4725C17.2835 20.2284 17.0226 19.9081 16.7846 19.6067L16.5962 19.368C15.7023 19.5785 14.785 19.685 13.8624 19.684M13.6716 7.60619C13.6718 7.60619 13.6721 7.60619 13.6723 7.60619V8.06363L13.6709 7.60619C13.6711 7.60619 13.6714 7.60619 13.6716 7.60619ZM13.6716 7.60619C13.1559 7.60622 12.6468 7.63459 12.1457 7.68985L11.8319 7.31334L11.6751 7.12514L11.5292 6.95011L11.3017 6.96107C9.59501 7.04329 7.9569 7.65759 6.61701 8.71782L6.86301 9.03712L6.51015 8.85479C5.10281 11.5785 4.25676 14.7858 4.20071 18.1825L4.20065 18.1825V18.1901V18.2084V18.3547L4.28561 18.4739C4.87095 19.295 5.64934 19.9594 6.55212 20.4086C7.16961 20.7158 7.83232 20.9159 8.51205 21.0026L8.47329 21.0497H9.12345C9.23622 21.0528 9.34921 21.0527 9.46232 21.0496L9.45606 20.6042L9.79497 20.8828L9.795 20.8828L9.79508 20.8827L9.79542 20.8823L9.79672 20.8807L9.80175 20.8746L9.82114 20.8509L9.89368 20.7624C9.9557 20.6866 10.0433 20.5793 10.1456 20.4534C10.3501 20.2018 10.6143 19.8744 10.8515 19.574L11.0306 19.3471C11.9537 19.5731 12.9044 19.6871 13.8624 19.684M13.8624 19.684C13.862 19.684 13.8616 19.684 13.8612 19.684L13.8618 19.2265L13.8634 19.684C13.863 19.684 13.8627 19.684 13.8624 19.684ZM15.9755 13.9137C16.16 13.7933 16.3752 13.7285 16.5953 13.7268C17.221 13.7582 17.7188 14.2593 17.7475 14.8815V15.0012C17.7244 15.213 17.643 15.4145 17.5119 15.583C17.3747 15.7594 17.1891 15.8921 16.9777 15.9647C16.7663 16.0373 16.5384 16.0467 16.3217 15.9919C16.1051 15.937 15.9091 15.8202 15.7578 15.6558C15.6064 15.4913 15.5063 15.2864 15.4696 15.0659C15.4328 14.8455 15.4611 14.6191 15.551 14.4145C15.6408 14.2098 15.7883 14.0358 15.9755 13.9137ZM10.0904 14.1412C10.3044 13.9068 10.5971 13.7595 10.9126 13.7272C11.5331 13.7711 12.0236 14.2873 12.0268 14.9203L12.0244 15.0005L12.2752 15.008L12.0242 15.0102V15.0141L12.1537 15.0161L12.0243 15.0184L12.0255 15.0872C12.0246 15.3988 11.9037 15.6982 11.6879 15.9232C11.4775 16.1424 11.1928 16.2745 10.8902 16.2939C10.5816 16.2569 10.2963 16.1097 10.0871 15.8789C9.87136 15.6407 9.75214 15.3307 9.75274 15.0094C9.75335 14.6881 9.87373 14.3785 10.0904 14.1412ZM26.9878 3.79766H26.9891V30.4625C25.6931 29.3187 25.0941 28.7941 24.5027 28.2611C23.7073 27.5444 22.9256 26.8125 20.4808 24.539L19.2767 23.4192L19.7295 24.9999L20.3936 27.318L3.21518 27.318C3.21496 27.318 3.21475 27.318 3.21453 27.318C2.4825 27.3158 1.78118 27.0235 1.26417 26.5052C0.747058 25.9869 0.456502 25.2846 0.45616 24.5524C0.45616 24.5524 0.45616 24.5523 0.45616 24.5523L0.45616 3.33238C0.456157 2.60026 0.74645 1.89802 1.2634 1.3796C1.7802 0.861329 2.48136 0.56906 3.21324 0.566817H24.2294C24.9614 0.569059 25.6628 0.861312 26.1798 1.37959C26.6969 1.89796 26.9874 2.60018 26.9878 3.33238C26.9878 3.33244 26.9878 3.3325 26.9878 3.33256V3.34022V3.79766Z" fill="#E27FA5" stroke="white" stroke-width="0.914883"/>
</g>
<defs>
<clipPath id="clip0_1_379">
<rect width="27.4465" height="31.3674" fill="white" transform="translate(0 0.109375)"/>
</clipPath>
</defs>
</svg>
