<svg width="28" height="26" viewBox="0 0 28 26" fill="none" xmlns="http://www.w3.org/2000/svg">
<mask id="path-1-inside-1_1_393" fill="white">
<path d="M1.80237 14.9022L1.89699 14.7512L7.69091 5.64315C7.71032 5.61321 7.73737 5.58906 7.76923 5.57322C7.8011 5.55738 7.83661 5.55043 7.87206 5.55309C7.90751 5.55576 7.94159 5.56795 7.97076 5.58838C7.99992 5.60882 8.02309 5.63675 8.03784 5.66926C9.00257 7.84929 9.84114 10.5608 9.44783 12.2485C9.28457 12.9422 8.82632 13.8821 8.30871 14.7512C8.24231 14.8783 8.16987 15.0021 8.09165 15.1223C8.07291 15.1491 8.04784 15.1708 8.0187 15.1854C7.98955 15.2001 7.95724 15.2072 7.92467 15.2062H1.97491C1.9394 15.2067 1.9044 15.1976 1.87363 15.1798C1.84286 15.1619 1.81747 15.1361 1.80016 15.1049C1.78285 15.0737 1.77426 15.0384 1.7753 15.0027C1.77634 14.967 1.78698 14.9323 1.80608 14.9022H1.80237ZM27.6162 18.0352C27.6167 18.075 27.6055 18.1141 27.5841 18.1476C27.5626 18.181 27.5319 18.2075 27.4956 18.2235C27.0448 18.4156 25.5105 19.128 24.8723 20.0175C23.2434 22.2964 22.0004 25.5562 19.2175 25.5562H7.61485C6.63521 25.5547 5.66547 25.3592 4.76103 24.9809C3.8566 24.6025 3.0352 24.0487 2.34379 23.3511C1.65238 22.6535 1.1045 21.8258 0.731467 20.9152C0.358436 20.0047 0.167563 19.0292 0.169757 18.0445V17.9102C0.169757 17.8021 0.258809 17.7126 0.370123 17.7126H6.83565C6.96551 17.7126 7.05828 17.83 7.049 17.9587C7.00076 18.3802 7.08054 18.8147 7.2809 19.2082C7.66308 19.9914 8.46084 20.48 9.31982 20.48H12.522V17.968H9.35321C9.31608 17.9676 9.27976 17.9571 9.24816 17.9375C9.21657 17.9179 9.19089 17.89 9.17391 17.8568C9.15692 17.8236 9.14926 17.7864 9.15176 17.7491C9.15426 17.7119 9.16682 17.676 9.18809 17.6454L9.30497 17.4776C9.60181 17.0468 10.0304 16.3848 10.4571 15.6276C10.7465 15.1167 11.0285 14.5721 11.2548 14.0239C11.2994 13.9269 11.3346 13.8243 11.3754 13.7255C11.4366 13.5502 11.4997 13.3861 11.5443 13.2238C11.5879 13.0863 11.6282 12.9476 11.6648 12.808C11.7706 12.3417 11.8151 11.8494 11.8151 11.3403C11.8151 11.1389 11.8077 10.9282 11.7891 10.7305C11.7799 10.5123 11.752 10.2923 11.7261 10.0741C11.7053 9.87885 11.6756 9.6847 11.637 9.49223C11.5871 9.19917 11.5264 8.90805 11.4552 8.61948L11.4292 8.50758C11.3736 8.30618 11.3253 8.11596 11.2623 7.91642C11.0856 7.30364 10.8826 6.69886 10.6537 6.10377C10.574 5.87993 10.4861 5.65911 10.3903 5.44175C10.2567 5.1098 10.1194 4.80956 9.99513 4.52796C9.93328 4.40732 9.87512 4.2848 9.82073 4.16058C9.76039 4.02657 9.69667 3.89412 9.62964 3.76337C9.58512 3.66453 9.53131 3.56942 9.49607 3.47991L9.10461 2.75634C9.05081 2.6575 9.13986 2.53629 9.24746 2.56799L11.6964 3.23375H11.7149L12.0359 3.32699L12.3921 3.42769L12.522 3.46312V2.00293C12.522 1.29615 13.0822 0.723637 13.7817 0.723637C13.9468 0.723191 14.1104 0.756333 14.2625 0.821071C14.4145 0.885809 14.552 0.980803 14.6666 1.10034C14.9035 1.3405 15.0368 1.66475 15.0377 2.00293V4.17364L15.2993 4.24637C15.3178 4.25569 15.3401 4.26502 15.3568 4.27807C15.4199 4.32283 15.5126 4.39369 15.6295 4.48321C15.7223 4.55407 15.8206 4.64358 15.9356 4.73869C16.302 5.03871 16.6572 5.35222 17.0005 5.67858C17.3975 6.04969 17.8428 6.48421 18.2695 6.96721C18.3901 7.10521 18.5051 7.23948 18.6257 7.38866C18.7407 7.53599 18.8706 7.67958 18.9782 7.82131C19.1248 8.01526 19.2751 8.21667 19.4142 8.42553C19.4754 8.52437 19.5515 8.62694 19.609 8.72577C19.7871 8.99058 19.9392 9.26286 20.0858 9.53699C20.1489 9.66194 20.2101 9.79994 20.2639 9.93421C20.429 10.3016 20.5589 10.6727 20.6387 11.0494C20.665 11.1293 20.6831 11.2118 20.6925 11.2956V11.3142C20.7184 11.4205 20.7277 11.538 20.737 11.6573C20.7892 12.2085 20.7221 12.7646 20.5403 13.2872C20.4828 13.4439 20.429 13.6043 20.3585 13.7609C20.2194 14.0779 20.0598 14.4006 19.8687 14.6971C19.8057 14.809 19.7296 14.9246 19.6591 15.0365C19.5793 15.154 19.494 15.2659 19.4235 15.3722C19.3215 15.5134 19.2144 15.6508 19.1025 15.7843C19.0042 15.9186 18.9059 16.0528 18.7945 16.174C18.6443 16.3568 18.4977 16.5284 18.34 16.6925C18.251 16.8006 18.1545 16.9125 18.0506 17.0095C17.9541 17.1214 17.8502 17.2202 17.7612 17.3097C17.6053 17.4664 17.4829 17.5839 17.3753 17.6865L17.1211 17.914C17.0857 17.9497 17.0377 17.9698 16.9875 17.9699H15.0377V20.48H17.4903C18.0376 20.48 18.5589 20.2861 18.9819 19.9243C19.1248 19.7993 19.7518 19.2529 20.4958 18.4287C20.52 18.4006 20.5525 18.381 20.5886 18.3727L27.3602 16.4016C27.3899 16.3929 27.4213 16.3913 27.4517 16.3969C27.4822 16.4024 27.5109 16.415 27.5357 16.4336C27.5605 16.4522 27.5807 16.4764 27.5947 16.5041C27.6086 16.5319 27.616 16.5625 27.6162 16.5936V18.0352Z"/>
</mask>
<path d="M1.80237 14.9022L1.89699 14.7512L7.69091 5.64315C7.71032 5.61321 7.73737 5.58906 7.76923 5.57322C7.8011 5.55738 7.83661 5.55043 7.87206 5.55309C7.90751 5.55576 7.94159 5.56795 7.97076 5.58838C7.99992 5.60882 8.02309 5.63675 8.03784 5.66926C9.00257 7.84929 9.84114 10.5608 9.44783 12.2485C9.28457 12.9422 8.82632 13.8821 8.30871 14.7512C8.24231 14.8783 8.16987 15.0021 8.09165 15.1223C8.07291 15.1491 8.04784 15.1708 8.0187 15.1854C7.98955 15.2001 7.95724 15.2072 7.92467 15.2062H1.97491C1.9394 15.2067 1.9044 15.1976 1.87363 15.1798C1.84286 15.1619 1.81747 15.1361 1.80016 15.1049C1.78285 15.0737 1.77426 15.0384 1.7753 15.0027C1.77634 14.967 1.78698 14.9323 1.80608 14.9022H1.80237ZM27.6162 18.0352C27.6167 18.075 27.6055 18.1141 27.5841 18.1476C27.5626 18.181 27.5319 18.2075 27.4956 18.2235C27.0448 18.4156 25.5105 19.128 24.8723 20.0175C23.2434 22.2964 22.0004 25.5562 19.2175 25.5562H7.61485C6.63521 25.5547 5.66547 25.3592 4.76103 24.9809C3.8566 24.6025 3.0352 24.0487 2.34379 23.3511C1.65238 22.6535 1.1045 21.8258 0.731467 20.9152C0.358436 20.0047 0.167563 19.0292 0.169757 18.0445V17.9102C0.169757 17.8021 0.258809 17.7126 0.370123 17.7126H6.83565C6.96551 17.7126 7.05828 17.83 7.049 17.9587C7.00076 18.3802 7.08054 18.8147 7.2809 19.2082C7.66308 19.9914 8.46084 20.48 9.31982 20.48H12.522V17.968H9.35321C9.31608 17.9676 9.27976 17.9571 9.24816 17.9375C9.21657 17.9179 9.19089 17.89 9.17391 17.8568C9.15692 17.8236 9.14926 17.7864 9.15176 17.7491C9.15426 17.7119 9.16682 17.676 9.18809 17.6454L9.30497 17.4776C9.60181 17.0468 10.0304 16.3848 10.4571 15.6276C10.7465 15.1167 11.0285 14.5721 11.2548 14.0239C11.2994 13.9269 11.3346 13.8243 11.3754 13.7255C11.4366 13.5502 11.4997 13.3861 11.5443 13.2238C11.5879 13.0863 11.6282 12.9476 11.6648 12.808C11.7706 12.3417 11.8151 11.8494 11.8151 11.3403C11.8151 11.1389 11.8077 10.9282 11.7891 10.7305C11.7799 10.5123 11.752 10.2923 11.7261 10.0741C11.7053 9.87885 11.6756 9.6847 11.637 9.49223C11.5871 9.19917 11.5264 8.90805 11.4552 8.61948L11.4292 8.50758C11.3736 8.30618 11.3253 8.11596 11.2623 7.91642C11.0856 7.30364 10.8826 6.69886 10.6537 6.10377C10.574 5.87993 10.4861 5.65911 10.3903 5.44175C10.2567 5.1098 10.1194 4.80956 9.99513 4.52796C9.93328 4.40732 9.87512 4.2848 9.82073 4.16058C9.76039 4.02657 9.69667 3.89412 9.62964 3.76337C9.58512 3.66453 9.53131 3.56942 9.49607 3.47991L9.10461 2.75634C9.05081 2.6575 9.13986 2.53629 9.24746 2.56799L11.6964 3.23375H11.7149L12.0359 3.32699L12.3921 3.42769L12.522 3.46312V2.00293C12.522 1.29615 13.0822 0.723637 13.7817 0.723637C13.9468 0.723191 14.1104 0.756333 14.2625 0.821071C14.4145 0.885809 14.552 0.980803 14.6666 1.10034C14.9035 1.3405 15.0368 1.66475 15.0377 2.00293V4.17364L15.2993 4.24637C15.3178 4.25569 15.3401 4.26502 15.3568 4.27807C15.4199 4.32283 15.5126 4.39369 15.6295 4.48321C15.7223 4.55407 15.8206 4.64358 15.9356 4.73869C16.302 5.03871 16.6572 5.35222 17.0005 5.67858C17.3975 6.04969 17.8428 6.48421 18.2695 6.96721C18.3901 7.10521 18.5051 7.23948 18.6257 7.38866C18.7407 7.53599 18.8706 7.67958 18.9782 7.82131C19.1248 8.01526 19.2751 8.21667 19.4142 8.42553C19.4754 8.52437 19.5515 8.62694 19.609 8.72577C19.7871 8.99058 19.9392 9.26286 20.0858 9.53699C20.1489 9.66194 20.2101 9.79994 20.2639 9.93421C20.429 10.3016 20.5589 10.6727 20.6387 11.0494C20.665 11.1293 20.6831 11.2118 20.6925 11.2956V11.3142C20.7184 11.4205 20.7277 11.538 20.737 11.6573C20.7892 12.2085 20.7221 12.7646 20.5403 13.2872C20.4828 13.4439 20.429 13.6043 20.3585 13.7609C20.2194 14.0779 20.0598 14.4006 19.8687 14.6971C19.8057 14.809 19.7296 14.9246 19.6591 15.0365C19.5793 15.154 19.494 15.2659 19.4235 15.3722C19.3215 15.5134 19.2144 15.6508 19.1025 15.7843C19.0042 15.9186 18.9059 16.0528 18.7945 16.174C18.6443 16.3568 18.4977 16.5284 18.34 16.6925C18.251 16.8006 18.1545 16.9125 18.0506 17.0095C17.9541 17.1214 17.8502 17.2202 17.7612 17.3097C17.6053 17.4664 17.4829 17.5839 17.3753 17.6865L17.1211 17.914C17.0857 17.9497 17.0377 17.9698 16.9875 17.9699H15.0377V20.48H17.4903C18.0376 20.48 18.5589 20.2861 18.9819 19.9243C19.1248 19.7993 19.7518 19.2529 20.4958 18.4287C20.52 18.4006 20.5525 18.381 20.5886 18.3727L27.3602 16.4016C27.3899 16.3929 27.4213 16.3913 27.4517 16.3969C27.4822 16.4024 27.5109 16.415 27.5357 16.4336C27.5605 16.4522 27.5807 16.4764 27.5947 16.5041C27.6086 16.5319 27.616 16.5625 27.6162 16.5936V18.0352Z" fill="#0081E9" stroke="white" stroke-width="1.82977" mask="url(#path-1-inside-1_1_393)"/>
</svg>
