<svg width="258" height="775" viewBox="0 0 258 775" fill="none" xmlns="http://www.w3.org/2000/svg">
<path fill-rule="evenodd" clip-rule="evenodd" d="M255.707 251.065C255.238 251.352 255.09 251.971 255.377 252.44C255.664 252.908 256.283 253.057 256.752 252.769C257.221 252.482 257.369 251.863 257.082 251.394C256.794 250.926 256.176 250.777 255.707 251.065ZM67.6311 1.72795C65.3367 3.13485 65.2415 3.56848 66.703 5.95192C68.1368 8.29019 68.5228 8.40523 69.9338 6.91742C70.816 5.98835 71.8213 5.04596 72.1688 4.82467C72.5157 4.60253 72.2128 3.46218 71.4943 2.29049C70.3912 0.491617 69.79 0.404134 67.6311 1.72795ZM124.596 167.304C124.128 167.591 123.979 168.21 124.267 168.679C124.554 169.147 125.173 169.296 125.642 169.008C126.11 168.721 126.259 168.102 125.971 167.633C125.684 167.165 125.065 167.016 124.596 167.304ZM206.634 301.09C206.165 301.377 205.429 301.037 204.998 300.334C204.417 299.388 203.219 299.666 200.378 301.408C197.538 303.15 196.747 304.091 197.327 305.038C197.758 305.741 197.727 306.551 197.259 306.839C196.02 307.598 198.782 311.669 200.876 312.17C203.585 312.82 206.947 311.711 209.387 309.363C211.368 307.456 211.382 306.922 209.535 303.908C208.408 302.07 207.102 300.802 206.634 301.09ZM101.306 152.272C99.147 153.596 98.952 154.171 100.055 155.97C101.158 157.769 101.76 157.856 103.918 156.532C106.077 155.209 106.272 154.633 105.169 152.834C104.066 151.035 103.465 150.948 101.306 152.272ZM39.7889 84.4637C37.5158 85.8576 37.406 86.3154 38.7996 88.588C40.5564 91.4529 42.4828 90.9856 43.3211 87.491C44.1594 83.9963 42.6543 82.7067 39.7889 84.4637ZM125.017 229.191C122.607 230.669 122.513 231.041 124.054 233.006C125.408 234.735 126.2 234.915 127.891 233.878C129.582 232.841 129.78 232.054 128.854 230.063C127.801 227.799 127.427 227.713 125.017 229.191ZM30.5403 112.414C28.7412 113.517 28.6536 114.118 29.9771 116.277C31.6759 119.047 33.0979 118.853 33.8417 115.749C34.5968 112.601 32.9498 110.936 30.5403 112.414ZM-25.2633 31.7217C-28.3554 33.6178 -27.9903 34.7812 -24.0033 35.7368C-20.7051 36.5273 -20.6276 36.4258 -21.7654 32.7991C-22.5539 30.2855 -22.7993 30.2108 -25.2633 31.7217ZM152.161 337.528C150.809 337.953 149.472 337.924 149.19 337.464C148.908 337.004 147.91 337.099 146.973 337.674C146.035 338.249 145.499 339.095 145.781 339.555C146.063 340.014 145.482 341.219 144.49 342.232C143.196 343.554 143.04 344.648 143.937 346.111C144.7 347.355 145.686 347.843 146.465 347.365C147.169 346.934 148.097 347.156 148.528 347.859C149.094 348.782 150.258 348.557 152.721 347.047C155.183 345.537 155.912 344.601 155.346 343.678C154.915 342.975 155.138 342.048 155.841 341.616C156.621 341.138 156.632 340.038 155.869 338.794C154.972 337.331 153.927 336.974 152.161 337.528ZM122.033 313.1C121.369 313.507 120.308 313.498 119.675 313.08C118.756 312.471 118.556 312.594 118.682 313.689C118.768 314.443 118.294 315.393 117.63 315.8C116.965 316.207 116.775 317.115 117.206 317.818C117.772 318.741 118.937 318.516 121.399 317.006C123.861 315.496 124.591 314.56 124.025 313.637C123.594 312.934 122.698 312.692 122.033 313.1ZM18.5723 160.792C18.1036 161.079 17.9552 161.698 18.2426 162.166C18.53 162.635 19.1487 162.783 19.6175 162.496C20.0862 162.209 20.2346 161.59 19.9472 161.121C19.6598 160.653 19.0411 160.504 18.5723 160.792ZM-25.6862 101.378C-28.7639 103.804 -27.8249 105.991 -24.564 103.991C-22.7469 102.877 -22.1888 101.969 -22.7547 101.046C-23.3352 100.099 -24.1895 100.196 -25.6862 101.378ZM60.3191 239.55C58.814 240.473 60.2007 242.147 62.1038 241.705C62.7751 241.549 62.9507 240.814 62.4956 240.072C62.041 239.33 61.0606 239.095 60.3191 239.55ZM129.79 351.728C129.321 352.015 129.173 352.634 129.46 353.103C129.748 353.571 130.366 353.719 130.835 353.432C131.304 353.145 131.452 352.526 131.165 352.057C130.878 351.589 130.259 351.44 129.79 351.728ZM54.0789 233.996C53.6101 234.284 53.4617 234.902 53.7491 235.371C54.0365 235.84 54.6551 235.988 55.1239 235.7C55.5927 235.413 55.7412 234.794 55.4538 234.325C55.1665 233.857 54.5476 233.709 54.0789 233.996ZM33.7375 209.43C32.3853 209.854 31.069 209.859 30.813 209.442C29.7125 207.647 26.9032 211.116 25.8288 215.595C24.73 220.175 25.6958 224.432 27.5717 223.281C28.0404 222.994 28.7767 223.334 29.2078 224.037C29.7319 224.892 30.8464 224.791 32.5748 223.731C34.0851 222.805 35.0372 221.491 34.8653 220.568C34.7044 219.699 35.4903 218.426 36.6119 217.738C37.8562 216.975 38.3459 215.989 37.8677 215.209C37.4367 214.506 37.4675 213.696 37.9362 213.408C38.405 213.121 38.2054 211.935 37.4921 210.772C36.5453 209.227 35.5331 208.866 33.7375 209.43ZM10.1495 171.441C8.61042 171.469 -3.41034 180.406 -2.94006 181.173C-2.69082 181.58 -3.06187 182.266 -3.76502 182.697C-4.71192 183.277 -4.43354 184.475 -2.69195 187.315C-0.340562 191.15 -0.340515 191.15 3.49482 188.798C5.60425 187.505 7.09955 186.071 6.81738 185.61C6.53574 185.151 7.11628 183.946 8.10792 182.934C9.09956 181.921 9.58347 180.558 9.18373 179.906C8.76466 179.223 9.32138 178.19 10.4958 177.47C12.8908 176.001 12.6263 171.395 10.1495 171.441ZM159.558 415.553C158.501 416.201 156.947 420.879 157.493 421.769C157.717 422.134 159.051 421.727 160.457 420.865C162.616 419.541 162.81 418.965 161.707 417.166C160.989 415.995 160.022 415.269 159.558 415.553ZM182.21 454.428C181.742 454.715 181.031 454.417 180.631 453.764C179.632 452.136 175.461 453.615 171.378 457.046C168.742 459.262 168.198 460.265 168.963 461.512C170.004 463.209 174.857 464.799 176.3 463.915C176.769 463.627 177.505 463.967 177.936 464.67C178.367 465.373 179.063 465.738 179.481 465.482C179.9 465.225 180.11 464.304 179.949 463.436C179.765 462.445 180.776 461.17 182.666 460.011C185.308 458.391 185.516 457.906 184.369 456.035C183.65 454.864 182.679 454.14 182.21 454.428ZM-9.07641 147.259C-9.8716 147.747 -9.86143 148.848 -9.04837 150.174C-8.23532 151.499 -7.2589 152.008 -6.46371 151.52C-5.66852 151.032 -5.67848 149.932 -6.49153 148.606C-7.30458 147.28 -8.28122 146.772 -9.07641 147.259ZM185.842 475.651C185.374 475.939 185.225 476.558 185.513 477.026C185.8 477.495 186.419 477.643 186.888 477.356C187.356 477.068 187.505 476.45 187.217 475.981C186.93 475.512 186.311 475.364 185.842 475.651ZM-11.5623 165.199C-14.0246 166.709 -14.7536 167.645 -14.1877 168.568C-13.7566 169.271 -13.9792 170.199 -14.6824 170.63C-15.3855 171.061 -15.7514 171.756 -15.4948 172.174C-15.2388 172.592 -15.84 173.763 -16.8317 174.775C-19.5872 177.589 -18.1814 178.287 -13.638 176.359C-8.72886 174.276 -5.51919 171.23 -6.51774 169.601C-6.918 168.948 -6.86155 168.18 -6.39278 167.892C-5.92402 167.605 -6.12838 166.411 -6.84685 165.239C-8.02255 163.322 -8.49406 163.318 -11.5623 165.199ZM-19.73 153.792C-21.4346 154.837 -22.0256 155.786 -21.5031 156.638C-20.9805 157.49 -19.867 157.394 -18.1624 156.349C-16.4578 155.303 -15.8669 154.355 -16.3894 153.502C-16.9119 152.65 -18.0254 152.747 -19.73 153.792ZM28.1313 232.801C26.7791 233.225 25.463 233.23 25.207 232.813C24.4211 231.531 17.8352 236.164 17.3059 238.371C17.0339 239.505 15.4961 241.239 13.8895 242.224C11.3642 243.773 8.97178 248.413 9.9092 249.941C10.5049 250.913 17.6834 245.673 17.4376 244.446C17.2943 243.728 18.1043 244.022 19.2375 245.101C20.3716 246.18 21.8317 246.735 22.4837 246.335C23.1366 245.935 23.9054 245.991 24.1927 246.459C24.4801 246.928 25.8658 246.606 27.2721 245.744C28.6784 244.881 29.594 243.792 29.3066 243.324C29.0192 242.855 29.3925 242.098 30.1366 241.642C30.8806 241.186 31.2177 239.396 30.8865 237.665C30.5553 235.933 30.5837 234.333 30.9493 234.108C32.5576 233.122 30.3577 232.102 28.1313 232.801ZM14.4701 224.866C11.1407 225.691 9.54355 228.307 10.9591 230.615C11.967 232.259 12.672 232.418 14.3612 231.382C15.6874 230.569 16.1955 229.592 15.708 228.797C15.2769 228.094 15.4996 227.166 16.2027 226.735C18.0667 225.592 16.8474 224.277 14.4701 224.866ZM-30.9879 164.213C-35.3908 166.913 -36.2395 167.86 -36.8101 170.715C-37.1783 172.553 -37.914 174.323 -38.4467 174.65C-39.9331 175.561 -37.1225 179.384 -34.2946 180.298C-31.1704 181.308 -24.8778 177.91 -26.1198 175.885C-26.5509 175.182 -26.3284 174.254 -25.6253 173.823C-24.9221 173.392 -24.6994 172.464 -25.1305 171.761C-25.5616 171.058 -25.3391 170.13 -24.636 169.699C-23.9328 169.267 -23.7102 168.339 -24.1412 167.636C-24.5723 166.933 -24.5415 166.123 -24.0728 165.836C-23.604 165.548 -23.8083 164.354 -24.5268 163.183C-25.7762 161.145 -26.0573 161.19 -30.9879 164.213ZM167.726 483.243C166.984 483.698 166.749 484.678 167.204 485.419C167.659 486.161 168.394 486.338 168.836 485.811C170.095 484.315 169.231 482.32 167.726 483.243ZM87.6569 367.011C86.2898 367.849 84.6828 368.175 84.0855 367.735C83.3166 367.168 82.9623 367.332 82.8689 368.3C82.797 369.052 81.8408 370.571 80.7455 371.677C79.2387 373.198 79.069 374.202 80.0498 375.802C80.854 377.113 81.8319 377.618 82.6245 377.132C83.3277 376.701 84.2557 376.923 84.6868 377.626C85.1179 378.329 86.0458 378.552 86.749 378.121C87.4521 377.689 88.2626 377.72 88.55 378.189C88.8374 378.657 90.0314 378.453 91.2033 377.734C92.3752 377.016 93.0988 376.044 92.8114 375.576C92.524 375.107 92.8643 374.371 93.5674 373.939C94.5143 373.359 94.2361 372.161 92.4945 369.321C90.2451 365.652 90.0348 365.553 87.6569 367.011ZM-61.6697 128.796C-63.3054 127.221 -67.6379 129.678 -68.0289 132.403C-68.1817 133.464 -68.8348 134.656 -69.48 135.051C-70.1644 135.471 -70.1095 136.66 -69.3481 137.902C-68.6297 139.074 -68.4253 140.267 -68.8941 140.555C-69.3628 140.842 -69.3937 141.653 -68.9626 142.356C-68.5315 143.059 -68.9185 144.087 -69.8228 144.642C-70.7262 145.196 -71.6886 146.578 -71.9607 147.712C-72.2328 148.846 -72.8661 150.026 -73.3689 150.334C-73.8709 150.642 -73.929 151.469 -73.498 152.172C-73.0669 152.875 -73.0977 153.685 -73.5664 153.973C-74.0352 154.26 -73.8311 155.454 -73.1126 156.626C-71.9682 158.492 -71.4371 158.53 -68.8231 156.927C-67.1825 155.921 -66.0752 154.714 -66.3626 154.246C-66.65 153.777 -66.1181 152.923 -65.1806 152.348C-64.2337 151.768 -63.8246 150.735 -64.2598 150.025C-64.6909 149.322 -64.4682 148.394 -63.7651 147.963C-63.062 147.532 -62.7171 146.803 -62.9993 146.343C-63.281 145.884 -62.7004 144.679 -61.7088 143.666C-60.7171 142.654 -60.09 141.524 -60.3152 141.157C-60.5405 140.79 -59.9134 139.661 -58.9218 138.648C-57.625 137.324 -57.4709 136.233 -58.3723 134.763C-59.062 133.638 -59.7926 132.118 -59.997 131.385C-60.201 130.65 -60.9534 129.486 -61.6697 128.796ZM174.823 524.62C172.664 525.944 172.47 526.52 173.573 528.319C174.676 530.118 175.277 530.205 177.436 528.881C179.595 527.557 179.79 526.982 178.686 525.183C177.583 523.384 176.982 523.297 174.823 524.62ZM53.517 331.37C51.0086 330.392 49.2495 331.311 50.3113 333.042C50.7424 333.745 50.7115 334.556 50.2428 334.843C49.774 335.13 49.6257 335.749 49.9131 336.218C50.2004 336.686 51.778 336.247 53.4186 335.241C56.6488 333.26 56.6662 332.596 53.517 331.37ZM148.037 484.763C147.568 485.05 146.832 484.71 146.401 484.007C145.085 481.861 141.447 484.856 142.216 487.453C143.19 490.736 143.507 491.058 144.917 490.194C145.62 489.763 146.431 489.793 146.718 490.262C147.556 491.628 149.165 490.115 149.401 487.737C149.664 485.101 149.186 484.058 148.037 484.763ZM155.368 507.237C154.573 507.724 154.583 508.825 155.396 510.151C156.209 511.477 157.185 511.985 157.98 511.497C158.776 511.01 158.766 509.909 157.953 508.583C157.139 507.257 156.163 506.749 155.368 507.237ZM75.8382 379.828C75.0506 379.065 73.7265 379.071 72.4719 379.84C70.7315 380.907 70.6577 381.523 72.0053 383.721C73.435 386.052 73.8356 386.155 75.7205 384.667C77.9457 382.912 77.9705 381.888 75.8382 379.828ZM-50.2048 185.377C-51.531 186.191 -52.0392 187.167 -51.5516 187.962C-51.1206 188.665 -51.3757 189.613 -52.1172 190.068C-54.3656 191.446 -51.6395 192.679 -49.0179 191.469C-47.2861 190.671 -46.8122 189.954 -47.3927 189.007C-47.8426 188.273 -47.8275 187.437 -47.3588 187.15C-46.89 186.862 -46.8591 186.052 -47.2902 185.349C-47.7777 184.554 -48.8787 184.564 -50.2048 185.377ZM37.7885 335.445C33.9634 337.79 34.0441 338.966 38.1097 340.094C41.7528 341.104 43.8887 338.985 42.4169 335.82C41.3179 333.456 41.0647 333.436 37.7885 335.445ZM99.954 432.169C99.1588 432.656 99.169 433.757 99.9821 435.083C101.442 437.463 102.977 437.178 102.501 434.614C102.012 431.981 101.33 431.325 99.954 432.169ZM-144.761 40.1143C-147.292 40.8816 -148.059 42.0541 -147.076 43.657C-146.686 44.2927 -146.709 45.3317 -147.127 45.9643C-147.736 46.884 -147.614 47.0834 -146.518 46.9579C-145.764 46.8724 -144.787 47.3902 -144.346 48.1086C-143.77 49.0476 -143.094 48.9401 -141.942 47.7252C-141.06 46.7961 -140.055 45.8537 -139.708 45.6324C-139.361 45.4103 -139.871 43.9306 -140.843 42.3456C-142.219 40.102 -143.088 39.6066 -144.761 40.1143ZM-10.11 258.406C-12.6155 257.972 -16.3178 260.357 -16.8989 262.779C-17.7708 266.414 -13.2009 270.562 -10.2894 268.776C-9.78743 268.468 -9.61175 267.833 -9.89914 267.364C-10.1865 266.896 -9.93145 266.212 -9.33229 265.844C-8.19788 265.149 -7.10026 260.4 -7.82796 259.339C-8.05853 259.004 -9.08491 258.585 -10.11 258.406ZM12.1841 299.553C11.5594 299.936 11.4605 300.348 11.9642 300.47C12.4683 300.59 12.9797 300.276 13.1012 299.772C13.2214 299.268 12.8089 299.17 12.1841 299.553ZM155.357 533.039C154.889 533.327 154.152 532.987 153.721 532.284C153.199 531.431 152.085 531.528 150.381 532.573C148.108 533.967 147.998 534.425 149.391 536.698C150.701 538.833 151.298 539.046 153.02 537.99C154.153 537.295 155.545 536.122 156.112 535.383C157.25 533.901 156.706 532.212 155.357 533.039ZM101.818 448.907C101.223 448.467 99.8086 448.673 98.6759 449.368C97.071 450.352 96.8923 451.082 97.8663 452.671C99.0759 454.643 101.151 454.886 103.656 453.349C104.842 452.622 103.96 450.493 101.818 448.907ZM-143.17 65.3273C-144.874 66.3726 -145.465 67.3214 -144.943 68.1735C-144.512 68.8765 -144.57 69.7037 -145.072 70.0115C-148.134 71.8893 -145.122 80.7406 -141.641 80.0942C-138.959 79.5959 -135.807 77.3348 -136.414 76.3446C-136.722 75.8419 -136.752 74.5033 -136.479 73.3691C-136.189 72.1566 -136.938 69.7517 -138.299 67.5335C-140.521 63.9085 -140.713 63.8211 -143.17 65.3273ZM34.001 349.786C33.4051 349.346 32.183 349.435 31.2846 349.986C30.1102 350.706 30.0179 351.587 30.9569 353.118C32.002 354.822 32.6895 354.987 34.3941 353.942C36.4387 352.688 36.327 351.508 34.001 349.786ZM155.323 551.528C154.45 550.684 153.188 550.785 151.474 551.836C149.194 553.234 149.104 553.632 150.63 555.578C152.056 557.399 152.744 557.507 154.822 556.232C157.409 554.646 157.516 553.646 155.323 551.528ZM-3.07257 298.355C-4.44136 299.194 -4.89157 300.302 -4.4525 301.75C-3.58744 304.605 -2.49161 305.034 0.0132949 303.498C1.75709 302.429 1.83978 301.808 0.526142 299.666C-0.777049 297.541 -1.38417 297.32 -3.07257 298.355ZM115.144 490.569C113.734 490.299 111.264 490.896 109.613 491.909C106.63 493.738 106.63 493.738 109.504 498.425C112.378 503.112 112.378 503.111 115.847 500.984C117.757 499.813 119.53 497.972 119.788 496.892C120.437 494.191 118.209 491.158 115.144 490.569ZM-135.443 89.9031C-138.843 91.9883 -139.206 92.5555 -138.526 94.7249C-138.101 96.0769 -138.13 97.4139 -138.59 97.6956C-139.973 98.5438 -137.993 100.786 -135.169 101.57C-133.226 102.109 -132.021 101.79 -130.628 100.368C-129.586 99.3039 -129.041 97.9307 -129.417 97.318C-129.793 96.7045 -129.788 95.8313 -129.407 95.3769C-129.024 94.9233 -129.36 92.9739 -130.151 91.0456C-131.588 87.5391 -131.588 87.5392 -135.443 89.9031ZM-26.1078 266.751C-27.8124 267.796 -27.9773 268.483 -26.9323 270.187C-25.8872 271.892 -25.1997 272.057 -23.4951 271.011C-21.7905 269.966 -21.6258 269.279 -22.6709 267.574C-23.7159 265.87 -24.4032 265.705 -26.1078 266.751ZM119.982 518.382C119.187 518.87 119.197 519.97 120.01 521.296C120.823 522.622 121.8 523.13 122.595 522.643C123.39 522.155 123.38 521.054 122.567 519.728C121.754 518.402 120.777 517.894 119.982 518.382ZM18.1181 356.887C14.7891 358.928 15.465 362.957 19.2906 363.873C22.6246 364.672 23.1703 363.37 20.9909 359.815C19.8413 357.941 18.5486 356.623 18.1181 356.887ZM-145.591 102.976C-150.47 105.392 -151.879 108.5 -149.703 112.049C-148.515 113.987 -148.014 114.027 -145.356 112.397C-142.699 110.768 -142.474 110.222 -143.408 107.685C-143.989 106.107 -144.128 104.609 -143.718 104.358C-142.291 103.483 -144.028 102.202 -145.591 102.976ZM1.01264 341.58C0.309503 342.011 -0.649302 341.738 -1.11801 340.974C-1.81037 339.844 -2.50814 340.047 -4.84184 342.058C-6.42134 343.418 -7.60479 345.003 -7.46998 345.58C-7.33602 346.158 -8.68386 347.525 -10.4652 348.618C-13.0732 350.217 -13.5765 351.022 -13.0519 352.753C-12.1114 355.857 -11.0808 356.031 -7.30771 353.717C-5.45993 352.584 -3.72421 352.024 -3.44988 352.471C-3.17556 352.919 -1.42791 352.703 0.432654 351.992C3.15475 350.954 3.92889 350.154 4.38258 347.915C5.06192 344.564 2.86809 340.442 1.01264 341.58ZM84.2472 484.012C81.9741 485.406 81.8644 485.863 83.2579 488.136C84.6515 490.409 85.1093 490.519 87.3824 489.125C89.6554 487.731 89.7652 487.273 88.3716 485C86.978 482.728 86.5202 482.618 84.2472 484.012ZM-129.686 148.518C-133.095 150.609 -133.095 150.609 -130.744 154.443C-128.645 157.866 -128.183 158.15 -126.451 157.088C-124.009 155.59 -123.273 151.327 -124.976 148.549C-126.145 146.643 -126.622 146.64 -129.686 148.518ZM-87.9928 217.946C-94.8648 222.187 -95.5266 223.351 -93.2102 227.128C-91.755 229.502 -90.8198 230.216 -89.9027 229.653C-89.1996 229.222 -88.3891 229.253 -88.1017 229.721C-87.8143 230.19 -86.6204 229.986 -85.4485 229.267C-84.2766 228.549 -83.5529 227.577 -83.8403 227.108C-84.1277 226.64 -83.7874 225.904 -83.0842 225.472C-82.3811 225.041 -82.1586 224.113 -82.5897 223.41C-83.0208 222.707 -82.7981 221.779 -82.095 221.348C-81.2427 220.825 -81.339 219.712 -82.3841 218.008C-83.9067 215.525 -84.0676 215.522 -87.9928 217.946ZM-49.8073 276.3C-50.5193 275.607 -51.649 275.377 -52.3172 275.787C-52.9863 276.197 -53.8862 275.957 -54.3173 275.254C-55.3075 273.64 -56.7859 274.505 -57.3981 277.06C-57.9338 279.291 -57.1436 281.091 -55.9513 280.36C-55.5123 280.091 -54.2689 281.044 -53.1877 282.476C-51.505 284.708 -50.9448 284.866 -49.287 283.576C-48.2219 282.749 -47.332 281.939 -47.31 281.778C-47.1689 280.759 -48.7209 277.356 -49.8073 276.3ZM-146.564 123.072C-148.707 123.603 -150.443 128.055 -149.26 129.985C-148.96 130.474 -149.291 131.226 -149.994 131.657C-151.681 132.692 -150.786 134.046 -148.673 133.653C-145.524 133.068 -143.264 131.044 -142.848 128.435C-142.281 124.883 -143.98 122.433 -146.564 123.072ZM88.3056 504.974C87.6025 505.406 86.7752 505.348 86.4675 504.846C86.1592 504.343 85.0232 503.72 83.9432 503.462C81.6714 502.917 79.9157 503.724 80.6755 504.963C80.9629 505.432 80.6227 506.168 79.9196 506.599C79.2164 507.03 78.9937 507.958 79.4248 508.661C79.8559 509.364 80.784 509.587 81.4872 509.156C82.1903 508.724 83.1183 508.947 83.5494 509.65C84.3599 510.971 87.5537 509.576 89.4861 507.057C90.7943 505.351 89.9932 503.94 88.3056 504.974ZM110.558 547.152C108.437 547.546 105.245 550.769 105.907 551.848C106.853 553.391 110.336 553.611 112.53 552.266C114.273 551.197 114.466 550.505 113.471 548.883C112.783 547.761 111.472 546.982 110.558 547.152ZM-45.6259 298.192C-48.5917 298.743 -48.884 299.416 -47.2887 302.017C-46.4265 303.423 -45.369 304.358 -44.9386 304.094C-43.0328 302.925 -42.1681 300.805 -43.0271 299.404C-43.5402 298.567 -44.7099 298.022 -45.6259 298.192ZM-21.9331 335.716C-22.4019 336.004 -22.4327 336.814 -22.0016 337.517C-21.5705 338.22 -20.8343 338.56 -20.3655 338.273C-19.8968 337.985 -19.866 337.175 -20.297 336.472C-20.7281 335.769 -21.4644 335.429 -21.9331 335.716ZM-182.102 82.1649C-183.806 83.2101 -184.397 84.1588 -183.875 85.0109C-183.352 85.8631 -182.238 85.7665 -180.534 84.7213C-178.829 83.676 -178.238 82.7272 -178.761 81.8751C-179.283 81.023 -180.397 81.1196 -182.102 82.1649ZM70.4733 495.976C70.0045 496.263 70.2089 497.457 70.9274 498.629C71.6458 499.8 72.6172 500.524 73.086 500.236C73.5547 499.949 73.3504 498.755 72.6319 497.583C71.9134 496.412 70.942 495.688 70.4733 495.976ZM83.7089 520.907C81.9803 522.261 81.7998 523.053 82.8365 524.744C83.8733 526.434 84.6609 526.633 86.6518 525.706C88.9166 524.653 89.0017 524.279 87.524 521.869C86.0463 519.46 85.6749 519.366 83.7089 520.907ZM-79.9681 258.445C-83.0932 257.845 -84.4801 258.578 -83.4371 260.279C-83.006 260.982 -83.0369 261.792 -83.5056 262.08C-83.9744 262.367 -83.7701 263.561 -83.0516 264.733C-81.9966 266.453 -81.3235 266.605 -79.5541 265.52C-77.4046 264.202 -75.9323 260.888 -76.9202 259.591C-77.195 259.23 -78.5666 258.715 -79.9681 258.445ZM40.2224 452.38C39.7536 452.668 38.8363 452.043 38.1826 450.993C35.73 447.047 33.6753 445.842 31.5846 447.124C30.4681 447.808 29.3185 447.986 29.0311 447.517C28.7437 447.048 27.9332 447.018 27.23 447.449C26.5269 447.88 26.1867 448.616 26.4741 449.085C26.7615 449.554 26.4214 450.29 25.7183 450.721C24.7365 451.323 25.1075 452.594 27.3137 456.192C28.8943 458.769 29.8041 461.114 29.3353 461.401C28.8666 461.689 28.9533 462.691 29.5281 463.628C30.1029 464.565 30.9567 465.097 31.4254 464.81C31.8942 464.522 32.8656 465.246 33.584 466.417C34.3971 467.743 35.3736 468.251 36.1689 467.764C36.872 467.333 37.7999 467.555 38.231 468.258C38.7483 469.102 39.8595 469.018 41.5011 468.012C42.8681 467.173 44.5048 466.83 45.1373 467.248C46.057 467.856 46.2563 467.734 46.1309 466.638C46.0455 465.885 46.5186 464.935 47.1825 464.528C48.1098 463.959 47.5399 462.401 44.7324 457.822C42.6423 454.414 40.709 452.082 40.2224 452.38ZM-36.592 330.341C-38.1915 328.806 -40.0387 329.806 -40.7012 332.568C-40.9732 333.702 -41.6067 334.882 -42.1096 335.191C-43.1247 335.813 -40.7888 340.234 -39.7631 339.631C-39.4083 339.422 -38.179 338.972 -37.0318 338.632C-35.7807 338.263 -34.7286 337.108 -34.4025 335.748C-33.8557 333.469 -34.1873 332.651 -36.592 330.341ZM119.277 587.995C117.901 588.839 118.176 589.744 120.301 591.375C122.37 592.962 123.321 591.722 121.861 589.342C121.048 588.016 120.072 587.508 119.277 587.995ZM126.566 602.118C125.238 600.854 120.813 602.327 117.865 605.013C116.5 606.255 116.399 607.203 117.449 608.893C118.213 610.123 119.382 611.384 120.047 611.695C121.92 612.572 125.645 611.313 128.067 608.982C130.269 606.862 129.933 605.323 126.566 602.118ZM-16.0435 377.835C-16.5122 378.122 -16.5432 378.932 -16.1122 379.636C-15.6811 380.339 -14.9446 380.678 -14.4759 380.391C-14.0071 380.104 -13.9763 379.293 -14.4074 378.59C-14.8385 377.887 -15.5747 377.547 -16.0435 377.835ZM-86.5499 270.025C-88.2613 271.365 -88.4781 272.27 -87.5609 274.24C-86.5126 276.495 -86.1291 276.587 -83.7802 275.146C-81.4321 273.707 -81.3297 273.279 -82.7692 270.931C-84.2093 268.583 -84.5928 268.491 -86.5499 270.025ZM-9.05838 397.002C-11.4073 398.443 -11.4992 398.826 -9.96513 400.783C-8.62508 402.494 -7.72059 402.711 -5.75004 401.793C-3.4951 400.745 -3.40319 400.361 -4.84329 398.013C-6.28286 395.665 -6.71031 395.563 -9.05838 397.002ZM43.4843 479.694C42.7811 480.125 41.8531 479.903 41.422 479.2C40.8201 478.218 39.549 478.589 35.9506 480.796C33.3724 482.377 31.0277 483.287 30.7404 482.818C30.453 482.349 30.5707 481.75 31.0029 481.485C31.4341 481.22 31.3347 479.698 30.781 478.103C30.2274 476.508 30.0836 475.013 30.4603 474.782C31.7422 473.996 29.8684 469.904 28.1528 469.743C27.237 469.658 25.6856 468.895 24.7057 468.046C23.1232 466.676 22.3611 466.85 17.8686 469.605C11.7517 473.356 10.49 476.57 13.3216 481.187C14.3275 482.828 15.5265 483.939 15.9867 483.657C16.4461 483.375 17.6269 483.932 18.6105 484.895C19.5936 485.858 21.0665 486.521 21.8822 486.369C22.9519 486.17 24.3302 487.665 26.8169 491.72C31.2788 498.996 32.5484 499.298 39.8569 494.816C45.3772 491.431 47.3005 488.786 45.9006 486.503C45.5929 486.001 45.9163 485.238 46.6195 484.807C47.4718 484.284 47.3752 483.171 46.3302 481.466C45.2851 479.762 44.3366 479.171 43.4843 479.694ZM-169.679 136.693C-171.767 137.973 -172.404 140.055 -171.273 141.9C-170.288 143.507 -169.571 143.662 -167.892 142.632C-166.093 141.529 -166.005 140.928 -167.329 138.769C-168.191 137.363 -169.248 136.429 -169.679 136.693ZM-160.576 154.562C-162.281 155.607 -162.446 156.295 -161.401 157.999C-160.682 159.171 -159.711 159.894 -159.242 159.607C-158.774 159.319 -158.625 158.701 -158.913 158.232C-159.2 157.763 -158.86 157.027 -158.157 156.596C-157.453 156.165 -157.231 155.237 -157.662 154.534C-158.15 153.739 -159.25 153.749 -160.576 154.562ZM-93.9903 263.526C-94.9497 262.598 -96.1627 262.806 -98.6352 264.322C-101.63 266.158 -101.846 266.597 -100.686 268.488C-99.7501 270.015 -98.7268 270.394 -97.0085 269.855C-92.249 268.36 -91.2189 266.203 -93.9903 263.526ZM8.21951 430.965C6.94858 430.42 6.58574 430.57 6.75271 431.571C6.87442 432.303 6.4297 433.235 5.76578 433.642C5.10099 434.05 4.91093 434.958 5.34202 435.661C5.86456 436.513 6.97807 436.416 8.68266 435.371C11.347 433.737 11.1888 432.238 8.21951 430.965ZM-134.715 203.292C-136.523 202.404 -141.93 205.487 -141.537 207.182C-141.384 207.841 -142.185 208.948 -143.318 209.642C-145.152 210.767 -145.149 211.278 -143.293 214.305C-139.411 220.635 -132.239 219.996 -130.403 213.156C-129.518 209.856 -131.752 204.746 -134.715 203.292ZM-88.2212 286.924C-93.4118 286.098 -95.1002 289.073 -92.161 293.866C-91.1055 295.587 -90.4766 295.668 -88.3407 294.359C-86.6361 293.313 -86.0451 292.365 -86.5676 291.513C-86.9987 290.81 -86.7761 289.882 -86.0729 289.45C-84.3095 288.369 -85.1173 287.419 -88.2212 286.924ZM-75.2332 312.865C-76.1014 313.027 -77.4073 312.189 -78.1352 311.002C-79.731 308.399 -80.1137 308.55 -80.9695 312.117C-81.4533 314.134 -80.9324 316.003 -79.0163 319.127C-76.4037 323.388 -76.4037 323.388 -72.9945 321.298C-69.6007 319.216 -69.5948 319.192 -71.6196 315.89C-72.9458 313.727 -74.2031 312.675 -75.2332 312.865ZM-183.644 162.845C-184.439 163.332 -184.429 164.433 -183.616 165.759C-182.803 167.085 -181.827 167.593 -181.032 167.105C-180.236 166.618 -180.246 165.517 -181.06 164.191C-181.873 162.865 -182.849 162.357 -183.644 162.845ZM-60.8496 363.098C-61.7019 363.62 -62.6507 363.029 -63.6958 361.325C-64.5579 359.919 -65.6391 358.999 -66.0994 359.281C-66.5588 359.563 -67.7637 358.983 -68.7763 357.991C-70.4825 356.322 -70.9902 356.418 -75.6872 359.298C-80.2206 362.078 -80.8363 362.824 -81.516 366.351C-82.0766 369.264 -82.8537 370.472 -84.4843 370.967C-85.6986 371.335 -86.8817 371.327 -87.1126 370.951C-87.7459 369.918 -92.8408 371.941 -94.8999 374.043C-96.3348 375.509 -96.3955 376.661 -95.191 379.579C-94.3541 381.606 -92.8472 384.069 -91.8411 385.054C-90.2863 386.576 -89.5172 386.539 -86.697 384.81C-84.8722 383.691 -83.6149 382.392 -83.9023 381.924C-84.1897 381.455 -83.4208 380.456 -82.1944 379.704C-80.7114 378.794 -78.1535 378.798 -74.5652 379.716C-71.596 380.475 -68.3994 380.625 -67.461 380.05C-66.5133 379.469 -65.4076 379.572 -64.9718 380.282C-64.4843 381.077 -63.3834 381.067 -62.0572 380.254C-60.7311 379.441 -60.2227 378.464 -60.7102 377.669C-61.2328 376.817 -60.6418 375.868 -58.9372 374.823C-57.2326 373.778 -56.1191 373.681 -55.5965 374.533C-55.1654 375.236 -54.2373 375.459 -53.5342 375.028C-52.52 374.406 -53.0105 373.013 -55.9136 368.279C-58.8168 363.544 -59.8354 362.476 -60.8496 363.098ZM-1.62936 461.108C-2.48595 462.079 -3.2574 463.116 -3.34494 463.411C-3.57464 464.19 -2.70425 464.232 -0.121236 463.568C1.74976 463.086 1.95765 462.655 1.04218 461.162C0.126708 459.669 -0.351964 459.659 -1.62936 461.108ZM71.6003 580.881C70.2792 581.691 69.7097 582.887 70.0293 584.179C70.7104 586.931 72.241 587.524 74.7288 585.998C76.4726 584.929 76.5551 584.308 75.2415 582.166C73.9294 580.026 73.3364 579.817 71.6003 580.881ZM-121.641 272.566C-123.047 273.428 -123.963 274.517 -123.675 274.986C-123.388 275.455 -124.111 276.426 -125.283 277.145C-127.083 278.248 -127.17 278.849 -125.847 281.008C-124.523 283.166 -123.947 283.361 -122.148 282.258C-120.976 281.539 -119.782 281.335 -119.495 281.803C-118.533 283.372 -116.524 281.184 -117.034 279.122C-117.312 278.002 -117.181 276.867 -116.744 276.599C-116.307 276.331 -116.654 274.961 -117.516 273.555C-118.91 271.282 -119.368 271.172 -121.641 272.566ZM88.0462 613.827C86.714 613.507 83.2109 615.765 83.2063 616.945C83.198 619.228 86.4885 620.999 88.4752 619.781C89.5917 619.096 90.2906 618.183 90.0268 617.753C89.7629 617.323 89.4252 616.315 89.2764 615.514C89.1271 614.712 88.5742 613.953 88.0462 613.827ZM59.4149 569.592C58.9836 569.857 57.672 569.078 56.5013 567.861C55.2433 566.554 53.7589 565.956 52.8728 566.399C49.3015 568.183 45.7655 571.272 45.3596 572.965C44.8689 575.01 47.1861 579.436 48.3683 578.711C48.7859 578.455 49.9567 579.056 50.9692 580.048C54.8055 583.804 63.8563 575.074 60.9834 570.389C60.5524 569.686 59.847 569.327 59.4149 569.592ZM-9.28171 466.32C-10.6079 467.133 -11.7088 467.144 -12.1963 466.348C-12.6274 465.645 -13.5553 465.423 -14.2584 465.854C-15.1107 466.377 -15.0144 467.49 -13.9694 469.195C-12.9243 470.899 -11.9756 471.49 -11.1232 470.967C-10.4201 470.536 -9.60977 470.567 -9.32237 471.035C-9.03498 471.504 -7.84093 471.299 -6.66901 470.581C-4.96443 469.536 -4.7995 468.848 -5.84456 467.144C-6.88961 465.44 -7.57712 465.275 -9.28171 466.32ZM-111.315 307.567C-113.82 307.132 -114.836 307.88 -114.463 309.887C-113.912 312.852 -113.239 313.144 -110.637 311.549C-107.896 309.867 -108.195 308.108 -111.315 307.567ZM26.499 532.321C25.7958 532.752 24.9853 532.722 24.6979 532.253C24.4105 531.784 23.7645 531.653 23.2625 531.961C21.4914 533.047 21.3598 536.762 22.9626 540.384C24.5545 543.978 24.6355 544.017 27.2538 542.411C29.6513 540.941 29.7638 540.514 28.3556 538.218C27.3105 536.514 27.2142 535.4 28.0665 534.878C28.7697 534.446 28.9921 533.518 28.561 532.815C28.1299 532.112 27.2021 531.89 26.499 532.321ZM-105.879 325.046C-107.517 326.051 -108.17 327.048 -107.695 327.822C-107.288 328.485 -107.317 329.459 -107.761 329.987C-108.27 330.592 -107.363 331.233 -105.3 331.727C-103.238 332.221 -102.139 332.061 -102.318 331.291C-102.474 330.62 -102.058 329.739 -101.395 329.332C-100.621 328.857 -100.75 327.673 -101.754 326.035C-103.148 323.762 -103.606 323.653 -105.879 325.046ZM-57.8044 402.939C-58.5847 402.174 -60.0394 401.35 -61.0375 401.111C-63.6153 400.493 -68.7728 403.935 -69.7372 406.916C-70.6964 409.884 -68.7714 413.685 -66.8921 412.532C-66.189 412.101 -65.2611 412.324 -64.83 413.027C-64.3075 413.879 -63.1939 413.782 -61.4894 412.737C-59.7848 411.692 -58.671 411.595 -58.1485 412.447C-57.0841 414.183 -56.1195 413.413 -55.647 410.453C-55.1658 407.437 -55.9278 404.783 -57.8044 402.939ZM-125.809 296.888C-127.688 296.518 -128.522 296.739 -128.331 297.556C-128.176 298.226 -129.167 299.46 -130.534 300.298C-132.979 301.797 -132.973 301.899 -130.146 306.509C-127.94 310.107 -126.976 311.014 -125.994 310.412C-125.291 309.981 -124.363 310.203 -123.932 310.906C-123.501 311.609 -122.938 312.056 -122.681 311.898C-121.756 311.331 -120.815 304.513 -121.507 303.385C-121.896 302.751 -121.831 301.997 -121.362 301.709C-119.85 300.782 -122.917 297.455 -125.809 296.888ZM-176.836 226.678C-177.339 226.986 -178.678 227.016 -179.812 226.744C-182.625 226.069 -187.125 228.889 -186.045 230.649C-185.107 232.18 -181.741 233.203 -180.382 232.37C-179.88 232.062 -179.117 232.386 -178.686 233.089C-178.163 233.941 -177.05 233.844 -175.345 232.799C-173.072 231.405 -172.962 230.947 -174.356 228.675C-175.218 227.269 -176.334 226.37 -176.836 226.678ZM-8.42456 502.144C-9.12769 502.575 -10.0558 502.352 -10.4869 501.649C-11.0674 500.703 -12.2653 500.981 -15.106 502.723C-17.2155 504.017 -18.7313 505.417 -18.4748 505.836C-17.565 507.319 -20.2322 509.535 -22.0362 508.795C-24.2956 507.868 -28.5908 510.376 -27.576 512.031C-27.169 512.695 -27.211 513.703 -27.668 514.272C-29.2066 516.183 -26.4783 515.895 -21.9101 513.663C-17.864 511.688 -17.2449 511.667 -16.1381 513.471C-15.3841 514.701 -14.3969 515.186 -13.6196 514.71C-12.9165 514.279 -11.9884 514.501 -11.5573 515.204C-11.1262 515.907 -10.2307 516.149 -9.56596 515.742C-8.90203 515.335 -7.84077 515.344 -7.20822 515.762C-6.28852 516.37 -6.08903 516.248 -6.21441 515.152C-6.2998 514.399 -5.25158 513.096 -3.8845 512.258C-1.43926 510.758 -1.44541 510.657 -4.2723 506.047C-6.47842 502.449 -7.44272 501.542 -8.42456 502.144ZM21.108 549.177C19.6925 549.171 17.8311 551.655 18.4696 552.697C19.1479 553.803 22.6782 554.597 23.8152 553.9C24.9241 553.22 22.6095 549.181 21.108 549.177ZM-32.8708 468.766C-34.2058 468.456 -35.713 468.457 -36.2209 468.769C-36.7281 469.08 -37.6611 468.993 -38.2942 468.574C-39.2139 467.966 -39.4134 468.088 -39.288 469.184C-39.2021 469.938 -39.5779 470.832 -40.1221 471.17C-41.4558 472 -40.7659 477.857 -39.3731 477.533C-38.7959 477.399 -37.9919 477.832 -37.5848 478.496C-36.418 480.399 -31.0062 476.579 -30.2187 473.296C-29.4276 469.998 -29.7194 469.499 -32.8708 468.766ZM-82.0862 392.536C-82.5549 392.823 -83.2911 392.483 -83.7222 391.78C-84.1533 391.077 -84.9432 390.77 -85.4776 391.098C-86.012 391.425 -87.2957 391.346 -88.3296 390.922C-89.7697 390.331 -90.8565 390.735 -92.9707 392.648C-94.4888 394.023 -95.507 395.512 -95.2327 395.959C-94.9584 396.407 -95.6925 397.361 -96.8644 398.08C-99.9336 399.962 -97.5082 403.488 -92.2833 404.741C-85.0187 406.483 -76.8995 399.081 -80.1888 393.717C-80.7636 392.78 -81.6174 392.248 -82.0862 392.536ZM38.9043 596.533C34.756 595.814 31.3748 600.518 33.523 604.021C34.7211 605.975 36.745 605.772 40.7935 603.289C43.4109 601.684 43.5573 601.267 42.2371 599.18C41.4292 597.902 39.9295 596.711 38.9043 596.533ZM-166.877 269.818C-167.409 270.145 -169.336 269.994 -171.159 269.483C-174.472 268.554 -174.472 268.554 -175.139 271.338C-175.807 274.122 -175.807 274.122 -173.057 274.781C-171.545 275.143 -169.541 274.969 -168.603 274.395C-167.656 273.814 -166.55 273.918 -166.115 274.628C-165.684 275.331 -164.756 275.553 -164.052 275.122C-163.2 274.599 -163.297 273.486 -164.342 271.782C-165.204 270.375 -166.345 269.492 -166.877 269.818ZM-156.838 289.166C-157.555 288.476 -158.688 288.248 -159.356 288.658C-160.025 289.068 -160.925 288.828 -161.356 288.125C-161.787 287.422 -162.715 287.2 -163.419 287.631C-164.122 288.062 -164.932 288.032 -165.219 287.563C-165.507 287.094 -166.701 287.299 -167.873 288.017C-169.045 288.736 -169.768 289.707 -169.481 290.176C-169.194 290.645 -169.534 291.381 -170.237 291.812C-170.94 292.243 -171.163 293.171 -170.731 293.874C-170.3 294.577 -170.314 295.377 -170.762 295.652C-171.209 295.926 -170.977 297.715 -170.248 299.628C-169.231 302.291 -168.446 303.144 -166.894 303.27C-165.781 303.361 -164.366 304.256 -163.751 305.259C-162.864 306.705 -162.118 306.767 -160.146 305.558C-158.779 304.72 -157.143 304.376 -156.51 304.794C-155.59 305.402 -155.391 305.28 -155.516 304.184C-155.602 303.431 -155.129 302.481 -154.465 302.074C-153.8 301.667 -153.61 300.758 -154.041 300.055C-154.472 299.352 -154.249 298.424 -153.546 297.993C-152.762 297.512 -152.756 296.413 -153.531 295.149C-154.226 294.015 -154.961 292.487 -155.166 291.754C-155.37 291.02 -156.122 289.856 -156.838 289.166ZM-189.133 240.914C-193.253 242.163 -194.113 244.269 -191.944 247.805C-190.264 250.546 -189.623 250.935 -188.211 250.069C-186.058 248.749 -184.877 244.03 -186.171 241.92C-186.716 241.031 -188.038 240.582 -189.133 240.914ZM-102.105 384.878C-104.454 386.318 -104.546 386.702 -103.012 388.658C-101.672 390.369 -100.768 390.586 -98.797 389.669C-96.542 388.62 -96.4501 388.237 -97.8901 385.888C-99.3297 383.54 -99.7572 383.438 -102.105 384.878ZM-14.0305 525.515C-14.8257 526.002 -14.8158 527.103 -14.0027 528.429C-13.1897 529.755 -12.213 530.263 -11.4178 529.775C-10.6226 529.288 -10.6328 528.187 -11.4459 526.861C-12.2589 525.535 -13.2353 525.027 -14.0305 525.515ZM-170.019 278.78C-171.723 279.825 -171.888 280.513 -170.843 282.217C-169.382 284.599 -167.948 284.22 -167.24 281.264C-166.53 278.307 -167.636 277.32 -170.019 278.78ZM-78.8091 430.393C-82.2183 432.483 -82.2184 432.484 -80.1283 435.892C-78.6736 438.265 -77.6708 439.075 -76.8305 438.56C-76.1665 438.153 -75.1053 438.162 -74.4727 438.58C-73.553 439.189 -73.3536 439.066 -73.4789 437.971C-73.5643 437.217 -73.0915 436.267 -72.4275 435.86C-71.5872 435.345 -71.8551 434.083 -73.3099 431.711C-75.4 428.303 -75.4 428.302 -78.8091 430.393ZM-86.3517 422.874C-87.486 422.602 -88.6137 422.054 -88.8577 421.656C-89.4926 420.621 -93.8465 420.056 -96.3675 420.68C-97.5476 420.972 -98.7317 420.854 -98.9997 420.417C-99.2678 419.98 -100.638 420.327 -102.044 421.19C-103.749 422.235 -104.34 423.184 -103.817 424.036C-103.386 424.739 -103.609 425.667 -104.312 426.098C-105.294 426.7 -104.923 427.971 -102.717 431.569C-100.034 435.943 -99.707 436.172 -97.803 435.005C-96.6814 434.317 -95.1901 434.194 -94.4888 434.731C-93.5692 435.437 -91.9051 434.906 -88.5001 432.818C-84.8779 430.597 -83.9674 429.631 -84.5699 428.649C-85.001 427.946 -84.7783 427.018 -84.0751 426.587C-83.372 426.156 -83.1326 425.255 -83.5433 424.585C-83.9534 423.916 -85.2175 423.146 -86.3517 422.874ZM-125.259 360.381C-125.727 360.669 -126.464 360.329 -126.895 359.626C-127.357 358.871 -128.468 358.825 -129.604 359.511C-135.091 362.83 -135.599 362.596 -139.521 354.932C-143.128 347.887 -143.128 347.887 -146.653 350.049C-151.366 352.939 -152.391 356.297 -149.834 360.468C-148.427 362.762 -147.492 363.462 -146.581 362.903C-145.878 362.472 -144.95 362.694 -144.519 363.397C-143.993 364.255 -142.877 364.149 -141.121 363.073C-138.801 361.65 -138.441 361.727 -137.927 363.752C-137.609 365.008 -137.602 366.367 -137.913 366.773C-138.224 367.179 -138.164 368.023 -137.78 368.65C-137.396 369.276 -138.077 370.748 -139.294 371.919C-140.511 373.089 -141.29 374.401 -141.025 374.832C-140.761 375.264 -141.503 376.205 -142.675 376.924C-144.582 378.093 -144.593 378.578 -142.777 381.539C-140.46 385.317 -139.122 385.255 -132.226 381.053C-129.995 379.694 -127.961 378.924 -127.705 379.343C-127.449 379.76 -126.132 379.755 -124.78 379.331C-123.428 378.906 -122.091 378.935 -121.809 379.394C-121.527 379.854 -120.721 379.877 -120.018 379.446C-119.315 379.015 -119.092 378.087 -119.524 377.384C-119.955 376.681 -119.732 375.753 -119.029 375.322C-117.46 374.36 -119.434 370.813 -121.912 370.142C-123.318 369.762 -123.505 369.458 -122.844 368.623C-122.39 368.049 -122.704 366.461 -123.542 365.094C-124.38 363.727 -124.682 362.373 -124.214 362.085C-123.745 361.798 -123.597 361.179 -123.884 360.711C-124.171 360.242 -124.79 360.094 -125.259 360.381ZM40.3833 630.51C39.9145 630.797 40.1189 631.991 40.8373 633.163C41.5558 634.334 42.5272 635.058 42.996 634.77C43.4647 634.483 43.2604 633.289 42.5419 632.117C41.8234 630.946 40.852 630.222 40.3833 630.51ZM-73.7959 450.377C-76.5246 451.204 -77.0848 452.331 -75.8056 454.417C-74.5395 456.481 -70.5599 454.392 -71.0216 451.904C-71.4464 449.614 -71.3877 449.647 -73.7959 450.377ZM-48.4493 488.872C-49.1673 488.183 -50.3548 487.988 -51.0887 488.438C-51.8233 488.889 -53.2708 488.91 -54.3046 488.486C-55.7447 487.895 -56.8316 488.299 -58.9457 490.212C-60.4639 491.587 -61.482 493.076 -61.2077 493.524C-60.9334 493.971 -61.2839 494.69 -61.987 495.121C-62.9101 495.687 -62.685 496.852 -61.1754 499.314C-59.6658 501.776 -58.7298 502.504 -57.8067 501.938C-57.1036 501.507 -56.1758 501.73 -55.7447 502.433C-54.7535 504.049 -48.274 500.306 -47.4856 497.661C-47.1917 496.676 -46.6656 495.013 -46.3167 493.967C-45.6785 492.055 -46.0451 491.18 -48.4493 488.872ZM18.8176 602.401C17.9506 601.567 16.6809 601.659 15.0215 602.677C12.6793 604.113 12.6544 604.415 14.6171 607.615C16.5912 610.835 16.8494 610.937 19.264 609.456C20.6703 608.594 21.605 607.536 21.3411 607.106C21.0772 606.675 20.6947 605.722 20.4903 604.989C20.2863 604.255 19.5339 603.091 18.8176 602.401ZM-110.329 396.956C-111.45 397.644 -112.236 398.917 -112.075 399.786C-111.914 400.654 -112.614 401.875 -113.632 402.499C-115.328 403.539 -116.433 407.081 -115.553 408.661C-115.353 409.021 -112.696 407.788 -109.649 405.919C-104.109 402.522 -104.109 402.522 -106.199 399.114C-108.055 396.087 -108.518 395.845 -110.329 396.956ZM-67.2428 465.512C-67.9459 465.944 -68.7562 465.913 -69.0436 465.444C-69.331 464.976 -70.525 465.18 -71.6969 465.899C-72.8689 466.617 -73.5924 467.589 -73.305 468.057C-73.0176 468.526 -73.3579 469.262 -74.061 469.693C-74.8468 470.175 -74.8499 471.276 -74.0682 472.551C-72.5392 475.044 -69.6626 474.579 -65.9731 471.242C-63.8739 469.342 -63.6358 468.526 -64.6814 466.821C-65.4735 465.529 -66.4536 465.028 -67.2428 465.512ZM-158.148 327.784C-158.616 328.071 -158.647 328.881 -158.216 329.584C-157.785 330.287 -157.049 330.627 -156.58 330.34C-156.111 330.053 -156.08 329.242 -156.512 328.539C-156.943 327.836 -157.679 327.496 -158.148 327.784ZM-27.8846 541.925C-29.2196 541.614 -31.441 542.054 -32.8208 542.9C-36.4516 545.126 -36.6966 548.796 -33.5568 553.917C-30.9499 558.168 -30.9498 558.168 -26.2622 555.294C-22.6638 553.087 -21.7564 552.123 -22.3583 551.141C-22.7894 550.438 -22.7586 549.628 -22.2899 549.34C-20.8239 548.441 -25.286 542.529 -27.8846 541.925ZM-49.9132 520.549C-50.6164 520.98 -51.5443 520.758 -51.9754 520.055C-53.1275 518.176 -56.5673 520.691 -57.0591 523.771C-57.2877 525.209 -57.0104 527.144 -56.4424 528.07C-55.2521 530.012 -50.8543 531.679 -49.3534 530.759C-48.7935 530.415 -47.8175 530.477 -47.1849 530.895C-46.2652 531.503 -46.0657 531.381 -46.1911 530.285C-46.2765 529.532 -45.8036 528.582 -45.1397 528.175C-44.2763 527.646 -44.6029 526.34 -46.2833 523.6C-48.0249 520.76 -48.9663 519.968 -49.9132 520.549ZM-69.7727 497.061C-74.2759 496.094 -78.9696 498.079 -79.0113 500.967C-79.0502 503.748 -76.3422 507.441 -74.9086 506.562C-74.2055 506.131 -73.2774 506.354 -72.8463 507.057C-71.575 509.13 -67.3251 505.807 -66.2237 501.879C-65.6885 499.969 -65.3385 498.304 -65.4463 498.178C-65.5551 498.053 -67.5013 497.55 -69.7727 497.061ZM-210.8 277.3C-215.003 278.62 -216.855 281.332 -215.744 284.539C-215.19 286.135 -215.09 287.657 -215.521 287.921C-215.953 288.186 -216.071 288.786 -215.784 289.255C-215.496 289.724 -214.851 289.855 -214.349 289.547C-213.846 289.239 -212.507 289.209 -211.373 289.481C-210.238 289.753 -208.187 289.287 -206.815 288.445C-205.164 287.433 -204.584 286.482 -205.102 285.636C-205.533 284.933 -205.503 284.123 -205.034 283.836C-204.565 283.548 -205.117 281.787 -206.262 279.921C-208.044 277.013 -208.693 276.638 -210.8 277.3ZM-152.476 382.934C-153.883 383.796 -154.817 384.853 -154.554 385.284C-153.273 387.372 -151.192 388.009 -149.346 386.877C-147.739 385.892 -147.584 385.175 -148.613 383.496C-149.716 381.697 -150.317 381.61 -152.476 382.934ZM-51.3776 547.822C-52.8312 547.818 -55.4581 550.714 -54.8702 551.672C-54.3419 552.534 -50.3039 551.381 -49.7067 550.197C-49.1097 549.011 -49.9425 547.828 -51.3776 547.822ZM48.7052 721.849C47.4255 720.902 41.5593 724.23 42.3207 725.471C42.6081 725.94 42.2678 726.676 41.5646 727.107C40.7123 727.63 40.8088 728.743 41.8539 730.448C43.3818 732.939 43.5271 732.939 47.5832 730.452C51.1791 728.247 51.6559 727.596 51.0842 725.667C50.3409 723.162 50.2238 722.973 48.7052 721.849ZM-137.059 426.245C-137.912 426.768 -138.86 426.177 -139.905 424.472C-140.95 422.768 -141.899 422.177 -142.752 422.7C-143.455 423.131 -144.265 423.1 -144.552 422.632C-144.84 422.163 -145.65 422.132 -146.353 422.564C-147.057 422.995 -147.427 423.681 -147.178 424.088C-146.928 424.495 -147.936 425.873 -149.417 427.149C-153.096 430.317 -153.421 432.615 -150.97 438.13C-149.25 442.002 -148.577 442.777 -147.168 442.516C-146.226 442.34 -144.893 443.115 -144.205 444.236C-143.005 446.193 -142.713 446.128 -136.988 442.617C-132.253 439.713 -131.184 438.695 -131.806 437.681C-132.237 436.978 -132.015 436.05 -131.311 435.618C-130.33 435.016 -130.701 433.746 -132.907 430.148C-135.113 426.55 -136.077 425.643 -137.059 426.245ZM-164.393 400.794C-165.565 401.513 -166.289 402.484 -166.002 402.953C-165.714 403.422 -164.52 403.217 -163.348 402.498C-162.176 401.78 -161.453 400.808 -161.74 400.34C-162.027 399.871 -163.221 400.076 -164.393 400.794ZM-60.5521 585.917C-61.8491 586.932 -62.4138 588.14 -61.9472 588.901C-61.4806 589.662 -60.1479 589.706 -58.6545 589.011C-56.6114 588.061 -56.3519 587.507 -57.2595 586.027C-58.1672 584.547 -58.7786 584.527 -60.5521 585.917ZM-60.093 598.024C-61.8041 596.381 -67.6436 599.693 -66.4548 601.632C-66.0238 602.335 -65.2874 602.675 -64.8187 602.387C-64.3499 602.1 -63.3785 602.824 -62.6601 603.995C-61.557 605.794 -60.9559 605.881 -58.797 604.558C-56.1685 602.946 -56.451 601.521 -60.093 598.024ZM-186.857 400.498C-188.183 401.311 -188.692 402.288 -188.204 403.083C-187.717 403.878 -186.616 403.868 -185.29 403.055C-183.964 402.242 -183.455 401.265 -183.943 400.47C-184.43 399.675 -185.531 399.685 -186.857 400.498ZM-94.23 560.639C-94.8116 561.007 -95.604 561.952 -95.9917 562.741C-96.5633 563.909 -96.1975 564.337 -94.0285 565.038C-90.3923 566.213 -89.7524 565.551 -91.6047 562.53C-92.515 561.045 -93.6159 560.252 -94.23 560.639ZM-45.438 641.802C-47.0544 641.492 -49.355 642.152 -51.7304 643.609C-55.6961 646.041 -56.0128 647.349 -53.5924 651.296C-52.8974 652.429 -52.7124 653.592 -53.1812 653.879C-53.65 654.167 -53.1118 655.905 -51.9847 657.743C-50.1083 660.803 -49.6779 660.994 -46.8638 660.018C-44.5803 659.226 -43.7496 658.439 -43.6291 656.954C-43.5393 655.855 -42.6454 654.454 -41.6422 653.839C-40.5888 653.193 -40.1498 652.18 -40.6023 651.442C-41.0334 650.739 -40.8108 649.811 -40.1077 649.38C-38.1704 648.192 -42.2325 642.419 -45.438 641.802ZM-23.98 675.84C-25.4852 676.763 -24.0985 678.437 -22.1954 677.995C-21.5241 677.839 -21.3485 677.104 -21.8036 676.361C-22.2582 675.62 -23.2385 675.385 -23.98 675.84ZM-137.84 498.772C-138.542 498.77 -139.248 499.312 -139.407 499.977C-139.821 501.704 -136.595 504.521 -135.19 503.66C-133.789 502.8 -135.968 498.779 -137.84 498.772ZM-310.804 223.23C-311.507 223.661 -311.729 224.589 -311.298 225.292C-310.867 225.995 -309.939 226.218 -309.236 225.786C-308.533 225.355 -308.31 224.427 -308.742 223.724C-309.173 223.021 -310.101 222.799 -310.804 223.23ZM-85.7796 590.199C-86.9139 589.927 -88.0668 589.338 -88.3411 588.89C-88.6154 588.443 -89.7299 588.347 -90.818 588.676C-93.2296 589.408 -95.8289 591.98 -95.1966 593.011C-94.9432 593.424 -95.3105 594.116 -96.0136 594.547C-96.9605 595.128 -96.6822 596.326 -94.9407 599.166C-93.5345 601.459 -92.2007 602.762 -91.622 602.407C-91.0893 602.081 -89.1779 602.228 -87.3727 602.733C-84.0732 603.658 -80.1185 602.3 -81.161 600.6C-81.4692 600.097 -81.4985 598.758 -81.2264 597.624C-80.9544 596.49 -81.4039 594.466 -82.2248 593.127C-83.0457 591.789 -84.6454 590.47 -85.7796 590.199ZM-76.2158 627.811C-77.6542 627.582 -80.1234 628.188 -81.7044 629.157C-84.8417 631.081 -84.8156 632.815 -81.5678 638.161C-80.4121 640.065 -79.479 640.691 -78.6028 640.154C-77.8997 639.723 -77.0892 639.753 -76.8018 640.222C-76.5144 640.691 -75.3206 640.486 -74.1487 639.767C-72.9768 639.049 -72.253 638.077 -72.5404 637.609C-72.8278 637.14 -72.2959 636.286 -71.3583 635.711C-68.9293 634.222 -72.5086 628.402 -76.2158 627.811ZM-201.123 432.697C-202.45 433.511 -202.958 434.487 -202.47 435.282C-201.983 436.077 -200.882 436.067 -199.556 435.254C-198.23 434.441 -197.721 433.464 -198.209 432.669C-198.696 431.874 -199.797 431.884 -201.123 432.697ZM-240.339 384.046C-242.138 385.149 -242.225 385.75 -240.902 387.909C-239.578 390.067 -239.003 390.262 -237.203 389.158C-235.404 388.055 -235.317 387.454 -236.64 385.296C-237.964 383.137 -238.539 382.942 -240.339 384.046ZM-37.02 713.861C-39.9097 714.399 -41.9085 716.079 -42.7503 718.683C-43.7195 721.681 -41.3005 726.328 -39.3828 725.152C-38.5876 724.664 -37.611 725.172 -36.798 726.498C-35.6223 728.415 -35.1508 728.419 -32.0825 726.538C-28.6733 724.448 -28.6735 724.447 -32.014 719C-34.5781 714.818 -35.7418 713.624 -37.02 713.861ZM-72.8704 678.557C-73.8319 677.632 -75.0472 677.84 -77.5188 679.356C-80.8556 681.402 -80.8595 681.418 -78.7757 684.817C-76.6855 688.225 -76.6856 688.225 -73.2764 686.135C-71.4014 684.985 -70.083 683.692 -70.3469 683.262C-70.6108 682.832 -70.9933 681.879 -71.1977 681.146C-71.4017 680.411 -72.1542 679.247 -72.8704 678.557ZM-260.286 386.897C-260.755 387.185 -260.904 387.803 -260.616 388.272C-260.329 388.74 -259.71 388.889 -259.241 388.601C-258.773 388.314 -258.624 387.695 -258.912 387.227C-259.199 386.758 -259.818 386.61 -260.286 386.897ZM-47.9871 739.808C-49.3133 740.621 -49.8214 741.598 -49.3338 742.393C-48.8463 743.188 -47.7457 743.178 -46.4195 742.365C-45.0933 741.551 -44.5849 740.575 -45.0724 739.78C-45.56 738.985 -46.6609 738.995 -47.9871 739.808ZM-75.4563 758.118C-76.4809 757.941 -77.6777 758.014 -78.1167 758.283C-78.5547 758.552 -79.487 758.332 -80.1883 757.795C-80.8887 757.257 -82.2528 757.302 -83.2202 757.896C-84.1876 758.489 -84.8466 759.684 -84.6849 760.552C-84.524 761.421 -84.9264 762.459 -85.5793 762.86C-86.2321 763.26 -86.4139 764.163 -85.9828 764.866C-85.5517 765.569 -85.5826 766.379 -86.0513 766.667C-86.5201 766.954 -86.1982 768.34 -85.336 769.746C-84.4738 771.152 -83.3849 772.067 -82.9161 771.779C-82.4474 771.492 -81.6458 771.939 -81.1348 772.772C-80.6237 773.605 -79.0294 774.475 -77.5919 774.704C-74.7489 775.155 -71.2695 773.56 -72.1102 772.189C-72.3976 771.72 -72.099 771.009 -71.4462 770.609C-70.7942 770.209 -70.6075 768.776 -71.0319 767.424C-71.4564 766.072 -71.4272 764.734 -70.9678 764.453C-69.6816 763.664 -73.3528 758.482 -75.4563 758.118Z" fill="#7A75F0"/>
</svg>
