<svg width="447" height="748" viewBox="0 0 447 748" fill="none" xmlns="http://www.w3.org/2000/svg">
<path d="M256.298 246.288C259.56 240.21 260.804 233.242 259.839 226.455C258.875 219.668 255.755 213.436 250.959 208.716C249.389 205.116 247.426 201.715 245.108 198.577C242.387 194.828 240.245 190.43 235.159 189.348C230.067 188.96 224.974 188.572 219.881 188.186C216.148 188.374 212.407 188.741 208.68 188.686C207.712 188.531 206.716 188.614 205.776 188.929C204.835 189.243 203.977 189.78 203.271 190.495L198.716 193.374C196.75 194.396 195.032 195.866 193.697 197.667C192.362 199.469 191.446 201.554 191.019 203.76C190.089 205.764 189.662 207.965 189.777 210.162C189.893 212.358 190.546 214.479 191.678 216.329L192.293 217.309C192.861 219.827 195.114 220.839 196.662 222.479L196.696 222.472L196.661 222.482L197.512 224.731L198.247 227.344C198.239 227.504 198.339 227.63 198.342 227.787C198.091 227.735 197.83 227.747 197.578 227.689L196.23 227.745C196.129 227.941 195.969 228.1 195.775 228.199C195.581 228.298 195.362 228.331 195.151 228.294C195.532 228.181 195.977 228.236 196.23 227.745C193.72 227.33 191.346 226.338 189.283 224.843C187.221 223.347 185.524 221.387 184.32 219.109C183.671 216.62 181.467 216.695 179.62 216.174C178.804 211.807 174.463 211.181 171.959 208.604C171.376 206.285 169.425 205.518 167.606 204.598C163.717 201.11 159.758 195.959 154.189 198.241C148.336 200.142 142.579 202.354 136.942 204.869C131.808 206.382 126.895 208.626 122.348 211.534C118.246 212.213 115.645 217.113 110.905 215.989L102.49 216.466L96.6344 216.561L84.5118 212.073C82.9628 210.295 81.0999 208.833 79.0173 207.76L79.0138 207.759C78.1455 206.422 76.827 205.463 75.303 205.059L74.6062 205.432C74.8255 205.284 75.1517 205.35 75.3013 205.059C72.8145 202.048 70.8253 198.637 69.4102 194.957C68.7462 191.995 69.4534 188.762 67.8967 185.973L67.4072 183.295L67.1795 180.882C67.8328 178.665 69.3879 176.655 68.7908 174.146L68.9067 172.974C69.1021 170.778 68.7554 168.577 67.8986 166.575C67.0418 164.573 65.7024 162.834 64.0039 161.518C62.6634 159.774 60.9411 158.379 58.9715 157.442C57.002 156.505 54.8386 156.052 52.6505 156.118L47.3599 155.811C46.4217 155.527 45.4267 155.475 44.4563 155.661C43.4858 155.846 42.5676 156.264 41.7767 156.879C38.4998 158.766 35.0287 160.287 31.6396 161.961C27.297 164.82 22.9544 167.677 18.6121 170.532C15.4475 174.134 13.7353 178.818 13.8311 183.613C13.1479 187.536 12.8947 191.517 13.0761 195.481C10.8891 202.028 10.847 209.088 12.9565 215.576C15.066 222.064 19.2104 227.622 24.7535 231.397C31.9955 236.079 38.5366 241.797 44.1839 248.382C45.3289 252.499 44.6846 257.449 51.9959 256.558C56.476 256.015 63.7677 273.608 61.4885 278.075C60.0593 280.544 58.4848 282.925 56.774 285.203L54.3558 285.766C51.1951 285.39 48.9271 288.029 46.0176 288.502C45.9846 288.43 45.9342 288.367 45.8709 288.32C45.8076 288.273 45.7335 288.244 45.6554 288.234C45.5773 288.225 45.4978 288.236 45.4241 288.266C45.3504 288.296 45.2849 288.344 45.2337 288.407C43.8745 287.598 42.2626 287.335 40.7047 287.668L40.7 287.666C40.68 287.585 40.6413 287.51 40.5872 287.447C40.5331 287.384 40.465 287.336 40.3885 287.306C40.3121 287.275 40.2294 287.264 40.1472 287.273C40.065 287.282 39.9856 287.31 39.9155 287.356C37.9208 285.658 35.5847 284.426 33.0652 283.742L33.044 283.764C22.2398 278.825 10.7513 275.563 -1.04971 274.083C-6.83646 274.681 -7.22581 279.327 -7.33875 283.533C-6.9043 294.679 -5.64936 305.759 -3.5846 316.68L-3.58899 316.678C-3.95392 322.845 -5.99334 328.819 -9.47701 333.925L-9.47536 333.925C-14.2473 335.958 -18.3139 339.445 -21.1134 343.907C-20.8162 344.017 -20.5173 344.121 -20.2173 344.222L-20.2518 344.318C-20.4969 344.09 -20.7178 343.816 -21.1134 343.907C-25.0733 351.756 -32.1571 350.871 -38.9182 350.893C-39.2364 351.159 -39.164 351.511 -39.1269 351.85L-39.3906 351.742L-39.3923 351.742L-38.9182 350.893C-42.9654 345.088 -48.1798 346.779 -53.4472 348.802C-55.7335 349.55 -58.1161 350.315 -57.8306 353.457C-57.535 356.739 -54.9226 357.379 -52.3913 357.813C-49.6446 358.218 -46.8313 357.967 -44.17 357.08C-41.5087 356.193 -39.071 354.693 -37.0461 352.698C-34.9532 353.796 -32.7853 352.75 -30.659 352.822C-29.3792 352.862 -27.985 351.839 -27.0088 353.856C-25.3155 357.241 -22.8136 360.121 -19.7311 362.235C-16.6486 364.349 -13.0834 365.63 -9.36024 365.959C-9.16948 366.848 -8.69652 367.641 -8.01472 368.216C-7.33292 368.791 -6.48039 369.116 -5.58941 369.14C-4.13704 369.105 -5.14903 367.347 -4.97633 366.375L-4.96783 366.378C-4.67377 366.244 -4.34943 366.2 -4.03505 366.253C-3.72066 366.305 -3.43005 366.451 -3.19924 366.673C-3.73796 366.483 -4.15282 366.07 -4.96783 366.378C-0.392886 369.218 -3.51659 372.999 -3.97746 376.457L-7.38112 378.631C-9.92451 380.334 -13.2712 380.562 -15.2933 383.231C-20.028 385.206 -24.3155 388.187 -27.8684 391.973L-29.8911 393.212C-32.6882 393.905 -33.2341 398.581 -37.0185 397.525C-42.7893 399.725 -48.3828 402.12 -49.3589 409.51C-50.5628 414.64 -46.7038 416.278 -43.4746 417.802C-39.0724 419.46 -34.2656 419.746 -29.6529 418.623C-25.0403 417.5 -20.8257 415.018 -17.5343 411.487C-14.5085 408.153 -13.3364 402.97 -8.37642 401.513L-8.00902 401.479L-3.15967 403.485C-3.02104 405.313 -1.33139 404.932 -0.333696 405.539L-0.197424 405.437L-0.16699 405.458L-0.333696 405.539C-0.904224 410.452 4.44312 412.502 4.77964 416.978C3.23284 422.122 -2.59689 424.143 -3.97826 429.408C-4.99619 430.231 -5.87662 431.219 -6.58353 432.332C-7.69205 431.392 -8.95945 431.28 -9.71957 432.247C-9.956 432.55 -10.1251 432.901 -10.2145 433.276C-10.304 433.65 -10.3118 434.039 -10.2372 434.413C-10.3889 434.426 -10.4191 434.6 -10.5812 434.596C-11.0796 434.496 -11.5964 434.519 -12.0888 434.665C-12.5811 434.81 -13.0349 435.072 -13.4124 435.431L-13.4146 435.43C-13.9545 435.467 -14.4824 435.624 -14.9616 435.89C-15.4409 436.155 -15.86 436.523 -16.1899 436.968C-16.8914 437.701 -17.427 438.581 -17.7572 439.546C-18.0875 440.51 -18.2041 441.534 -18.0985 442.542C-15.7557 442.98 -13.0702 445.061 -11.6586 441.017L-11.3731 440.815L-11.4503 440.472L-9.93765 439.346C-9.11935 438.832 -8.41047 438.152 -7.85561 437.349C-7.32948 437.64 -6.70941 437.71 -6.12539 437.543C-5.54139 437.376 -5.03878 436.985 -4.72296 436.453C-3.47823 434.925 -4.15965 434.254 -4.93597 433.663C-4.60131 433.075 -4.23255 432.507 -3.83176 431.964C1.10201 428.779 2.841 422.909 6.75068 418.863C8.66857 418.309 10.5118 417.5 12.2327 416.457C14.4885 414.65 17.2 413.551 20.0306 413.297C22.8612 413.042 25.6863 413.643 28.1551 415.025C29.6668 415.688 31.1932 416.309 32.7189 416.942C31.5509 418.99 30.7393 421.226 30.3208 423.546L30.3241 423.548L30.3215 423.55L28.1152 426.21C26.2224 426.937 25.2294 428.129 26.0393 430.268C26.3522 433.924 22.6802 436.288 22.8925 439.912L22.8935 439.915C22.7918 440.237 22.5999 440.522 22.3422 440.736L22.342 440.737C19.6954 439.517 19.1431 441.543 18.4731 443.392C15.9298 445.358 12.2849 446.513 13.0897 450.948L13.3575 452.488L14.0614 454.879C13.642 455.97 14.4855 456.527 14.9743 457.235C14.6393 462.029 11.9267 466.63 13.5994 471.584C13.7439 471.64 13.8774 471.536 14.0198 471.55L14.0019 471.584L13.5994 471.584C11.7192 474.454 10.8657 477.887 11.1869 481.289C9.92468 484.432 11.5699 487.101 12.3643 489.909L12.4459 494.858C12.0693 496.705 10.395 498.361 11.5649 500.433L11.564 500.435L11.5633 500.431C8.37812 502.871 10.2602 504.6 12.2354 506.317C11.96 506.972 11.9355 507.705 12.1668 508.368C12.3982 509.03 12.8682 509.573 13.4819 509.887C12.1965 512.12 13.371 514.109 13.9476 516.159L14.8019 521.789C14.634 522.846 14.7442 523.925 15.1212 524.913C15.4982 525.902 16.1283 526.764 16.9462 527.41C17.0824 528.376 17.4567 529.286 18.034 530.054C18.6114 530.822 19.3728 531.424 20.2469 531.803L22.9382 537.284C22.2979 538.453 23.2485 538.991 23.8129 539.68L23.2899 542.131C23.3449 542.322 23.4523 542.491 23.5994 542.62C23.7465 542.748 23.9273 542.83 24.1203 542.856L24.0675 542.917L23.2907 542.131L21.1387 542.572L21.1361 542.573C20.4846 541.708 19.7975 540.978 18.673 541.959C17.33 541.877 15.9815 542.136 14.7471 542.713C13.5127 543.29 12.4308 544.168 11.5974 545.269L10.2662 546.764C9.41397 547.355 8.75899 548.201 8.3934 549.183C8.0278 550.165 7.97 551.234 8.22811 552.24C8.251 552.41 8.3084 552.573 8.39666 552.718C8.48493 552.863 8.6021 552.987 8.7407 553.082L8.74009 553.084L8.03361 555.765C7.49953 556.449 7.2324 557.308 7.28538 558.172C7.33835 559.036 7.70756 559.842 8.3195 560.429C8.33571 562.802 9.76709 563.639 11.812 563.733C14.3654 563.402 16.8049 562.403 18.8941 560.832C20.9831 559.261 22.6509 557.172 23.7356 554.767C24.5792 553.811 24.9807 552.047 26.8367 552.952C26.2263 556.022 29.3184 556.628 30.3564 558.603L27.6339 561.665C26.1335 561.766 24.872 562.133 25.0507 564.105C23.8385 566.142 23.4412 568.567 23.9436 570.865C23.7317 571.356 23.6342 571.889 23.6591 572.422C23.684 572.954 23.8305 573.47 24.0869 573.929C24.0527 578.323 23.745 582.716 23.1657 587.081C25.5986 583.024 27.0719 578.454 27.4655 573.745L30.2907 562.397C31.2952 560.986 31.7788 559.263 31.6536 557.541C33.6232 556.226 31.5712 553.477 33.5682 552.172C36.4514 551.807 39.1039 549.994 42.1393 550.577C42.8733 550.937 43.6833 551.113 44.5034 551.091C45.3235 551.069 46.1308 550.849 46.8597 550.449L52.4087 551.136C52.8586 551.764 53.4545 552.265 54.144 552.597C54.8334 552.928 55.5951 553.079 56.3621 553.037L59.6358 556.012C60.1336 557.983 60.0615 560.206 61.881 561.599L62.0819 561.548L62.0721 561.618L61.881 561.599C60.164 564.662 61.1691 567.965 60.9014 571.156C60.7338 573.452 61.2721 575.73 62.4405 577.669C63.609 579.609 65.3488 581.112 67.4155 581.969L69.7723 584.316C71.4044 587.191 73.7965 589.527 76.6794 591.061L77.551 596.939C77.4432 597.625 77.5208 598.324 77.7751 598.961C78.0294 599.597 78.4508 600.147 78.9934 600.55L80.1673 602.06L80.1722 602.064C80.7447 604.44 82.7476 605.243 84.5764 606.23L86.1892 607.319L86.525 607.694L86.9712 607.926L85.7102 616.3C85.0348 617.359 84.6107 618.562 84.4727 619.81C84.3347 621.059 84.4866 622.317 84.9161 623.482C85.3839 625.926 83.877 629.552 88.3328 629.609C88.727 629.542 89.0942 629.354 89.3853 629.07C89.6764 628.786 89.8774 628.419 89.9617 628.019C91.1822 626.944 91.9664 625.441 92.155 623.816C93.8795 620.039 94.5274 615.859 94.0228 611.763L95.5073 608.813L95.4727 608.651L101.646 604.893L106.969 605.483L106.973 605.483L106.969 605.485L108.367 606.904C108.472 608.631 107.611 610.456 108.812 612.755C109.952 610.934 110.604 608.844 110.7 606.7L112.576 605.932L114.995 606.55C117.265 607.73 119.278 609.361 120.918 611.35C120.637 611.962 120.905 612.31 121.445 612.524C121.583 612.866 121.778 613.18 122.023 613.45C121.226 615.552 123.329 616.586 123.638 618.281C123.144 620.333 124.35 621.875 125.06 623.565L125.83 625.934C125.788 626.74 125.963 627.538 126.337 628.241C126.71 628.943 127.267 629.523 127.947 629.917L128.025 629.908L128.027 629.91C127.831 630.139 127.68 630.404 127.585 630.691C127.49 630.978 127.452 631.28 127.473 631.58C127.494 631.88 127.574 632.171 127.708 632.437C127.842 632.702 128.027 632.936 128.253 633.125C128.673 635.641 129.566 638.04 130.88 640.193C132.857 643.816 131.709 648.184 133.313 651.897C134.002 659.866 136.122 667.607 139.568 674.733C139.339 675.436 139.321 676.188 139.515 676.893C139.709 677.598 140.106 678.223 140.655 678.687L141.947 682.001L144.505 687.364C144.666 688.773 145.131 690.121 145.865 691.312C146.6 692.504 147.586 693.509 148.753 694.255L148.755 694.258C149.039 696.852 151.299 697.923 152.688 699.662L152.704 699.658L152.694 699.662C154.233 701.855 156.104 703.779 158.238 705.365L158.266 705.397L158.279 705.395C158.875 705.923 159.517 706.392 160.198 706.798L159.257 705.457L159.173 705.373L159.323 705.368L159.258 705.456C159.213 705.764 159.286 706.075 159.461 706.325C159.636 706.575 159.9 706.745 160.198 706.798C161.92 707.495 163.837 707.556 165.624 706.973C169.375 705.809 172.78 703.66 175.497 700.742C176.225 700.5 176.878 700.058 177.385 699.466C177.892 698.874 178.234 698.154 178.372 697.384C180.303 695.537 183.311 694.772 183.917 691.595L184.814 689.101C187.254 686.043 185.022 682.63 185.691 679.44C186.439 677.839 185.649 676.346 185.476 674.807C184.963 670.096 183.487 665.567 181.145 661.513L180.307 659.194C179.411 654.512 179.832 649.64 181.52 645.141C183.209 640.642 186.097 636.699 189.85 633.767L197.42 630.095C203.04 628.518 207.416 632.428 212.459 633.386C212.642 633.329 212.808 633.22 212.935 633.073C213.063 632.925 213.149 632.745 213.182 632.552L213.198 632.567L212.456 633.39C214.75 635.233 217.533 636.337 220.463 636.567C222.876 637.062 223.784 635.711 224.007 633.519C224.977 627.623 225.95 621.729 226.924 615.835C227.964 613.157 229.627 610.771 231.767 608.886C236.568 609.447 241.452 608.547 245.811 606.297C248.881 606.171 252.209 604.772 254.609 607.981C256.668 612.063 260.071 615.25 264.229 616.988L265.841 618.562C268.648 625.117 273.781 630.303 280.221 633.09C285.105 635.798 289.647 639.095 293.752 642.912C294.995 643.869 296.384 644.822 297.561 643.619C298.839 642.315 297.74 640.682 296.722 639.732C290.78 631.652 282.625 625.575 273.262 622.25C271.921 622.001 270.653 621.457 269.546 620.657C268.439 619.857 267.517 618.819 266.843 617.614C266.379 614.168 267.402 610.269 264.146 607.666C263.939 606.559 263.396 605.554 262.594 604.793C261.791 604.032 260.77 603.553 259.675 603.425L257.393 603.289C256.597 602.359 255.55 602.775 254.575 602.79L246.313 600.086C244.691 599.464 243.063 598.452 241.458 600.225L241.289 599.948L240.975 600.027C238.254 598.769 235.315 598.055 232.313 597.922C228.17 595.514 228.088 591.924 229.73 587.859C230.269 586.529 231.074 585.268 230.517 583.747L230.786 578.039C233.054 571.096 234.835 570.231 241.806 572.684L247.232 575.073C251.5 577.984 254.975 574.25 258.794 573.396L258.797 573.397C259.098 573.278 259.369 573.086 259.585 572.84C260.829 574.879 262.413 572.438 263.762 573.089C267.694 575.928 271.361 579.128 274.721 582.65C276.067 583.95 277.615 585.014 279.304 585.799C279.682 586.888 280.434 587.792 281.422 588.346L283.306 590.111C285.229 592.625 288.226 591.819 290.743 592.503C291.202 593.116 291.818 593.586 292.526 593.86C293.234 594.135 294.006 594.203 294.757 594.059C298.437 595.303 302.391 595.527 306.221 594.706C308.059 594.341 309.73 593.341 310.951 591.873C311.193 591.679 311.353 591.399 311.399 591.09C311.444 590.782 311.372 590.47 311.197 590.219L311.102 590.175L311.239 590.104L311.199 590.222L310.951 591.873C311.378 591.178 311.741 590.446 312.038 589.686L312.05 589.679L312.062 589.637C313.26 587.178 314.078 584.55 314.488 581.848C314.959 579.619 316.497 577.556 315.614 575.114C316.321 573.877 316.755 572.501 316.885 571.083C317.016 569.666 316.838 568.242 316.367 566.915L316.289 560.903L315.988 557.331C316.102 557.021 315.784 556.804 315.831 556.508C317.749 556.261 319.641 555.802 321.472 555.141L321.473 555.138L321.474 555.142L322.779 555.432C324.55 555.548 326.33 555.223 327.968 554.484C329.606 553.746 331.052 552.615 332.184 551.19C334.384 551.07 336.527 550.377 338.412 549.176C340.297 547.975 341.86 546.307 342.952 544.329C345.221 542.034 346.85 539.163 347.666 536.022C348.232 535.49 348.682 534.841 348.984 534.12C349.287 533.398 349.435 532.621 349.418 531.842C351.066 527.459 352.717 523.077 354.371 518.695L355.252 517.265C356.208 516.737 356.959 515.886 357.375 514.861C357.792 513.836 357.848 512.7 357.533 511.652L357.315 511.759L357.316 511.756L357.224 511.666L357.533 511.652C356.48 507.568 352.56 506.186 350.137 503.395L348.019 501.072C347.565 498.435 345.304 497.376 343.651 495.787C341.628 492.751 339.458 489.802 337.635 486.649C338.056 486.848 338.304 487.304 338.766 487.441C339.016 487.754 339.355 487.979 339.737 488.087C340.119 488.195 340.527 488.18 340.906 488.045C344.826 485.794 341.903 483.326 341.255 480.929C341.126 479.685 340.711 478.496 340.044 477.459C339.377 476.422 338.476 475.566 337.415 474.962L335.942 472.863C336.671 471.139 337.755 469.59 339.119 468.325C344.079 462.478 347.696 455.578 349.697 448.147C351.836 442.991 346.171 435.173 339.81 432.596C340.612 431.06 341.021 429.348 340.997 427.621C340.973 425.895 340.517 424.212 339.673 422.733C338.046 420.036 337.494 416.617 334.637 414.75L334.476 414.862L334.435 414.806L334.637 414.75C335.218 413.114 335.154 411.322 334.457 409.76C336.026 407.603 338.142 405.924 340.568 404.912C342.993 403.899 345.633 403.592 348.192 404.025C350.172 404.101 352.158 403.909 354.099 403.454C359.327 405.107 363.434 409.446 369.191 409.837C370.576 410.429 371.841 411.313 373.166 412.05C375.08 414.515 377.413 416.604 380.056 418.219C379.063 416.523 378.142 414.81 377.091 413.163C377.354 413.181 377.548 413.374 377.825 413.362L379.657 413.613L379.736 413.954L380.078 413.994C383.061 416.848 384.534 413.784 386.39 412.224C386.584 412.392 386.67 412.659 386.926 412.758C387.94 413.15 388.951 412.35 389.453 411.323C389.717 410.75 389.776 410.104 389.622 409.499C389.468 408.893 389.109 408.367 388.608 408.013C387.263 407.923 385.901 408.233 385.511 409.581C385.451 409.783 385.558 409.985 385.548 410.195C384.751 409.144 383.608 408.427 382.326 408.172C381.839 407.94 381.306 407.821 380.765 407.822C380.225 407.823 379.688 407.945 379.193 408.179C378.703 408.046 378.186 408.037 377.686 408.151C377.186 408.265 376.718 408.5 376.321 408.835C375.845 409.084 375.325 409.224 374.796 409.246C374.395 408.49 373.833 407.819 373.496 407.025C373.522 406.492 373.426 405.963 373.216 405.479C373.006 404.995 372.688 404.571 372.287 404.239C371.727 401.956 370.315 400.005 368.352 398.799C367.65 396.964 366.373 397.263 364.998 397.913L361.25 396.545C361.306 394.282 363.782 392.219 361.899 389.801C363.15 388.082 364.273 389.449 365.438 389.879C367.449 391.474 369.839 392.502 372.375 392.862C374.912 393.223 377.51 392.903 379.916 391.936C380.346 391.768 380.737 391.506 381.062 391.169C381.386 390.832 381.635 390.428 381.793 389.985C381.95 389.542 382.011 389.071 381.972 388.605C381.933 388.139 381.794 387.69 381.566 387.288L381.563 387.287L381.567 387.285C381.679 386.805 381.666 386.306 381.529 385.838C384.672 385.742 387.774 384.971 390.633 383.574C393.492 382.178 396.044 380.187 398.123 377.732C400.317 374.789 403.021 371.435 399.715 367.485C395.623 361.419 389.624 362.059 383.55 362.956C380.659 365.761 378.132 361.886 375.353 362.653L373.024 362.552C368.723 361.234 364.201 360.77 359.698 361.183C359.904 360.347 359.944 359.48 359.816 358.634C359.689 357.788 359.396 356.98 358.955 356.259L357.249 350.852C356.869 348.752 357.04 346.41 354.926 345.068C355.333 344.487 355.512 343.773 355.427 343.072C355.342 342.371 355 341.734 354.469 341.29C354.863 340.615 355.044 339.834 354.987 339.058C354.93 338.281 354.639 337.547 354.153 336.956C355.109 334.484 355.606 331.859 355.616 329.218C355.6 326.949 357.283 327.169 358.399 326.499C360.249 325.387 362.629 325.244 364 323.239C366.666 324.008 369.48 324.133 372.225 323.605C374.97 323.077 377.571 321.91 379.827 320.195C381.879 318.565 383.912 316.708 382.744 313.655C381.624 310.732 379.177 311.228 376.83 311.695C371.281 312.503 365.924 313.578 364.873 320.717L365.661 321.232L365.66 321.235L365.474 321.459C365.356 321.142 365.269 320.795 364.873 320.717C359.081 323.922 353.368 327.838 346.739 323.61C346.638 321.694 345.828 319.903 344.472 318.603C343.271 315.431 341.016 312.812 338.097 311.2L337.742 311.396L337.713 311.375C337.831 311.296 337.993 311.319 338.097 311.2C337.415 305.985 333.004 303.248 330.615 299.168C330.737 298.299 331.243 297.388 330.395 296.628L329.972 294.164L329.539 292.668C328.316 288.341 324.579 289.119 321.47 288.63C320.068 287.324 318.695 285.8 316.883 288.187C316.56 288.125 316.265 287.966 316.034 287.73C314.673 284.49 310.613 284.079 309.195 280.898C308.576 279.499 308.21 277.991 307.49 276.632C305.551 272.961 303.18 269.04 297.793 271.365C297.534 271.611 297.245 271.823 296.985 272.065C296.109 271.421 295.145 270.911 294.122 270.551L291.813 266.068C290.968 264.182 291.095 261.574 288.346 261.106C287.001 255.998 282.7 257.02 279.106 256.572C278.057 256.162 276.907 256.085 275.802 256.348C274.697 256.612 273.687 257.205 272.901 258.051C272.29 258.329 271.626 258.455 270.963 258.42C270.301 258.384 269.66 258.187 269.093 257.845L269.09 257.844C267.532 256.253 265.599 255.097 263.471 254.483C261.343 253.869 259.087 253.818 256.913 254.333L253.395 252.35C254.373 250.336 255.288 248.301 256.298 246.288ZM-12.1821 436.051L-12.1995 436.062L-12.195 436.044L-12.1843 436.05L-12.1821 436.051ZM378.38 409.325L378.393 409.342L378.372 409.338L378.38 409.325ZM86.1596 215.157C86.0625 215.227 85.9314 215.161 85.8437 215.261L85.7418 215.007L86.1596 215.157ZM123.34 216.647L123.32 216.723L123.319 216.678L123.34 216.647ZM318.793 549.522C318.781 549.4 318.73 549.286 318.647 549.199C318.565 549.112 318.455 549.056 318.337 549.04L318.793 549.522ZM229.877 561.857L229.831 561.882C230.012 561.678 230.168 561.451 230.292 561.207C230.189 561.445 230.049 561.665 229.877 561.857ZM145.716 207.302C145.655 207.412 145.612 207.532 145.591 207.656L145.292 207.526L145.716 207.302ZM153.859 655.672L153.87 655.684L153.881 655.67L154.451 656.204C154.226 656.072 154.076 655.818 153.789 655.789L153.859 655.672ZM30.6662 206.408L30.7098 206.149L30.8342 206.292L30.6662 206.408ZM166.549 652.155L166.7 651.956L166.699 651.969L166.549 652.155ZM273.244 270.24L273.074 270.265L273.08 270.197L273.244 270.24ZM275.307 272.888C275.202 272.142 274.879 271.45 274.381 270.902L274.384 270.903C274.486 271.649 274.808 272.342 275.307 272.888ZM163.217 679.928L163.241 680.04L163.176 679.972L163.217 679.928ZM120.532 577.949L120.652 578.064L120.532 577.949ZM82.0899 293.142L82.1227 293.151L82.112 293.208L82.0883 293.142L82.0899 293.142ZM226.4 233.683L226.46 233.679L226.372 233.769L226.4 233.683ZM43.3142 337.507L43.3491 337.51L43.6898 338.251L43.6275 338.28C43.5922 337.997 43.4841 337.731 43.3142 337.507ZM30.2253 343.128C30.0059 343.136 29.712 342.599 30.0792 342.766C30.27 342.745 30.4036 342.889 30.5811 342.911L30.9713 343.367C30.6527 343.323 30.6642 343.116 30.2253 343.128ZM93.055 290.933L93.098 290.913L93.2764 291.169L93.2935 291.168L93.2652 291.2L93.2684 291.175L93.055 290.933ZM69.2235 322.944L69.2745 322.943L69.322 322.97L69.2235 322.944ZM102.365 286.208L102.905 287.19L102.898 287.194C102.942 286.989 102.912 286.776 102.814 286.595C102.716 286.413 102.557 286.276 102.365 286.208ZM101.055 314.114C101.158 314.64 101.376 314.794 101.521 315.182C101.334 315.065 101.115 315.01 100.894 315.024C100.915 314.716 100.969 314.411 101.055 314.114ZM55.4527 353.296L55.7176 353.075L55.7429 353.4L55.4527 353.296ZM163.817 550.628L163.757 550.458L163.909 550.525L163.817 550.628ZM168.315 273.512L168.185 273.641L168.151 273.495L168.315 273.512ZM158.621 271.277L158.632 271.246L158.729 271.236L158.621 271.277ZM152.099 272.132L151.899 272.325L152.099 272.132ZM127.918 524.602L127.932 524.581L127.94 524.594L127.919 524.609L127.918 524.602ZM181.549 519.35L181.598 519.309L181.618 519.348L181.549 519.35ZM177.962 264.879L177.872 264.898C177.684 264.834 177.493 264.772 177.308 264.702L177.371 264.594C177.446 264.68 177.536 264.749 177.638 264.798C177.739 264.847 177.85 264.875 177.962 264.879ZM158.067 256.568L157.948 256.528C158.07 256.438 158.171 256.32 158.241 256.184C158.311 256.047 158.348 255.896 158.35 255.743L158.362 255.751C158.264 256.025 158.161 256.295 158.067 256.568ZM155.207 550.222L155.22 550.263L155.231 550.287L155.237 550.287L155.01 550.549L154.962 550.535L155.207 550.222ZM170.093 532.155L169.951 532.06L170.252 531.98L170.254 531.983L170.093 532.155ZM173.17 528.469L173.362 528.32C173.332 528.43 173.261 528.472 173.233 528.587L173.17 528.469ZM141.892 273.973L142.533 273.886L142.545 273.878L142.548 273.879L142.533 273.886C142.47 274.078 142.267 274.03 142.194 274.199L141.892 273.973ZM128.091 537.25L128.317 537.354L128.815 537.82C128.674 537.635 128.59 537.386 128.317 537.354L128.162 537.423L128.091 537.25ZM138.831 549.357L138.848 550.018C138.913 549.918 138.946 549.801 138.943 549.682C138.94 549.564 138.901 549.45 138.831 549.357ZM148.459 554.731L148.352 554.632L148.356 554.629L148.354 554.626L148.395 554.606L148.459 554.731ZM163.925 552.278L163.923 552.266C164.534 552.539 164.726 552.832 164.734 553.137C164.588 552.845 164.671 552.538 163.925 552.278ZM166.403 259.575L167.26 259.888C167.152 259.77 167.018 259.68 166.868 259.627C166.719 259.574 166.558 259.559 166.4 259.583L166.403 259.575L165.698 258.173C165.648 258.456 165.69 258.747 165.817 259C165.944 259.254 166.15 259.455 166.403 259.575ZM153.131 559.125L153.182 559.155L153.178 559.167L153.272 559.199L153.152 559.188L153.167 559.172L153.131 559.125ZM247.717 295.963L246.674 295.59L246.717 295.471C246.822 295.639 246.971 295.774 247.147 295.861C247.324 295.948 247.521 295.983 247.717 295.963ZM118.907 534.689L118.926 534.774L118.889 534.733L118.907 534.689ZM114.663 259.015C114.876 258.794 115.13 258.618 115.408 258.497C115.165 258.684 114.888 258.809 114.663 259.015ZM113.372 292.678C113.238 292.862 113.148 293.076 113.11 293.301C113.072 293.527 113.087 293.757 113.154 293.973L113.153 293.976L113.372 292.678ZM115.71 533.227L115.752 533.221L115.745 533.267L115.71 533.227L115.713 533.443L115.652 533.261L115.71 533.227ZM122.942 540.032C123.091 540.111 122.985 540.242 123.103 540.326C122.855 540.414 122.687 540.632 122.454 540.748C122.621 540.515 122.761 540.244 122.942 540.032ZM256.771 293.305L256.745 293.197L256.858 293.218L256.771 293.305ZM190.099 254.907L190.14 254.922L190.11 255.007L190.099 254.907ZM132.84 252.415C132.684 252.337 132.553 252.408 132.401 252.353L132.615 252.216L132.84 252.415ZM110.716 291.349L110.59 291.355L110.66 291.291L110.716 291.349ZM175.169 249.489L177.723 250.388C177.453 249.976 177.059 249.666 176.599 249.504C176.139 249.342 175.638 249.337 175.169 249.489ZM159.495 247.486L159.101 247.332C159.28 247.118 159.518 247.274 159.717 247.195L159.495 247.486ZM145.096 247.108L145.098 247.112L145.095 247.111L144.967 247.062L145.053 246.901L145.096 247.108ZM101.111 252.987L101.374 253.091C101.25 253.177 101.076 253.214 100.982 253.33C100.976 253.2 101.127 253.127 101.11 252.989L101.104 252.984L101.111 252.987ZM112.217 264.144L112.384 263.677L112.572 263.147L112.733 263.208C112.579 263.315 112.452 263.457 112.362 263.623C112.272 263.79 112.223 263.975 112.217 264.163L112.217 264.144ZM56.9346 350.226L56.8891 350.2L56.916 350.178L56.9346 350.226ZM125.323 548.68L125.556 548.668L125.509 548.774L125.323 548.68ZM122.951 551.705C123.034 551.593 123.175 551.735 123.275 551.691L122.951 551.705ZM129.715 557.232L129.463 557.333L129.642 557.169L129.715 557.232ZM190.542 253.68L190.553 253.812L190.463 253.728L190.542 253.68ZM121.687 253.302C121.687 252.972 121.591 252.65 121.411 252.38L121.517 252.408L121.943 253.285L121.687 253.302ZM112.037 284.177L112.114 283.974L112.037 284.177ZM121.614 548.075L121.633 548.074L121.634 548.079L121.638 548.086L121.614 548.075ZM122.828 563.172L122.895 563.168L122.882 563.205L122.828 563.172ZM166.225 577.63L166.232 577.645L166.205 577.687L166.225 577.63ZM256.677 287.177L256.668 287.148L256.681 287.156L256.677 287.177L256.713 287.187L256.749 287.26L256.677 287.177ZM103.125 540.666C102.941 540.73 102.773 540.838 102.635 540.981C102.498 541.124 102.395 541.298 102.336 541.488L103.125 540.666ZM187.433 557.367L187.535 557.472L187.335 557.607L187.433 557.367ZM159.254 240.194L159.253 240.197L159.248 240.201L159.251 240.202L159.213 240.317L159.096 240.022L159.254 240.194ZM158.881 241.277L158.879 241.276L158.887 241.263L158.881 241.277ZM101.183 249.415L101.058 249.37L101.124 249.352L101.183 249.415ZM122.885 569.43L123.08 569.482L123.082 569.485L123.08 569.484L123.009 569.569L122.885 569.43ZM90.4541 243.233L90.5583 243.248L90.5431 243.29L90.4541 243.233ZM127.601 572.219L127.781 572.4L127.601 572.219ZM127.02 575.335L126.914 575.535C126.672 575.364 126.543 574.8 126.82 575.287C126.934 575.489 126.96 575.284 127.02 575.335ZM150.418 222.533L148.65 221.998C148.877 222.229 149.157 222.398 149.465 222.491C149.773 222.584 150.1 222.598 150.418 222.533ZM101.212 236.291L101.016 236.105L101.229 236.287L101.212 236.291ZM94.5283 277.215L94.7059 277.231L94.7066 277.235L94.6323 277.294L94.5283 277.215ZM87.8176 284.331C87.5613 284.009 87.2202 283.769 86.8335 283.639C86.4468 283.509 86.03 283.494 85.6308 283.595L87.8176 284.331ZM38.6221 388.117L38.6211 388.12L38.4494 388.058L38.6014 387.998L38.6221 388.117ZM31.8174 397.366L31.707 397.668L31.391 397.533C31.5456 397.502 31.654 397.384 31.8174 397.366ZM89.3939 539.41L89.3501 539.437L89.3476 539.34L89.3939 539.41ZM106.709 569.408L106.715 569.607L106.574 569.414L106.709 569.408ZM195.782 599.236L195.743 599.243L195.746 599.234L195.773 599.227L195.782 599.236ZM202.609 594.839L202.632 594.851L202.612 594.924L202.609 594.839ZM113.996 239.602L113.96 239.598L113.982 239.526L113.996 239.602ZM105.358 237.706L105.353 237.705L105.357 237.7L105.358 237.706ZM76.9243 241.998L77.0188 241.993L76.9452 242.088L76.9243 241.998ZM98.3837 276.292L98.3724 276.298C98.2656 276.59 98.1885 276.892 98.1425 277.199L97.9019 277.116C98.1286 276.884 98.4856 276.731 98.3717 276.301L98.3329 276.261L98.3837 276.292ZM30.7472 298.753L30.8444 298.635L30.9949 298.842L30.9978 298.849L30.9939 298.845L30.9949 298.842L30.7472 298.753ZM64.6871 334.96L64.6849 334.959L64.488 334.892C64.55 334.777 64.4663 334.715 64.5164 334.602L64.6871 334.96ZM39.2588 334.02L39.2951 334.256L39.0433 333.968L39.2588 334.02ZM14.8838 364.965L14.6562 364.941L14.7075 364.908L14.8838 364.965ZM313.25 500.97L312.448 500.194C312.512 500.38 312.618 500.547 312.757 500.681C312.897 500.816 313.066 500.915 313.25 500.97ZM257.568 271.993L257.488 271.913L257.605 271.939L257.568 271.993ZM224.242 220.717C224.325 221.034 224.363 221.363 224.357 221.693C224.349 221.364 224.311 221.037 224.242 220.717ZM195.192 243.062L195.197 243.057L195.199 243.061L195.192 243.062ZM136.111 223.494L136.024 223.402L136.114 223.418L136.111 223.494ZM61.3493 207.558L61.3809 207.528L61.3671 207.561L61.3493 207.558ZM41.9774 192.925C42.0574 193.244 42.1662 193.554 42.3026 193.852C42.1525 193.561 42.0435 193.249 41.9788 192.925L41.9774 192.925ZM91.294 273.55L91.3291 273.563L91.3334 273.561L91.3307 273.563L91.3098 273.617L91.294 273.55ZM82.7372 281.367L82.7677 281.368L82.7835 281.361L82.7677 281.368L82.7119 281.438L82.7372 281.367ZM52.9773 486.126C53.1114 485.907 53.1937 485.617 53.3913 485.489C53.4491 485.656 53.3651 485.796 53.4052 485.96C53.2395 485.965 53.1262 486.082 52.9773 486.126ZM44.0405 516.435C44.2774 516.051 44.4966 515.621 45.084 515.821C45.2508 516.427 44.9241 516.777 44.7827 517.224C44.5641 516.934 44.3152 516.67 44.0405 516.435ZM94.9864 571.185L95.0731 571.021L95.1558 571.144L94.9864 571.185ZM212.54 611.89L212.522 611.905L212.528 611.88L212.54 611.89ZM209.887 573.76L209.781 573.728L209.946 573.561L209.887 573.76ZM219.237 568.827L219.279 568.866L219.237 568.827ZM270.757 556.144C271.352 557.275 271.886 558.44 272.355 559.634L272.625 562.1C272.564 563.275 272.608 564.451 272.756 565.614C272.186 565.14 271.648 564.636 271.049 564.193C268.156 562.055 269.461 558.898 270.757 556.144ZM308.264 482.353L308.397 482.595L308.19 482.498L308.264 482.353ZM232.286 222.295L232.264 222.306L232.265 222.293L232.283 222.294L232.381 222.194L232.334 222.299L232.286 222.295ZM127.877 230.22L127.879 230.22C127.754 230.559 127.635 230.896 127.521 231.241L127.398 231.159C127.666 230.904 127.974 230.669 127.877 230.22ZM45.7923 205.536L45.6889 205.508L45.7071 205.499L45.7923 205.536ZM46.225 221.98C46.3934 222.021 46.4794 222.224 46.6701 222.219L46.385 222.398C46.3766 222.232 46.2521 222.136 46.225 221.98ZM17.864 329.031L17.8619 329.116L17.8256 329.017L17.864 329.031ZM149.821 634.899L150.033 635.102C150.055 634.937 149.856 635.01 149.82 634.903L149.821 634.899ZM155.469 657.157L155.462 657.166L155.474 657.176L155.38 657.291L155.425 657.115L155.469 657.157ZM161.409 616.257L161.188 616.207L161.328 616.051L161.409 616.257ZM296.542 569.567L296.543 569.564L296.582 569.576L296.571 569.676L296.542 569.567ZM339.5 508.613L339.512 508.621L339.496 508.622L339.5 508.613ZM319.761 500.891L319.94 500.694L319.828 500.954L319.761 500.891ZM316.098 483.532L316.119 483.454L316.14 483.519L316.098 483.532ZM239.338 225.985L239.344 225.974L239.405 226.056L239.338 225.985ZM239.994 226.865L240.149 227.073L239.946 227.052L239.994 226.865ZM213.674 197.143L213.588 197.036L213.622 197.003L213.674 197.143ZM203.79 207.852L203.79 207.859L203.785 207.857L203.79 207.852ZM30.9057 205.044L30.8808 205.134L30.8976 205.035L30.9057 205.044ZM79.1986 277.644L79.3777 277.708L79.3641 277.719L79.3756 277.73L79.3293 277.822L79.1986 277.644ZM13.7012 290.658L14.2055 290.411L14.2548 290.522C14.0234 290.555 13.8016 290.642 13.6072 290.778L13.7012 290.658ZM44.4084 483.536C43.8812 483.663 43.8744 483.324 44.0079 482.867C44.0033 483.007 44.0387 483.146 44.1098 483.264C44.1809 483.383 44.2846 483.478 44.4084 483.536ZM46.3947 484.067C46.6847 484.107 46.7702 484.174 47.1264 484.208L46.9407 484.347C46.8152 484.107 46.5733 484.207 46.3944 484.068L46.3947 484.067ZM88.6755 555.624L88.9412 555.548L88.7167 555.82L88.6755 555.624ZM104.218 579.511L104.297 579.877C104.141 579.839 104.057 579.953 103.916 579.949L104.218 579.511ZM164.34 690.261L164.294 690.217L164.378 690.154L164.34 690.261ZM170.7 648.432L170.736 648.392L170.76 648.497L170.7 648.432ZM259.928 261.882L259.621 261.97C259.667 261.868 259.753 261.896 259.788 261.771L259.928 261.882ZM149.999 214.034L149.903 214.07L149.954 213.97L149.999 214.034ZM54.4742 171.441L54.4808 171.443L54.4804 171.45L54.4742 171.441ZM41.0442 166.832L41.0294 166.683L41.0751 166.693L41.0442 166.832ZM35.417 198.255L35.5431 198.293L35.5599 198.284L35.5678 198.293L35.5431 198.293L35.5014 198.323L35.417 198.255ZM74.6831 280.827L74.5163 280.844L74.5288 280.746L74.6831 280.827ZM7.46996 387.59C7.51033 387.732 7.50978 387.884 7.46836 388.028C7.42694 388.171 7.34638 388.301 7.23626 388.4L7.14173 388.318C7.32171 388.115 7.43643 387.86 7.46996 387.59ZM5.65031 395.35L5.57553 395.496L5.52126 395.416L5.65031 395.35ZM34.5468 432.217L34.5414 432.219L34.5417 432.213L34.5468 432.217ZM35.4273 518.292L35.6984 518.313L35.7147 518.315L35.7118 518.318L35.7008 518.314L35.5588 518.384L35.4273 518.292ZM199.34 613.4L199.334 613.349L199.348 613.352L199.34 613.4L199.519 613.729C199.292 613.761 199.069 613.826 198.859 613.923C198.96 613.691 199.278 613.669 199.341 613.399L199.34 613.4ZM219.984 611.859C220.406 611.613 220.432 611.351 220.769 611.104C220.725 611.485 220.86 611.61 220.891 611.876L219.984 611.859ZM272.427 262.725C272.755 262.871 273.083 263.002 273.421 263.113C273.264 263.178 273.148 263.054 272.999 263.099C272.807 262.976 272.783 262.588 272.427 262.725L272.215 262.627C272.325 262.548 272.419 262.447 272.491 262.331C272.563 262.215 272.612 262.085 272.634 261.95L272.662 262.069L272.427 262.725ZM51.276 239.989C51.1869 240.19 51.3053 240.376 51.252 240.574C51.1218 240.352 51.1145 240.094 50.9649 239.877L51.276 239.989ZM2.90334 286.099L2.9089 286.104L2.84302 286.352L2.82437 286.345L2.90334 286.099ZM29.8201 503.511C29.9892 503.604 29.8975 503.707 30.0453 503.801C29.9104 503.75 29.9196 503.633 29.7737 503.588L29.8201 503.511ZM63.4359 556.739L63.4297 556.739L63.4342 556.734L63.4359 556.739ZM141.046 620.452L141.023 620.483L141.003 620.477L141.046 620.452ZM148.135 654.383L149.136 654.328L149.138 654.401C148.806 654.286 148.443 654.288 148.108 654.408L148.135 654.383ZM173.926 656.817L173.747 656.351L173.749 656.352C173.833 656.499 173.83 656.68 173.929 656.818L173.926 656.817ZM181.01 631.877L180.928 631.873C181.137 631.87 181.154 631.666 181.322 631.62L181.202 631.85L181.01 631.877ZM228.216 564.857L228.266 564.737C228.238 564.934 228.338 565.114 228.321 565.308C228.214 565.176 228.342 564.983 228.216 564.857ZM253.145 571.269L253.377 571.22L253.393 571.356L253.145 571.269ZM338.673 436.789L338.852 436.808L338.95 436.888L338.673 436.789ZM375.065 386.018C375.151 385.883 375.076 385.747 375.143 385.611C375.179 385.813 375.275 386.004 375.295 386.206L375.065 386.018ZM193.667 209.174L193.66 209.166L193.661 209.131L193.731 209.022L193.667 209.174ZM201.932 221.414L201.933 221.411L201.949 221.446L201.767 221.486L201.932 221.414ZM62.0443 182.537L62.0468 182.538L62.2271 182.52L62.0445 182.576L62.0443 182.537ZM64.026 167.607L64.0264 167.601L64.0271 167.604L64.021 167.621L63.9005 167.514L64.0402 167.567L64.0387 167.592L64.0281 167.601L64.026 167.607ZM26.937 173.544L26.9324 173.552L26.942 173.546L26.8572 173.778L26.7966 173.504L26.937 173.544ZM46.5983 245.528C46.2655 245.843 46.0129 246.236 45.8634 246.673C45.714 247.109 45.6723 247.575 45.7421 248.027L45.7388 248.026C46.2323 247.276 46.5247 246.409 46.5862 245.514L46.5983 245.528ZM46.179 292.261L46.1804 292.251C45.9262 292.502 45.6951 292.477 45.448 292.634C45.5645 292.462 45.6662 292.281 45.752 292.091L46.1804 292.251L46.1913 292.255L46.179 292.261ZM-5.11092 331.31L-5.19151 331.546L-5.17682 331.347L-5.11092 331.31ZM19.4451 472.096L19.3954 471.889L19.6177 471.965L19.4451 472.096ZM13.3974 556.37C13.328 556.18 13.3301 555.968 13.2752 555.773C13.3927 555.862 13.3852 556.015 13.5193 556.094L13.3974 556.37ZM78.8157 552.778L78.9 552.725L78.9016 552.789L78.8157 552.778ZM68.265 561.357C68.4515 561.476 68.6595 561.556 68.8773 561.592C68.6574 561.878 68.4271 561.942 68.2187 562.29C68.2705 561.924 68.2355 561.693 68.2661 561.357L68.265 561.357ZM340.076 517.886L340.069 517.883L340.073 517.881L340.076 517.886ZM328.434 418.201C328.608 418.06 328.757 417.888 328.872 417.694C329.046 417.977 329.116 418.196 329.319 418.496C329.032 418.376 328.736 418.277 328.435 418.201L328.434 418.201ZM332.945 314.491L333.096 314.328L333.139 314.538L332.945 314.491ZM260.46 257.258L260.336 257.303L260.276 257.16L260.419 257.192L260.46 257.258ZM248.333 208.018L248.201 207.884L248.33 207.921L248.333 208.018ZM229.273 196.293L229.099 196.131L229.108 196.132L229.101 196.126L229.208 196.017L229.273 196.293ZM118.955 216.132L118.941 216.146L118.933 216.137L118.873 216.304C118.757 216.233 118.634 216.269 118.518 216.218C118.655 216.216 118.796 216.113 118.933 216.137L118.955 216.132ZM64.7228 182.08L64.9996 181.519L65.0006 181.516C64.9014 181.567 64.8205 181.65 64.7704 181.752C64.7203 181.854 64.7036 181.969 64.7228 182.08ZM15.1551 193.381L15.0964 193.571L15.0571 193.48L15.1551 193.381ZM-8.79941 335.08L-8.89726 335.154C-8.98846 334.697 -9.01476 334.205 -9.47017 333.937L-8.79941 335.08ZM-5.99512 379.361L-6.01209 379.377L-6.01741 379.35L-5.99512 379.361ZM19.6737 529.466L19.7122 529.484L19.705 529.511L19.6737 529.466ZM60.2468 555.297L60.2733 555.301L60.2702 555.31L60.2508 555.312L60.2468 555.297ZM335.079 546.438L335.13 546.322L335.224 546.318L335.079 546.438ZM359.636 396.244C360.277 397.832 361.457 399.121 362.963 399.876C365.294 402.579 367.624 405.283 369.953 407.987C369.399 407.736 368.81 407.572 368.205 407.501C364.685 403.519 358.64 404.606 355.02 400.816C353.934 398.112 355.118 395.273 355.38 392.487L355.597 392.434C357.934 392.608 357.318 396.052 359.636 396.244ZM272.992 258.221L273.033 258.304L273.593 259.679L273.602 259.679L273.592 259.682L273.339 259.818C273.401 259.257 273.279 258.695 272.992 258.221Z" fill="#FF914D"/>
<path fill-rule="evenodd" clip-rule="evenodd" d="M-115.051 435.422C-114.833 435.112 -114.909 434.68 -115.219 434.463C-115.529 434.245 -115.96 434.321 -116.178 434.631C-116.395 434.941 -116.32 435.372 -116.01 435.59C-115.7 435.808 -115.268 435.732 -115.051 435.422ZM72.0785 541.516C73.1434 539.999 73.0849 539.698 71.5086 538.592C69.9623 537.507 69.6868 537.54 69.2024 538.866C68.8992 539.695 68.5218 540.566 68.3628 540.801C68.2043 541.036 68.708 541.674 69.4829 542.218C70.6725 543.053 71.0765 542.944 72.0785 541.516ZM-9.25526 452.465C-9.03769 452.155 -9.11323 451.724 -9.42319 451.506C-9.73313 451.289 -10.1648 451.364 -10.3823 451.674C-10.5999 451.984 -10.5243 452.416 -10.2143 452.633C-9.90438 452.851 -9.47283 452.775 -9.25526 452.465ZM-97.7315 390.37C-97.5139 390.06 -96.9555 390.074 -96.4906 390.4C-95.8645 390.839 -95.1836 390.335 -93.8651 388.457C-92.5467 386.578 -92.3043 385.767 -92.9304 385.327C-93.3953 385.001 -93.5977 384.48 -93.3801 384.17C-92.8054 383.351 -95.6651 381.534 -97.1263 381.791C-99.0163 382.122 -100.838 383.743 -101.736 385.895C-102.466 387.643 -102.329 387.985 -100.337 389.383C-99.1211 390.236 -97.949 390.68 -97.7315 390.37ZM9.5802 455.589C10.5822 454.162 10.5478 453.744 9.35821 452.91C8.16856 452.075 7.76452 452.184 6.76251 453.612C5.7605 455.039 5.79501 455.457 6.98466 456.291C8.1743 457.126 8.57819 457.017 9.5802 455.589ZM67.0241 481.603C68.0791 480.1 68.0231 479.78 66.5202 478.726C64.6255 477.396 63.5359 478.219 63.9629 480.657C64.3898 483.095 65.6941 483.498 67.0241 481.603ZM-26.4644 413.467C-25.3457 411.873 -25.3885 411.612 -26.9003 410.792C-28.2292 410.07 -28.779 410.173 -29.5639 411.291C-30.3487 412.41 -30.2584 412.962 -29.1281 413.966C-27.8425 415.109 -27.5831 415.061 -26.4644 413.467ZM65.2173 461.406C66.0524 460.216 65.9431 459.812 64.5156 458.811C62.6836 457.525 61.838 458.037 62.2177 460.202C62.6023 462.399 64.099 463 65.2173 461.406ZM122.578 497.127C124.013 495.082 123.463 494.447 120.682 494.934C118.381 495.338 118.36 495.423 120.072 497.404C121.258 498.777 121.434 498.757 122.578 497.127ZM-73.2799 352.427C-72.5416 351.789 -71.6885 351.441 -71.3847 351.654C-71.0804 351.868 -70.4759 351.535 -70.0407 350.915C-69.6056 350.295 -69.4981 349.613 -69.8024 349.4C-70.1062 349.187 -70.0692 348.266 -69.7197 347.355C-69.2638 346.164 -69.4644 345.431 -70.432 344.752C-71.2548 344.174 -72.0114 344.135 -72.3734 344.651C-72.6997 345.116 -73.3472 345.229 -73.8121 344.903C-74.4224 344.475 -75.0969 344.936 -76.2397 346.564C-77.3826 348.193 -77.5871 348.984 -76.9768 349.412C-76.5119 349.739 -76.3984 350.386 -76.7248 350.851C-77.0867 351.367 -76.7929 352.065 -75.9702 352.643C-75.0025 353.322 -74.2442 353.261 -73.2799 352.427ZM-47.5507 359.618C-47.2426 359.179 -46.5698 358.894 -46.0551 358.985C-45.3072 359.118 -45.2146 358.986 -45.5939 358.328C-45.8546 357.875 -45.8153 357.145 -45.5072 356.706C-45.1986 356.267 -45.327 355.641 -45.7919 355.314C-46.4022 354.886 -47.0767 355.347 -48.2195 356.976C-49.3623 358.604 -49.5669 359.395 -48.9566 359.824C-48.4917 360.15 -47.8593 360.058 -47.5507 359.618ZM59.5365 427.554C59.754 427.244 59.6784 426.812 59.3685 426.595C59.0585 426.377 58.6269 426.453 58.4093 426.763C58.1918 427.073 58.2674 427.505 58.5773 427.722C58.8873 427.94 59.3189 427.864 59.5365 427.554ZM103.775 452.988C105.055 450.612 103.863 449.487 102.35 451.643C101.507 452.845 101.402 453.572 102.013 454C102.639 454.439 103.152 454.144 103.775 452.988ZM11.5897 389.207C12.2883 388.212 10.9535 387.533 9.87185 388.334C9.49029 388.616 9.58053 389.129 10.0714 389.473C10.5617 389.817 11.2455 389.697 11.5897 389.207ZM-63.0286 337.328C-62.8111 337.018 -62.8867 336.587 -63.1966 336.369C-63.5066 336.152 -63.9382 336.227 -64.1557 336.537C-64.3733 336.847 -64.2977 337.279 -63.9878 337.496C-63.6778 337.714 -63.2462 337.638 -63.0286 337.328ZM17.0541 391.009C17.2717 390.699 17.1962 390.267 16.8862 390.049C16.5763 389.832 16.1447 389.908 15.9271 390.218C15.7095 390.528 15.785 390.959 16.095 391.177C16.4049 391.394 16.8366 391.319 17.0541 391.009ZM36.6359 400.966C37.3743 400.327 38.2048 399.964 38.481 400.158C39.6678 400.991 40.4937 398.029 39.9465 394.904C39.3868 391.709 37.6112 389.283 36.7405 390.523C36.5229 390.833 35.9645 390.82 35.4996 390.494C34.9344 390.097 34.2575 390.466 33.4553 391.609C32.7543 392.608 32.5124 393.699 32.8738 394.235C33.2133 394.74 33.0652 395.76 32.5446 396.502C31.9671 397.325 31.9276 398.082 32.4433 398.444C32.9082 398.77 33.1106 399.291 32.893 399.601C32.6754 399.911 33.1263 400.606 33.8956 401.146C34.9167 401.863 35.6555 401.814 36.6359 400.966ZM61.9444 418.518C62.9094 418.079 68.0599 409.139 67.5527 408.783C67.2839 408.594 67.3306 408.059 67.6569 407.594C68.0964 406.968 67.5926 406.287 65.7143 404.969C63.1783 403.189 63.1783 403.189 61.3982 405.726C60.4191 407.121 59.8667 408.436 60.171 408.65C60.4747 408.863 60.4377 409.784 60.0882 410.695C59.7387 411.607 59.8059 412.6 60.237 412.903C60.689 413.22 60.62 414.025 60.0749 414.802C58.9633 416.386 60.3916 419.225 61.9444 418.518ZM-99.3163 305.14C-98.8258 304.441 -99.1244 301.059 -99.7133 300.646C-99.9545 300.476 -100.686 301.099 -101.339 302.029C-102.341 303.456 -102.306 303.873 -101.116 304.708C-100.342 305.252 -99.5315 305.446 -99.3163 305.14ZM-124.276 286.772C-124.058 286.462 -123.527 286.456 -123.096 286.759C-122.019 287.515 -119.788 285.438 -118.147 282.152C-117.087 280.029 -117.018 279.246 -117.843 278.668C-118.965 277.88 -122.468 278.204 -123.138 279.158C-123.355 279.468 -123.914 279.455 -124.379 279.128C-124.844 278.802 -125.383 278.762 -125.577 279.039C-125.771 279.315 -125.653 279.955 -125.313 280.46C-124.926 281.035 -125.215 282.118 -126.092 283.368C-127.319 285.115 -127.317 285.479 -126.08 286.347C-125.305 286.891 -124.493 287.082 -124.276 286.772ZM80.7157 428.537C81.0848 428.011 80.777 427.318 79.9002 426.703C79.0233 426.088 78.267 426.034 77.898 426.56C77.5289 427.085 77.8366 427.778 78.7134 428.394C79.5903 429.009 80.3467 429.063 80.7157 428.537ZM-132.382 274.353C-132.164 274.043 -132.24 273.611 -132.55 273.393C-132.86 273.176 -133.292 273.252 -133.509 273.562C-133.727 273.872 -133.651 274.303 -133.341 274.521C-133.031 274.738 -132.6 274.663 -132.382 274.353ZM77.3753 416.518C78.5181 414.89 78.7226 414.099 78.1123 413.67C77.6474 413.344 77.534 412.697 77.8604 412.232C78.1867 411.767 78.2278 411.227 77.9511 411.033C77.675 410.839 77.7345 409.935 78.084 409.023C79.055 406.49 77.9756 406.434 75.6319 408.897C73.0994 411.557 71.905 414.362 72.982 415.117C73.4136 415.42 73.5884 415.921 73.3708 416.231C73.1532 416.541 73.6092 417.24 74.3841 417.784C75.6521 418.674 75.9512 418.547 77.3753 416.518ZM85.6605 421.492C86.4516 420.364 86.5654 419.603 86.0019 419.207C85.4383 418.812 84.761 419.178 83.9698 420.305C83.1787 421.432 83.0649 422.194 83.6284 422.589C84.192 422.985 84.8693 422.619 85.6605 421.492ZM33.7807 384.66C34.519 384.022 35.3495 383.658 35.6256 383.852C36.4732 384.447 39.3671 379.716 39.0976 378.176C38.959 377.385 39.4561 375.868 40.2017 374.805C41.3738 373.135 41.6156 369.548 40.6046 368.838C39.9622 368.387 36.8599 373.665 37.3511 374.373C37.6382 374.787 37.0459 374.823 36.0342 374.452C35.0221 374.08 33.9473 374.129 33.6447 374.56C33.3417 374.992 32.8404 375.167 32.5305 374.95C32.2206 374.732 31.4329 375.315 30.7802 376.245C30.1275 377.175 29.847 378.114 30.157 378.332C30.4669 378.549 30.4381 379.129 30.0927 379.621C29.7474 380.113 30.0243 381.337 30.7078 382.341C31.3911 383.344 31.8113 384.364 31.6416 384.605C30.8952 385.669 32.565 385.712 33.7807 384.66ZM44.587 385.935C46.4655 384.502 46.7587 382.412 45.2321 381.34C44.145 380.577 43.656 380.67 42.872 381.787C42.2564 382.664 42.2026 383.42 42.7284 383.789C43.1933 384.116 43.3067 384.763 42.9803 385.228C42.1152 386.461 43.2458 386.958 44.587 385.935ZM89.9226 411.823C91.9662 408.912 92.2432 408.08 91.8223 406.12C91.5518 404.858 91.5321 403.537 91.7794 403.185C92.4693 402.202 89.6464 400.556 87.6087 400.752C85.3577 400.969 82.3109 404.839 83.6504 405.779C84.1153 406.106 84.2288 406.753 83.9024 407.218C83.5761 407.683 83.6893 408.33 84.1543 408.657C84.6192 408.983 84.7326 409.63 84.4063 410.095C84.0799 410.56 84.1932 411.208 84.6582 411.534C85.1231 411.86 85.3255 412.381 85.1079 412.691C84.8903 413.001 85.3463 413.7 86.1212 414.243C87.4686 415.189 87.6341 415.084 89.9226 411.823ZM-123.01 264.595C-122.666 264.104 -122.786 263.421 -123.276 263.076C-123.767 262.732 -124.28 262.821 -124.415 263.276C-124.801 264.566 -123.709 265.59 -123.01 264.595ZM-40.5839 316.134C-39.9494 315.23 -39.0231 314.584 -38.5251 314.699C-37.8837 314.847 -37.7049 314.646 -37.9109 314.008C-38.0712 313.514 -37.8829 312.292 -37.4933 311.293C-36.9573 309.919 -37.1251 309.238 -38.1829 308.496C-39.0502 307.887 -39.8064 307.836 -40.1743 308.36C-40.5007 308.825 -41.1482 308.938 -41.6131 308.612C-42.078 308.286 -42.7253 308.399 -43.0517 308.864C-43.378 309.329 -43.8987 309.532 -44.2087 309.314C-44.5186 309.097 -45.2172 309.553 -45.7612 310.328C-46.3051 311.103 -46.4965 311.915 -46.1865 312.132C-45.8766 312.35 -45.89 312.908 -46.2164 313.373C-46.6559 314 -46.1521 314.68 -44.2738 315.999C-41.8478 317.701 -41.6876 317.707 -40.5839 316.134ZM119.01 425.807C120.475 426.355 122.541 423.616 122.042 421.787C121.848 421.075 121.935 420.142 122.234 419.716C122.552 419.263 122.191 418.526 121.37 417.95C120.595 417.406 120.139 416.708 120.357 416.398C120.574 416.088 120.372 415.567 119.907 415.241C119.442 414.915 119.405 414.158 119.825 413.56C120.244 412.963 120.474 411.826 120.336 411.035C120.197 410.244 120.274 409.325 120.508 408.992C120.741 408.66 120.551 408.121 120.086 407.795C119.621 407.469 119.419 406.948 119.636 406.638C119.854 406.328 119.398 405.629 118.623 405.086C117.389 404.219 117.043 404.341 115.83 406.07C115.068 407.155 114.699 408.22 115.009 408.438C115.319 408.656 115.216 409.341 114.781 409.961C114.342 410.587 114.366 411.352 114.835 411.681C115.3 412.008 115.414 412.655 115.087 413.12C114.761 413.585 114.742 414.14 115.047 414.353C115.35 414.567 115.313 415.487 114.964 416.399C114.614 417.31 114.527 418.195 114.77 418.366C115.013 418.536 114.926 419.422 114.576 420.333C114.119 421.525 114.321 422.257 115.293 422.939C116.037 423.461 116.915 424.222 117.244 424.629C117.574 425.038 118.369 425.567 119.01 425.807ZM-138.824 240.387C-137.822 238.959 -137.857 238.542 -139.046 237.707C-140.236 236.872 -140.64 236.981 -141.642 238.409C-142.644 239.837 -142.609 240.254 -141.42 241.089C-140.23 241.924 -139.826 241.814 -138.824 240.387ZM-9.24926 329.313C-7.39646 329.244 -6.53601 328.182 -7.68113 327.379C-8.14605 327.052 -8.34843 326.532 -8.13087 326.222C-7.9133 325.912 -7.98891 325.48 -8.29887 325.263C-8.60881 325.045 -9.48542 325.755 -10.2469 326.84C-11.7462 328.976 -11.5754 329.4 -9.24926 329.313ZM-110.983 258.244C-110.765 257.934 -110.207 257.947 -109.742 258.273C-108.323 259.27 -106.843 256.381 -108.041 254.95C-109.555 253.142 -109.844 253.025 -110.498 253.957C-110.824 254.422 -111.345 254.625 -111.655 254.407C-112.558 253.773 -113.161 255.17 -112.659 256.737C-112.103 258.475 -111.516 259.004 -110.983 258.244ZM-121.769 246.047C-121.4 245.521 -121.707 244.828 -122.584 244.213C-123.461 243.597 -124.217 243.544 -124.586 244.07C-124.956 244.595 -124.648 245.288 -123.771 245.904C-122.894 246.519 -122.138 246.573 -121.769 246.047ZM-36.6233 304.798C-35.9168 305.064 -35.0814 304.698 -34.4991 303.869C-33.6913 302.718 -33.8134 302.308 -35.2668 301.288C-36.8086 300.206 -37.0899 300.251 -37.8739 301.707C-38.7998 303.425 -38.5349 304.08 -36.6233 304.798ZM96.2737 393.186C96.8892 392.309 96.9431 391.553 96.4173 391.184C95.9523 390.857 95.8541 390.189 96.1983 389.698C97.2418 388.211 95.1813 388.178 93.8558 389.661C92.9797 390.639 92.8766 391.223 93.5027 391.662C93.988 392.003 94.2073 392.535 93.9897 392.845C93.7722 393.155 93.9745 393.676 94.4394 394.002C94.9652 394.371 95.6582 394.063 96.2737 393.186ZM-0.424267 322.432C1.35111 319.902 0.978156 319.181 -1.90015 319.581C-4.47929 319.94 -5.2491 321.864 -3.45241 323.461C-2.11055 324.655 -1.94488 324.598 -0.424267 322.432ZM-66.1946 278.32C-65.8255 277.794 -66.1333 277.101 -67.0101 276.486C-68.5841 275.381 -69.4768 275.982 -68.474 277.472C-67.4438 279.002 -66.8331 279.23 -66.1946 278.32ZM195.804 459.107C197.194 457.929 197.357 456.978 196.297 456.234C195.877 455.939 195.607 455.276 195.698 454.762C195.831 454.014 195.699 453.922 195.041 454.301C194.588 454.561 193.828 454.502 193.353 454.168C192.732 453.732 192.334 453.986 191.939 455.069C191.636 455.897 191.259 456.768 191.1 457.003C190.941 457.239 191.669 458.034 192.717 458.77C194.201 459.811 194.886 459.886 195.804 459.107ZM50.9396 358.008C52.642 357.596 54.329 355.075 54.033 353.385C53.5889 350.849 49.5652 349.479 48.2139 351.404C47.9809 351.736 48.0438 352.186 48.3538 352.404C48.6637 352.621 48.6898 353.123 48.4117 353.52C47.8852 354.27 48.4916 357.572 49.2418 358.043C49.4795 358.192 50.2429 358.176 50.9396 358.008ZM25.5844 338.106C25.8744 337.693 25.824 337.405 25.4724 337.466C25.1209 337.529 24.8836 337.867 24.9447 338.218C25.0067 338.57 25.2944 338.519 25.5844 338.106ZM-128.826 229.737C-128.609 229.427 -128.05 229.44 -127.585 229.766C-127.022 230.162 -126.345 229.796 -125.553 228.669C-124.498 227.165 -124.554 226.846 -126.057 225.791C-127.47 224.8 -127.905 224.829 -128.704 225.967C-129.231 226.717 -129.789 227.84 -129.945 228.462C-130.258 229.71 -129.452 230.628 -128.826 229.737ZM-71.9555 268.252C-71.4583 268.367 -70.6213 267.849 -70.0956 267.1C-69.3507 266.039 -69.4376 265.528 -70.4881 264.791C-71.7926 263.875 -73.1703 264.29 -74.3333 265.947C-74.8836 266.731 -73.7435 267.836 -71.9555 268.252ZM187.896 443.608C188.687 442.481 188.801 441.719 188.237 441.324C187.772 440.997 187.583 440.459 187.816 440.127C189.237 438.101 184.91 433.332 182.887 434.693C181.328 435.743 179.955 438.035 180.61 438.494C180.942 438.728 181.327 439.566 181.466 440.357C181.614 441.203 182.746 442.518 184.213 443.547C186.61 445.23 186.756 445.232 187.896 443.608ZM-1.9568 312.331C-1.45968 312.446 -0.711717 312.055 -0.29477 311.461C0.250339 310.684 0.0675082 310.102 -0.945174 309.392C-2.07226 308.601 -2.55188 308.685 -3.34305 309.812C-4.29204 311.164 -3.89833 311.879 -1.9568 312.331ZM-133.866 218.042C-133.084 218.337 -132.314 217.927 -131.518 216.793C-130.46 215.285 -130.512 215.01 -132.009 214.197C-133.409 213.437 -133.873 213.557 -134.838 214.932C-136.038 216.642 -135.832 217.304 -133.866 218.042ZM35.5548 334.686C36.1901 333.781 36.1715 332.958 35.4974 332.163C34.1691 330.595 33.359 330.624 32.1964 332.28C31.387 333.434 31.5047 333.848 32.9214 334.843C34.3269 335.829 34.7711 335.803 35.5548 334.686ZM-91.7838 245.569C-90.8185 245.354 -89.4209 244.3 -88.6547 243.208C-87.2702 241.235 -87.2702 241.235 -90.3697 239.06C-93.4692 236.884 -93.469 236.885 -95.0794 239.179C-95.9656 240.442 -96.5824 242.091 -96.45 242.844C-96.1205 244.729 -93.8818 246.036 -91.7838 245.569ZM176.284 430.191C177.862 427.942 177.936 427.484 176.912 426.3C176.274 425.561 175.926 424.708 176.14 424.404C176.782 423.49 174.916 422.615 172.917 422.892C171.541 423.084 170.867 423.615 170.376 424.895C170.009 425.853 170.04 426.87 170.446 427.154C170.851 427.439 171.087 427.992 170.97 428.384C170.853 428.775 171.599 429.916 172.626 430.918C174.495 432.741 174.495 432.74 176.284 430.191ZM58.7659 348.354C59.5571 347.227 59.4732 346.747 58.3461 345.956C57.219 345.165 56.7394 345.249 55.9482 346.377C55.1571 347.504 55.2411 347.983 56.3682 348.774C57.4953 349.565 57.9747 349.481 58.7659 348.354ZM-102.456 229.315C-102.087 228.789 -102.395 228.097 -103.272 227.481C-104.148 226.866 -104.904 226.812 -105.274 227.338C-105.643 227.864 -105.335 228.557 -104.458 229.172C-103.581 229.787 -102.825 229.841 -102.456 229.315ZM6.13732 303.495C7.68246 301.293 6.15238 298.932 3.4837 299.4C1.15782 299.808 1.16937 300.78 3.5199 302.43C4.7597 303.3 5.93755 303.779 6.13732 303.495ZM179.119 419.15C181.541 416.288 181.581 413.937 179.234 412.29C177.952 411.391 177.625 411.502 176.391 413.26C175.158 415.017 175.165 415.424 176.45 416.772C177.249 417.61 177.747 418.519 177.557 418.79C176.894 419.733 178.343 420.068 179.119 419.15ZM21.139 308.486C21.4653 308.021 22.146 307.931 22.6515 308.286C23.3982 308.81 23.7837 308.49 24.7082 306.581C25.3341 305.289 25.6481 303.963 25.4048 303.635C25.1619 303.306 25.6395 302.073 26.4662 300.895C27.6767 299.171 27.7745 298.524 26.9689 297.574C25.5247 295.869 24.8259 296.042 23.0746 298.537C22.217 299.759 21.2733 300.588 20.9775 300.381C20.6816 300.173 19.6362 300.788 18.6548 301.746C17.2187 303.148 16.9483 303.865 17.2748 305.405C17.7627 307.708 20.2778 309.713 21.139 308.486ZM-70.4611 241.254C-69.4061 239.751 -69.462 239.432 -70.965 238.377C-72.468 237.322 -72.7874 237.378 -73.8424 238.881C-74.8974 240.384 -74.8414 240.704 -73.3385 241.759C-71.8355 242.813 -71.5161 242.758 -70.4611 241.254ZM156.598 394.721C158.18 392.467 158.18 392.467 155.644 390.687C153.381 389.099 153.012 389.045 152.207 390.191C151.074 391.806 151.776 394.702 153.613 395.992C154.874 396.876 155.176 396.748 156.598 394.721ZM111.24 362.257C114.422 357.695 114.521 356.778 112.023 355.025C110.454 353.923 109.667 353.728 109.242 354.335C108.915 354.8 108.395 355.002 108.085 354.785C107.775 354.567 107.076 355.023 106.532 355.798C105.988 356.573 105.797 357.385 106.107 357.603C106.417 357.82 106.403 358.379 106.077 358.844C105.751 359.309 105.864 359.956 106.329 360.282C106.794 360.609 106.907 361.256 106.581 361.721C106.185 362.285 106.551 362.962 107.678 363.753C109.32 364.906 109.422 364.863 111.24 362.257ZM71.13 335.831C71.7697 336.073 72.5466 335.909 72.8568 335.468C73.1673 335.025 73.8017 334.93 74.2666 335.256C75.3345 336.006 76.032 335.054 75.7193 333.272C75.4473 331.715 74.4549 330.794 73.9015 331.582C73.6977 331.872 72.6509 331.611 71.5754 331.001C69.9011 330.052 69.5037 330.105 68.809 331.374C68.3625 332.189 68.0217 332.944 68.0519 333.052C68.2416 333.734 70.1543 335.46 71.13 335.831ZM174.232 406.183C175.441 405.261 175.319 401.972 174.043 401.076C173.72 400.849 173.723 400.283 174.049 399.818C174.832 398.702 173.896 398.091 172.668 398.918C170.838 400.15 169.964 402.048 170.415 403.811C171.029 406.211 172.774 407.295 174.232 406.183ZM-78.7651 229.117C-78.4388 228.652 -77.9001 228.462 -77.5682 228.695C-77.2357 228.928 -76.3473 229.011 -75.594 228.878C-74.009 228.601 -73.1202 227.61 -73.9396 227.035C-74.2496 226.818 -74.2362 226.259 -73.9098 225.794C-73.5835 225.329 -73.6967 224.682 -74.1617 224.355C-74.6266 224.029 -75.2741 224.142 -75.6004 224.607C-75.9268 225.073 -76.5742 225.186 -77.0391 224.86C-77.9132 224.246 -79.5497 226.003 -80.0813 228.124C-80.4413 229.56 -79.5484 230.233 -78.7651 229.117ZM-104.376 208.552C-103.144 207.722 -102.009 204.812 -102.722 204.311C-103.743 203.595 -106.004 204.409 -107.022 205.86C-107.831 207.013 -107.764 207.503 -106.691 208.256C-105.949 208.776 -104.907 208.909 -104.376 208.552ZM62.4939 323.139C64.2174 321.979 64.2179 321.474 62.4974 320.266C61.5676 319.614 60.6434 319.313 60.4436 319.597C59.5591 320.858 59.593 322.434 60.5195 323.085C61.0729 323.473 61.9615 323.497 62.4939 323.139ZM37.2462 305.91C37.4638 305.6 37.2614 305.079 36.7965 304.753C36.3316 304.426 35.7732 304.413 35.5556 304.723C35.338 305.033 35.5404 305.554 36.0054 305.88C36.4703 306.206 37.0287 306.22 37.2462 305.91ZM207.892 422.308C208.683 421.18 208.796 420.419 208.233 420.023C207.669 419.628 206.992 419.994 206.201 421.121C205.41 422.248 205.296 423.01 205.859 423.405C206.423 423.801 207.1 423.435 207.892 422.308ZM-65.0312 229.922C-64.8136 229.612 -65.2696 228.913 -66.0445 228.37C-66.8194 227.826 -67.6314 227.634 -67.849 227.944C-68.0665 228.254 -67.6105 228.953 -66.8356 229.497C-66.0608 230.041 -65.2488 230.232 -65.0312 229.922ZM-80.2219 217.789C-79.5002 216.459 -79.6029 215.91 -80.721 215.125C-81.839 214.34 -82.3912 214.431 -83.3958 215.561C-84.5388 216.847 -84.4903 217.106 -82.8966 218.225C-81.3029 219.343 -81.0426 219.301 -80.2219 217.789ZM95.0803 338.858C97.2197 338.381 97.8955 337.538 96.7707 336.749C96.3058 336.422 96.1034 335.902 96.3209 335.592C96.5385 335.282 96.0826 334.583 95.3077 334.039C94.1699 333.241 93.703 333.33 92.8818 334.5C91.8842 335.921 91.8608 338.419 92.8403 338.968C93.1127 339.12 94.1207 339.071 95.0803 338.858ZM-33.9767 249.193C-33.7591 248.883 -33.0085 249.026 -32.3077 249.511C-29.6773 251.334 -28.0488 251.533 -27.0785 250.15C-26.5603 249.412 -25.8823 248.985 -25.5723 249.203C-25.2623 249.42 -24.7417 249.218 -24.4153 248.753C-24.0889 248.288 -24.0755 247.729 -24.3855 247.512C-24.6954 247.294 -24.6821 246.736 -24.3557 246.271C-23.9 245.621 -24.4825 244.92 -26.8618 243.25C-28.5665 242.054 -29.7833 240.821 -29.5657 240.511C-29.3481 240.201 -29.6773 239.591 -30.2972 239.156C-30.9171 238.721 -31.6023 238.619 -31.8198 238.929C-32.0374 239.239 -32.8494 239.048 -33.6243 238.504C-34.5012 237.888 -35.2574 237.835 -35.6265 238.361C-35.9529 238.826 -36.6002 238.939 -37.0651 238.613C-37.6231 238.221 -38.3026 238.578 -39.0644 239.664C-39.699 240.568 -40.6393 241.233 -41.1535 241.142C-41.9013 241.009 -41.9938 241.141 -41.6146 241.799C-41.3544 242.252 -41.3933 242.982 -41.7014 243.421C-42.1318 244.034 -41.345 244.863 -38.3171 246.988C-36.0629 248.57 -34.2026 249.515 -33.9767 249.193ZM47.9824 305.293C49.4137 305.826 50.3073 304.688 49.9699 302.761C49.8313 301.97 49.9087 301.051 50.1421 300.718C50.6132 300.047 47.9265 297.892 47.4434 298.554C47.2765 298.784 46.6225 299.404 45.9905 299.933C45.301 300.509 44.9523 301.527 45.1184 302.476C45.3969 304.066 45.8304 304.492 47.9824 305.293ZM-121.068 185.125C-120.43 184.216 -120.852 183.719 -122.641 183.27C-124.383 182.834 -124.645 183.877 -123.071 184.982C-122.194 185.597 -121.437 185.651 -121.068 185.125ZM-129.542 178.195C-128.357 178.631 -125.963 176.488 -124.835 173.983C-124.313 172.825 -124.508 172.198 -125.635 171.417C-126.454 170.85 -127.538 170.372 -128.044 170.358C-129.468 170.316 -131.477 172.132 -132.37 174.268C-133.181 176.211 -132.547 177.091 -129.542 178.195ZM21.993 280.903C22.2105 280.593 22.0082 280.072 21.5433 279.746C21.0784 279.419 20.5199 279.406 20.3023 279.716C20.0847 280.026 20.2871 280.547 20.7521 280.873C21.217 281.199 21.7754 281.213 21.993 280.903ZM96.0698 329.737C96.7845 328.421 96.6739 327.79 95.5547 326.796C94.275 325.658 94.0074 325.705 92.9172 327.258C91.8273 328.811 91.8797 329.11 93.4322 330.199C94.9854 331.289 95.2529 331.242 96.0698 329.737ZM12.3306 270.701C13.4208 269.147 13.3739 268.88 11.8686 268.063C10.5532 267.349 9.92223 267.459 8.92801 268.579C7.78991 269.859 7.83683 270.126 9.38996 271.216C10.9425 272.306 11.2407 272.254 12.3306 270.701ZM-43.5161 232.823C-43.1898 232.358 -42.5424 232.245 -42.0775 232.571C-41.4283 233.027 -40.7266 232.444 -39.0564 230.064C-37.8598 228.359 -36.6271 227.142 -36.3171 227.36C-36.0072 227.577 -35.9174 227.989 -36.1179 228.275C-36.3181 228.56 -35.8386 229.494 -35.0519 230.351C-34.2653 231.208 -33.7652 232.113 -33.94 232.362C-34.535 233.21 -32.2304 235.283 -31.1022 234.915C-30.5 234.718 -29.3106 234.776 -28.459 235.044C-27.0837 235.476 -26.6497 235.158 -24.5646 232.187C-21.7255 228.141 -21.808 225.765 -24.8618 223.622C-25.9466 222.86 -27.0087 222.486 -27.2223 222.79C-27.4355 223.094 -28.3341 223.066 -29.2196 222.726C-30.1044 222.387 -31.2169 222.371 -31.6908 222.69C-32.3125 223.109 -33.5927 222.542 -36.2746 220.66C-41.0867 217.282 -41.9716 217.439 -45.3637 222.273C-47.9259 225.923 -48.4173 228.122 -46.9076 229.181C-46.5757 229.414 -46.571 229.985 -46.8974 230.45C-47.293 231.014 -46.9272 231.691 -45.8001 232.482C-44.673 233.273 -43.9117 233.387 -43.5161 232.823ZM185.112 391.246C186.081 389.865 185.914 388.375 184.694 387.519C183.631 386.773 183.136 386.871 182.356 387.982C181.521 389.171 181.631 389.575 183.058 390.577C183.988 391.23 184.912 391.531 185.112 391.246ZM174.467 382.444C175.258 381.317 175.174 380.838 174.047 380.047C173.272 379.503 172.46 379.311 172.242 379.621C172.025 379.931 172.1 380.363 172.41 380.581C172.72 380.798 172.707 381.357 172.38 381.822C172.054 382.287 172.168 382.934 172.632 383.26C173.158 383.629 173.851 383.322 174.467 382.444ZM102.552 331.808C103.412 332.131 104.122 331.668 105.269 330.033C106.659 328.052 106.676 327.716 105.425 326.838C104.415 326.13 103.665 326.17 102.726 326.981C100.127 329.229 100.067 330.874 102.552 331.808ZM-7.88742 253.966C-6.93513 253.962 -6.7468 253.768 -7.12638 253.181C-7.40374 252.752 -7.3777 252.042 -7.06954 251.603C-6.76099 251.163 -6.88949 250.537 -7.35441 250.211C-7.91794 249.815 -8.59527 250.181 -9.38643 251.308C-10.623 253.07 -10.1128 253.974 -7.88742 253.966ZM144.781 358.727C146.167 358.793 148.74 355.364 148.027 354.401C147.75 354.026 147.954 353.107 148.479 352.358C149.331 351.145 149.189 350.823 147.187 349.418C143.001 346.48 138.643 348.847 139.355 353.673C139.699 356.001 142.51 358.619 144.781 358.727ZM92.4995 318.599C96.0062 317.7 96.2589 315.358 93.089 313.133C91.9506 312.334 91.531 312.455 90.5396 313.867C89.7485 314.995 89.6347 315.756 90.1982 316.152C90.6632 316.478 90.7765 317.125 90.4501 317.59C89.6317 318.757 90.4024 319.136 92.4995 318.599ZM77.1888 305.76C77.6932 305.419 78.7481 305.592 79.5331 306.143C81.2542 307.351 81.4549 307.151 81.0191 304.662C80.7727 303.255 79.9319 302.216 77.8654 300.766C75.0477 298.789 75.0477 298.788 73.4654 301.043C71.8902 303.288 71.8932 303.305 74.0769 304.837C75.5072 305.841 76.59 306.162 77.1888 305.76ZM186.778 370.894C187.147 370.369 186.84 369.676 185.963 369.06C185.086 368.445 184.33 368.391 183.961 368.917C183.592 369.443 183.899 370.136 184.776 370.751C185.653 371.366 186.409 371.42 186.778 370.894ZM54.3457 277.95C54.7413 277.386 55.5027 277.5 56.6298 278.291C57.5596 278.943 58.4948 279.229 58.7085 278.924C58.9217 278.621 59.8421 278.657 60.7534 279.007C62.2888 279.595 62.5835 279.395 64.7636 276.289C66.8677 273.291 67.0527 272.651 66.5165 270.236C66.0733 268.241 66.2337 267.265 67.1289 266.506C67.7956 265.941 68.5452 265.621 68.7943 265.796C69.4773 266.276 72.1435 263.602 72.8694 261.71C73.3749 260.39 73.098 259.646 71.5377 258.131C70.454 257.08 68.8272 255.935 67.9217 255.588C66.5224 255.052 66.0463 255.286 64.7373 257.151C63.8904 258.358 63.4513 259.523 63.7612 259.74C64.0712 259.958 63.8588 260.8 63.2896 261.611C62.6012 262.591 60.9836 263.289 58.4645 263.692C56.3802 264.025 54.3187 264.805 53.8831 265.426C53.4433 266.052 52.7163 266.29 52.2463 265.96C51.7205 265.591 51.0275 265.899 50.412 266.776C49.7965 267.653 49.7425 268.41 50.2683 268.779C50.8319 269.174 50.7181 269.935 49.9269 271.063C49.1357 272.19 48.4584 272.556 47.8949 272.16C47.4299 271.834 46.7825 271.948 46.4561 272.413C45.9854 273.083 46.6766 273.829 49.8077 276.027C52.9387 278.224 53.875 278.621 54.3457 277.95ZM-9.91533 232.219C-9.63974 231.371 -9.43613 230.504 -9.46163 230.293C-9.52966 229.738 -10.0913 229.95 -11.5418 231.077C-12.5925 231.894 -12.6059 232.223 -11.6186 232.916C-10.6312 233.609 -10.3259 233.484 -9.91533 232.219ZM-88.9886 176.569C-88.3754 175.695 -88.3429 174.784 -88.8986 174.055C-90.0824 172.502 -91.2121 172.546 -92.3668 174.192C-93.1761 175.345 -93.0584 175.759 -91.6416 176.754C-90.2266 177.747 -89.7944 177.717 -88.9886 176.569ZM117.552 318.524C118.205 317.594 118.485 316.655 118.175 316.437C117.865 316.22 118.057 315.408 118.601 314.633C119.436 313.443 119.326 313.039 117.899 312.037C116.472 311.035 116.054 311.07 115.219 312.26C114.675 313.035 113.977 313.491 113.667 313.273C112.629 312.545 111.959 314.478 112.846 315.642C113.328 316.273 113.556 317.027 113.353 317.316C113.15 317.605 113.745 318.376 114.675 319.028C116.178 320.083 116.497 320.027 117.552 318.524ZM-108.402 160.249C-107.473 160.086 -105.877 157.701 -106.197 156.954C-106.817 155.508 -109.381 155.29 -110.304 156.604C-110.822 157.342 -111.014 158.11 -110.729 158.31C-110.444 158.51 -109.955 159.054 -109.642 159.52C-109.328 159.986 -108.771 160.314 -108.402 160.249ZM-78.1966 180.368C-77.9965 180.082 -76.9543 180.215 -75.8813 180.664C-74.7283 181.146 -73.6264 181.117 -73.1875 180.595C-71.4189 178.49 -70.03 175.569 -70.2368 174.388C-70.4867 172.961 -73.1628 170.798 -73.7115 171.58C-73.9053 171.856 -74.8099 171.797 -75.7212 171.447C-79.1743 170.124 -82.5045 178.119 -79.4061 180.293C-78.9412 180.62 -78.3972 180.653 -78.1966 180.368ZM-6.50583 226.83C-5.89031 225.953 -5.19731 225.645 -4.67152 226.014C-4.2066 226.34 -3.55925 226.227 -3.2329 225.762C-2.83732 225.198 -3.20303 224.521 -4.33013 223.73C-5.45721 222.939 -6.21857 222.825 -6.61415 223.389C-6.94051 223.854 -7.46108 224.056 -7.77103 223.839C-8.081 223.621 -8.77967 224.077 -9.3236 224.852C-10.1148 225.979 -10.0308 226.459 -8.90369 227.25C-7.77661 228.041 -7.297 227.957 -6.50583 226.83ZM101.444 299.23C103.146 298.819 103.583 298.068 102.798 296.902C101.638 295.178 101.133 295.178 99.9253 296.899C98.6527 298.712 99.3235 299.742 101.444 299.23ZM-47.1893 194.912C-46.8629 194.447 -46.3423 194.244 -46.0324 194.462C-45.7224 194.679 -45.278 194.586 -45.045 194.254C-44.223 193.083 -45.1571 190.698 -47.1617 188.848C-49.1519 187.012 -49.2135 187.01 -50.4288 188.742C-51.5415 190.327 -51.4959 190.628 -49.9771 191.693C-48.85 192.484 -48.4843 193.162 -48.8799 193.725C-49.2063 194.19 -49.0928 194.838 -48.6278 195.164C-48.1629 195.49 -47.5156 195.377 -47.1893 194.912ZM93.2224 289.671C93.9827 288.588 94.1223 287.779 93.6106 287.419C93.1716 287.111 92.9236 286.488 93.0594 286.033C93.2152 285.512 92.4666 285.355 91.0279 285.607C89.5892 285.859 88.9385 286.261 89.2623 286.699C89.5446 287.08 89.5231 287.751 89.215 288.19C88.8558 288.702 89.2619 289.415 90.3451 290.175C91.848 291.23 92.1674 291.174 93.2224 289.671ZM41.5134 253.603C42.2161 253.873 43.361 253.995 44.0573 253.873C45.8557 253.558 48.1731 249.971 47.9665 247.823C47.76 245.684 45.5028 243.809 44.6306 245.052C44.3042 245.517 43.6569 245.63 43.192 245.304C42.6284 244.909 41.9511 245.274 41.1599 246.402C40.3688 247.529 39.6913 247.895 39.1278 247.5C37.9799 246.694 37.581 247.444 38.0929 249.445C38.6143 251.483 39.8225 252.951 41.5134 253.603ZM113.528 302.011C114.816 301.73 115.283 301.363 114.939 300.898C114.657 300.517 114.946 299.466 115.58 298.562C116.715 296.945 116.684 296.882 113.635 294.743C111.256 293.073 110.398 292.764 109.942 293.413C109.616 293.878 108.968 293.991 108.503 293.665C108.038 293.339 107.561 293.211 107.441 293.381C107.012 293.992 108.284 298.559 109.03 299.082C109.45 299.377 109.615 299.871 109.397 300.181C108.695 301.181 111.545 302.444 113.528 302.011ZM165 332.415C165.233 332.082 166.071 331.697 166.862 331.558C168.825 331.215 170.897 328.201 169.732 327.383C168.72 326.673 166.313 326.948 165.682 327.846C165.449 328.178 164.878 328.183 164.413 327.857C163.85 327.461 163.172 327.827 162.381 328.954C161.326 330.458 161.382 330.777 162.885 331.832C163.815 332.484 164.767 332.747 165 332.415ZM-16.8552 204.423C-16.5289 203.958 -15.8814 203.845 -15.4165 204.171C-14.7904 204.611 -14.1095 204.107 -12.791 202.228C-11.812 200.833 -11.2375 199.533 -11.5142 199.338C-12.4953 198.65 -11.4163 196.519 -10.0734 196.493C-8.39163 196.46 -6.36378 193.699 -7.45816 192.931C-7.89718 192.623 -8.14665 191.974 -8.01352 191.49C-7.56425 189.861 -9.20964 190.79 -11.486 193.451C-13.5022 195.807 -13.8878 195.99 -15.0814 195.152C-15.8946 194.581 -16.6514 194.545 -17.0121 195.059C-17.3385 195.524 -17.9859 195.638 -18.4509 195.311C-18.9158 194.985 -19.5481 195.077 -19.8566 195.517C-20.1648 195.956 -20.8381 196.24 -21.3522 196.15C-22.1001 196.017 -22.1927 196.149 -21.8135 196.807C-21.5533 197.26 -21.8591 198.37 -22.4936 199.274C-23.6285 200.891 -23.5968 200.954 -20.548 203.093C-18.1688 204.763 -17.3109 205.073 -16.8552 204.423ZM-48.3968 182.783C-47.5007 182.399 -47.0043 180.319 -47.6929 179.836C-48.4244 179.323 -50.8732 179.787 -51.4009 180.539C-51.9156 181.272 -49.347 183.191 -48.3968 182.783ZM7.73314 218.826C8.66191 218.656 9.61407 218.243 9.84984 217.907C10.0852 217.572 10.6987 217.371 11.2134 217.462C11.9613 217.595 12.0538 217.463 11.6746 216.805C11.4139 216.352 11.4066 215.684 11.658 215.321C12.2738 214.432 10.2342 210.919 9.44266 211.505C9.11441 211.747 8.48761 211.694 8.04859 211.385C6.7902 210.502 4.41578 214.398 4.81688 216.689C5.21982 218.99 5.54077 219.225 7.73314 218.826ZM59.7081 253.531C59.9257 253.221 60.4841 253.234 60.949 253.56C61.414 253.886 61.9972 253.864 62.2453 253.511C62.4933 253.157 63.3264 252.856 64.0958 252.841C65.1677 252.82 65.744 252.267 66.5564 250.479C67.1397 249.195 67.3754 247.975 67.0796 247.767C66.7837 247.56 66.9864 246.755 67.5303 245.98C68.9548 243.951 66.4565 242.386 62.8112 243.025C57.7432 243.913 54.638 250.813 58.1855 253.303C58.8054 253.738 59.4906 253.841 59.7081 253.531ZM-72.6094 157.725C-69.7906 157.044 -68.9416 153.145 -71.2584 151.519C-72.5506 150.613 -73.7741 151.295 -75.6531 153.972C-76.8679 155.703 -76.8463 156.007 -75.4403 156.965C-74.5799 157.551 -73.306 157.893 -72.6094 157.725ZM146.894 307.876C147.141 307.524 148.4 307.092 149.692 306.916C152.04 306.596 152.04 306.596 151.7 304.654C151.36 302.711 151.36 302.711 149.442 303.048C148.387 303.233 147.168 303.891 146.732 304.511C146.293 305.137 145.565 305.375 145.096 305.045C144.631 304.719 143.984 304.832 143.657 305.297C143.262 305.861 143.627 306.538 144.755 307.329C145.684 307.982 146.647 308.228 146.894 307.876ZM135.253 298.396C135.894 298.636 136.673 298.47 136.983 298.028C137.294 297.586 137.928 297.491 138.393 297.817C138.858 298.143 139.505 298.03 139.832 297.565C140.158 297.1 140.679 296.897 140.989 297.115C141.299 297.332 141.997 296.876 142.541 296.101C143.085 295.326 143.277 294.514 142.967 294.297C142.657 294.079 142.67 293.521 142.996 293.056C143.323 292.591 143.209 291.943 142.744 291.617C142.28 291.291 142.069 290.781 142.277 290.485C142.485 290.189 141.848 289.122 140.863 288.113C139.492 286.708 138.762 286.384 137.747 286.729C137.018 286.976 135.879 286.798 135.216 286.333C134.259 285.662 133.771 285.826 132.856 287.131C132.221 288.035 131.281 288.7 130.767 288.609C130.019 288.476 129.926 288.608 130.305 289.266C130.566 289.719 130.527 290.449 130.219 290.888C129.91 291.328 130.039 291.954 130.503 292.28C130.968 292.606 131.082 293.254 130.755 293.719C130.391 294.237 130.689 294.934 131.525 295.52C132.274 296.046 133.157 296.811 133.487 297.218C133.817 297.627 134.611 298.156 135.253 298.396ZM168.874 320.051C171.136 318.133 171.103 316.567 168.764 314.926C166.952 313.654 166.44 313.583 165.784 314.517C164.785 315.941 165.331 319.247 166.726 320.226C167.314 320.638 168.273 320.56 168.874 320.051ZM74.457 252.89C75.5473 251.336 75.5003 251.069 73.9951 250.252C72.6797 249.537 72.0488 249.648 71.0545 250.767C69.9165 252.048 69.9633 252.315 71.5164 253.405C73.069 254.495 73.3672 254.442 74.457 252.89ZM-19.7106 188.118C-19.3415 187.592 -19.6492 186.899 -20.526 186.283C-21.4029 185.668 -22.1593 185.614 -22.5283 186.14C-22.8974 186.666 -22.5896 187.359 -21.7128 187.974C-20.8359 188.59 -20.0797 188.644 -19.7106 188.118ZM146.426 301.352C147.217 300.224 147.133 299.745 146.006 298.954C144.431 297.849 143.629 298.48 143.99 300.543C144.351 302.606 145.321 302.927 146.426 301.352ZM47.2725 230.501C48.8549 228.247 48.8549 228.247 46.6007 226.665C45.0318 225.563 44.1761 225.325 43.786 225.881C43.4779 226.32 42.8046 226.605 42.2904 226.514C41.5426 226.381 41.45 226.513 41.8292 227.171C42.0894 227.624 42.0506 228.354 41.7425 228.793C41.3524 229.349 41.8671 230.073 43.436 231.174C45.6902 232.756 45.6902 232.756 47.2725 230.501ZM54.0981 233.188C54.8894 233.05 55.7521 233.087 56.0153 233.272C56.7 233.752 59.6065 232.918 61.0289 231.833C61.6948 231.325 62.4755 231.076 62.7646 231.279C63.0537 231.482 63.8244 230.887 64.4771 229.957C65.2683 228.829 65.3822 228.068 64.8186 227.672C64.3537 227.346 64.2403 226.699 64.5666 226.234C65.0223 225.584 64.4398 224.883 62.0605 223.213C59.1673 221.182 58.8981 221.127 58.0144 222.387C57.4938 223.128 56.5849 223.614 55.9946 223.467C55.2201 223.272 54.3139 224.064 52.7336 226.316C51.0523 228.711 50.7411 229.57 51.3909 230.026C51.8558 230.353 51.9692 231 51.6428 231.465C51.3164 231.93 51.4117 232.565 51.8546 232.876C52.297 233.186 53.3068 233.327 54.0981 233.188ZM95.7969 262.033C96.0145 261.723 96.5729 261.736 97.0378 262.063C97.5366 262.413 98.2517 262.138 98.7811 261.393C101.34 257.793 101.725 257.802 106.303 261.572C110.511 265.037 110.511 265.037 112.147 262.706C114.335 259.589 114.063 257.186 111.305 255.25C109.788 254.186 109.006 253.999 108.583 254.601C108.256 255.066 107.609 255.18 107.144 254.854C106.576 254.455 105.9 254.828 105.085 255.989C104.009 257.523 103.76 257.573 102.881 256.434C102.336 255.728 101.959 254.87 102.045 254.529C102.13 254.187 101.861 253.67 101.447 253.379C101.032 253.088 101.06 251.972 101.509 250.899C101.957 249.825 102.091 248.783 101.805 248.583C101.52 248.383 101.731 247.585 102.275 246.81C103.16 245.549 103.034 245.239 101.076 243.865C98.5779 242.112 97.7493 242.517 94.5412 247.06C93.5031 248.53 92.4283 249.574 92.1516 249.379C91.8755 249.186 91.045 249.549 90.3067 250.188C89.5683 250.826 88.7153 251.174 88.4115 250.961C88.1072 250.747 87.5917 250.953 87.2654 251.418C86.939 251.883 87.0523 252.531 87.5173 252.857C87.9822 253.183 88.0955 253.831 87.7692 254.296C87.0409 255.333 89.2596 257.034 91.0094 256.78C92.0023 256.636 92.2035 256.777 92.0141 257.485C91.8844 257.972 92.5177 258.89 93.4216 259.525C94.3255 260.159 94.8875 260.932 94.6699 261.242C94.4523 261.552 94.5279 261.984 94.8379 262.201C95.1478 262.419 95.5794 262.343 95.7969 262.033ZM-82.8461 136.657C-82.6285 136.347 -83.0845 135.648 -83.8594 135.104C-84.6343 134.56 -85.4463 134.369 -85.6639 134.679C-85.8814 134.989 -85.4254 135.688 -84.6505 136.231C-83.8757 136.775 -83.0637 136.967 -82.8461 136.657ZM38.6329 219.243C40.1312 217.974 40.1767 217.108 38.7972 216.14C37.4317 215.182 35.4886 217.592 36.4615 219.038C37.3569 220.369 37.3107 220.364 38.6329 219.243ZM12.0745 201.854C12.7169 202.092 13.5207 201.89 13.8613 201.405C14.2023 200.919 15.1114 200.51 15.8808 200.494C16.9527 200.473 17.529 199.921 18.3414 198.133C18.9247 196.848 19.1604 195.628 18.8645 195.421C18.5687 195.213 18.5933 194.663 18.9197 194.198C19.3481 193.587 18.887 192.913 17.2589 191.77C15.6308 190.627 14.8397 190.423 14.4113 191.033C14.0849 191.498 13.4376 191.612 12.9727 191.286C11.9037 190.535 8.83339 194.675 9.05906 196.562C9.14321 197.266 9.26597 198.461 9.33166 199.217C9.45179 200.6 9.92307 201.053 12.0745 201.854ZM-61.5208 148.517C-60.7444 148.807 -59.9673 148.401 -59.1971 147.304C-58.11 145.755 -58.1768 145.557 -60.2935 144.072C-62.4226 142.578 -62.6137 142.584 -63.7344 144.181C-64.3871 145.111 -64.6883 146.035 -64.4037 146.235C-64.1191 146.435 -63.6164 146.932 -63.2865 147.34C-62.9566 147.748 -62.1624 148.277 -61.5208 148.517ZM76.3478 243.005C76.8684 242.263 77.0164 241.243 76.6769 240.738C76.337 240.234 76.4454 239.27 76.9177 238.597C77.705 237.475 77.4336 234.934 76.4453 234.177C76.2202 234.004 74.8782 235.511 73.464 237.526C70.8928 241.19 70.8928 241.19 73.147 242.772C75.1487 244.176 75.5072 244.202 76.3478 243.005ZM30.3475 211.472C30.6739 211.007 31.1944 210.804 31.5044 211.022C31.8143 211.239 32.513 210.783 33.0569 210.008C33.6008 209.233 33.7922 208.421 33.4822 208.204C33.1723 207.986 33.1858 207.428 33.5121 206.963C33.8769 206.443 33.5775 205.747 32.7344 205.155C31.0855 203.998 29.3946 205.079 27.9766 208.198C27.1698 209.973 27.2429 210.555 28.3706 211.346C29.2249 211.946 29.9812 211.994 30.3475 211.472ZM125.508 273.631C125.725 273.321 125.523 272.8 125.058 272.474C124.593 272.148 124.035 272.134 123.817 272.444C123.6 272.754 123.802 273.275 124.267 273.601C124.732 273.928 125.29 273.941 125.508 273.631ZM-15.4473 173.953C-14.5186 173.784 -13.2349 172.898 -12.5944 171.986C-10.9093 169.585 -11.7592 167.198 -15.1455 164.821C-17.957 162.848 -17.957 162.848 -20.1327 165.948C-21.8029 168.328 -22.1124 169.186 -21.4632 169.642C-20.9983 169.968 -20.7958 170.489 -21.0134 170.799C-21.6938 171.768 -17.255 174.283 -15.4473 173.953ZM4.32729 181.432C4.65366 180.967 5.30099 180.854 5.76591 181.18C7.00854 182.052 8.49395 179.521 7.96138 177.439C7.71215 176.468 7.00723 175.321 6.39466 174.891C5.11091 173.99 1.87493 174.14 1.17832 175.133C0.91842 175.503 0.284673 175.731 -0.229464 175.641C-0.977344 175.508 -1.06993 175.64 -0.69073 176.298C-0.430551 176.75 -0.469287 177.48 -0.777434 177.919C-1.17816 178.49 -0.614415 179.226 1.19795 180.498C3.07623 181.816 3.8878 182.058 4.32729 181.432ZM23.3092 190.84C26.4201 190.218 28.8433 187.679 28.0787 185.842C27.342 184.074 24.6194 182.481 23.954 183.429C23.6276 183.894 22.9802 184.007 22.5153 183.681C21.1442 182.719 19.3678 185.982 19.7471 188.766C19.9317 190.12 20.1663 191.268 20.269 191.318C20.3721 191.368 21.7397 191.153 23.3092 190.84ZM172.606 291.122C174.901 289.137 175.329 286.916 173.749 285.194C172.961 284.337 172.482 283.402 172.682 283.117C172.883 282.831 172.793 282.42 172.483 282.202C172.173 281.985 171.729 282.078 171.496 282.41C171.262 282.743 170.424 283.128 169.633 283.267C168.842 283.406 167.673 284.262 167.036 285.169C166.27 286.261 166.164 287.021 166.723 287.414C167.188 287.74 167.39 288.26 167.172 288.57C166.955 288.88 167.786 289.842 169.02 290.709C170.943 292.058 171.456 292.118 172.606 291.122ZM106.825 240.328C107.477 239.398 107.779 238.474 107.494 238.274C106.113 237.305 104.623 237.472 103.767 238.692C103.021 239.755 103.119 240.251 104.229 241.03C105.419 241.865 105.823 241.756 106.825 240.328ZM-2.21398 163.794C-1.2941 163.399 -0.426681 160.85 -1.06069 160.405C-1.63042 160.005 -3.86677 161.839 -3.92022 162.751C-3.9729 163.664 -3.12246 164.184 -2.21398 163.794ZM-113.112 81.207C-112.044 81.4552 -109.248 77.7461 -110.069 77.1698C-110.379 76.9523 -110.365 76.3938 -110.039 75.9288C-109.643 75.3652 -110.009 74.6879 -111.136 73.8969C-112.784 72.7404 -112.876 72.7802 -114.758 75.4626C-116.427 77.8407 -116.551 78.3827 -115.661 79.4453C-114.506 80.825 -114.38 80.9121 -113.112 81.207ZM85.2231 217.175C85.6187 216.612 86.3801 216.725 87.5072 217.516C88.6343 218.307 89.3956 218.421 89.7912 217.857C90.1176 217.392 90.6382 217.19 90.9481 217.408C91.2581 217.625 91.7787 217.422 92.105 216.957C92.4314 216.492 92.478 215.957 92.2087 215.768C91.9393 215.579 92.1991 214.432 92.7862 213.221C94.2437 210.212 93.8201 208.67 90.7614 205.855C88.6137 203.879 87.9763 203.574 87.1574 204.124C86.61 204.493 85.5553 204.369 84.8137 203.848C83.5198 202.94 83.3531 203.061 80.696 206.847C78.4981 209.979 78.1017 210.915 78.7723 211.386C79.2372 211.712 79.3505 212.36 79.0242 212.825C78.5685 213.474 79.151 214.176 81.5303 215.845C83.9096 217.515 84.7674 217.825 85.2231 217.175ZM109.467 225.777C110.01 225.002 110.202 224.19 109.892 223.973C109.582 223.755 108.883 224.211 108.339 224.986C107.796 225.761 107.604 226.573 107.914 226.791C108.224 227.008 108.923 226.552 109.467 225.777ZM-6.84484 137.206C-6.30325 136.209 -6.27706 135.291 -6.78029 134.938C-7.28353 134.585 -8.13789 134.922 -8.89141 135.77C-9.92251 136.93 -9.93489 137.351 -8.95601 138.038C-7.97714 138.725 -7.58517 138.57 -6.84484 137.206ZM-10.4497 129.68C-8.9185 130.25 -6.13464 126.558 -7.41671 125.658C-7.88163 125.332 -8.4401 125.318 -8.65767 125.628C-8.87525 125.938 -9.68725 125.747 -10.4621 125.203C-11.6518 124.368 -12.0556 124.478 -13.0576 125.905C-14.2776 127.644 -13.709 128.467 -10.4497 129.68ZM123.745 219.814C124.361 218.937 124.415 218.181 123.889 217.812C123.363 217.443 122.67 217.751 122.054 218.628C121.439 219.505 121.385 220.261 121.911 220.63C122.437 220.999 123.13 220.691 123.745 219.814ZM21.3603 143.962C21.6274 143.57 21.8693 142.756 21.8983 142.151C21.9399 141.256 21.5916 141.086 20.0289 141.237C17.4089 141.49 17.1858 142.083 19.1836 143.486C20.1653 144.175 21.0782 144.374 21.3603 143.962ZM-31.6974 106.024C-30.5909 105.777 -29.3176 104.73 -28.2151 103.159C-26.3745 100.536 -26.5325 99.6229 -29.1429 97.7909C-29.8924 97.2649 -30.3275 96.581 -30.1099 96.271C-29.8924 95.961 -30.7083 95.0097 -31.9239 94.1566C-33.9476 92.7363 -34.2721 92.7332 -35.7833 94.1207C-37.0097 95.2462 -37.3191 95.9714 -36.9889 96.9427C-36.7449 97.6616 -36.9261 98.7921 -37.3917 99.4556C-37.8806 100.152 -37.8808 100.912 -37.3928 101.255C-36.9279 101.581 -36.8145 102.229 -37.1409 102.694C-38.04 103.975 -33.8921 106.512 -31.6974 106.024ZM-54.5779 90.386C-53.8793 89.3906 -55.214 88.7122 -56.2957 89.5128C-56.6772 89.7952 -56.587 90.3078 -56.0962 90.6523C-55.6059 90.9964 -54.922 90.8764 -54.5779 90.386ZM65.86 171.123C66.3045 170.932 66.6022 170.397 66.5209 169.932C66.31 168.728 63.4995 167.831 62.8472 168.76C62.1969 169.687 64.6757 171.632 65.86 171.123ZM250.613 297.917C250.939 297.452 250.826 296.804 250.361 296.478C249.896 296.152 249.249 296.265 248.922 296.73C248.596 297.195 248.709 297.843 249.174 298.169C249.639 298.495 250.287 298.382 250.613 297.917ZM7.92698 127.593C8.71826 127.455 9.60816 127.511 9.90401 127.719C10.1999 127.926 10.9306 127.682 11.5281 127.176C12.8519 126.053 13.7906 123.716 13.1087 123.238C12.8354 123.046 12.8781 122.508 13.2044 122.043C13.6439 121.417 13.1401 120.736 11.2618 119.418C9.74536 118.353 8.54557 117.895 8.27698 118.278C8.02973 118.63 6.78139 119.06 5.50217 119.235C3.16372 119.554 1.03606 121.495 2.16031 122.284C2.49282 122.517 2.87783 123.356 3.01638 124.147C3.15498 124.938 3.99311 126.094 4.87843 126.716C5.76376 127.337 7.13572 127.732 7.92698 127.593ZM-8.4148 106.44C-7.44323 106.191 -6.04843 105.132 -5.31462 104.086C-3.85849 102.012 -4.34955 100.923 -7.8659 98.4335C-9.11755 97.5467 -9.87873 97.4063 -10.2854 97.9858C-10.6117 98.4508 -11.1324 98.6533 -11.4423 98.4358C-11.7523 98.2183 -12.4508 98.6743 -12.9947 99.4494C-13.5386 100.224 -13.7301 101.036 -13.4202 101.254C-13.1102 101.472 -13.2127 102.157 -13.6478 102.777C-14.7752 104.383 -10.9198 107.081 -8.4148 106.44ZM123.946 195.558C124.562 194.681 124.616 193.925 124.09 193.556C123.564 193.187 122.871 193.494 122.256 194.372C121.64 195.249 121.586 196.005 122.112 196.374C122.638 196.743 123.331 196.435 123.946 195.558ZM162.05 215.571C162.885 214.381 162.776 213.977 161.349 212.975C159.921 211.973 159.504 212.008 158.669 213.197C157.834 214.387 157.943 214.791 159.371 215.793C160.798 216.795 161.215 216.76 162.05 215.571ZM-56.7458 62.7858C-55.0666 61.6551 -54.2634 60.0457 -54.4441 58.1699C-54.6524 56.0098 -57.4534 53.7351 -58.3434 55.0033C-58.7125 55.5292 -59.4689 55.4754 -60.3458 54.86C-61.6137 53.9701 -61.9129 54.0966 -63.337 56.1258C-64.9193 58.3803 -64.9191 58.3804 -61.3164 60.9089C-58.5511 62.8496 -57.4887 63.2857 -56.7458 62.7858ZM-24.4224 75.2835C-23.5614 75.6051 -22.8503 75.1408 -21.7031 73.5062C-20.1544 71.2995 -20.1564 71.2881 -22.4038 69.7108C-24.658 68.1287 -24.658 68.1287 -26.2403 70.3833C-27.1106 71.6233 -27.5899 72.8012 -27.3053 73.0009C-27.0207 73.2006 -26.518 73.6983 -26.1882 74.1056C-25.8582 74.5139 -25.064 75.0435 -24.4224 75.2835ZM173.877 208.307C174.095 207.997 174.019 207.566 173.709 207.348C173.399 207.13 172.968 207.206 172.75 207.516C172.532 207.826 172.608 208.258 172.918 208.475C173.228 208.693 173.659 208.617 173.877 208.307ZM-56.918 43.3846C-56.3025 42.5075 -56.2487 41.7513 -56.7745 41.3822C-57.3003 41.0132 -57.9931 41.321 -58.6087 42.198C-59.2242 43.0751 -59.2782 43.8314 -58.7524 44.2004C-58.2266 44.5694 -57.5335 44.2616 -56.918 43.3846ZM-44.5698 24.2921C-43.8737 24.1236 -43.1375 23.7494 -42.9338 23.4591C-42.7305 23.1694 -42.0811 23.053 -41.4908 23.2006C-40.9009 23.3488 -40.0511 22.9468 -39.6021 22.307C-39.1531 21.6673 -39.0638 20.7313 -39.4037 20.2269C-39.7433 19.7219 -39.7731 18.9556 -39.4701 18.5239C-39.1671 18.0921 -39.2995 17.4716 -39.7644 17.1453C-40.2293 16.819 -40.4317 16.2985 -40.2141 15.9885C-39.9965 15.6785 -40.5793 14.8909 -41.5091 14.2383C-42.439 13.5857 -43.3778 13.3054 -43.5953 13.6154C-43.8129 13.9254 -44.4418 13.8626 -44.993 13.4758C-45.5441 13.089 -46.7898 12.976 -47.761 13.2249C-49.6814 13.7178 -51.4436 15.6788 -50.5369 16.3152C-50.2269 16.5328 -50.2211 17.0636 -50.5241 17.4954C-50.8267 17.9266 -50.5522 18.8837 -49.9138 19.622C-49.2754 20.3603 -48.9278 21.2134 -49.141 21.5172C-49.738 22.3677 -45.9991 24.6376 -44.5698 24.2921Z" fill="#7A75F0"/>
</svg>
