<svg width="487" height="564" viewBox="0 0 487 564" fill="none" xmlns="http://www.w3.org/2000/svg">
<path fill-rule="evenodd" clip-rule="evenodd" d="M670.295 140.945C668.001 141.401 665.397 142.075 664.508 142.444C663.619 142.812 662.296 142.945 661.57 142.74C660.843 142.535 660.145 142.634 660.018 142.96C659.892 143.285 657.47 143.871 654.637 144.262C648.238 145.143 636.663 147.173 635.087 147.691C631.835 148.758 627.728 150.495 626.488 151.328C625.724 151.842 622.763 153.814 619.909 155.711C614.007 159.633 613.968 159.69 614.652 163.277C615.164 165.962 612.467 173.91 610.037 176.877C607.334 180.178 603.305 181.372 598.983 180.153C592.777 178.403 586.52 174.146 585.757 171.156C585.145 168.751 584.651 168.461 576.408 165.662C571.621 164.036 567.5 162.795 567.25 162.901C567 163.008 567.148 164.094 567.577 165.315C568.557 168.099 564.459 179.347 562.209 180.05C561.405 180.301 558.39 180.358 555.507 180.177C551.456 179.921 548.983 180.424 544.616 182.393C540.253 184.36 537.9 184.84 534.285 184.499C528.469 183.949 522.113 181.065 519.338 177.715C515.875 173.534 515.565 165.3 518.568 157.23C520.368 152.389 520.356 152.3 517.862 151.861C515.977 151.53 515.067 150.703 514.323 148.646C513.381 146.045 513.453 145.806 515.504 144.662C518.259 143.126 520.952 142.806 525.905 143.426C531.119 144.078 539.566 143.923 539.859 143.17C539.988 142.838 541.163 142.869 542.471 143.237C546.327 144.325 543.914 147.04 539.055 147.08C534.291 147.12 526.7 148.938 525.325 150.367C524.211 151.526 526.638 152.083 537.041 153.056C543.188 153.631 548.599 155.581 550.038 157.74C552.211 161.001 553.046 161.953 553.964 162.212C555.412 162.62 556.259 159.621 554.952 158.71C553.16 157.459 554.159 153.278 557.012 150.092L559.606 147.196L556.532 146.329C551.893 145.021 552.338 143.677 558.24 141.167C561.239 139.893 564.981 137.421 566.759 135.542C571.968 130.038 571.759 130.107 578.307 131.666C581.612 132.453 584.795 132.892 585.381 132.642C585.978 132.388 583.887 131.679 580.62 131.03C574.186 129.751 573.503 128.622 578.202 127.045C580.276 126.348 582.401 126.581 587.892 128.107C595.348 130.18 596.567 131.221 597.398 136.228C597.789 138.578 601.651 140.474 605.135 140.026C610.814 139.296 617.287 139.762 618.168 140.963C618.839 141.878 620.508 141.912 624.968 141.105C632.873 139.674 636.17 138.306 637.027 136.103C637.664 134.465 638.168 134.392 641.777 135.409C644.314 136.125 646.847 136.233 648.591 135.7C650.683 135.061 670.405 131.218 677.612 130.046C678.065 129.972 677.541 132.208 676.45 135.014C674.486 140.064 674.423 140.125 670.295 140.945ZM511.26 297.662C508.136 299.006 505.103 298.533 505.775 296.805C506.324 295.394 512.538 292.881 513.681 293.608C515.19 294.567 514.061 296.457 511.26 297.662ZM472.474 313.923C470.383 317.348 466.976 318.992 462.437 318.767C459.341 318.613 458.139 315.867 460.01 313.221C462.331 309.939 475.972 304.826 474.874 307.65C474.719 308.047 474.564 308.889 474.528 309.519C474.493 310.15 473.569 312.131 472.474 313.923ZM459.818 306.504C455.754 308.535 451.205 308.426 453.206 306.346C453.781 305.748 454.354 304.997 454.478 304.677C454.949 303.466 461.97 300.586 463.44 301C465.893 301.692 464.151 304.34 459.818 306.504ZM487.811 236.902C486.999 237.25 484.961 237.147 483.282 236.673C481.104 236.059 480.09 236.172 479.741 237.07C478.304 240.765 470.387 243.375 466.736 241.357C465.442 240.642 464.93 240.848 464.36 242.314C463.281 245.088 458.24 250.481 455.793 251.479C451.255 253.33 446.857 253.495 441.602 252.013C435.765 250.367 432.631 247.959 429.981 243.082C426.422 236.536 431.581 227.377 440.542 224.332C446.29 222.378 456.086 224.747 461.521 229.406C463.897 231.444 464.222 231.432 466.814 229.204C468.331 227.9 469.377 227.911 475.083 229.291C479.58 230.378 481.988 230.58 482.81 229.94C484.254 228.815 488.802 229.957 489.833 231.703C490.241 232.395 490.286 233.706 489.932 234.616C489.578 235.525 488.624 236.554 487.811 236.902ZM442.969 326.132C435.94 329.633 433.081 328.599 436.81 323.905C438.988 321.163 442.59 319.705 446.241 320.087C448.929 320.369 449.296 320.643 448.776 321.979C448.441 322.839 445.829 324.708 442.969 326.132ZM447.554 297.976C445.233 299.781 439.98 301.376 438.101 300.846C435.694 300.167 437.334 298.001 442.27 295.338C449.018 291.699 453.042 293.709 447.554 297.976ZM422.177 278.517C405.869 285.224 389.527 291.629 381.089 294.622C379.718 295.108 375.537 296.69 371.797 298.137C363.285 301.43 344.404 308.163 333.195 311.902C330.071 312.944 326.908 314.026 326.165 314.307C321.698 315.992 314.605 317.444 313.973 316.801C313.036 315.849 337.736 305.563 367.542 294.494C369.014 293.948 374.981 291.697 380.804 289.494C386.628 287.29 393.012 284.961 394.991 284.318C396.972 283.674 399.455 282.802 400.51 282.378C401.564 281.954 407.282 279.971 413.216 277.971C423.786 274.408 423.932 274.323 420.433 273.761C417.973 273.365 416.648 272.719 416.173 271.686C415.598 270.436 416.215 269.968 419.872 268.881C424.44 267.523 430.651 266.915 435.467 267.355C438.464 267.628 441.601 269.17 441.209 270.177C441.079 270.513 432.515 274.265 422.177 278.517ZM479.585 148.906C478.418 149.646 476.508 149.981 475.339 149.651C472.655 148.894 469.815 144.581 470.069 141.649C470.52 136.459 479.216 136.371 481.708 141.532C483.224 144.672 482.546 147.029 479.585 148.906ZM382.496 385.095C380.743 385.846 377.408 384.167 377.038 382.347C376.75 380.93 377.186 379.945 378.751 378.474C382.894 374.584 386.554 376.42 384.612 381.415C383.9 383.247 382.948 384.903 382.496 385.095ZM405.308 323.365C402.57 324.394 401.734 324.188 402.339 322.632C402.919 321.139 407.009 318.299 408.125 318.613C409.615 319.033 407.546 322.523 405.308 323.365ZM494.244 79.6452C487.647 82.0334 480.976 83.0659 477.846 82.1832C475.16 81.4255 475.428 80.1708 478.741 78.0033C484.861 73.9999 490.132 72.7745 495.905 74.0136C501.812 75.2821 501.276 77.0984 494.244 79.6452ZM381.309 342.516C377.696 345.443 372.331 347.885 367.97 348.586C361.315 349.657 359.964 347.654 363.889 342.535C366.535 339.085 370.843 336.848 377.788 335.32C385.844 333.547 387.699 337.337 381.309 342.516ZM365.192 365.939C362.131 367.959 360.677 368.28 360.324 367.016C359.674 364.691 365.326 360.733 368.158 361.532C369.212 361.829 367.449 364.451 365.192 365.939ZM408.539 239.192C407.677 238.949 407.414 238.281 407.893 237.553C409.111 235.704 411.378 236.042 410.632 237.962C410.256 238.929 409.396 239.434 408.539 239.192ZM342.336 385.751C340.836 386.25 340.347 386.088 339.613 384.843C338.832 383.52 338.994 383.151 340.879 381.956C342.594 380.869 343.237 380.853 343.986 381.875C345.221 383.558 344.609 384.993 342.336 385.751ZM332.735 405.954C327.856 408.788 321.577 404.306 324.6 400.146C326.612 397.378 327.047 397.135 329.004 397.687C330.723 398.172 335.031 403.347 334.613 404.424C334.491 404.736 333.646 405.424 332.735 405.954ZM395.67 240.807C394.259 241.277 393.699 241.119 392.896 240.025C391.545 238.182 392.264 236.644 394.42 236.765C398.368 236.988 399.187 239.636 395.67 240.807ZM418.499 166.834C409.726 170.732 382.238 181.703 371.541 185.575C368.626 186.63 363.991 188.433 361.241 189.58C356.743 191.457 342.911 196.491 331.899 200.26C329.62 201.04 324.305 202.938 320.087 204.477C311.22 207.713 301.179 210.661 300.079 210.351C299.663 210.234 299.447 209.815 299.6 209.421C299.966 208.482 321.312 199.308 334.095 194.597C339.637 192.555 345.898 190.191 348.007 189.344C353.804 187.016 361.154 184.247 374.38 179.41C392.911 172.632 399.211 170.391 402.637 169.361C404.374 168.839 406.704 167.61 407.813 166.63C408.922 165.649 410.7 164.944 411.763 165.062C412.827 165.18 415.821 164.596 418.418 163.766C423.859 162.024 428.124 161.313 427.769 162.207C427.635 162.547 423.463 164.628 418.499 166.834ZM308.335 455.505C307.061 454.966 306.493 454.003 306.745 452.811C307.178 450.771 309.18 450.835 310.415 452.928C311.65 455.021 310.515 456.427 308.335 455.505ZM345.944 362.649C343.92 365.527 338.303 368.649 334.11 369.228C331.738 369.555 329.63 369.54 329.427 369.195C328.836 368.193 330.399 364.867 331.337 365.132C331.805 365.264 332.821 364.464 333.596 363.354C334.521 362.028 336.661 360.985 339.843 360.309C346.486 358.9 348.136 359.532 345.944 362.649ZM323.725 417.466C322.04 418.187 319.014 416.661 318.491 414.825C317.546 411.512 323.24 408.8 325.286 411.589C326.234 412.882 325.183 416.842 323.725 417.466ZM427.95 143.278C425.469 142.578 425.19 142.214 426.031 140.77C426.753 139.534 427.635 139.256 429.329 139.734C431.022 140.211 431.535 140.882 431.248 142.242C430.911 143.828 430.432 143.978 427.95 143.278ZM292.307 463.444C290.159 464.618 289.561 464.594 287.877 463.265C284.534 460.626 286.626 455.562 291.04 455.61C295.348 455.655 296.258 461.285 292.307 463.444ZM315.15 403.139C313.868 403.602 313.395 403.468 312.987 402.529C311.347 398.755 313.74 395.398 316.746 397.254C318.793 398.518 317.798 402.182 315.15 403.139ZM295.362 444.356C291.962 446.379 288.801 445.609 286.612 442.225C284.682 439.242 285.034 437.941 288.499 435.256C291.081 433.255 294.613 432.846 296.707 434.307C297.878 435.123 299.101 440.382 298.466 441.87C298.266 442.34 296.868 443.459 295.362 444.356ZM370.718 246.603C368.523 246.691 365.025 244.344 364.468 242.413C363.452 238.881 369.915 235.324 373.195 237.611C375.481 239.206 373.473 246.494 370.718 246.603ZM385.847 205.697C385.147 205.5 383.188 205.193 381.493 205.015C379.125 204.767 378.519 204.416 378.876 203.497C379.428 202.078 381.63 201.886 385.338 202.932C387.121 203.434 387.881 204.094 387.578 204.874C387.325 205.524 386.546 205.894 385.847 205.697ZM324.276 355.671C322.462 356.738 322.235 356.695 321.306 355.119C319.974 352.862 321.897 350.899 324.393 351.968C326.816 353.005 326.778 354.2 324.276 355.671ZM294.729 423.717C292.923 422.849 291.915 419.916 293.228 419.354C294.542 418.792 296.703 421.231 296.444 422.983C296.294 423.987 295.764 424.214 294.729 423.717ZM340.329 302.357C336.252 303.826 334.752 303.773 335.372 302.18C335.935 300.732 341.058 298.824 342.949 299.357C345.238 300.003 344.494 300.855 340.329 302.357ZM364.784 232.369C361.486 233.609 359.307 232.709 360.179 230.467C361.046 228.237 363.727 227.166 365.877 228.191C368.028 229.215 367.466 231.36 364.784 232.369ZM416.855 98.2407C410.614 105.05 398.181 111.944 388.773 113.81C384.897 114.579 383.852 114.419 377.413 112.082C366.174 108.001 365.736 107.121 373.813 104.848C376.373 104.127 379.661 102.597 381.12 101.447C383.592 99.4982 383.706 99.2288 382.802 97.4826C381.051 94.1052 382.711 92.1671 387.675 91.7955C390.145 91.6103 394.439 90.3687 397.215 89.0356C404.027 85.7652 409.628 84.2218 415.005 84.1328C419.032 84.0665 419.66 84.2437 421.183 85.8786C422.593 87.3908 422.616 88.3201 421.316 91.3885C420.456 93.4184 418.449 96.5016 416.855 98.2407ZM299.087 401.486C297.583 403.058 295.894 403.175 294.375 401.813C292.702 400.314 293.778 397.112 296.228 396.295C297.693 395.808 298.251 396.05 299.302 397.628C300.658 399.667 300.648 399.854 299.087 401.486ZM355.458 246.586C351.718 247.434 350 246.086 351.126 243.189C351.765 241.546 352.64 240.861 354.078 240.876C359.595 240.935 360.675 245.403 355.458 246.586ZM304.649 371.949C298.325 371.549 296.022 366.904 300.61 363.802C303.464 361.873 306.046 362.681 307.426 365.935C308.978 369.592 307.798 372.147 304.649 371.949ZM337.171 276.236C333.063 277.632 331.619 277.519 332.268 275.85C332.678 274.797 339.682 272.215 341.067 272.605C342.657 273.054 340.43 275.128 337.171 276.236ZM293.445 379.209C291.717 379.948 288.433 378.335 288.456 376.76C288.503 373.608 293.084 371.559 295.223 373.733C296.051 374.575 294.723 378.662 293.445 379.209ZM354.146 220.727C351.706 221.771 349.636 220.971 348.987 218.733C348.375 216.626 352.556 214.477 355.138 215.571C357.454 216.553 356.876 219.559 354.146 220.727ZM291.9 363.411C288.91 364.691 287.921 363.503 289.212 360.182C290.329 357.309 290.664 357.064 292.442 357.815C294.731 358.783 294.386 362.347 291.9 363.411ZM376.274 137.007C368.732 143.271 350.18 151.062 345.77 149.818C344.529 149.468 344.537 148.882 345.813 146.797C347.582 143.908 347.624 143.882 358.944 138.538C367.929 134.296 375.797 132.386 377.539 134.023C378.488 134.916 378.323 135.306 376.274 137.007ZM263.294 411.34C262.337 412.007 261.924 411.845 261.121 410.484C260.041 408.652 261.36 406.578 263.264 407.116C263.918 407.3 264.488 408.083 264.531 408.855C264.624 410.553 264.729 410.34 263.294 411.34ZM294.868 328.042C293.188 328.761 292.408 327.871 293.337 326.295C294.554 324.236 297.07 324.139 296.276 326.181C295.953 327.011 295.319 327.849 294.868 328.042ZM331.31 231.687C329.517 232.455 328.882 231.464 329.936 229.546C331.368 226.94 333.878 226.842 332.871 229.432C332.464 230.479 331.761 231.494 331.31 231.687ZM287.856 333.64C287.156 333.442 286.271 332.603 285.89 331.774C285.339 330.572 285.524 330.095 286.809 329.411C289.503 327.979 291.057 329.045 290.049 331.636C289.473 333.118 288.655 333.865 287.856 333.64ZM276.142 357.722C274.455 358.445 271.004 356.861 271.497 355.591C271.768 354.896 271.22 353.336 270.28 352.125C268.407 349.715 268.98 347.085 271.727 345.479C274.09 344.097 276.166 344.803 278.162 347.669C279.483 349.566 279.528 350.776 278.388 353.707C277.604 355.722 276.594 357.53 276.142 357.722ZM315.27 243.958C308.562 246.561 303.305 241.566 307.223 236.311C308.623 234.432 313.438 233.348 316.518 234.216C321.445 235.606 320.643 241.873 315.27 243.958ZM255.126 396.016C249.441 397.766 245.791 394.99 247.479 390.201C249.228 385.236 255.51 383.471 258.815 387.016C261.4 389.79 259.386 394.706 255.126 396.016ZM308.685 261.179C306.864 261.251 306.422 259.145 307.929 257.578C308.474 257.011 309.558 256.726 310.338 256.946C312.219 257.477 310.806 261.095 308.685 261.179ZM262.712 376.205C260.822 375.308 261.386 371.624 263.329 372.172C264.614 372.534 265.192 374.446 264.532 376.143C264.365 376.572 263.545 376.601 262.712 376.205ZM268.173 363.382C265.556 364.971 262.482 362.94 263.508 360.302C264.562 357.59 267.85 356.245 269.435 357.876C271.023 359.511 270.453 361.996 268.173 363.382ZM252.233 402.336C251.217 403.058 250.741 402.793 249.603 400.869C248.638 399.237 248.605 398.352 249.499 397.97C252.297 396.772 254.689 400.59 252.233 402.336ZM243.128 413.159C240.32 413.539 239.982 413.408 239.114 411.603C238.594 410.518 238.421 408.982 238.729 408.188C239.966 405.007 247.414 404.488 247.583 407.572C247.758 410.776 246.188 412.746 243.128 413.159ZM367.251 84.9051C365.592 86.8427 364.879 87.0777 362.958 86.3165C360.86 85.4854 360.768 85.0416 361.926 81.3529C362.893 78.277 363.787 77.004 365.642 76.0642C368.963 74.3828 369.992 74.8655 370.052 78.1328C370.11 81.3335 369.927 81.7773 367.251 84.9051ZM260.837 349.548C259.167 350.159 258.832 350.014 258.233 348.428C257.434 346.319 257.984 344.539 259.828 343.25C260.943 342.472 261.323 342.63 262.465 344.348C264.051 346.731 263.47 348.585 260.837 349.548ZM234.484 408.831C231.569 410.057 229.376 409.322 228.894 406.955C228.385 404.45 230.48 401.665 233.173 401.267C234.855 401.019 235.534 401.417 236.506 403.221C237.981 405.96 237.387 407.61 234.484 408.831ZM294.87 253.256C292.144 254.528 288.023 253.938 287.54 252.208C287.384 251.652 288.01 250.037 288.931 248.619C290.559 246.113 290.71 246.078 294.392 247.375C297.39 248.432 298.105 249.056 297.827 250.375C297.633 251.292 296.303 252.588 294.87 253.256ZM237.86 390.272C234.349 391.353 232.157 390.953 230.625 388.951C228.707 386.444 228.716 384.119 230.653 382.241C235.221 377.813 239.635 377.842 241.532 382.312C243.086 385.973 241.638 389.11 237.86 390.272ZM348.183 109.283C344.395 111.685 340.312 108.646 342.433 105.005C343.21 103.674 344.143 103.41 346.481 103.862C350.419 104.623 351.267 107.327 348.183 109.283ZM341.314 119.964C339.508 120.001 337.251 117.875 337.746 116.603C338.475 114.727 340.985 114.411 342.336 116.023C343.759 117.722 343.188 119.925 341.314 119.964ZM333.229 130.39C332.181 129.942 331.324 129.082 331.325 128.482C331.328 126.867 334.969 128.166 335.059 129.814C335.117 130.856 334.656 131.001 333.229 130.39ZM264.577 306.94C263.909 306.735 262.577 305.839 261.614 304.949C260.013 303.469 260.029 303.277 261.811 302.684C263.232 302.21 264.089 302.376 264.979 303.295C266.498 304.866 266.214 307.443 264.577 306.94ZM239.979 368.815C239.56 369.271 238.695 369.28 238.057 368.835C236.776 367.941 237.839 364.109 239.257 364.509C240.447 364.845 240.938 367.774 239.979 368.815ZM327.359 143.618C325.598 144.846 322.837 143.195 323.264 141.169C323.7 139.101 326.707 138.707 328.054 140.543C329.119 141.995 329.013 142.465 327.359 143.618ZM250.29 331.611C245.3 332.897 242.871 332.553 239.913 330.146C234.963 326.116 234.901 319.048 239.796 316.915C247.292 313.649 251.973 314.344 254.804 319.141C256.455 321.94 256.49 322.925 255.067 326.585C253.626 330.291 253.047 330.901 250.29 331.611ZM242.908 348.615C240.176 348.724 238.883 347.088 239.813 344.697C240.969 341.726 243.234 340.915 244.883 342.884C246.382 344.674 245.053 348.531 242.908 348.615ZM290.06 222.78C285.635 223.067 283.194 222.579 283.617 221.492C284.23 219.915 291.396 219.925 292.951 221.505C293.687 222.254 292.914 222.595 290.06 222.78ZM351.714 62.1239C350.058 63.792 347.242 63.454 346.057 61.4461C345.119 59.8555 346.461 56.3578 349.367 52.8229C351.104 50.7107 352.094 50.2129 353.673 50.6582C355.229 51.0972 355.632 51.8689 355.344 53.8609C354.838 57.3672 353.568 60.2571 351.714 62.1239ZM235.751 348.21C233.01 349.383 227.693 347.655 227.243 345.445C226.702 342.788 227.549 341.308 230.281 340.139C233.351 338.826 235.988 340.612 236.959 344.663C237.547 347.119 237.418 347.497 235.751 348.21ZM330.128 96.1551C329.047 95.5505 327.825 94.9549 327.41 94.8317C326.996 94.708 327.1 93.8475 327.641 92.918C328.363 91.6813 329.245 91.4038 330.938 91.8814C332.8 92.4065 333.137 92.9928 332.671 94.8935C332.151 97.0123 331.889 97.1413 330.128 96.1551ZM304.561 151.013C298.374 153.62 297.859 154.038 295.389 158.459C292.98 162.771 286.639 167.229 283.981 166.479C283.297 166.286 282.444 166.464 282.084 166.875C281.271 167.8 274.079 166.706 271.377 165.245C268.945 163.93 267.343 157.715 268.633 154.602C269.663 152.117 273.982 147.628 277.348 145.545C280.015 143.894 284.783 143.98 291.221 145.796C294.988 146.858 297.278 146.92 301.497 146.072C304.482 145.472 307.607 145.173 308.442 145.408C310.969 146.121 308.829 149.214 304.561 151.013ZM266.596 246.596C264.405 247.769 261.906 248.531 261.041 248.287C260.176 248.043 258.341 246.317 256.963 244.451C253.723 240.067 254.656 237.111 259.834 235.351C264.502 233.764 268.479 234.842 270.481 238.237C272.503 241.663 271.41 244.016 266.596 246.596ZM222.958 356.537C220.915 357.638 220.191 357.641 219.104 356.552C216.958 354.406 218.241 351.26 221.454 350.786C223.675 350.458 224.385 350.646 225.22 351.785C226.588 353.651 225.992 354.904 222.958 356.537ZM220.143 341.101C219.107 341.544 217.726 341.533 217.073 341.078C215.483 339.969 217.105 336.044 219.478 335.253C221.09 334.716 221.481 334.902 222.079 336.484C222.987 338.885 222.477 340.102 220.143 341.101ZM230.937 308.009C229.436 308.508 228.947 308.343 228.206 307.087C227.429 305.769 227.566 305.397 229.186 304.412C230.787 303.44 231.232 303.489 232.149 304.739C233.496 306.577 233.251 307.238 230.937 308.009ZM195.391 390.595C193.43 390.042 192.982 387.971 194.486 386.407C195.77 385.071 196.309 385.268 197.157 387.378C198.147 389.844 197.421 391.167 195.391 390.595ZM273.26 187.9C269.379 189.656 267.274 189.621 267.977 187.812C268.47 186.545 271.292 185.173 274.327 184.725C277.788 184.214 277.14 186.145 273.26 187.9ZM233.043 274.932C232.342 275.074 231.488 274.715 231.146 274.135C230.267 272.645 232.049 270.265 233.696 270.729C235.359 271.198 234.835 274.568 233.043 274.932ZM251.054 226.242C247.639 225.279 246.72 221.81 249.197 219.234C251.665 216.668 255.186 220.706 253.735 224.438C253.053 226.191 252.41 226.624 251.054 226.242ZM188.709 375.335C187.793 376.133 185.71 376.804 184.079 376.825C181.59 376.858 180.835 376.47 179.38 374.405C176.989 371.013 178.315 368.068 183.104 366.133C187.504 364.356 187.802 364.392 189.749 366.953C191.505 369.266 191 373.34 188.709 375.335ZM203.682 336.486C201.5 337.811 198.5 336.528 198.825 334.407C199.1 332.604 202.426 329.648 203.758 330.024C204.829 330.326 206.163 333.377 205.746 334.569C205.584 335.032 204.655 335.895 203.682 336.486ZM297.726 96.1906C296.036 98.5598 290.175 96.4165 291.192 93.8015C291.739 92.3955 295.117 90.956 296.772 91.4229C298.349 91.8676 298.887 94.5611 297.726 96.1906ZM177.672 393.511C174.283 394.961 172.63 394.205 172.02 390.93C171.508 388.184 171.593 388.053 174.653 386.866C177.217 385.87 180.763 385.705 180.416 386.596C180.373 386.707 180.277 388.078 180.202 389.642C180.09 392 179.657 392.661 177.672 393.511ZM193.736 355.773C193.317 356.228 192.452 356.238 191.814 355.793C190.532 354.898 191.595 351.067 193.014 351.467C194.203 351.802 194.695 354.732 193.736 355.773ZM279.091 123.948C270.754 125.639 263.344 120.429 266.778 115.29C270.179 110.197 274.331 110.546 280.124 116.411C284.659 121.001 284.403 122.871 279.091 123.948ZM195.985 321.571C189.334 323.148 180.842 326.401 168.657 332.038C162.475 334.897 159.328 335.767 146.418 338.183C133.06 340.683 127.648 340.187 129.046 336.591C130.553 332.716 152.735 324.559 165.001 323.369C167.04 323.171 170.922 322.791 173.628 322.524C176.333 322.258 179.021 322.173 179.602 322.337C180.182 322.501 180.785 322.304 180.942 321.9C181.099 321.495 182.228 321.176 183.449 321.189C184.67 321.202 186.246 321.011 186.949 320.764C190.167 319.638 201.851 317.297 202.896 317.569C205.656 318.288 202.765 319.963 195.985 321.571ZM265.758 137.566C263.732 138.433 259.161 137.025 258.086 135.202C255.983 131.639 260.677 127.567 265.365 128.889C268.43 129.753 269.331 131.544 268.185 134.492C267.663 135.835 266.571 137.218 265.758 137.566ZM243.327 189.39C241.264 189.472 238.291 184.628 239.581 183.287C240.972 181.84 243.608 182.704 244.795 184.995C245.987 187.292 245.311 189.312 243.327 189.39ZM211.191 247.629C209.744 248.249 207.18 247.121 207.109 245.835C207.007 243.987 210.256 242.32 211.826 243.415C213.148 244.337 212.753 246.962 211.191 247.629ZM198.92 267.72C192.34 270.012 187.46 262.948 193.275 259.548C195.667 258.148 197.023 258.677 199.748 262.073C202.417 265.4 202.247 266.561 198.92 267.72ZM188.81 278.505C184.01 279.213 183.385 273.619 188.066 271.859C190.015 271.127 190.632 271.216 191.466 272.353C192.878 274.278 191.205 278.152 188.81 278.505ZM252.155 117.122C249.879 118.096 248.51 117.356 247.298 114.498C245.994 111.424 246.407 109.902 248.827 108.867C252.873 107.135 256.13 110.068 254.582 114.048C254.06 115.391 252.968 116.775 252.155 117.122ZM173.662 316.752C172.033 317.083 170.431 314.62 171.121 312.846C171.849 310.975 172.986 311.281 174.23 313.68C175.36 315.861 175.255 316.429 173.662 316.752ZM278.464 40.0969C275.207 39.8601 273.685 38.5305 274.442 36.5827C275.24 34.5308 278.96 33.5144 280.848 34.8319C282.541 36.0121 280.621 40.2541 278.464 40.0969ZM215.203 196.246C210.492 197.892 209.016 197.509 206.784 194.055C204.464 190.467 205.57 187.914 210.119 186.368C215.425 184.564 217.58 185.46 219.157 190.127C220.308 193.529 219.528 194.735 215.203 196.246ZM219.764 170.684C213.967 173.165 209.122 171.909 205.782 167.058C203.224 163.344 203.409 161.907 206.828 158.979C210.524 155.812 213.21 155.208 217.996 156.468C222.729 157.713 224.588 159.836 224.814 164.248C225 167.868 224.318 168.737 219.764 170.684ZM181.86 264C179.947 264.387 178.682 261.731 179.625 259.306C180.361 257.413 180.888 257.147 182.818 257.691C184.836 258.26 184.997 258.687 184.077 261.054C183.497 262.545 182.499 263.87 181.86 264ZM154.788 323.767C152.376 324.254 150.389 322.755 149.836 320.031C149.28 317.301 153.409 314.775 156.456 315.982C158.465 316.778 158.643 317.323 157.811 320.124C157.087 322.563 156.349 323.452 154.788 323.767ZM161.189 303.596C158.936 305.314 157.497 305.585 154.715 304.816C151.751 303.997 150.16 300.767 151.29 297.863C152.206 295.506 157.434 292.472 159.51 293.091C163.429 294.26 164.515 301.059 161.189 303.596ZM217.692 141.665C216.005 141.189 215.448 140.443 215.587 138.845C215.832 136.015 216.839 135.667 219.259 137.576C221.934 139.687 220.836 142.552 217.692 141.665ZM160.72 283.798C159.645 283.495 158.119 280.534 158.482 279.452C158.871 278.288 162.185 279.86 162.26 281.245C162.375 283.338 161.898 284.13 160.72 283.798ZM188.049 209.601C185.905 210.518 184.625 209.175 185.722 207.16C186.398 205.92 187.418 205.235 188.244 205.468C189.698 205.878 189.553 208.957 188.049 209.601ZM225.64 112.441C224.271 113.973 221.324 114.661 218.908 114.01C216.333 113.318 215.879 109.664 217.991 106.636C219.139 104.99 219.931 104.718 221.891 105.293C225.894 106.468 227.775 110.052 225.64 112.441ZM166.194 261.961C164.213 263.451 161.262 262.511 160.8 260.242C160.528 258.905 160.912 258.066 162.215 257.145C164.43 255.579 165.761 255.907 167.017 258.329C168.141 260.498 168.141 260.497 166.194 261.961ZM177.098 229.289C175.011 230.073 172.761 229.923 169.748 228.796C166.421 227.553 169.691 219.901 173.135 220.873C175.368 221.502 178.461 224.727 178.899 226.882C179.136 228.042 178.634 228.711 177.098 229.289ZM234.352 73.2903C229.291 74.582 227.619 69.5166 232.502 67.6807C234.34 66.9894 235.126 67.102 236.391 68.2357C238.443 70.0766 237.468 72.4945 234.352 73.2903ZM167.457 240.036C164.372 241.356 160.905 238.826 161.986 236.044C162.822 233.896 167.218 232.66 168.68 234.163C170.219 235.745 169.508 239.158 167.457 240.036ZM149.844 278.109C147.781 277.527 147.419 275.204 149.178 273.835C150.264 272.987 150.541 273.083 151.444 274.611C152.818 276.941 152.006 278.718 149.844 278.109ZM161.459 224.841C160.842 225.712 159.879 225.885 158.617 225.35C157.179 224.742 156.883 223.892 157.415 221.902C158.001 219.706 158.437 219.349 159.995 219.789C162.124 220.389 162.846 222.881 161.459 224.841ZM135.459 283.666C134.947 284.243 133.437 285.108 132.102 285.588C129.775 286.426 129.632 286.386 128.618 284.605C126.739 281.309 128.283 278.007 131.959 277.464C134.165 277.139 134.754 277.318 135.454 278.521C136.586 280.466 136.588 282.394 135.459 283.666ZM196.834 120.705C195.544 122.167 192.443 120.771 193.119 119.032C193.948 116.899 197.879 116.32 197.721 118.354C197.658 119.166 197.259 120.223 196.834 120.705ZM139.87 264.712C138.257 266.308 134.895 267.774 133.649 267.423C132.794 267.182 133.104 265.451 134.764 261.182C136.424 256.913 137.389 255.367 138.243 255.608C140.959 256.374 142.06 262.541 139.87 264.712ZM185.032 140.999C181.701 143.111 181.037 142.184 182.743 137.799L184.319 133.745L185.805 136.522C187.563 139.809 187.644 139.344 185.032 140.999Z" fill="#FF914D"/>
<path d="M569.516 155.68C562.872 164.07 556.458 172.849 551.418 182.019C548.669 186.897 543.171 210.309 533.549 207.772C531.487 207.382 527.135 202.114 524.844 200.944C516.138 196.652 509.953 201.139 513.389 187.092C514.306 183.385 518.429 179.873 517.055 175.776C515.451 170.508 510.869 169.923 505.371 171.093C505.371 170.703 505.371 170.313 505.6 169.923C505.829 168.752 504.226 169.728 503.768 169.923C503.309 170.313 502.164 171.093 501.018 172.264C494.833 174.215 488.19 177.142 484.066 177.337C479.026 174.41 493.688 168.557 495.75 167.777C502.851 165.24 510.411 163.485 517.055 159.973C522.782 157.046 530.8 151.974 532.633 146.121C535.153 138.121 527.364 133.244 518.2 135.78C513.618 136.951 509.953 140.463 506.517 143.194C499.644 148.657 493.229 151.388 484.524 152.949C480.401 153.73 480.63 151.974 476.048 153.925C473.757 154.9 472.153 156.851 470.321 158.217C464.364 162.704 439.394 176.751 457.034 159.582C459.554 157.046 464.823 155.29 468.03 153.339C475.131 149.242 482.233 144.95 486.357 138.317C490.48 131.488 490.71 121.538 478.797 122.123C470.321 122.513 464.135 129.927 459.783 135.39C455.43 141.243 453.368 143.974 447.183 149.242C444.663 151.388 442.143 153.534 439.623 155.68C434.583 145.73 435.958 137.146 443.976 129.927C451.535 120.367 460.928 112.758 470.321 104.564C478.339 97.7356 487.96 89.1511 489.106 78.8108C490.939 61.837 463.677 48.9603 457.492 68.6655C455.888 73.543 457.95 79.5912 456.805 84.6638C453.826 98.3209 441.685 108.856 429.314 117.051C427.481 118.221 421.525 122.708 419.921 122.904C406.405 123.489 422.441 104.954 423.816 101.833C425.419 98.1258 426.565 93.4433 422.899 90.3217C418.547 86.4197 413.507 88.7609 410.07 92.0776C407.321 94.6139 406.634 97.3454 405.718 100.662C404.572 103.589 403.656 110.807 401.823 117.636C398.158 122.318 391.973 128.366 386.016 131.683C384.413 131.098 382.809 130.317 380.976 129.147C374.333 124.659 373.646 116.075 372.958 109.442C370.896 87.0051 385.1 69.2508 386.474 47.7897C386.933 39.0102 382.809 18.5247 367.231 22.6218C354.631 25.9385 349.362 36.8641 347.759 48.9604C347.759 49.1555 347.529 49.5456 347.529 49.7407C344.551 59.3007 347.071 71.9822 345.926 81.9324C345.01 91.8825 341.802 121.148 325.766 122.904C324.85 122.904 322.788 120.367 321.184 120.367C315.457 119.977 308.126 119.587 302.857 117.831C286.363 111.978 291.861 95.9797 293.236 84.0785C294.152 75.6892 292.319 55.0085 275.825 60.6664C266.661 63.7881 264.829 73.3479 266.432 80.5666C267.807 87.005 276.97 97.9307 267.807 102.223C263.454 104.174 259.789 101.052 255.207 105.149C253.374 106.71 252 108.856 251.771 111.002C251.313 113.734 252.458 115.49 253.603 117.831C254.978 119.782 256.582 121.928 257.956 123.879C255.436 136.561 248.563 142.999 237.338 143.194C207.098 147.876 190.833 122.708 180.295 103.393C179.379 101.638 176.401 104.369 175.484 105.93C168.154 98.711 159.448 92.2728 151.888 85.0541C141.121 74.7137 130.812 46.8143 109.049 51.4967C71.7074 59.4958 118.441 103.589 134.019 109.442C144.099 113.344 151.43 116.465 158.99 123.684C167.695 132.073 180.295 142.804 186.251 152.754C187.397 154.51 194.957 158.997 188.084 161.143C184.877 162.119 179.15 154.51 178.004 153.339C175.484 150.608 174.11 146.901 170.673 144.95C165.863 142.218 162.197 141.633 157.615 144.365C147.994 150.023 151.888 160.363 159.906 165.631C168.612 171.289 176.172 174.995 183.732 182.019C186.481 184.555 189.688 186.702 192.437 189.238C193.353 190.018 197.477 190.994 197.706 191.384C199.768 191.969 198.622 193.53 194.04 195.871C192.666 200.554 189.688 201.529 185.564 198.798C173.423 196.847 157.386 168.557 144.328 182.019C141.121 185.336 141.579 187.677 143.412 191.189C145.474 195.481 152.575 199.773 156.928 201.919C158.761 202.895 163.343 203.675 164.717 205.041C167.466 207.968 168.154 211.479 161.281 209.723C159.448 209.333 156.928 212.845 156.928 214.211C158.532 228.063 178.233 224.161 190.375 227.673C189.001 228.453 187.855 229.429 186.939 230.794C183.044 236.452 186.022 236.647 190.833 239.574C197.248 243.476 201.6 242.5 194.728 248.939C188.542 254.792 191.521 252.255 181.899 250.304C175.255 248.939 169.07 248.744 162.426 249.719C153.95 250.89 142.496 252.841 135.852 257.523C123.023 266.498 136.31 274.692 148.91 270.205C157.157 267.278 164.946 261.425 174.339 262.596C185.106 263.961 184.648 266.888 180.066 273.131C175.026 279.765 176.63 278.984 168.841 278.594C160.823 278.204 152.805 277.228 146.39 282.106C142.725 284.837 138.83 290.3 142.725 294.202C147.765 299.08 161.968 292.836 166.779 291.08C168.841 290.3 177.775 285.227 179.837 286.008C180.066 287.764 180.524 289.715 180.753 291.471C183.273 295.568 182.128 298.494 177.088 300.25C172.735 305.518 164.488 308.835 158.99 313.322C156.47 315.468 151.659 318.785 151.888 322.492C152.346 329.905 162.197 328.15 167.695 326.784C175.026 324.833 181.212 314.102 190.833 320.151C199.768 325.808 194.04 328.735 189.001 335.563C182.128 345.123 178.004 345.904 167.237 350.781C160.135 354.098 134.019 371.072 146.619 380.632C151.888 384.534 164.488 373.998 167.237 372.047C175.026 365.999 181.67 357.61 192.208 354.683C202.059 351.952 204.579 357.22 212.826 357.61C215.117 357.805 218.553 356.439 221.76 355.659C225.196 359.366 224.051 363.853 220.844 368.34C216.033 372.828 210.993 377.51 209.618 378.876C207.786 380.827 205.953 382.778 204.12 384.534C201.142 387.265 198.393 389.802 196.79 391.948C195.644 393.508 193.811 396.045 192.895 398.776C190.833 401.898 189.23 405.41 188.084 409.116C188.084 409.312 187.855 410.092 188.084 410.287C196.102 414.969 203.891 411.848 209.389 406.19C213.284 402.288 215.346 397.41 217.637 392.728C220.156 387.46 221.531 380.242 225.655 375.754C227.945 373.023 231.382 370.096 235.047 367.95C236.651 367.95 238.484 367.95 240.087 367.95C240.316 370.096 240.545 372.047 240.774 374.193C240.545 379.071 238.254 384.924 236.651 389.606C233.215 399.557 227.487 407.556 222.676 416.725C220.386 421.018 216.72 429.407 224.28 431.748C230.466 433.699 236.193 427.261 238.484 423.359C240.316 420.432 241.004 417.116 241.691 413.994C242.378 411.263 242.378 408.336 243.065 405.41C243.523 402.873 244.211 400.337 244.669 397.801C257.727 390.387 262.996 390.582 260.476 398.581C260.476 398.971 260.705 399.361 261.163 399.361C272.159 401.117 268.494 407.751 266.89 414.969C266.432 416.725 267.807 416.53 269.181 415.75C274.909 412.628 277.199 409.507 283.385 411.653C283.156 411.653 283.156 411.653 283.385 411.848L279.49 420.237C280.636 420.627 282.01 420.822 283.385 420.822L289.799 417.311C290.487 417.701 290.716 418.091 290.716 418.091C292.319 418.871 294.61 416.14 295.068 415.36C298.046 409.897 300.796 404.434 303.774 398.971C310.646 404.239 301.025 417.506 311.563 421.603C313.166 422.188 315.457 420.042 315.915 418.872C320.268 409.507 320.726 400.727 316.832 391.362C332.868 387.46 323.704 414.384 323.704 421.408C323.704 425.7 324.621 431.943 331.035 432.724C339.74 433.699 342.26 423.749 342.719 418.872C343.177 413.994 338.366 394.874 352.569 397.996C356.922 398.971 360.588 407.556 361.733 410.482C365.857 421.408 361.275 432.919 360.129 443.844C358.755 456.916 363.795 480.914 383.725 482.084C392.889 482.67 399.762 476.036 400.449 468.622C401.365 460.623 395.867 455.16 390.369 449.307C381.205 439.357 377.311 432.333 375.249 420.042C374.333 414.774 372.271 408.531 372.5 403.263C370.438 398.386 372.042 394.484 377.769 391.362C380.06 383.753 383.267 381.997 387.391 386.68C393.118 387.46 394.263 390.387 400.449 387.85C403.656 386.485 406.863 383.363 408.009 380.632C409.612 376.73 406.405 372.242 404.572 368.145C408.696 371.657 413.736 373.413 420.379 374.389C422.212 374.584 424.045 372.047 424.503 370.877C426.565 365.219 423.587 362.487 417.63 359.561C414.423 358.39 411.445 357.415 408.238 356.244C410.071 353.123 411.903 350.196 413.965 347.074C418.318 346.294 423.587 351.952 426.107 354.293C431.834 359.171 436.187 365.609 440.997 371.072C446.266 377.315 453.139 389.021 463.677 389.021C469.633 389.021 475.132 385.509 476.735 380.632C478.11 375.754 474.902 371.462 471.237 367.95C463.448 360.341 430.001 342.977 435.957 332.637C439.852 331.076 443.746 329.32 447.641 327.759C454.285 321.906 460.928 321.321 467.801 326.004C482.004 335.759 470.779 329.905 473.07 332.247C476.048 335.173 478.797 338.88 484.066 338.685C487.96 338.49 492.084 335.368 493 332.247C494.604 327.369 489.793 324.833 487.96 320.931C486.815 319.37 485.67 317.809 484.524 316.053C487.502 315.858 490.71 315.663 493.688 315.468C498.499 317.419 498.269 323.077 501.018 326.199C504.684 330.296 506.746 332.832 512.702 334.003C518.658 335.173 525.073 333.612 531.258 334.978C539.047 336.539 545.462 340.441 550.731 345.318C556.916 351.171 563.33 362.097 575.014 357.805C586.01 353.708 583.948 342.002 578.45 334.978C569.287 322.882 553.938 316.834 539.276 310.786C531.716 307.664 522.553 304.152 518.887 297.129C515.909 291.471 516.138 281.911 528.28 281.716C532.862 281.716 539.047 286.593 543.171 288.154C555.312 292.446 573.41 282.886 561.498 271.765C556.687 267.278 550.502 267.668 544.087 267.668C542.942 267.668 536.527 268.644 535.153 267.668C518.887 258.499 535.611 256.938 537.902 252.841C540.651 248.158 544.774 246.012 544.087 241.33C557.832 237.038 575.472 238.598 584.177 226.892C590.134 219.088 587.156 201.724 575.701 198.213C571.119 196.847 568.829 198.408 564.934 199.578C560.811 200.749 559.207 205.431 560.581 198.603C561.498 193.53 570.203 185.921 573.41 181.629C579.825 173.045 590.134 163.68 594.028 153.925C595.174 150.998 597.465 147.681 594.716 144.755C585.552 134.61 573.41 150.803 569.516 155.68Z" fill="#7A75F0"/>
<path d="M408.925 387.265C407.55 386.29 404.343 390.192 404.343 391.167C404.801 399.166 406.634 406.775 410.529 414.189C410.758 414.774 411.903 414.384 413.049 413.604C414.423 416.725 415.798 419.847 417.172 423.164C417.859 424.92 421.983 420.237 421.983 419.067C421.067 407.556 419.692 395.264 408.925 387.265Z" fill="#7A75F0"/>
<path d="M29.3262 260.449C21.3081 262.79 13.0609 270.204 16.2681 277.813C19.2463 284.642 27.4935 285.422 33.9079 282.496C34.8243 282.691 35.9697 282.496 37.1152 281.715C40.5515 279.569 42.8424 275.472 43.9878 272.155C47.195 263.376 39.4061 257.523 29.3262 260.449Z" fill="#7A75F0"/>
<path d="M4.58459 314.492C0.919184 319.37 -3.89162 331.271 5.2719 334.198C13.5191 336.734 20.3917 329.71 23.1407 323.467C25.8898 319.955 27.0352 315.858 24.2862 311.761C19.0172 304.152 8.93727 308.834 4.58459 314.492Z" fill="#7A75F0"/>
<path d="M481.088 44.8631C479.942 46.2288 479.255 47.9847 480.63 47.9847C483.379 47.9847 486.128 47.5945 488.877 47.0092C493.688 47.2043 498.269 45.2533 502.164 39.9855C502.851 39.01 503.08 38.4248 503.08 38.2297C505.371 35.3032 506.746 31.9865 506.975 28.0844C507.204 23.9873 505.829 20.2804 503.538 17.5489C503.08 14.6224 501.706 12.0862 499.186 10.5254C498.499 7.59886 495.749 5.45277 489.106 5.06257C479.255 4.47727 471.237 7.98903 467.572 15.9882C462.99 25.5481 471.008 39.4002 481.088 44.8631Z" fill="#7A75F0"/>
<path d="M387.186 315.615C390.352 313.517 392.772 310.462 394.073 306.919C395.374 303.375 395.485 299.54 394.389 296.001C394.566 293.845 394.5 291.684 394.193 289.558C393.851 287.03 393.958 284.339 391.773 282.489C389.404 280.973 387.035 279.458 384.665 277.943C382.806 277.061 380.895 276.264 379.103 275.266C378.673 274.939 378.169 274.719 377.63 274.627C377.092 274.534 376.536 274.571 376.007 274.734L373.048 274.943C371.828 274.927 370.612 275.192 369.494 275.718C368.377 276.243 367.389 277.016 366.608 277.975C365.634 278.704 364.853 279.661 364.337 280.756C363.82 281.852 363.585 283.051 363.652 284.243L363.694 284.878C363.314 286.248 364.143 287.326 364.466 288.525L364.484 288.53L364.465 288.526L364.291 289.839L363.967 291.298C363.921 291.373 363.937 291.46 363.897 291.537C363.789 291.447 363.659 291.384 363.553 291.291L362.884 290.967C362.784 291.035 362.665 291.071 362.545 291.068C362.425 291.065 362.31 291.025 362.218 290.952C362.432 290.996 362.633 291.138 362.884 290.967C361.775 290.111 360.882 289.011 360.271 287.748C359.66 286.485 359.348 285.093 359.358 283.674C359.692 282.297 358.603 281.759 357.843 281.025C358.586 278.695 356.643 277.259 356.1 275.357C356.422 274.08 355.675 273.2 355.033 272.279C354.056 269.574 353.478 266.044 350.182 265.699C346.848 265.096 343.479 264.668 340.089 264.419C337.205 263.815 334.237 263.623 331.273 263.848C329.107 263.108 326.568 264.808 324.562 263.027L320.356 261.065L317.492 259.585L312.781 254.249C312.493 252.983 311.971 251.788 311.24 250.725L311.239 250.723C311.166 249.849 310.777 249.04 310.143 248.447L309.707 248.446C309.852 248.432 309.994 248.549 310.143 248.447C309.721 246.338 309.645 244.165 309.917 242.011C310.367 240.402 311.553 239.018 311.525 237.259L311.985 235.832L312.503 234.603C313.398 233.698 314.676 233.128 315.041 231.755L315.402 231.217C316.07 230.203 316.475 229.045 316.581 227.851C316.687 226.656 316.491 225.464 316.01 224.383C315.814 223.188 315.343 222.062 314.631 221.094C313.92 220.127 312.989 219.343 311.911 218.805L309.424 217.277C309.043 216.895 308.574 216.61 308.055 216.448C307.536 216.285 306.982 216.248 306.438 216.34C304.357 216.401 302.277 216.234 300.197 216.163C297.345 216.418 294.494 216.672 291.644 216.925C289.171 217.847 287.119 219.673 285.916 222.024C284.562 223.749 283.402 225.613 282.457 227.583C279.69 230.189 277.829 233.602 277.162 237.299C276.494 240.996 277.055 244.772 278.76 248.047C281.052 252.206 282.735 256.684 283.758 261.349C283.24 263.645 281.638 265.878 285.416 267.351C287.731 268.255 286.682 278.689 284.413 280.261C283.076 281.087 281.692 281.831 280.268 282.49L278.948 282.133C277.513 281.127 275.726 281.816 274.191 281.287C274.194 281.243 274.186 281.2 274.167 281.161C274.149 281.121 274.121 281.088 274.085 281.063C274.05 281.038 274.009 281.022 273.965 281.018C273.921 281.013 273.877 281.02 273.836 281.037C273.387 280.29 272.674 279.742 271.832 279.498L271.83 279.496C271.841 279.451 271.842 279.405 271.832 279.36C271.822 279.316 271.802 279.274 271.773 279.24C271.744 279.205 271.706 279.178 271.664 279.161C271.622 279.144 271.576 279.137 271.53 279.141C271.005 277.797 270.193 276.591 269.149 275.603L269.134 275.608C265.18 270.397 260.458 265.82 255.12 262.027C252.157 260.809 250.757 262.961 249.607 264.971C246.912 270.491 244.633 276.192 242.789 282.027L242.787 282.025C241.003 284.921 238.457 287.287 235.436 288.855C232.592 288.598 229.711 289.23 227.191 290.665C227.306 290.795 227.424 290.924 227.543 291.051L227.501 291.088C227.442 290.914 227.406 290.723 227.191 290.665C223.224 293.44 220.019 291.164 216.734 289.413C216.51 289.459 216.454 289.648 216.383 289.822L216.283 289.702L216.734 289.413C216.284 285.542 213.314 285.004 210.232 284.612C208.928 284.379 207.573 284.129 206.893 285.727C206.181 287.396 207.281 288.387 208.395 289.258C209.622 290.17 211.052 290.782 212.574 291.045C214.096 291.308 215.669 291.216 217.172 290.776C217.901 291.854 219.225 291.912 220.237 292.501C220.847 292.854 221.79 292.721 221.738 293.954C221.677 296.037 222.14 298.086 223.084 299.915C224.028 301.744 225.424 303.294 227.144 304.424C227.005 304.904 227.028 305.412 227.209 305.869C227.389 306.326 227.718 306.705 228.144 306.949C228.858 307.311 228.825 306.195 229.162 305.768L229.165 305.772C229.343 305.783 229.512 305.847 229.65 305.954C229.789 306.061 229.892 306.208 229.946 306.376C229.734 306.143 229.641 305.835 229.165 305.772C230.644 308.341 228.144 309.361 227.019 310.919L224.801 311.086C223.124 311.249 221.441 310.487 219.765 311.255C216.954 310.979 214.097 311.307 211.387 312.218L210.083 312.292C208.546 311.899 207.062 314.025 205.502 312.526C202.13 312.089 198.792 311.793 196.393 315.123C194.472 317.297 195.917 319.098 197.086 320.678C198.789 322.63 201.046 324.021 203.576 324.679C206.106 325.336 208.797 325.231 211.314 324.376C213.65 323.547 215.57 321.339 218.355 321.925L218.542 322.004L220.372 324.241C219.962 325.164 220.881 325.419 221.207 325.974L221.299 325.96L221.309 325.978L221.207 325.974C219.65 328.208 221.709 330.596 220.706 332.855C218.615 334.947 215.261 334.408 213.218 336.601C212.51 336.735 211.825 336.985 211.193 337.341C210.9 336.596 210.314 336.211 209.694 336.482C209.5 336.567 209.327 336.694 209.186 336.852C209.045 337.01 208.94 337.197 208.878 337.398C208.801 337.364 208.741 337.441 208.664 337.397C208.448 337.218 208.191 337.095 207.915 337.037C207.638 336.979 207.349 336.988 207.073 337.064L207.072 337.063C206.8 336.94 206.503 336.879 206.202 336.883C205.9 336.887 205.601 336.956 205.325 337.086C204.794 337.258 204.304 337.546 203.893 337.927C203.481 338.309 203.158 338.775 202.947 339.292C203.969 340.115 204.729 341.824 206.468 340.23L206.659 340.207L206.711 340.02L207.738 339.869C208.269 339.832 208.79 339.687 209.268 339.442C209.447 339.721 209.73 339.916 210.057 339.988C210.384 340.059 210.729 340 211.021 339.824C212.023 339.407 211.868 338.904 211.645 338.415C211.961 338.217 212.287 338.038 212.623 337.879C215.847 337.62 218.22 335.226 221.17 334.283C222.245 334.514 223.35 334.602 224.456 334.545C226.022 334.256 227.623 334.43 229.062 335.044C230.502 335.658 231.715 336.686 232.553 338C233.113 338.715 233.692 339.414 234.267 340.119C233.166 340.808 232.19 341.681 231.382 342.697L231.384 342.699L231.382 342.699L229.618 343.415C228.511 343.274 227.718 343.593 227.554 344.842C226.753 346.697 224.356 346.886 223.514 348.699L223.514 348.701C223.381 348.83 223.213 348.919 223.032 348.956C222.066 347.674 221.27 348.513 220.464 349.235C218.718 349.526 216.649 349.136 215.883 351.497L215.612 352.314L215.33 353.657C214.842 354.077 215.106 354.567 215.159 355.038C213.747 357.276 211.232 358.8 210.752 361.639C210.808 361.704 210.9 361.688 210.965 361.732L210.947 361.744L210.752 361.639C209.092 362.541 207.784 363.984 207.053 365.718C205.621 366.913 205.724 368.636 205.377 370.206L204.127 372.627C203.463 373.425 202.219 373.792 202.247 375.102L202.246 375.103L202.246 375.1C200.066 375.454 200.528 376.783 201.038 378.131C200.734 378.376 200.531 378.725 200.471 379.107C200.41 379.489 200.497 379.875 200.712 380.187C199.507 380.935 199.558 382.206 199.304 383.351L198.251 386.304C197.894 386.773 197.666 387.325 197.592 387.903C197.517 388.48 197.598 389.062 197.826 389.589C197.64 390.093 197.585 390.632 197.665 391.155C197.744 391.678 197.957 392.168 198.282 392.58L198.159 395.94C197.544 396.34 197.865 396.849 197.959 397.33L197.066 398.383C197.043 398.489 197.051 398.6 197.089 398.7C197.127 398.801 197.193 398.888 197.28 398.95L197.239 398.966L197.066 398.383L195.908 398.036L195.907 398.036C195.816 397.446 195.673 396.913 194.872 397.096C194.242 396.706 193.52 396.48 192.771 396.438C192.022 396.397 191.268 396.541 190.577 396.857L189.542 397.235C188.975 397.3 188.436 397.54 188.003 397.921C187.57 398.302 187.263 398.805 187.126 399.36C187.093 399.449 187.078 399.543 187.083 399.636C187.088 399.729 187.113 399.82 187.155 399.902L186.113 401.019C185.676 401.212 185.322 401.559 185.123 401.992C184.923 402.425 184.892 402.912 185.036 403.356C184.426 404.512 184.902 405.29 185.869 405.869C187.194 406.374 188.638 406.525 190.06 406.308C191.483 406.09 192.836 405.512 193.989 404.628C194.648 404.384 195.302 403.633 195.966 404.555C194.87 405.885 196.212 406.985 196.201 408.214L194.082 408.989C193.328 408.647 192.621 408.497 192.194 409.499C191.075 410.171 190.25 411.244 189.895 412.49C189.664 412.673 189.478 412.906 189.351 413.171C189.224 413.435 189.161 413.724 189.166 414.013C188.004 416.136 186.71 418.186 185.291 420.152C187.529 418.819 189.434 416.986 190.852 414.804L195.18 410.037C196.035 409.615 196.719 408.905 197.107 408.037C198.405 407.912 198.126 406.044 199.435 405.932C200.928 406.506 202.687 406.318 204.008 407.392C204.27 407.758 204.617 408.054 205.021 408.257C205.424 408.46 205.873 408.564 206.331 408.56L208.843 410.339C208.898 410.761 209.056 411.16 209.304 411.5C209.552 411.84 209.882 412.112 210.265 412.291L211.078 414.588C210.805 415.674 210.191 416.733 210.711 417.883L210.821 417.91L210.798 417.942L210.711 417.883C209.079 418.921 208.706 420.785 207.745 422.263C207.065 423.333 206.732 424.578 206.794 425.823C206.855 427.069 207.307 428.251 208.086 429.206L208.618 430.958C208.66 432.778 209.211 434.534 210.21 436.03L209.101 439.108C208.87 439.412 208.725 439.772 208.682 440.147C208.64 440.522 208.701 440.899 208.859 441.235L209.035 442.274L209.036 442.277C208.695 443.578 209.457 444.49 210.087 445.445L210.585 446.394L210.65 446.664L210.806 446.892L208.012 450.625C207.409 450.963 206.89 451.436 206.497 452.005C206.105 452.575 205.851 453.225 205.755 453.902C205.345 455.209 203.669 456.575 205.816 457.764C206.024 457.834 206.251 457.839 206.467 457.777C206.682 457.715 206.875 457.589 207.02 457.417C207.892 457.214 208.664 456.689 209.179 455.95C211 454.568 212.404 452.709 213.227 450.591L214.715 449.547L214.741 449.459L218.714 449.245L221.143 450.919L221.45 451.973C221.051 452.838 220.158 453.499 220.141 454.927C221.169 454.341 222.03 453.497 222.635 452.482L223.745 452.598L224.758 453.528C225.551 454.693 226.102 456.008 226.38 457.4C226.083 457.624 226.123 457.862 226.329 458.107C226.307 458.309 226.32 458.512 226.368 458.707C225.434 459.519 226.184 460.568 225.892 461.471C225.118 462.338 225.301 463.399 225.205 464.404L224.961 465.754C224.731 466.134 224.608 466.567 224.606 467.005C224.604 467.443 224.723 467.87 224.95 468.238L224.99 468.253L224.99 468.255C224.835 468.315 224.693 468.404 224.573 468.519C224.452 468.633 224.354 468.77 224.286 468.921C224.218 469.072 224.181 469.234 224.177 469.397C224.173 469.561 224.202 469.723 224.262 469.873C223.81 471.203 223.618 472.6 223.694 473.986C223.709 476.259 222.014 478.078 221.824 480.297C220.081 484.342 219.092 488.649 218.906 493.004C218.612 493.285 218.407 493.645 218.317 494.038C218.228 494.43 218.258 494.837 218.403 495.205L218.166 497.149L218.009 500.417C217.72 501.142 217.594 501.917 217.64 502.686C217.685 503.456 217.902 504.2 218.273 504.866L218.274 504.868C217.735 506.2 218.552 507.309 218.773 508.514L218.782 508.517L218.776 508.516C218.951 509.981 219.357 511.402 219.978 512.727L219.984 512.75L219.991 512.753C220.142 513.163 220.331 513.558 220.556 513.933L220.449 513.037L220.43 512.974L220.504 513.011L220.449 513.037C220.347 513.175 220.302 513.345 220.321 513.512C220.341 513.678 220.425 513.829 220.556 513.933C221.21 514.72 222.123 515.249 223.142 515.432C225.264 515.845 227.476 515.69 229.554 514.983C229.971 515.055 230.403 515.011 230.803 514.856C231.203 514.701 231.556 514.441 231.824 514.104C233.242 513.711 234.9 514.124 236.023 512.741L237.108 511.765C239.088 510.917 238.895 508.68 240.051 507.308C240.831 506.726 240.837 505.796 241.154 505.004C242.133 502.585 242.597 500.004 242.518 497.427L242.716 496.084C243.502 493.58 244.975 491.326 246.967 489.584C248.959 487.842 251.387 486.682 253.972 486.238L258.6 486.43C261.737 487.13 262.84 490.167 265.037 491.946C265.141 491.966 265.249 491.956 265.35 491.918C265.45 491.88 265.538 491.815 265.605 491.73L265.609 491.741L265.035 491.947C265.667 493.439 266.729 494.7 268.09 495.575C269.132 496.444 269.924 496.025 270.603 495.02C272.61 492.413 274.618 489.808 276.627 487.203C277.829 486.175 279.258 485.451 280.787 485.095C282.97 486.618 285.573 487.454 288.274 487.499C289.795 488.238 291.774 488.427 292.102 490.609C292.037 493.125 292.857 495.558 294.421 497.485L294.792 498.668C294.446 502.58 295.584 506.433 297.981 509.463C299.644 512.049 300.988 514.832 301.984 517.753C302.338 518.541 302.763 519.365 303.647 519.089C304.607 518.789 304.5 517.711 304.253 516.985C303.477 511.517 301.106 506.444 297.431 502.391C296.845 501.921 296.372 501.327 296.043 500.65C295.715 499.974 295.538 499.23 295.526 498.47C296.199 496.677 297.711 495.052 296.81 492.941C296.998 492.351 296.997 491.722 296.806 491.143C296.615 490.565 296.245 490.067 295.747 489.72L294.675 489.059C294.531 488.4 293.915 488.329 293.439 488.082L290.136 484.617C289.511 483.893 288.985 482.978 287.745 483.42L287.735 483.241L287.562 483.198C286.57 481.878 285.331 480.766 283.909 479.919C282.527 477.671 283.423 475.909 285.279 474.365C285.887 473.86 286.606 473.459 286.732 472.576L288.351 469.877C291.26 467.101 292.349 467.145 295.092 470.152L297.101 472.724C298.412 475.249 301.07 474.344 303.146 474.925L303.147 474.926C303.324 474.947 303.505 474.924 303.674 474.861C303.746 476.175 305.151 475.403 305.635 476.071C306.802 478.472 307.747 480.98 308.459 483.564C308.773 484.546 309.247 485.465 309.861 486.286C309.761 486.913 309.89 487.547 310.225 488.073L310.679 489.42C310.956 491.141 312.62 491.531 313.662 492.519C313.725 492.936 313.902 493.324 314.174 493.642C314.445 493.96 314.802 494.194 315.204 494.32C316.664 495.882 318.524 497.021 320.595 497.621C321.582 497.923 322.653 497.873 323.628 497.48C323.796 497.449 323.947 497.354 324.049 497.217C324.152 497.079 324.198 496.909 324.179 496.742L324.144 496.696L324.229 496.697L324.179 496.744L323.628 497.48C324.016 497.254 324.383 496.994 324.725 496.703L324.733 496.702L324.75 496.685C325.972 495.804 327.053 494.743 327.956 493.539C328.766 492.581 330.049 491.981 330.257 490.567C330.923 490.151 331.492 489.596 331.925 488.943C332.357 488.289 332.642 487.553 332.759 486.786L334.289 483.85L335.074 482.038C335.21 481.918 335.112 481.729 335.212 481.598C336.207 481.978 337.244 482.249 338.304 482.406L338.306 482.404L338.305 482.407L338.862 482.888C339.691 483.405 340.639 483.712 341.626 483.78C342.613 483.849 343.609 483.677 344.53 483.281C345.628 483.796 346.848 484.019 348.075 483.927C349.303 483.836 350.495 483.434 351.541 482.76C353.239 482.238 354.778 481.27 355.992 479.959C356.405 479.849 356.793 479.651 357.127 479.38C357.462 479.109 357.736 478.77 357.931 478.388C359.873 476.692 361.816 474.996 363.76 473.302L364.56 472.838C365.161 472.831 365.747 472.614 366.217 472.226C366.686 471.837 367.009 471.301 367.129 470.71L366.996 470.705L366.997 470.704L366.976 470.637L367.129 470.71C367.683 468.455 366.142 466.763 365.694 464.778L365.272 463.099C365.739 461.702 364.918 460.599 364.531 459.397C364.341 457.397 364.057 455.402 363.994 453.397C364.147 453.603 364.148 453.889 364.337 454.076C364.376 454.293 364.482 454.49 364.639 454.642C364.797 454.794 364.998 454.893 365.217 454.926C367.705 454.857 366.931 452.898 367.241 451.566C367.503 450.929 367.611 450.244 367.558 449.567C367.504 448.891 367.291 448.241 366.934 447.671L366.766 446.269C367.569 445.623 368.499 445.154 369.49 444.896C373.419 443.353 376.972 440.949 379.879 437.866C382.261 435.922 381.551 430.654 379.137 427.746C379.926 427.211 380.571 426.486 381.009 425.643C381.447 424.799 381.665 423.864 381.641 422.927C381.554 421.195 382.178 419.392 381.279 417.742L381.172 417.755L381.166 417.716L381.279 417.742C381.987 417.1 382.423 416.214 382.492 415.275C383.815 414.638 385.279 414.375 386.719 414.516C388.16 414.657 389.52 415.196 390.648 416.073C391.589 416.626 392.603 417.05 393.662 417.336C395.767 419.5 396.628 422.675 399.319 424.365C399.837 425.013 400.22 425.772 400.67 426.474C400.956 428.168 401.543 429.79 402.404 431.262C402.365 430.18 402.364 429.11 402.284 428.037C402.407 428.114 402.45 428.259 402.588 428.325L403.411 428.924L403.361 429.11L403.516 429.218C404.219 431.38 405.732 430.278 407.039 430.005C407.089 430.137 407.062 430.289 407.16 430.403C407.55 430.858 408.249 430.734 408.759 430.366C409.037 430.157 409.234 429.859 409.317 429.525C409.4 429.191 409.363 428.843 409.212 428.54C408.583 428.146 407.842 427.942 407.301 428.494C407.22 428.576 407.219 428.702 407.159 428.801C407.046 428.084 406.679 427.438 406.124 426.98C405.948 426.741 405.721 426.544 405.458 426.404C405.195 426.264 404.903 426.183 404.602 426.167C404.399 425.975 404.151 425.836 403.879 425.761C403.607 425.686 403.318 425.678 403.038 425.737C402.743 425.733 402.454 425.666 402.191 425.539C402.194 425.068 402.097 424.596 402.14 424.123C402.291 423.871 402.383 423.589 402.407 423.3C402.431 423.011 402.388 422.722 402.28 422.456C402.603 421.203 402.427 419.889 401.789 418.792C401.927 417.719 401.229 417.532 400.393 417.488L398.932 415.848C399.548 414.765 401.287 414.41 401.004 412.746C402.059 412.238 402.247 413.194 402.7 413.706C403.26 415.004 404.151 416.125 405.288 416.961C406.424 417.797 407.767 418.319 409.186 418.477C409.439 418.508 409.697 418.483 409.942 418.404C410.187 418.325 410.413 418.194 410.605 418.02C410.797 417.846 410.949 417.634 411.052 417.397C411.154 417.161 411.204 416.907 411.198 416.653L411.197 416.652L411.199 416.652C411.379 416.448 411.503 416.203 411.558 415.94C413.108 416.713 414.813 417.147 416.564 417.215C418.314 417.282 420.071 416.982 421.72 416.333C423.551 415.477 425.736 414.555 425.162 411.778C424.759 407.769 421.682 406.516 418.502 405.368C416.369 405.975 416.153 403.437 414.605 403.085L413.501 402.429C411.759 400.669 409.687 399.265 407.395 398.292C407.713 397.94 407.958 397.53 408.117 397.086C408.275 396.643 408.344 396.175 408.318 395.71L408.9 392.643C409.262 391.525 409.956 390.433 409.28 389.232C409.629 389.056 409.902 388.757 410.043 388.394C410.185 388.032 410.185 387.634 410.043 387.28C410.41 387.055 410.701 386.724 410.876 386.333C411.051 385.941 411.101 385.509 411.019 385.096C412.127 384.146 413.052 383.002 413.746 381.724C414.329 380.619 415.088 381.164 415.804 381.13C416.991 381.073 418.183 381.624 419.371 381.009C420.463 382.076 421.796 382.871 423.264 383.33C424.733 383.789 426.299 383.901 427.84 383.657C429.26 383.401 430.731 383.031 430.96 381.245C431.179 379.536 429.862 379.138 428.602 378.754C425.7 377.699 422.822 376.824 420.451 380.013L420.699 380.468L420.698 380.469L420.549 380.53C420.575 380.345 420.623 380.154 420.451 380.013C416.807 380.058 413.015 380.469 410.901 376.69C411.352 375.735 411.426 374.655 411.107 373.67C411.351 371.819 410.94 369.961 409.944 368.419L409.721 368.421L409.712 368.403C409.79 368.396 409.863 368.449 409.944 368.419C410.973 365.712 409.546 363.234 409.451 360.633C409.737 360.243 410.22 359.933 410.007 359.343L410.443 358.038L410.623 357.2C411.157 354.782 409.142 354.185 407.762 353.138C407.422 352.139 407.153 351.042 405.652 351.728C405.512 351.614 405.41 351.459 405.36 351.285C405.544 349.358 403.682 348.101 403.823 346.189C403.888 345.349 404.103 344.522 404.108 343.675C404.124 341.389 403.996 338.869 400.777 338.593C400.588 338.645 400.392 338.672 400.203 338.722C399.946 338.181 399.611 337.683 399.209 337.242L399.257 334.465C399.339 333.33 400.08 332.099 398.869 331.155C399.548 328.327 397.195 327.702 395.569 326.548C395.167 326.076 394.629 325.738 394.024 325.578C393.42 325.418 392.775 325.442 392.174 325.648C391.805 325.624 391.45 325.512 391.138 325.322C390.826 325.132 390.566 324.869 390.38 324.556L390.379 324.555C390.038 323.376 389.402 322.312 388.53 321.46C387.657 320.607 386.577 319.994 385.388 319.678L384.198 317.799C385.198 317.077 386.172 316.329 387.186 315.615ZM207.508 337.685L207.497 337.686L207.503 337.679L207.507 337.684L207.508 337.685ZM403.91 426.511L403.911 426.523L403.902 426.516L403.91 426.511ZM312.777 256.174C312.711 256.183 312.665 256.117 312.597 256.142L312.613 255.992L312.777 256.174ZM330.422 266.587L330.393 266.618L330.404 266.596L330.422 266.587ZM338.469 478.982C338.495 478.92 338.5 478.851 338.483 478.787C338.466 478.723 338.427 478.668 338.373 478.629L338.469 478.982ZM292.127 461.791L292.098 461.791C292.24 461.74 292.374 461.67 292.498 461.585C292.386 461.673 292.261 461.743 292.127 461.791ZM343.711 267.886C343.653 267.923 343.601 267.97 343.558 268.025L343.447 267.884L343.711 267.886ZM230.805 487.483L230.808 487.491L230.817 487.488L230.954 487.895C230.879 487.773 230.873 487.61 230.741 487.522L230.805 487.483ZM288.141 237.468L288.229 237.353L288.252 237.455L288.141 237.468ZM237.877 489.084L238.003 489.027L237.998 489.033L237.877 489.084ZM389.164 331.649L389.075 331.617L389.095 331.586L389.164 331.649ZM389.474 333.472C389.617 333.082 389.641 332.663 389.542 332.267L389.543 332.268C389.399 332.657 389.374 333.077 389.474 333.472ZM229.023 501.687L229.005 501.748L228.992 501.698L229.023 501.687ZM290.478 292.939L290.492 292.952L290.472 292.976L290.478 292.939ZM375.97 301.709L376 301.723L375.934 301.744L375.97 301.709ZM260.108 304.352L260.124 304.362L260.096 304.811L260.059 304.808C260.115 304.662 260.132 304.504 260.108 304.352ZM252.295 303.667C252.186 303.613 252.184 303.277 252.318 303.453C252.416 303.493 252.444 303.597 252.524 303.654L252.594 303.977C252.451 303.873 252.511 303.775 252.295 303.667ZM296.373 294.725L296.398 294.727L296.418 294.897L296.427 294.901L296.405 294.909L296.413 294.898L296.373 294.725ZM276.471 304.041L276.496 304.053L276.512 304.079L276.471 304.041ZM302.119 294.86L302.125 295.477L302.121 295.477C302.196 295.389 302.237 295.278 302.237 295.164C302.236 295.051 302.195 294.943 302.119 294.86ZM294.211 308.054C294.124 308.335 294.19 308.468 294.159 308.693C294.099 308.587 294.007 308.504 293.896 308.453C293.986 308.309 294.092 308.175 294.211 308.054ZM261.881 315.174L262.067 315.135L261.994 315.3L261.881 315.174ZM263.012 439.128L263.027 439.03L263.084 439.102L263.012 439.128ZM337.416 305.89L337.32 305.918L337.341 305.839L337.416 305.89ZM333.297 302.279L333.311 302.267L333.36 302.287L333.297 302.279ZM252.383 417.149L252.395 417.142L252.396 417.15L252.381 417.153L252.383 417.149ZM279.765 428.579L279.799 428.571L279.799 428.596L279.765 428.579ZM344.346 304.217L344.297 304.202C344.223 304.122 344.146 304.042 344.074 303.96L344.133 303.924C344.147 303.985 344.173 304.043 344.209 304.093C344.246 304.143 344.292 304.185 344.346 304.217ZM336.862 295L336.814 294.95C336.897 294.938 336.977 294.907 337.046 294.859C337.116 294.811 337.173 294.748 337.214 294.674L337.218 294.681C337.099 294.789 336.979 294.893 336.862 295ZM258.942 436.687L258.938 436.711L258.937 436.725L258.94 436.727L258.761 436.794L258.741 436.775L258.942 436.687ZM270.871 431.804L270.827 431.721L270.993 431.761L270.994 431.762L270.871 431.804ZM273.324 430.818L273.456 430.796C273.413 430.841 273.367 430.843 273.324 430.892L273.324 430.818ZM324.48 299.227L324.814 299.352L324.822 299.351L324.823 299.352L324.814 299.352C324.733 299.428 324.647 299.353 324.568 299.415L324.48 299.227ZM249.171 423.328L249.253 423.438L249.373 423.794C249.353 423.667 249.377 423.525 249.253 423.438L249.16 423.431L249.171 423.328ZM251.225 432L251.061 432.325C251.118 432.293 251.165 432.245 251.194 432.187C251.223 432.129 251.234 432.063 251.225 432ZM254.494 437.115L254.468 437.04L254.47 437.039L254.47 437.038L254.495 437.039L254.494 437.115ZM262.635 439.957L262.637 439.95C262.862 440.242 262.879 440.434 262.803 440.584C262.809 440.405 262.929 440.277 262.635 439.957ZM340.122 298.631L340.455 299.007C340.434 298.921 340.392 298.843 340.333 298.778C340.275 298.713 340.201 298.664 340.118 298.635L340.122 298.631L340.145 297.768C340.047 297.892 339.991 298.044 339.987 298.2C339.983 298.356 340.03 298.508 340.122 298.631ZM255.615 440.465L255.632 440.493L255.626 440.497L255.664 440.537L255.608 440.501L255.62 440.497L255.615 440.465ZM370.078 337.473L369.67 337.02L369.721 336.974C369.728 337.083 369.765 337.187 369.828 337.275C369.891 337.363 369.977 337.432 370.078 337.473ZM245.384 419.693L245.371 419.739L245.363 419.709L245.384 419.693ZM315.172 284.876C315.333 284.824 315.501 284.804 315.668 284.818C315.501 284.846 315.335 284.834 315.172 284.876ZM305.772 300.867C305.659 300.921 305.559 301.001 305.482 301.101C305.405 301.2 305.353 301.315 305.329 301.438L305.328 301.439L305.772 300.867ZM244.214 418.151L244.236 418.159L244.22 418.179L244.214 418.151L244.159 418.256L244.177 418.152L244.214 418.151ZM245.948 423.336C246 423.413 245.914 423.449 245.95 423.52C245.806 423.499 245.668 423.561 245.525 423.556C245.666 423.487 245.805 423.392 245.948 423.336ZM375.162 338.544L375.178 338.484L375.227 338.524L375.162 338.544ZM352.831 302.543L352.847 302.561L352.811 302.594L352.831 302.543ZM325.708 286.411C325.653 286.333 325.571 286.333 325.511 286.267L325.651 286.256L325.708 286.411ZM304.83 299.53L304.767 299.5L304.818 299.487L304.83 299.53ZM347.002 296.024L348.006 297.126C347.983 296.855 347.872 296.602 347.691 296.404C347.511 296.206 347.269 296.072 347.002 296.024ZM339.921 290.967L339.771 290.79C339.913 290.733 339.988 290.871 340.105 290.884L339.921 290.967ZM333.036 287.031L333.036 287.034L333.035 287.033L332.985 286.975L333.069 286.92L333.036 287.031ZM310.169 278.419L310.27 278.538C310.187 278.548 310.094 278.521 310.017 278.552C310.048 278.488 310.141 278.491 310.168 278.42L310.167 278.416L310.169 278.419ZM312.648 286.725L312.851 286.543L313.08 286.335L313.143 286.406C313.04 286.418 312.941 286.454 312.855 286.511C312.768 286.568 312.695 286.645 312.644 286.735L312.648 286.725ZM263.4 314.071L263.384 314.046L263.403 314.042L263.4 314.071ZM244.849 428.151L244.965 428.206L244.915 428.245L244.849 428.151ZM242.91 429C242.98 428.967 243.011 429.073 243.071 429.078L242.91 429ZM244.751 433.444L244.602 433.427L244.731 433.394L244.751 433.444ZM353.366 302.063L353.337 302.13L353.315 302.066L353.366 302.063ZM320.067 283.935C320.154 283.775 320.191 283.594 320.174 283.416L320.218 283.457L320.196 283.993L320.067 283.935ZM243.208 426.891L243.217 426.896L243.217 426.898L243.217 426.903L243.208 426.891ZM239.862 434.53L239.895 434.545L239.879 434.56L239.862 434.53ZM257.143 452.853L257.142 452.862L257.118 452.875L257.143 452.853ZM376.714 335.547L376.717 335.531L376.721 335.538L376.714 335.547L376.729 335.561L376.727 335.606L376.714 335.547ZM236.171 418.479C236.065 418.462 235.955 418.47 235.851 418.504C235.747 418.537 235.652 418.595 235.574 418.672L236.171 418.479ZM272.711 448.552L272.733 448.629L272.601 448.643L272.711 448.552ZM341.705 287.368L341.704 287.369L341.7 287.37L341.701 287.371L341.653 287.417L341.673 287.243L341.705 287.368ZM341.242 287.796L341.241 287.795L341.248 287.79L341.242 287.796ZM311.136 276.706L311.086 276.651L311.123 276.66L311.136 276.706ZM238.259 437.58L238.34 437.656L238.282 437.68L238.259 437.58ZM307.543 270.911L307.589 270.945L307.571 270.962L307.543 270.911ZM238.725 441.522L238.622 441.591C238.549 441.445 238.633 441.138 238.641 441.446C238.643 441.574 238.71 441.482 238.725 441.522ZM342.022 276.499L341.304 275.778C341.354 275.949 341.445 276.104 341.571 276.23C341.696 276.355 341.851 276.448 342.022 276.499ZM314.57 270.348L314.523 270.207L314.579 270.35L314.57 270.348ZM300.662 288.456L300.744 288.51L300.744 288.511L300.692 288.521L300.662 288.456ZM295.553 290.158C295.512 289.935 295.409 289.73 295.256 289.566C295.102 289.402 294.904 289.286 294.684 289.231L295.553 290.158ZM244.642 327.676L244.641 327.677L244.574 327.603L244.663 327.613L244.642 327.676ZM238.931 330.389L238.799 330.507L238.681 330.359C238.764 330.384 238.847 330.355 238.931 330.389ZM229.838 414.291L229.81 414.293L229.834 414.245L229.838 414.291ZM230.419 433.354L230.37 433.452L230.351 433.321L230.419 433.354ZM265.848 471.036L265.827 471.029L265.831 471.025L265.846 471.029L265.848 471.036ZM270.305 470.682L270.314 470.694L270.285 470.724L270.305 470.682ZM319.908 275.285L319.891 275.274L319.92 275.245L319.908 275.285ZM316.212 272.115L316.21 272.113L316.213 272.111L316.212 272.115ZM301.302 266.786L301.349 266.808L301.289 266.835L301.302 266.786ZM302.773 289.013L302.766 289.012C302.638 289.126 302.522 289.252 302.42 289.389L302.324 289.286C302.495 289.233 302.708 289.252 302.765 289.014L302.756 288.984L302.773 289.013ZM264.113 282.279L264.191 282.247L264.21 282.387L264.209 282.391L264.209 282.388L264.21 282.387L264.113 282.279ZM271.139 308.687L271.138 308.686L271.06 308.602C271.12 308.562 271.095 308.51 271.149 308.468L271.139 308.687ZM259.05 301.603L259.006 301.728L258.959 301.522L259.05 301.603ZM239.162 310.26L239.058 310.189L239.092 310.187L239.162 310.26ZM348.435 453.988L348.248 453.403C348.23 453.509 348.238 453.618 348.271 453.72C348.303 453.821 348.359 453.913 348.435 453.988ZM381.103 328.414L381.085 328.355L381.135 328.398L381.103 328.414ZM378.303 294.858C378.26 295.034 378.193 295.203 378.104 295.362C378.186 295.2 378.252 295.031 378.303 294.858ZM358.389 298.125L358.392 298.124L358.392 298.126L358.389 298.125ZM334.832 273.236L334.814 273.169L334.853 273.2L334.832 273.236ZM302.723 246.022L302.747 246.016L302.731 246.028L302.723 246.022ZM297.141 233.876C297.097 234.051 297.069 234.23 297.057 234.41C297.06 234.23 297.088 234.05 297.141 233.876ZM300.049 285.835L300.062 285.85L300.039 285.871L300.049 285.835ZM293.861 287.396L293.875 287.405L293.83 287.424L293.861 287.396ZM226.062 378.956C226.184 378.884 226.299 378.765 226.429 378.754C226.413 378.851 226.336 378.896 226.313 378.986C226.231 378.946 226.145 378.973 226.062 378.956ZM213.828 391.327C214.043 391.202 214.261 391.051 214.494 391.302C214.417 391.639 214.167 391.723 213.982 391.903C213.952 391.706 213.9 391.513 213.828 391.327ZM224.27 431.16L224.354 431.103L224.362 431.185L224.27 431.16ZM270.678 481.541L270.666 481.543L270.675 481.533L270.678 481.541ZM279.329 462.355L279.286 462.312L279.41 462.274L279.329 462.355ZM313.444 469.675C313.438 470.378 313.393 471.082 313.31 471.784L312.798 473.05C312.462 473.604 312.177 474.186 311.946 474.789C311.793 474.411 311.664 474.026 311.488 473.655C310.642 471.864 312.098 470.672 313.444 469.675ZM350.868 443.658L350.869 443.811L350.794 443.71L350.868 443.658ZM381.793 297.72L381.779 297.719L381.783 297.714L381.792 297.719L381.865 297.696L381.815 297.734L381.793 297.72ZM329.086 274.353L329.087 274.353C328.938 274.485 328.792 274.617 328.647 274.755L328.608 274.683C328.805 274.629 329.015 274.596 329.086 274.353ZM295.705 240.987L295.662 240.947L295.673 240.947L295.705 240.987ZM291.629 249.075C291.7 249.139 291.689 249.26 291.783 249.308L291.598 249.32C291.637 249.237 291.601 249.158 291.629 249.075ZM249.973 293.608L249.95 293.648L249.958 293.591L249.973 293.608ZM234.261 476.355L234.311 476.509C234.365 476.434 234.249 476.418 234.259 476.357L234.261 476.355ZM231.199 488.623L231.194 488.626L231.197 488.634L231.122 488.665L231.189 488.591L231.199 488.623ZM244.74 470.333L244.646 470.251L244.755 470.212L244.74 470.333ZM322.452 482.905L322.454 482.904L322.469 482.92L322.438 482.966L322.452 482.905ZM359.174 464.536L359.179 464.544L359.171 464.54L359.174 464.536ZM351.613 455.647L351.751 455.598L351.629 455.695L351.613 455.647ZM354.36 446.272L354.391 446.24L354.384 446.277L354.36 446.272ZM384.252 301.347L384.258 301.344L384.265 301.4L384.252 301.347ZM384.341 301.945L384.361 302.087L384.268 302.023L384.341 301.945ZM379.32 280.67L379.307 280.595L379.332 280.588L379.32 280.67ZM371.735 283.288L371.734 283.291L371.732 283.289L371.735 283.288ZM288.612 236.869L288.577 236.906L288.611 236.862L288.612 236.869ZM293.115 284.668L293.185 284.746L293.176 284.748L293.179 284.756L293.132 284.788L293.115 284.668ZM257.955 273.911L258.264 273.922L258.259 273.989C258.138 273.944 258.008 273.929 257.878 273.944L257.955 273.911ZM222.581 375.466C222.292 375.39 222.377 375.224 222.561 375.037C222.522 375.104 222.503 375.18 222.507 375.256C222.51 375.333 222.536 375.405 222.581 375.466ZM223.406 376.241C223.536 376.336 223.56 376.391 223.724 376.5L223.598 376.519C223.599 376.37 223.456 376.355 223.406 376.241ZM225.264 421.968L225.413 422L225.233 422.074L225.264 421.968ZM226.577 437.605L226.52 437.803C226.454 437.744 226.384 437.777 226.316 437.738L226.577 437.605ZM226.875 506.991L226.864 506.958L226.921 506.949L226.875 506.991ZM240.861 488.36L240.889 488.35L240.873 488.408L240.861 488.36ZM384.883 324.125L384.711 324.088C384.76 324.05 384.794 324.086 384.844 324.035L384.883 324.125ZM344.034 272.267L343.978 272.26L344.029 272.225L344.034 272.267ZM308.802 226.712L308.804 226.715L308.802 226.718L308.802 226.712ZM303.489 220.977L303.52 220.901L303.54 220.918L303.489 220.977ZM292.57 234.751L292.621 234.803L292.632 234.802L292.633 234.809L292.621 234.803L292.593 234.806L292.57 234.751ZM290.095 285.035L290.01 285L290.041 284.956L290.095 285.035ZM229.67 319.302C229.652 319.381 229.612 319.455 229.555 319.514C229.497 319.573 229.425 319.614 229.345 319.634L229.321 319.57C229.461 319.518 229.583 319.424 229.67 319.302ZM226.765 322.592L226.691 322.643L226.685 322.59L226.765 322.592ZM231.172 348.005L231.169 348.004L231.171 348.001L231.172 348.005ZM209.166 389.983L209.292 390.064L209.3 390.069L209.298 390.07L209.293 390.065L209.206 390.062L209.166 389.983ZM263.883 478.833L263.893 478.807L263.899 478.812L263.883 478.833L263.884 479.039C263.765 478.995 263.64 478.969 263.513 478.961C263.622 478.875 263.782 478.948 263.883 478.833ZM274.297 483.466C274.566 483.457 274.647 483.336 274.875 483.304C274.754 483.478 274.787 483.573 274.733 483.71L274.297 483.466ZM390.726 327.791C390.847 327.948 390.972 328.097 391.107 328.239C391.014 328.23 390.99 328.139 390.905 328.122C390.845 328.013 390.934 327.818 390.726 327.791L390.648 327.688C390.722 327.679 390.794 327.655 390.86 327.617C390.925 327.579 390.982 327.529 391.028 327.469L391.011 327.534L390.726 327.791ZM289.385 259.127C289.29 259.201 289.299 259.322 289.221 259.405C289.216 259.263 289.28 259.136 289.263 258.992L289.385 259.127ZM253.906 268.885L253.907 268.889L253.81 268.992L253.803 268.984L253.906 268.885ZM210.299 381.353C210.357 381.442 210.285 381.468 210.333 381.552C210.28 381.492 210.315 381.438 210.256 381.378L210.299 381.353ZM212.731 415.931L212.728 415.929L212.732 415.928L212.731 415.931ZM233.77 467.061L233.751 467.07L233.743 467.062L233.77 467.061ZM228.365 485.366L228.865 485.6L228.847 485.636C228.716 485.494 228.539 485.4 228.346 485.371L228.365 485.366ZM240.24 493.269L240.275 492.996L240.276 492.997C240.278 493.09 240.23 493.177 240.242 493.27L240.24 493.269ZM250.176 483.018L250.138 482.994C250.24 483.047 250.301 482.953 250.395 482.975L250.277 483.055L250.176 483.018ZM290.54 462.814L290.595 462.768C290.531 462.857 290.532 462.97 290.473 463.06C290.455 462.968 290.568 462.907 290.54 462.814ZM300.96 472.421L301.085 472.457L301.057 472.528L300.96 472.421ZM377.492 429.484L377.574 429.54L377.601 429.604L377.492 429.484ZM408.376 414.343C408.453 414.299 408.452 414.214 408.52 414.166C408.485 414.273 408.481 414.39 408.439 414.494L408.376 414.343ZM366.481 281.291L366.48 281.285L366.489 281.268L366.551 281.233L366.481 281.291ZM367.3 289.382L367.301 289.381L367.3 289.401L367.201 289.374L367.3 289.382ZM309.581 234.067L309.582 234.068L309.675 234.107L309.572 234.086L309.581 234.067ZM314.436 227.339L314.435 227.341L314.428 227.348L314.397 227.264L314.451 227.327L314.444 227.338L314.436 227.339ZM294.897 220.556L294.893 220.558L294.899 220.558L294.797 220.648L294.839 220.499L294.897 220.556ZM285.673 260.594C285.429 260.66 285.204 260.786 285.018 260.958C284.832 261.131 284.69 261.346 284.606 261.584L284.605 261.582C285.04 261.347 285.408 261.003 285.671 260.585L285.673 260.594ZM273.29 283.152L273.293 283.148C273.104 283.203 272.999 283.131 272.838 283.143C272.939 283.09 273.036 283.028 273.127 282.959L273.293 283.148L273.297 283.153L273.29 283.152ZM238.235 288.725L238.135 288.819L238.194 288.726L238.235 288.725ZM213.454 363.411L213.484 363.298L213.572 363.393L213.454 363.411ZM188.557 402.711C188.573 402.6 188.629 402.498 188.653 402.389C188.687 402.463 188.644 402.535 188.688 402.609L188.557 402.711ZM221.223 418.018L221.278 418.014L221.262 418.046L221.223 418.018ZM213.87 419.429C213.93 419.536 214.01 419.628 214.106 419.703C213.925 419.784 213.796 419.755 213.605 419.87C213.725 419.706 213.768 419.584 213.87 419.429ZM357.037 469.184L357.035 469.181L357.037 469.181L357.037 469.184ZM377.371 417.799C377.492 417.776 377.609 417.732 377.715 417.668C377.726 417.85 377.703 417.975 377.723 418.173C377.615 418.04 377.497 417.915 377.371 417.799ZM406.588 368.672L406.703 368.633L406.669 368.745L406.588 368.672ZM386.346 322.021L386.274 322.01L386.282 321.925L386.343 321.978L386.346 322.021ZM393.297 294.977L393.268 294.878L393.321 294.93L393.297 294.977ZM387.108 284.323L387.066 284.199L387.07 284.202L387.068 284.197L387.148 284.172L387.108 284.323ZM328.43 265.194L328.419 265.197L328.418 265.191L328.345 265.256C328.307 265.192 328.238 265.177 328.195 265.122C328.262 265.157 328.357 265.144 328.418 265.191L328.43 265.194ZM311 234.544L311.28 234.344L311.282 234.342C311.22 234.342 311.159 234.361 311.108 234.397C311.057 234.433 311.019 234.485 311 234.544ZM284.012 227.107L283.935 227.183L283.939 227.129L284.012 227.107ZM235.464 289.593L235.397 289.603C235.472 289.357 235.587 289.112 235.437 288.863L235.464 289.593ZM225.283 311.801L225.271 311.805L225.276 311.79L225.283 311.801ZM198.613 391.297L198.627 391.316L198.617 391.327L198.613 391.297ZM211.56 414.401L211.572 414.409L211.568 414.413L211.558 414.409L211.56 414.401ZM347.173 481.731L347.228 481.688L347.274 481.71L347.173 481.731ZM398.227 415.282C398.124 416.219 398.361 417.151 398.894 417.91C399.321 419.829 399.746 421.747 400.171 423.666C399.968 423.4 399.725 423.167 399.45 422.975C398.78 420.126 395.564 419.078 394.797 416.296C394.975 414.701 396.289 413.633 397.142 412.35L397.261 412.381C398.349 413.074 397.153 414.584 398.227 415.282ZM392.173 325.754L392.172 325.805L392.085 326.618L392.09 326.62L392.084 326.619L391.926 326.619C392.102 326.363 392.189 326.059 392.173 325.754Z" fill="#7A75F0"/>
</svg>
