<svg width="52" height="52" viewBox="0 0 52 52" fill="none" xmlns="http://www.w3.org/2000/svg">
<mask id="path-1-inside-1_1_105" fill="white">
<path d="M7.63074 27.3668L7.78494 27.1206L17.2274 12.2772C17.259 12.2284 17.3031 12.189 17.355 12.1632C17.407 12.1374 17.4648 12.1261 17.5226 12.1304C17.5804 12.1348 17.6359 12.1546 17.6835 12.1879C17.731 12.2212 17.7687 12.2667 17.7928 12.3197C19.365 15.8726 20.7316 20.2916 20.0907 23.042C19.8246 24.1726 19.0778 25.7044 18.2342 27.1206C18.126 27.3278 18.0079 27.5296 17.8805 27.7254C17.8499 27.7691 17.8091 27.8045 17.7616 27.8283C17.7141 27.8522 17.6614 27.8639 17.6083 27.8622H7.91192C7.85405 27.8631 7.79701 27.8482 7.74687 27.8192C7.69672 27.7901 7.65535 27.7479 7.62713 27.6971C7.59892 27.6463 7.58492 27.5888 7.58662 27.5306C7.58831 27.4725 7.60565 27.4159 7.63678 27.3668H7.63074ZM49.7 32.4727C49.7007 32.5376 49.6825 32.6012 49.6476 32.6558C49.6126 32.7104 49.5625 32.7534 49.5034 32.7796C48.7687 33.0927 46.2683 34.2536 45.2282 35.7033C42.5735 39.4172 40.5478 44.7298 36.0125 44.7298H17.1034C15.5069 44.7274 13.9265 44.4088 12.4525 43.7921C10.9785 43.1755 9.6399 42.273 8.51309 41.1361C7.38629 39.9992 6.4934 38.6503 5.88547 37.1664C5.27753 35.6825 4.96646 34.0927 4.97004 32.4879V32.269C4.97004 32.0928 5.11517 31.9469 5.29658 31.9469H15.8335C16.0452 31.9469 16.1964 32.1384 16.1812 32.3481C16.1026 33.0349 16.2326 33.7431 16.5592 34.3843C17.182 35.6608 18.4821 36.4571 19.882 36.4571H25.1006V32.3633H19.9365C19.8759 32.3626 19.8168 32.3454 19.7653 32.3134C19.7138 32.2815 19.6719 32.236 19.6442 32.1819C19.6166 32.1278 19.6041 32.0672 19.6082 32.0065C19.6122 31.9458 19.6327 31.8873 19.6674 31.8375L19.8578 31.564C20.3416 30.8619 21.04 29.783 21.7355 28.5491C22.2071 27.7163 22.6667 26.8289 23.0356 25.9354C23.1081 25.7773 23.1656 25.6102 23.2321 25.4491C23.3319 25.1634 23.4347 24.8959 23.5072 24.6315C23.5784 24.4073 23.644 24.1813 23.7038 23.9538C23.8761 23.194 23.9487 22.3916 23.9487 21.5619C23.9487 21.2337 23.9366 20.8903 23.9063 20.5681C23.8912 20.2125 23.8459 19.8539 23.8035 19.4983C23.7697 19.1802 23.7213 18.8638 23.6584 18.5501C23.577 18.0725 23.4782 17.598 23.3621 17.1277L23.3198 16.9454C23.2291 16.6172 23.1505 16.3072 23.0477 15.982C22.7598 14.9833 22.4289 13.9977 22.0559 13.0279C21.926 12.6631 21.7828 12.3032 21.6266 11.9489C21.4089 11.408 21.1852 10.9187 20.9826 10.4597C20.8818 10.2631 20.787 10.0635 20.6984 9.86102C20.6 9.64262 20.4962 9.42677 20.387 9.21367C20.3144 9.05259 20.2267 8.89759 20.1693 8.75171L19.5313 7.5725C19.4436 7.41142 19.5888 7.21388 19.7641 7.26554L23.7552 8.35054H23.7854L24.3085 8.5025L24.889 8.66661L25.1006 8.72436V6.34466C25.1006 5.19281 26.0137 4.25977 27.1536 4.25977C27.4228 4.25904 27.6893 4.31306 27.9371 4.41856C28.185 4.52407 28.409 4.67888 28.5958 4.87369C28.9819 5.26509 29.1991 5.79351 29.2005 6.34466V9.88229L29.6268 10.0008C29.6571 10.016 29.6934 10.0312 29.7206 10.0525C29.8234 10.1254 29.9745 10.2409 30.165 10.3868C30.3162 10.5023 30.4764 10.6482 30.6639 10.8032C31.261 11.2921 31.8399 11.8031 32.3994 12.3349C33.0464 12.9397 33.7721 13.6479 34.4675 14.435C34.664 14.6599 34.8515 14.8787 35.048 15.1219C35.2355 15.362 35.4471 15.596 35.6225 15.827C35.8613 16.143 36.1062 16.4713 36.333 16.8117C36.4328 16.9727 36.5567 17.1399 36.6505 17.301C36.9407 17.7325 37.1887 18.1763 37.4275 18.623C37.5303 18.8267 37.6301 19.0516 37.7178 19.2704C37.9869 19.8691 38.1985 20.4739 38.3285 21.0878C38.3715 21.2181 38.4009 21.3526 38.4162 21.489V21.5194C38.4585 21.6926 38.4737 21.8841 38.4888 22.0786C38.5739 22.9769 38.4646 23.8831 38.1683 24.7349C38.0746 24.9902 37.9869 25.2515 37.872 25.5068C37.6452 26.0235 37.3852 26.5493 37.0738 27.0325C36.971 27.2149 36.847 27.4033 36.7321 27.5856C36.6021 27.7771 36.463 27.9595 36.3481 28.1327C36.1819 28.3628 36.0074 28.5869 35.8251 28.8044C35.6648 29.0232 35.5046 29.242 35.3232 29.4396C35.0782 29.7374 34.8394 30.017 34.5824 30.2844C34.4373 30.4607 34.28 30.6431 34.1107 30.8011C33.9535 30.9835 33.7842 31.1445 33.639 31.2904C33.3851 31.5457 33.1855 31.7372 33.0102 31.9043L32.5959 32.2751C32.5383 32.3333 32.46 32.3661 32.3782 32.3663H29.2005V36.4571H33.1976C34.0896 36.4571 34.9392 36.141 35.6285 35.5514C35.8613 35.3478 36.8833 34.4573 38.0957 33.1139C38.1352 33.0682 38.1882 33.0363 38.2469 33.0228L49.2827 29.8103C49.3312 29.7962 49.3822 29.7936 49.4319 29.8027C49.4815 29.8118 49.5283 29.8323 49.5688 29.8626C49.6092 29.8929 49.6421 29.9323 49.6648 29.9775C49.6876 30.0227 49.6996 30.0727 49.7 30.1234V32.4727Z"/>
</mask>
<path d="M7.63074 27.3668L7.78494 27.1206L17.2274 12.2772C17.259 12.2284 17.3031 12.189 17.355 12.1632C17.407 12.1374 17.4648 12.1261 17.5226 12.1304C17.5804 12.1348 17.6359 12.1546 17.6835 12.1879C17.731 12.2212 17.7687 12.2667 17.7928 12.3197C19.365 15.8726 20.7316 20.2916 20.0907 23.042C19.8246 24.1726 19.0778 25.7044 18.2342 27.1206C18.126 27.3278 18.0079 27.5296 17.8805 27.7254C17.8499 27.7691 17.8091 27.8045 17.7616 27.8283C17.7141 27.8522 17.6614 27.8639 17.6083 27.8622H7.91192C7.85405 27.8631 7.79701 27.8482 7.74687 27.8192C7.69672 27.7901 7.65535 27.7479 7.62713 27.6971C7.59892 27.6463 7.58492 27.5888 7.58662 27.5306C7.58831 27.4725 7.60565 27.4159 7.63678 27.3668H7.63074ZM49.7 32.4727C49.7007 32.5376 49.6825 32.6012 49.6476 32.6558C49.6126 32.7104 49.5625 32.7534 49.5034 32.7796C48.7687 33.0927 46.2683 34.2536 45.2282 35.7033C42.5735 39.4172 40.5478 44.7298 36.0125 44.7298H17.1034C15.5069 44.7274 13.9265 44.4088 12.4525 43.7921C10.9785 43.1755 9.6399 42.273 8.51309 41.1361C7.38629 39.9992 6.4934 38.6503 5.88547 37.1664C5.27753 35.6825 4.96646 34.0927 4.97004 32.4879V32.269C4.97004 32.0928 5.11517 31.9469 5.29658 31.9469H15.8335C16.0452 31.9469 16.1964 32.1384 16.1812 32.3481C16.1026 33.0349 16.2326 33.7431 16.5592 34.3843C17.182 35.6608 18.4821 36.4571 19.882 36.4571H25.1006V32.3633H19.9365C19.8759 32.3626 19.8168 32.3454 19.7653 32.3134C19.7138 32.2815 19.6719 32.236 19.6442 32.1819C19.6166 32.1278 19.6041 32.0672 19.6082 32.0065C19.6122 31.9458 19.6327 31.8873 19.6674 31.8375L19.8578 31.564C20.3416 30.8619 21.04 29.783 21.7355 28.5491C22.2071 27.7163 22.6667 26.8289 23.0356 25.9354C23.1081 25.7773 23.1656 25.6102 23.2321 25.4491C23.3319 25.1634 23.4347 24.8959 23.5072 24.6315C23.5784 24.4073 23.644 24.1813 23.7038 23.9538C23.8761 23.194 23.9487 22.3916 23.9487 21.5619C23.9487 21.2337 23.9366 20.8903 23.9063 20.5681C23.8912 20.2125 23.8459 19.8539 23.8035 19.4983C23.7697 19.1802 23.7213 18.8638 23.6584 18.5501C23.577 18.0725 23.4782 17.598 23.3621 17.1277L23.3198 16.9454C23.2291 16.6172 23.1505 16.3072 23.0477 15.982C22.7598 14.9833 22.4289 13.9977 22.0559 13.0279C21.926 12.6631 21.7828 12.3032 21.6266 11.9489C21.4089 11.408 21.1852 10.9187 20.9826 10.4597C20.8818 10.2631 20.787 10.0635 20.6984 9.86102C20.6 9.64262 20.4962 9.42677 20.387 9.21367C20.3144 9.05259 20.2267 8.89759 20.1693 8.75171L19.5313 7.5725C19.4436 7.41142 19.5888 7.21388 19.7641 7.26554L23.7552 8.35054H23.7854L24.3085 8.5025L24.889 8.66661L25.1006 8.72436V6.34466C25.1006 5.19281 26.0137 4.25977 27.1536 4.25977C27.4228 4.25904 27.6893 4.31306 27.9371 4.41856C28.185 4.52407 28.409 4.67888 28.5958 4.87369C28.9819 5.26509 29.1991 5.79351 29.2005 6.34466V9.88229L29.6268 10.0008C29.6571 10.016 29.6934 10.0312 29.7206 10.0525C29.8234 10.1254 29.9745 10.2409 30.165 10.3868C30.3162 10.5023 30.4764 10.6482 30.6639 10.8032C31.261 11.2921 31.8399 11.8031 32.3994 12.3349C33.0464 12.9397 33.7721 13.6479 34.4675 14.435C34.664 14.6599 34.8515 14.8787 35.048 15.1219C35.2355 15.362 35.4471 15.596 35.6225 15.827C35.8613 16.143 36.1062 16.4713 36.333 16.8117C36.4328 16.9727 36.5567 17.1399 36.6505 17.301C36.9407 17.7325 37.1887 18.1763 37.4275 18.623C37.5303 18.8267 37.6301 19.0516 37.7178 19.2704C37.9869 19.8691 38.1985 20.4739 38.3285 21.0878C38.3715 21.2181 38.4009 21.3526 38.4162 21.489V21.5194C38.4585 21.6926 38.4737 21.8841 38.4888 22.0786C38.5739 22.9769 38.4646 23.8831 38.1683 24.7349C38.0746 24.9902 37.9869 25.2515 37.872 25.5068C37.6452 26.0235 37.3852 26.5493 37.0738 27.0325C36.971 27.2149 36.847 27.4033 36.7321 27.5856C36.6021 27.7771 36.463 27.9595 36.3481 28.1327C36.1819 28.3628 36.0074 28.5869 35.8251 28.8044C35.6648 29.0232 35.5046 29.242 35.3232 29.4396C35.0782 29.7374 34.8394 30.017 34.5824 30.2844C34.4373 30.4607 34.28 30.6431 34.1107 30.8011C33.9535 30.9835 33.7842 31.1445 33.639 31.2904C33.3851 31.5457 33.1855 31.7372 33.0102 31.9043L32.5959 32.2751C32.5383 32.3333 32.46 32.3661 32.3782 32.3663H29.2005V36.4571H33.1976C34.0896 36.4571 34.9392 36.141 35.6285 35.5514C35.8613 35.3478 36.8833 34.4573 38.0957 33.1139C38.1352 33.0682 38.1882 33.0363 38.2469 33.0228L49.2827 29.8103C49.3312 29.7962 49.3822 29.7936 49.4319 29.8027C49.4815 29.8118 49.5283 29.8323 49.5688 29.8626C49.6092 29.8929 49.6421 29.9323 49.6648 29.9775C49.6876 30.0227 49.6996 30.0727 49.7 30.1234V32.4727Z" fill="#0081E9" stroke="black" stroke-width="2.982" mask="url(#path-1-inside-1_1_105)"/>
</svg>
