<svg width="48" height="47" viewBox="0 0 48 47" fill="none" xmlns="http://www.w3.org/2000/svg">
<rect x="3.00002" y="2" width="43" height="43" rx="1" fill="#FFB061" stroke="black" stroke-width="2"/>
<path d="M29.0509 35.5115H19.612C17.5959 35.5115 15.6622 34.7117 14.2351 33.2876C12.808 31.8635 12.0042 29.9315 12 27.9154V19.5961C12.0042 17.5801 12.808 15.648 14.2351 14.2239C15.6622 12.7998 17.5959 12 19.612 12H29.0509C31.0669 12 33.0007 12.7998 34.4277 14.2239C35.8548 15.648 36.6586 17.5801 36.6628 19.5961V27.9154C36.6586 29.9315 35.8548 31.8635 34.4277 33.2876C33.0007 34.7117 31.0669 35.5115 29.0509 35.5115ZM19.612 13.6873C18.0454 13.689 16.5434 14.3121 15.4357 15.4198C14.3279 16.5276 13.7049 18.0295 13.7032 19.5961V27.9154C13.7049 29.482 14.3279 30.9839 15.4357 32.0917C16.5434 33.1994 18.0454 33.8225 19.612 33.8242H29.0509C30.6164 33.8208 32.1167 33.197 33.2231 32.0895C34.3294 30.9819 34.9516 29.4809 34.9533 27.9154V19.5961C34.9516 18.0295 34.3286 16.5276 33.2208 15.4198C32.1131 14.3121 30.6111 13.689 29.0445 13.6873H19.612Z" fill="#FFFCDC"/>
<path d="M24.3314 30.5196C22.9931 30.5202 21.6847 30.1239 20.5717 29.3808C19.4587 28.6376 18.5911 27.5811 18.0787 26.3448C17.5662 25.1085 17.432 23.748 17.6929 22.4354C17.9539 21.1228 18.5982 19.917 19.5445 18.9707C20.4909 18.0244 21.6966 17.38 23.0092 17.1191C24.3218 16.8582 25.6823 16.9924 26.9186 17.5048C28.1549 18.0173 29.2114 18.8849 29.9546 19.9979C30.6977 21.1109 31.094 22.4193 31.0934 23.7576C31.0909 25.5502 30.3776 27.2687 29.1101 28.5362C27.8425 29.8038 26.124 30.517 24.3314 30.5196ZM24.3314 18.6829C23.3277 18.6829 22.3466 18.9806 21.5121 19.5382C20.6776 20.0958 20.0271 20.8883 19.643 21.8156C19.2589 22.7429 19.1585 23.7632 19.3543 24.7476C19.5501 25.732 20.0334 26.6362 20.7431 27.3459C21.4528 28.0556 22.357 28.5389 23.3414 28.7347C24.3258 28.9305 25.3461 28.83 26.2734 28.446C27.2007 28.0619 27.9932 27.4114 28.5508 26.5769C29.1084 25.7424 29.4061 24.7613 29.4061 23.7576C29.4061 23.0912 29.2748 22.4313 29.0198 21.8156C28.7648 21.1999 28.3909 20.6405 27.9197 20.1693C27.4485 19.698 26.8891 19.3242 26.2734 19.0692C25.6577 18.8142 24.9978 18.6829 24.3314 18.6829Z" fill="#FFFCDC"/>
<path d="M32.3939 17.2017C32.3945 17.4797 32.3127 17.7517 32.1587 17.9832C32.0047 18.2146 31.7854 18.3952 31.5288 18.502C31.2721 18.6089 30.9895 18.6371 30.7167 18.5833C30.444 18.5294 30.1933 18.3959 29.9965 18.1995C29.7997 18.0031 29.6655 17.7528 29.6111 17.4801C29.5566 17.2075 29.5842 16.9248 29.6905 16.6679C29.7967 16.411 29.9768 16.1914 30.2079 16.0368C30.4391 15.8823 30.7108 15.7998 30.9889 15.7998C31.1732 15.7994 31.3559 15.8353 31.5263 15.9056C31.6968 15.9759 31.8517 16.0791 31.9822 16.2093C32.1127 16.3395 32.2163 16.4942 32.2869 16.6645C32.3576 16.8348 32.3939 17.0173 32.3939 17.2017Z" fill="#FFFCDC"/>
</svg>
