<svg width="83" height="31" viewBox="0 0 83 31" fill="none" xmlns="http://www.w3.org/2000/svg">
<path d="M82.1927 10.9388C82.1329 11.0626 82.0789 11.1744 81.9827 11.3741C81.9689 11.0159 81.9116 10.6613 81.812 10.3185C81.6416 10.0431 81.4353 9.7938 81.1992 9.5778C81.2783 9.50697 81.3304 9.45586 81.3869 9.41C81.4993 9.31993 81.588 9.20147 81.6446 9.0658C81.7012 8.93014 81.7239 8.78174 81.7104 8.63459C81.697 8.48744 81.6479 8.3464 81.5678 8.22477C81.4877 8.10314 81.3792 8.00493 81.2526 7.9394C80.9156 7.83533 80.5691 7.76781 80.2186 7.73792C80.0968 7.71677 79.9749 7.70121 79.7881 7.67332C79.8341 7.19691 79.8571 6.75433 79.9263 6.31976C79.9992 5.991 79.9567 5.64614 79.8065 5.34806L79.6822 5.34971C79.6273 5.67216 79.5724 5.99414 79.5109 6.35514C79.2527 6.26613 79.064 6.20128 78.8164 6.11633C78.9086 5.75911 78.9936 5.43247 79.0761 5.1165C79.2168 5.10462 79.3212 5.09626 79.4112 5.08885C79.1652 4.88624 78.9409 4.70161 78.6774 4.48443C78.5879 4.48952 78.4339 4.49864 78.2651 4.50869C78.3313 4.26742 78.3838 4.07663 78.451 3.83259C78.1756 3.86401 77.9608 3.88849 77.8415 3.90245C77.6557 3.80032 77.5343 3.68108 77.4051 3.67137C76.6895 3.61874 75.9721 3.59502 75.2558 3.55077C75.2277 3.54894 75.2062 3.43895 75.1817 3.37884L75.1817 3.37745C75.1975 3.06357 75.3442 2.93369 75.6529 2.95097C76.2801 2.98632 76.909 2.99556 77.5564 3.01612C77.4801 2.81517 77.3026 2.77543 77.1195 2.75653C76.638 2.70713 76.1567 2.6512 75.6736 2.62184C75.4016 2.60572 75.1601 2.59619 75.0363 2.27367C75.0078 2.19896 74.8371 2.18372 74.7105 2.13252L74.6988 2.49978C73.6796 2.4674 72.6864 2.43256 71.6934 2.40522C70.6873 2.4019 69.6834 2.31268 68.6916 2.13843L70.2567 2.08071C70.2579 2.02889 70.2586 1.97706 70.2594 1.92523C69.1824 1.85504 68.1052 1.78485 67.0279 1.71467C67.3783 2.19386 67.9517 1.72859 68.3699 2.16697C68.2453 2.19796 68.1183 2.21723 67.9904 2.22452C67.531 2.19825 67.069 2.18076 66.6133 2.1191C66.2867 2.07509 65.8811 2.11174 65.8518 1.58528L65.0277 1.5591C65.0717 1.67821 65.1013 1.75903 65.1642 1.93106C64.8939 1.83325 64.6293 1.90239 64.4807 1.65943C64.2853 1.33791 64.0343 1.44439 63.769 1.46819C63.79 1.58097 63.8026 1.64863 63.8255 1.77314C63.0368 1.71445 62.2851 1.63032 61.5318 1.61199C60.7718 1.59298 60.0073 1.39118 59.1996 1.56732C59.3512 1.88651 59.5733 1.83004 59.7647 1.83939C60.3744 1.83407 60.9836 1.86622 61.5895 1.93567C62.1363 2.0354 62.6952 2.04322 63.2449 1.95884C63.3504 1.93493 63.4602 1.94576 63.5594 1.98985C64.0245 2.27602 64.5625 2.21838 65.0582 2.30186C65.8734 2.43941 66.7208 2.28275 67.5426 2.50646C67.7371 2.55935 67.9457 2.43517 68.0839 2.72778C68.1694 2.90801 68.4129 2.86716 68.5862 2.75589C68.6746 2.69068 68.7586 2.61938 68.8379 2.54246C69.1331 2.82839 69.4216 2.93331 69.7529 2.66169C69.7937 2.64073 69.8382 2.62883 69.8836 2.62673C69.9289 2.62464 69.9742 2.6324 70.0165 2.64952C70.3969 2.78633 70.7635 3.03435 71.1789 2.74671C71.1949 2.73507 71.2412 2.78185 71.2751 2.78526C71.6831 2.87032 72.0995 2.90502 72.5155 2.88866C73.3727 2.80707 74.2355 2.81947 75.0897 2.92561C75.1222 3.08594 75.1515 3.23307 75.1817 3.38024C75.0474 3.47465 74.899 3.54465 74.7425 3.58725C74.4911 3.589 74.2399 3.57304 73.9906 3.53953C72.5377 3.45507 71.0848 3.3594 69.6304 3.29731C69.0649 3.2291 68.4953 3.20429 67.9261 3.22307C67.2953 3.2323 66.6669 3.1437 66.0615 2.96017C65.8892 2.9158 65.7089 2.91732 65.5371 2.96457C65.3652 3.01183 65.2073 3.10332 65.0778 3.23068C65.0226 3.10301 64.93 2.99706 64.8133 2.92812C64.6967 2.85918 64.5619 2.83081 64.4286 2.84709C63.8053 2.83149 63.1821 2.76872 62.5592 2.72278C61.6359 2.65514 60.714 2.56931 59.7899 2.52454C59.3977 2.50554 58.9773 2.38941 58.711 2.65516C58.5249 2.58058 58.3327 2.52352 58.1368 2.48464C57.8092 2.5001 57.481 2.48623 57.1558 2.44319C56.9663 2.35084 56.7525 2.32741 56.5483 2.37661C56.3442 2.42581 56.1615 2.54484 56.0291 2.71478C55.9445 2.66211 55.8839 2.64383 55.8539 2.60224C55.5527 2.18206 55.4542 2.1593 54.9975 2.3849C54.9058 2.42963 54.7688 2.47947 54.6958 2.44025C54.6026 2.40245 54.5025 2.3864 54.4025 2.39323C54.3026 2.40006 54.2052 2.4296 54.1172 2.47979L54.1233 2.47018C53.9242 2.49328 53.6594 2.61239 53.5371 2.52209C53.157 2.27811 52.7215 2.14387 52.275 2.13304C52.0407 2.10762 51.8037 2.1358 51.5806 2.21562C51.4895 2.25929 51.3905 2.28192 51.2904 2.28197C51.1903 2.28201 51.0914 2.25947 51.0005 2.21588C50.3458 1.90686 49.6257 2.0386 48.9396 1.93085C48.656 1.85492 48.3589 1.85141 48.0734 1.92061C47.7375 2.00544 47.3881 2.01236 47.0498 1.94088C46.7198 1.95902 46.389 1.94241 46.0624 1.89129C45.6712 1.80386 45.2636 1.84053 44.8918 1.99658C44.5148 1.62492 44.5005 1.62445 44.0553 1.79949C43.8637 1.90922 43.6532 1.97782 43.4362 2.00124C43.1182 1.95118 42.8054 1.8704 42.5018 1.75995C42.0115 1.62151 41.5331 1.55727 41.1474 2.00934C40.8927 1.85457 40.6546 1.7106 40.4104 1.56271C40.4855 1.41887 40.5511 1.26989 40.6069 1.11677C40.6205 1.07346 40.6249 1.02761 40.62 0.98237C40.615 0.937135 40.6007 0.893597 40.5781 0.854734C40.5428 0.827698 40.5022 0.809254 40.4591 0.800775C40.4161 0.792295 40.3718 0.793988 40.3294 0.80572C40.0654 0.885621 39.8083 0.990025 39.5573 1.08249C39.3153 0.695953 39.3153 0.695954 38.816 1.03885C38.7481 0.952195 38.6643 0.880621 38.5695 0.828299C38.4747 0.775977 38.3708 0.74396 38.264 0.734127C38.1571 0.724294 38.0493 0.736841 37.947 0.771031C37.8447 0.805221 37.7499 0.860373 37.6682 0.933254L37.6678 0.931374C37.516 0.940566 37.3646 0.95163 37.2133 0.958036C37.1274 0.961379 37.0008 0.995196 36.9629 0.950549C36.7704 0.721145 36.5132 0.783975 36.2846 0.779513C35.9983 0.774622 35.7103 0.863106 35.4246 0.853096C35.1243 0.825906 34.8258 0.780238 34.5308 0.716324C34.4936 0.712186 34.4561 0.710837 34.4187 0.712294C33.6371 0.69774 32.8548 0.662612 32.0729 0.672338C30.4219 0.643456 28.7704 0.716244 27.127 0.890317C27.0199 0.909268 26.9115 0.919719 26.8029 0.92159C26.4747 0.913965 26.146 0.879233 25.8186 0.88845C25.406 0.951142 24.986 0.930507 24.5813 0.827658C24.6051 0.653708 24.6257 0.499272 24.6519 0.306246C24.4101 0.408338 24.2433 0.479186 24.0757 0.550004C24.1461 0.657809 24.2108 0.757021 24.2871 0.873425C24.1972 0.920083 24.1497 0.964354 24.1019 0.966103C23.5091 0.986509 22.9162 0.995243 22.3229 1.0175C21.8847 1.06516 21.4441 1.08486 21.0037 1.07649C20.6572 1.05458 20.3094 1.07361 19.9669 1.13323C19.6921 1.17616 19.4134 1.183 19.1372 1.15359C18.8595 1.09827 18.5736 1.1043 18.2979 1.1713C18.1488 1.24934 17.9826 1.28412 17.8166 1.27203C17.6505 1.25993 17.4908 1.20139 17.354 1.10254C17.2633 1.05893 17.1634 1.04042 17.0637 1.04878C16.9641 1.05715 16.8681 1.09211 16.7849 1.15032C16.6461 1.2635 16.4868 1.34608 16.3167 1.39303C16.1466 1.43999 15.9692 1.45034 15.7953 1.42346C15.4284 1.41336 15.0681 1.52924 14.7695 1.75336C14.3694 1.19504 13.8463 1.63808 13.3868 1.53052C12.8997 1.41602 12.4786 1.72963 12.1238 2.19483C11.9068 1.62598 11.5394 1.59889 11.098 1.72174C10.8438 1.77093 10.5873 1.80598 10.3296 1.82673C10.2429 1.84079 10.1254 1.86741 10.0841 1.93196C9.81693 2.35043 9.51922 2.156 9.18519 1.97956C9.21913 2.16328 9.24768 2.31974 9.28233 2.50909C9.70008 2.48359 10.0771 2.46054 10.4819 2.43556C10.4542 2.74533 10.298 2.70906 10.125 2.72552C9.66195 2.76967 9.15227 2.56568 8.74843 3.06763C8.67726 2.83227 8.62869 2.67284 8.57047 2.47993C8.72582 2.49935 8.84822 2.51492 8.97775 2.53118C9.22619 2.06773 8.77311 1.98094 8.63138 1.67374C8.55324 1.82634 8.50466 1.92102 8.45653 2.01525C8.30889 1.99234 8.16971 1.97018 8.03008 1.94846L8.02924 1.94702C8.1358 2.17977 8.24279 2.413 8.37775 2.70832L7.72729 2.68765C7.84385 2.5073 7.91014 2.4043 7.96937 2.31229C7.78731 2.13507 7.62995 1.98199 7.44527 1.80282C7.00318 2.20032 6.47731 1.61978 5.99334 1.90103C6.06401 2.16977 6.1726 2.42591 6.31552 2.66102C6.41047 2.75978 6.47136 2.88871 6.4887 3.02769C6.50603 3.16666 6.47883 3.30786 6.41134 3.42922C6.19058 3.49929 6.05045 3.46494 6.03182 3.22144C6.0124 2.97464 5.99614 2.72701 5.97862 2.47654C5.87887 2.45141 5.79422 2.42957 5.6856 2.40229C5.71492 2.78767 5.74106 3.13232 5.76722 3.47649C5.7356 3.48716 5.70441 3.49785 5.67236 3.50805C5.60224 3.36614 5.53212 3.22424 5.45825 3.07381C5.36207 3.20342 5.26966 3.32709 5.10205 3.55299C5.09986 3.27296 5.02934 2.99834 4.89717 2.75512C4.76499 2.51191 4.57554 2.30814 4.34673 2.1631C4.11756 2.3011 3.91892 2.42044 3.71118 2.5451C3.73652 2.74382 3.7139 2.94615 3.64534 3.13367C3.57679 3.32119 3.46448 3.48793 3.31866 3.61872C3.19417 3.71691 3.10373 3.85489 3.06115 4.01161C3.01857 4.16833 3.02619 4.33516 3.08285 4.48663C3.12774 4.71318 3.13288 4.94648 3.09806 5.1752L3.10357 5.17071C3.06012 5.28658 3.01898 5.39971 2.98719 5.48605C2.55982 5.2235 2.89591 4.61756 2.48484 4.32001C2.436 4.3946 2.37866 4.4409 2.379 4.48669C2.38177 5.04641 2.39572 5.606 2.40206 6.16582C2.40781 6.68826 2.44742 7.21411 2.40324 7.73262C2.32746 8.67775 2.16742 9.61366 1.92518 10.5282C1.79482 11.0367 1.78109 11.5699 1.88513 12.0843C1.92443 12.2479 1.92673 12.419 1.89187 12.5839C1.857 12.7489 1.78591 12.9032 1.68423 13.0346C1.61664 13.1366 1.50365 13.2891 1.53341 13.3652C1.60579 13.6606 1.61776 13.9688 1.56856 14.2698C1.56584 15.0166 1.62743 15.7646 1.6945 16.509C1.72684 16.8697 1.75468 17.2032 1.45657 17.4012C1.77112 18.43 1.53807 19.4353 1.70146 20.4677C1.20542 20.2987 1.22834 19.7459 0.882607 19.4878C0.896224 20.2548 0.898581 20.2511 1.59515 20.7334C1.74645 20.8382 1.89771 20.9719 1.76949 21.2238C1.6419 21.2029 1.50985 21.1819 1.34889 21.1563C1.398 21.425 1.43844 21.6431 1.48302 21.8855C1.3031 21.9083 1.16759 21.9255 1.00561 21.946C1.21743 22.5231 1.55627 21.9855 1.87074 22.1305C1.9119 22.2705 1.94425 22.4132 1.96755 22.5577C1.99313 22.7795 1.9652 23.0112 2.00928 23.2275C2.03116 23.5082 2.11981 23.7785 2.26717 24.0139C2.41453 24.2493 2.61594 24.4423 2.85308 24.5754C3.21686 24.4767 3.58151 24.378 3.99215 24.2673C3.52365 24.0753 2.95958 24.3176 2.63922 23.7674C2.78699 23.2798 2.22948 22.6543 2.82309 22.1715C4.06696 23.1083 4.06695 23.1083 5.11676 23.1763L5.11897 23.1773C5.13649 23.2513 5.15022 23.3263 5.1601 23.4019C5.2036 23.9456 5.16877 23.987 4.62532 24.1005C4.5347 24.122 4.44798 24.1587 4.36849 24.2091C4.3302 24.2327 4.3139 24.2957 4.2775 24.3585C4.35515 24.404 4.41836 24.4396 4.48062 24.4776C4.55031 24.5204 4.6186 24.5651 4.66767 24.5961C4.64704 24.95 4.36789 24.7907 4.22066 24.9238C4.26396 25.0238 4.30807 25.1261 4.35301 25.2307C4.51664 25.0879 4.67107 24.9531 4.83564 24.8088C5.15459 25.0941 5.74008 24.867 5.92904 25.3336C6.1089 25.777 6.70949 25.6373 6.84853 26.17C6.54435 26.1431 6.24811 26.0554 5.97592 25.9115C5.75294 25.7143 5.63132 25.8291 5.43207 25.8555C5.64976 26.2053 5.63509 26.273 5.36385 26.2863C5.209 26.2936 5.05351 26.2788 4.89815 26.2739C4.96123 26.3537 5.04573 26.4121 5.14084 26.4414C5.23634 26.4584 5.32917 26.4889 5.41682 26.5319C5.83499 26.845 6.32612 26.4795 6.75091 26.6966C7.30527 26.4508 7.83129 26.9136 8.38126 26.7634C8.93716 26.9863 9.52922 27.0952 10.1251 27.0841C11.3484 27.1902 12.5718 27.2954 13.797 27.3703C14.4817 27.4126 15.1692 27.3911 15.8553 27.4026C15.966 27.4047 16.0759 27.4343 16.1868 27.4472C16.518 27.4853 16.8489 27.5378 17.1813 27.5545C17.9772 27.5956 18.7757 27.5991 19.5698 27.6546C20.7929 27.7407 22.0135 27.8621 23.2358 27.9598C24.4794 28.0596 25.7265 28.1202 26.9669 28.2517C28.3374 28.3971 29.6982 28.6346 31.0692 28.7763C32.9957 28.9757 34.9119 29.2571 36.854 29.33C38.6327 29.3968 40.4045 29.6423 42.1807 29.7875C43.5116 29.8965 44.8451 29.9828 46.1794 30.0565C46.9163 30.0972 47.6558 30.0861 48.3947 30.1092C48.6523 30.1169 48.9086 30.1656 49.166 30.179C49.7804 30.2106 50.3948 30.2287 51.0091 30.2599C52.2169 30.3217 53.4243 30.3927 54.6327 30.4507C54.9441 30.4658 55.2581 30.43 55.5694 30.4478C56.0267 30.474 56.4818 30.5511 56.939 30.5646C58.6704 30.6159 60.4018 30.6807 62.1334 30.6839C64.181 30.7544 66.2311 30.7022 68.2737 30.5277C69.1556 30.4226 70.032 30.2659 70.9105 30.1284C70.9554 30.1215 70.994 30.0732 70.9584 30.0987C70.9453 29.8638 70.936 29.6902 70.9294 29.575C71.1448 29.5835 71.3605 29.571 71.5737 29.5376C71.7639 29.4857 71.911 29.7524 72.1391 29.5495C72.2494 29.4516 72.4852 29.5147 72.5116 29.2469C72.5187 29.178 72.6224 29.1201 72.6799 29.0551C72.855 28.8683 73.0671 28.7238 73.3012 28.6318C73.5353 28.5397 73.7857 28.5023 74.0348 28.5222C74.3199 28.5224 74.6347 28.4721 74.69 28.11C74.8255 28.1937 74.9904 28.347 75.0379 28.314C75.1504 28.2358 75.2075 28.0699 75.3197 27.8852C75.3951 28.4108 75.7578 28.2883 76.0389 28.1912C77.0975 27.8263 78.1522 27.4446 79.192 27.0249C79.3591 26.9601 79.5 26.8374 79.5913 26.6773C79.6826 26.5173 79.7187 26.3296 79.6937 26.1454C79.6875 25.8157 79.7202 25.4863 79.791 25.1647C79.8105 25.0555 79.9279 24.8906 80.0132 24.8812C80.6315 24.814 80.642 24.3032 80.7183 23.8544C80.7667 23.5687 80.733 23.2668 80.7871 22.9831C81.0103 22.003 81.1528 21.005 81.2131 20C81.2232 19.6252 81.2719 19.2446 81.7665 19.108C81.5847 18.7678 81.4404 18.4834 81.2834 18.207C81.0477 17.7926 81.1682 17.5297 81.6241 17.4704C81.8772 17.4378 82.1237 17.3873 82.0037 16.9588C81.5978 17.144 81.5119 16.7138 81.5218 16.5413C81.5331 16.3413 81.4505 16.0285 81.4898 16.0003C81.7647 15.8025 81.502 15.6167 81.525 15.4408C81.5716 15.0845 81.6748 14.7356 81.7486 14.3824C81.9606 13.3764 82.1621 12.3677 82.3848 11.3644C82.4306 11.1585 82.4091 11.0335 82.1927 10.9388M2.79751 21.7245C2.71247 21.6863 2.62774 21.648 2.54331 21.6095L2.6099 21.4831L2.83788 21.6497L2.79751 21.7245ZM3.11138 5.16394C3.26652 5.03527 3.41473 4.94142 3.48597 5.32953C3.33926 5.26321 3.22648 5.21244 3.11138 5.16394ZM56.1924 4.18769C56.1938 4.22651 56.1948 4.26531 56.1963 4.30413L55.5875 4.33477C55.5858 4.28894 55.585 4.24361 55.5833 4.19871L56.1924 4.18769ZM55.0038 3.95607C55.0185 4.03081 55.0404 4.14315 55.0761 4.32554L54.027 4.29221C54.0213 4.26073 54.0156 4.22971 54.0094 4.19869C54.3202 4.12261 54.6305 4.04698 55.0038 3.95607ZM53.9513 2.73751C54.0049 2.65326 54.0589 2.56949 54.1139 2.48529C54.1757 2.57928 54.238 2.67375 54.3326 2.81737C54.1728 2.85246 54.0482 2.87979 53.8335 2.92716C53.9084 2.80575 53.9292 2.77137 53.9513 2.73751ZM52.1635 4.23533C51.9943 4.13279 51.8241 4.03022 51.6093 3.90054C51.9692 3.82556 51.9692 3.82555 52.1635 4.23533ZM22.349 1.63307C22.3664 1.66118 22.4857 1.64769 22.5429 1.61961C22.9751 1.39077 23.4705 1.3297 23.9409 1.44728C24.1594 1.47872 24.3821 1.45354 24.5894 1.37398C25.0568 1.24146 25.5475 1.22821 26.0202 1.33536C26.1629 1.38129 26.3136 1.39357 26.4615 1.37133C27.4482 1.07569 28.4431 1.34039 29.4322 1.29427C29.5749 1.2876 29.7151 1.20937 29.8563 1.21012C30.5005 1.1888 31.1438 1.27243 31.7628 1.45801C31.8654 1.49257 31.99 1.55305 32.0782 1.52082C32.4959 1.36873 32.9419 1.50995 33.3658 1.33376C33.6301 1.27944 33.9003 1.26412 34.1685 1.28826C34.4225 1.26737 34.6743 1.20483 34.9281 1.19188C35.2558 1.17519 35.5842 1.19029 35.9122 1.18997C36.4467 1.1892 36.9811 1.19264 37.515 1.18391C37.658 1.18145 37.7693 1.12471 37.6739 0.947907C37.7394 0.969139 37.8187 0.978201 37.8534 1.02462C38.0644 1.30506 38.2246 1.15553 38.3873 0.971042C38.5035 1.09151 38.6422 1.18559 38.7949 1.24742C38.9476 1.30926 39.1109 1.33752 39.2746 1.33043C39.5914 1.27523 39.9162 1.3037 40.2194 1.41324C40.0826 1.6532 39.9509 1.79148 39.6825 1.75679C39.3513 1.71451 39.0273 1.85744 38.6718 1.72142C38.4807 1.64855 38.1928 1.84821 38.0321 1.8987C37.7649 1.82907 37.4931 1.77984 37.219 1.7514C36.6875 1.73966 36.1543 1.78345 35.6229 1.7731C34.9414 1.75892 34.2601 1.70878 33.579 1.68387C33.2911 1.67379 33.0024 1.68751 32.714 1.6933C31.4797 1.71949 30.2457 1.73681 29.0119 1.77796C28.5189 1.79453 28.028 1.87189 27.5354 1.90622C27.3522 1.91909 27.1662 1.87907 26.9816 1.88068C26.5949 1.88427 26.2082 1.90189 25.8215 1.90875C25.4932 1.91514 25.164 1.92711 24.8364 1.91436C24.1954 1.8898 23.5554 1.84844 22.9146 1.81921C22.8057 1.81435 22.6959 1.84122 22.5857 1.8466C22.4294 1.86151 22.2719 1.841 22.124 1.78648C21.9762 1.73196 21.8413 1.64471 21.7288 1.53068C21.9479 1.54091 22.177 1.34966 22.349 1.63307ZM21.3677 1.50474C21.3927 1.53309 21.4168 1.56095 21.4418 1.58931C21.3832 1.67806 21.3328 1.82828 21.2632 1.83915C21.1743 1.85314 21.0692 1.75498 20.9895 1.59362C21.1155 1.56399 21.242 1.53438 21.3677 1.50474ZM20.7124 1.88985L19.849 1.86242C20.1264 1.62459 20.156 1.62272 20.7124 1.88985ZM19.5614 1.81311C19.3959 2.07131 19.2162 2.00115 18.9655 1.9175C19.1806 1.74356 19.3422 1.68002 19.5614 1.81311ZM16.0159 1.83873C16.0338 1.87761 16.0523 1.91697 16.0707 1.95586C15.9054 2.09355 15.7406 2.23173 15.5363 2.40228C15.4334 2.29391 15.372 2.22935 15.2475 2.09787C15.5434 1.99796 15.7796 1.91811 16.0159 1.83873ZM13.3607 2.37847C13.1863 2.66488 12.9351 2.61159 12.5648 2.56339C12.8799 2.37721 13.0479 2.08544 13.3607 2.37847ZM11.5496 2.29243C11.5996 2.39102 11.6441 2.49259 11.6829 2.59658C11.6861 2.60789 11.6151 2.66169 11.6047 2.65435C11.5463 2.62152 11.4967 2.57403 11.4602 2.51616C11.4456 2.48533 11.4959 2.42105 11.5496 2.29243ZM12.0514 13.3355C11.7353 13.6763 11.429 13.6558 11.0443 13.232C11.4188 13.2304 11.7502 13.1096 12.0514 13.3355ZM11.0812 2.44899C10.9931 2.60361 10.9278 2.71973 10.8402 2.87297C10.7696 2.56522 10.7696 2.56521 11.0812 2.44899ZM6.99018 2.58155C7.03603 2.68577 7.08098 2.78997 7.12638 2.89418L7.04372 2.93594L6.90572 2.62371C6.93387 2.60966 6.96247 2.59562 6.99018 2.58155ZM6.04278 15.3112C5.81734 15.3741 5.6654 15.4164 5.36737 15.4994C5.40685 15.1289 5.43497 14.8626 5.47454 14.4892C5.69887 14.813 5.8531 15.0361 6.04278 15.3112ZM5.41081 4.65121C5.43474 4.64357 5.44664 4.59256 5.46274 4.56411C5.39721 4.22149 4.85578 4.41216 4.9821 3.91027C5.08196 3.9041 5.23395 3.84634 5.30816 3.90148C5.44263 4.00151 5.49453 4.25261 5.73602 4.07857C5.74792 4.06961 5.8565 4.15433 5.85161 4.18174C5.8137 4.44891 5.75087 4.71165 5.66403 4.96617C5.64313 5.01923 5.3626 5.04348 5.28966 4.97623C5.14031 4.83835 5.22977 4.70899 5.41081 4.65121ZM5.04798 21.206C4.94442 21.0056 4.81481 20.8651 4.84279 20.7861C4.90704 20.6065 5.07129 20.571 5.27412 20.6994C5.21252 20.8376 5.15531 20.9647 5.04798 21.206ZM7.21978 24.8934C7.06257 24.8203 6.85093 25.0677 6.66363 24.7034C6.90029 24.7235 7.06298 24.7371 7.22521 24.7507C7.22326 24.7983 7.22174 24.8459 7.21978 24.8934ZM7.79449 26.2855C7.63821 26.2535 7.48237 26.2214 7.32697 26.1894C7.34206 26.1366 7.35714 26.0839 7.37267 26.0311C7.52315 26.063 7.67273 26.0953 7.82322 26.1272C7.81394 26.1801 7.80376 26.2331 7.79449 26.2855ZM7.54575 24.958C7.55446 24.9228 7.5627 24.8885 7.5714 24.8537C7.65822 24.878 7.74503 24.9027 7.8314 24.9269C7.82419 24.957 7.81741 24.9877 7.8102 25.0178C7.72235 24.9977 7.6342 24.9778 7.54575 24.958ZM8.68609 26.4246C8.83659 25.9776 8.83883 25.9773 9.38423 26.3085C9.08278 26.3587 8.89185 26.3905 8.68609 26.4246ZM10.9667 25.2652C10.8653 25.2513 10.7639 25.2368 10.6624 25.2228L10.6698 25.1175L10.9774 25.1273C10.9741 25.173 10.9704 25.2191 10.9667 25.2652ZM13.0103 26.6591C12.9881 26.6526 12.9679 26.6401 12.9517 26.6229C12.9356 26.6056 12.924 26.5843 12.9182 26.5609C12.9177 26.5207 12.9692 26.4471 12.9983 26.4471C13.0389 26.4475 13.0788 26.5015 13.1782 26.578C13.1028 26.6172 13.0549 26.662 13.0103 26.6591ZM54.6163 29.8112C54.7392 29.49 54.7392 29.49 55.1636 29.8739C54.9579 29.8505 54.7909 29.8312 54.6163 29.8112ZM59.4466 27.8327C58.9314 27.8163 58.4163 27.7967 57.901 27.784C56.8807 27.7586 55.8603 27.75 54.8409 27.7092C54.2107 27.6845 53.5832 27.6141 52.9548 27.5624C51.7669 27.4649 50.5792 27.3622 49.3912 27.2684C48.3156 27.1833 47.24 27.0987 46.1633 27.0332C45.7663 27.0089 45.3662 27.0396 44.9675 27.0429C44.8942 27.0476 44.8207 27.0415 44.7491 27.0247C44.0117 26.8607 43.2604 26.7728 42.506 26.7624C41.8992 26.7048 41.2918 26.6369 40.694 26.5212C40.2107 26.4279 39.748 26.3085 39.3158 26.8428C39.2924 26.6369 39.2813 26.5366 39.2642 26.388C38.7302 26.301 38.1871 26.194 37.6387 26.1257C36.1835 25.9449 34.729 25.7445 33.2689 25.6225C32.1016 25.5251 30.9261 25.5448 29.7553 25.488C29.1257 25.4577 28.5001 25.3589 27.8711 25.3211C26.459 25.237 25.0464 25.1665 23.6336 25.1001C22.075 25.0263 20.5153 24.972 18.9564 24.894C17.7307 24.8322 16.5056 24.7554 15.2811 24.6712C14.2613 24.601 13.2436 24.5056 12.224 24.4298C11.745 24.3718 11.2622 24.3528 10.7801 24.3731C10.4725 24.4619 10.155 24.5071 9.83605 24.5076C9.19513 24.4221 8.54689 24.4117 7.90335 24.4765C7.88467 24.479 7.8657 24.4775 7.84764 24.472C7.12971 24.1838 6.35394 24.3096 5.61241 24.1594C5.44431 23.8243 5.28205 23.502 5.1203 23.1778C5.53665 23.3669 5.99669 23.4263 6.44525 23.3488C7.09015 23.3136 7.73661 23.3382 8.37704 23.4223C8.57307 23.4767 8.75805 23.5676 8.9231 23.6905C9.28562 23.8847 9.73944 23.7225 10.0761 24.014C10.0838 24.0197 10.0927 24.0234 10.1021 24.0247C10.1115 24.026 10.121 24.0248 10.1299 24.0213C10.7686 23.6114 11.3286 24.1579 11.9317 24.1785C12.191 24.1877 12.4504 24.2113 12.71 24.2252C13.3226 24.2577 13.9358 24.2833 14.5477 24.3214C15.937 24.4076 17.3263 24.4973 18.7157 24.5907C18.8825 24.5971 19.0487 24.6146 19.2133 24.6429C20.5198 24.8998 21.8439 24.762 23.1586 24.8323C23.9389 24.8734 24.7169 24.9598 25.4973 24.9972C26.8346 25.0621 28.1742 25.0794 29.5105 25.1621C31.088 25.2603 32.6641 25.3898 34.2383 25.536C35.4244 25.6461 36.6046 25.8153 37.7899 25.9357C38.8056 26.0385 39.8253 26.0966 40.8405 26.1984C41.5395 26.2683 42.2344 26.3805 42.9313 26.4718C43.153 26.5003 43.3751 26.5289 43.5974 26.5485C44.3751 26.6167 45.1531 26.6828 45.9315 26.747C47.524 26.8779 49.1168 27.0037 50.7093 27.1365C51.3943 27.1933 52.0785 27.2776 52.7645 27.3214C53.4067 27.3619 54.0517 27.3581 54.6956 27.3874C55.2467 27.4129 55.7964 27.4668 56.3476 27.4913C56.9362 27.517 57.5263 27.5236 58.1157 27.5381C58.5676 27.5576 59.0173 27.6113 59.4616 27.6986C59.457 27.7428 59.4516 27.7875 59.4466 27.8327ZM60.5651 4.62604C60.7459 4.40476 60.9142 4.44048 61.2041 4.68325C60.9456 4.70307 60.8062 4.71778 60.6675 4.72132C60.6429 4.72194 60.618 4.67677 60.5651 4.62604ZM60.744 27.8426L59.9534 27.8175L59.9555 27.7105C60.2201 27.7372 60.4838 27.7633 60.7484 27.7899L60.744 27.8426ZM62.1433 4.84342C62.0459 4.81463 61.952 4.77287 61.8567 4.73434C61.8739 4.6863 61.891 4.63828 61.9077 4.59069C62.0067 4.627 62.1057 4.66283 62.2042 4.69913C62.1874 4.74878 62.1671 4.79702 62.1433 4.84342ZM67.0564 18.7659C66.813 18.6344 66.6404 18.5411 66.4225 18.4234C66.5103 18.3275 66.6283 18.2682 66.7547 18.2565C66.881 18.2448 67.007 18.2815 67.1091 18.3597C67.1514 18.3938 67.0838 18.5804 67.0564 18.7659ZM70.1228 30.1235C70.0966 30.0344 70.0753 29.9585 70.0531 29.8831C70.0341 29.8189 70.0152 29.7553 69.9849 29.6539C70.0484 29.6484 70.1122 29.6513 70.175 29.6627C70.2562 29.6943 70.332 29.7415 70.4397 29.7977C70.3492 29.8911 70.2859 29.9559 70.1228 30.1235ZM69.9692 28.1062C70.3736 28.0953 70.7778 28.0843 71.1818 28.0733L71.182 28.2349C70.9834 28.3101 70.7712 28.3376 70.5612 28.3154C70.3512 28.2931 70.1489 28.2216 69.9692 28.1062ZM76.6595 4.226C77.0832 3.94236 77.0832 3.94235 77.3167 4.38467C77.1127 4.33522 76.9087 4.28623 76.6595 4.226ZM76.4655 26.2119C76.5684 26.0278 76.7271 25.8845 76.9163 25.8048C77.1055 25.7252 77.3146 25.7136 77.5105 25.7719C77.2986 26.3911 76.8273 26.1052 76.4655 26.2119ZM78.3171 5.12183L78.2504 4.87119C78.2784 4.86274 78.3055 4.85425 78.3335 4.84533C78.3577 4.92832 78.3818 5.01177 78.4064 5.0943C78.3762 5.10362 78.3469 5.1125 78.3171 5.12183ZM79.0178 7.55636C78.5575 7.50063 78.7355 7.1592 78.7243 6.97619C78.711 6.76136 78.9087 6.67142 79.2019 6.76902C79.1404 7.03194 79.079 7.29438 79.0178 7.55636M81.1383 8.77661C80.7725 8.50432 80.4512 8.26569 80.1443 8.03686C80.3847 7.89688 80.6939 7.92726 81.2666 8.1991C81.2218 8.40042 81.1821 8.57853 81.1383 8.77661ZM44.4413 1.48991C44.6797 1.46992 44.9173 1.41861 45.156 1.41825C46.0024 1.41572 46.8493 1.42908 47.6955 1.43681C47.9658 1.43885 48.2375 1.4246 48.5052 1.45225C48.7377 1.47646 48.9939 1.64109 49.1894 1.57676C49.4419 1.49322 49.6316 1.71272 49.8535 1.61887C49.9038 1.59758 49.9549 1.57773 50.002 1.55867C50.0599 1.05834 50.0339 0.978099 49.6543 0.969309C49.2671 0.960279 48.8776 1.06749 48.4914 1.05662C47.4185 1.02673 46.3463 0.9609 45.274 0.911417C45.1445 0.905437 44.94 0.858305 44.8973 0.922346C44.7255 1.18222 44.4531 1.11892 44.2399 1.17848C44.1616 1.4189 44.2455 1.50611 44.4413 1.48991ZM43.5537 1.33793C43.6028 1.35276 43.6545 1.35583 43.7049 1.34692C43.7553 1.33801 43.8032 1.31734 43.845 1.28645C43.8722 1.25211 43.8906 1.21105 43.8984 1.1672C43.9061 1.12335 43.9029 1.07819 43.8891 1.03607C43.8138 0.959961 43.7141 0.915701 43.6093 0.91179C43.2483 0.90733 42.8864 0.947215 42.5263 0.931569C42.1612 0.915767 41.7981 0.853783 41.4473 0.813207C41.3459 0.977689 41.2691 1.10277 41.1254 1.33598L43.1603 1.40062C43.262 1.15347 43.3917 1.24729 43.5537 1.33793ZM34.5364 0.439031C34.5936 0.438513 34.6505 0.37726 34.707 0.344019C34.7023 0.310235 34.6966 0.276418 34.6915 0.242153C33.945 0.218438 33.1984 0.185374 32.4516 0.174726C32.0107 0.16866 31.5687 0.197596 31.1276 0.213478C31.1191 0.213675 31.1087 0.243238 31.1046 0.260391C31.1009 0.291182 31.0996 0.322235 31.1008 0.353231C32.2428 0.459525 33.3904 0.488188 34.5364 0.439031ZM56.4959 1.54028C56.8041 1.68553 57.138 1.76227 57.4764 1.76562C57.8148 1.76898 58.1504 1.69889 58.462 1.55978C58.3121 1.46673 58.1477 1.4246 58.0977 1.32211C57.9598 1.03651 57.9784 1.02636 57.6031 1.06582C57.6844 1.1366 57.7354 1.1784 57.784 1.22339C57.8322 1.26883 57.8771 1.3179 58.0126 1.45533L56.4987 1.40724L56.4959 1.54028ZM46.5082 0.519934L46.5044 0.511419L46.5028 0.519764L46.5082 0.519934ZM46.6042 0.689764C46.8058 0.715789 47.0107 0.711076 47.214 0.724077C47.9102 0.767684 48.6109 0.58488 49.3057 0.787265C49.4195 0.829612 49.5426 0.837311 49.6606 0.809475C49.7786 0.78164 49.8868 0.719403 49.9725 0.629997L46.5082 0.519934C46.5397 0.583531 46.566 0.684344 46.6042 0.689764ZM50.8374 1.35772C51.0025 1.42042 51.1606 1.48056 51.2449 1.51266C51.5385 1.4024 51.78 1.31105 52.0215 1.22016C51.4938 0.893689 50.9874 1.02568 50.4059 1.0684C50.5216 1.30938 50.6054 1.48488 50.7429 1.77139C50.7885 1.57245 50.8067 1.49314 50.8374 1.35772ZM46.5044 0.511419L46.4902 0.522643L46.5009 0.522983C46.5025 0.519286 46.5037 0.515405 46.5044 0.511419ZM44.5004 0.628999C45.0912 0.644497 45.6823 0.660942 46.2732 0.659159C46.3456 0.659124 46.4175 0.575454 46.4902 0.522643C45.8042 0.509257 45.1201 0.492657 44.377 0.475123C44.4574 0.577641 44.4781 0.628756 44.5004 0.628999ZM82.3036 14.1581L82.4357 14.1641C82.5468 13.7183 82.6581 13.2724 82.7695 12.8266C82.7319 12.8165 82.6942 12.8069 82.6565 12.7969C82.5389 13.2504 82.4213 13.7042 82.3036 14.1581ZM38.5823 0.374178C38.2492 0.396291 37.9185 0.141012 37.5957 0.385343C37.9286 0.401523 38.2519 0.718232 38.5823 0.374178ZM13.6853 0.812209C13.4003 0.88023 13.1909 0.930577 12.9815 0.980447C13.4042 1.2209 13.4042 1.22089 13.6853 0.812209ZM56.2679 1.41578L55.3955 1.38807C55.3927 1.44824 55.3904 1.50844 55.388 1.56862C55.6439 1.51976 55.899 1.73106 56.2679 1.41578ZM81.9611 15.7107C82.0752 15.6769 82.1191 15.6741 82.1217 15.6616C82.171 15.4338 82.2149 15.2044 82.2597 14.9751C82.2162 14.9658 82.1727 14.9565 82.1301 14.9472C82.0775 15.1842 82.0253 15.4217 81.9611 15.7107ZM8.37575 1.30872C8.25914 1.29381 8.09269 1.27217 7.91823 1.24934C7.95846 1.5024 7.99386 1.72448 8.02924 1.94702L8.02965 1.94845C8.14406 1.7372 8.25801 1.5264 8.37575 1.30872ZM59.8707 2.14781C59.6021 2.13507 59.3337 2.12747 59.065 2.11893C59.0642 2.13011 59.0629 2.14082 59.0617 2.15153C59.3402 2.19214 59.6186 2.23275 59.9247 2.27704C59.8932 2.19943 59.8827 2.14865 59.8707 2.14781ZM22.3344 0.602111C22.0598 0.495757 21.8668 0.423288 21.6115 0.652946C21.875 0.728118 22.0589 0.890454 22.3344 0.602111ZM4.58078 26.2479C4.34486 26.1624 4.15577 26.0943 3.9119 26.0057C4.03553 26.4889 4.25604 26.4543 4.58078 26.2479ZM11.779 1.21785C11.7749 1.16353 11.7704 1.10966 11.7658 1.05533C11.572 1.06506 11.3781 1.07478 11.184 1.0845C11.189 1.15146 11.1949 1.21891 11.1999 1.28587C11.3932 1.26305 11.5863 1.24038 11.779 1.21785ZM36.846 0.424576C36.8386 0.37576 36.8312 0.327407 36.8247 0.278619C36.6451 0.303746 36.4657 0.329035 36.2865 0.354482C36.2921 0.400908 36.2978 0.446874 36.3035 0.492833C36.4843 0.470083 36.6647 0.447312 36.846 0.424576ZM53.3604 1.22019L52.726 1.20003C52.9971 1.50294 53.179 1.27469 53.3604 1.22019ZM71.4866 2.13566C71.4835 2.10567 71.4804 2.07613 71.4769 2.04613L71.1403 2.03543C71.1333 2.05763 71.1264 2.08031 71.1189 2.10297C71.1675 2.13605 71.2211 2.16019 71.2775 2.17434C71.3484 2.17027 71.4186 2.15728 71.4866 2.13566ZM82.8345 12.1467L82.7672 12.1557L82.7577 12.4525C82.7958 12.4509 82.8338 12.4489 82.8719 12.4464C82.8594 12.3465 82.847 12.2466 82.8345 12.1467ZM51.4534 0.718629C51.2882 0.657792 51.1756 0.615444 51.0625 0.573547C51.1144 0.809697 51.2086 0.91172 51.4534 0.718629ZM61.7617 2.32419C61.764 2.36397 61.7663 2.40376 61.769 2.44402C61.8969 2.41492 62.0247 2.38534 62.2282 2.33902L61.7617 2.32419ZM30.308 0.353733C30.3028 0.320869 30.2976 0.288008 30.2928 0.255157C30.1939 0.273503 30.0953 0.291859 29.997 0.310224C30.0015 0.339327 30.0063 0.368906 30.0108 0.398476C30.1096 0.383396 30.2086 0.368483 30.308 0.353733ZM82.0256 16.3803C82.0473 16.3319 82.0864 16.2832 82.0852 16.2355C82.0847 16.1972 82.0353 16.1606 81.9865 16.0945C81.9533 16.1832 81.9149 16.2371 81.9229 16.2812C81.9297 16.3198 81.9891 16.3478 82.0256 16.3803ZM63.1673 1.43272C63.0615 1.41535 62.9554 1.39812 62.849 1.38104C62.8463 1.39637 62.844 1.41263 62.8412 1.42796C62.9399 1.45913 63.0387 1.49015 63.1377 1.52101C63.1471 1.49188 63.1574 1.4623 63.1673 1.43272ZM72.3141 2.12459L71.9565 2.11323L71.9518 2.178C72.0651 2.19701 72.1789 2.21651 72.2923 2.23553L72.3141 2.12459ZM40.1796 0.401557C40.0917 0.383815 40.0042 0.366554 39.9167 0.348827C39.9099 0.381309 39.9026 0.41332 39.8962 0.446283C39.9871 0.468332 40.0781 0.490689 40.1693 0.513352L40.1796 0.401557ZM28.9918 0.216632C28.9961 0.208827 28.954 0.169175 28.9252 0.134625C28.8845 0.162763 28.8433 0.191827 28.8022 0.220417C28.8333 0.255501 28.8648 0.2906 28.8967 0.325719C28.9314 0.292355 28.9633 0.255853 28.9918 0.216632ZM81.5857 22.3652L81.6529 22.3585L81.662 22.0724C81.6199 22.0762 81.5782 22.0796 81.5361 22.0829C81.5528 22.1768 81.569 22.2708 81.5857 22.3652ZM23.4729 0.535983C23.4592 0.503315 23.4464 0.469746 23.4331 0.436626C23.3471 0.473131 23.2619 0.509659 23.1762 0.546645C23.1899 0.580246 23.2036 0.613842 23.2168 0.647895L23.4729 0.535983ZM20.7535 0.5659C20.7487 0.547997 20.743 0.5296 20.7374 0.511201C20.6494 0.537368 20.5611 0.563528 20.4726 0.589677C20.4794 0.614184 20.4871 0.638723 20.4944 0.663245C20.5812 0.630968 20.6671 0.598657 20.7535 0.5659ZM54.7975 1.29293L54.4328 1.28134L54.4404 1.36568C54.5294 1.34749 54.6185 1.32929 54.7975 1.29293ZM74.3172 2.24568L74.2894 2.1509C74.2163 2.17287 74.1423 2.19435 74.0688 2.2163C74.0802 2.25076 74.0912 2.28521 74.1017 2.31964C74.174 2.29485 74.2454 2.27049 74.3172 2.24568Z" fill="#7A75F0"/>
</svg>
