<svg width="404" height="570" viewBox="0 0 404 570" fill="none" xmlns="http://www.w3.org/2000/svg">
<path d="M579.285 179.935C572.531 189.951 566.009 200.432 560.885 211.379C558.089 217.202 552.499 245.153 542.717 242.125C540.62 241.659 536.195 235.37 533.866 233.973C525.015 228.849 518.726 234.206 522.22 217.436C523.151 213.01 527.344 208.817 525.946 203.926C524.439 198.113 520.345 197.076 515.318 198.056C514.68 198.181 513.992 197.689 514.234 197.085C514.271 196.993 514.311 196.887 514.319 196.788C514.362 196.228 514.029 196.192 513.623 196.33C512.785 196.613 512.104 197.241 511.455 197.843C511.417 197.879 511.377 197.915 511.337 197.953C510.162 199.055 508.844 200.021 507.348 200.621C505.607 201.318 503.858 202.063 502.164 202.763C496.017 205.307 491.184 201.906 496.807 198.352C499.91 196.392 503.355 194.789 504.285 194.376C511.505 191.348 519.192 189.252 525.946 185.059C531.769 181.566 539.922 175.51 541.785 168.522C544.347 158.972 536.428 153.149 527.111 156.177C522.452 157.575 518.726 161.767 515.232 165.028C508.244 171.55 501.722 174.811 492.871 176.674C488.679 177.606 488.912 175.51 484.253 177.839C481.924 179.003 480.294 181.333 478.43 182.963C472.374 188.32 446.986 205.091 464.921 184.593C467.483 181.565 472.84 179.469 476.101 177.14C483.322 172.249 490.542 167.124 494.735 159.205C498.927 151.053 499.16 139.174 487.048 139.873C478.43 140.338 472.141 149.189 467.716 155.711C463.29 162.699 461.194 165.96 454.905 172.249C451.219 175.934 444.884 174.677 444.354 169.491C443.637 162.486 445.654 156.156 450.465 150.502C451.226 149.609 451.97 148.697 452.642 147.736C460.148 136.997 469.289 128.274 478.43 118.91C486.582 110.757 496.365 100.509 497.53 88.1639C499.393 67.8997 471.675 52.5269 465.387 76.052C463.756 81.875 465.852 89.0956 464.688 95.1516C461.66 111.456 449.315 124.034 436.737 133.817C434.874 135.214 428.818 140.571 427.187 140.804C413.445 141.503 429.75 119.375 431.147 115.649C432.778 111.223 433.942 105.633 430.215 101.906C425.79 97.2478 420.666 100.043 417.172 104.003C414.377 107.031 413.678 110.292 412.746 114.251C411.86 116.911 411.108 122.54 409.978 128.672C409.263 132.549 407.721 136.241 405.253 139.315C402.946 142.189 400.24 145.131 397.425 147.632C394.639 150.108 390.572 150.494 387.591 148.258C380.836 142.901 380.137 132.652 379.439 124.733C377.342 97.9467 391.783 76.7507 393.181 51.1293C393.647 40.6478 389.454 16.1911 373.616 21.0825C360.805 25.0422 355.448 38.0858 353.817 52.5269C353.817 53.1666 353.497 53.77 353.351 54.3927C350.692 65.6883 353.087 80.3329 351.954 91.8906C351.022 103.77 347.761 138.708 331.457 140.804C330.525 140.804 328.429 137.776 326.798 137.776C320.975 137.31 313.522 136.845 308.165 134.748C291.394 127.761 296.984 108.661 298.382 94.4529C299.313 84.4372 297.45 59.7475 280.68 66.5022C271.363 70.229 269.5 81.642 271.13 90.2601C272.528 97.9466 281.844 110.99 272.528 116.115C268.102 118.444 264.375 114.717 259.717 119.608C257.853 121.472 256.456 124.034 256.223 126.596C255.831 129.34 256.593 131.259 257.539 133.464C257.905 134.318 258.31 135.124 258.794 135.917C261.173 139.812 262.263 144.499 260.884 148.85C258.286 157.042 253.841 162.124 247.55 164.096C243.68 165.309 239.544 165.553 235.491 165.687C208.588 166.577 193.54 139.008 183.551 117.512C182.233 114.546 176.305 117.849 174.069 115.496C167.733 108.829 160.827 102.522 154.669 95.6175C143.805 83.367 136.192 85.8557 129.597 100.842C125.667 109.774 127.612 120.811 136.501 124.733C146.75 129.391 154.203 133.118 161.89 141.736C170.741 151.752 183.551 164.562 189.607 176.441C190.772 178.537 198.458 183.895 191.471 186.457C188.21 187.622 182.387 178.538 181.222 177.14C178.66 173.879 177.262 169.454 173.769 167.124C168.877 163.863 165.151 163.165 160.492 166.426C150.709 173.18 154.669 185.525 162.821 191.814C171.672 198.569 179.359 202.994 187.045 211.379C189.84 214.407 193.101 216.97 195.896 219.998C196.194 220.296 196.826 220.617 197.554 220.933C199.939 221.964 203.38 222.302 201.923 224.452C200.466 226.603 197.497 229.545 195.94 231.625C195.116 232.726 194.098 233.254 192.909 233.21C189.984 233.102 187.324 231.233 184.835 229.693C173.123 222.449 158.844 197.021 146.983 211.379C143.722 215.339 144.188 218.134 146.051 222.327C148.147 227.451 155.368 232.575 159.793 235.138C161.657 236.302 166.315 237.234 167.713 238.864C170.508 242.358 171.207 246.551 164.219 244.454C162.355 243.989 159.793 248.181 159.793 249.812C161.217 264.256 176.68 262.53 188.797 264.656C190.872 265.02 191.351 267.78 190.306 269.61C186.346 276.365 189.374 276.598 194.266 280.091C200.788 284.75 205.213 283.585 198.225 291.272C191.936 298.259 194.965 295.231 185.182 292.902C178.427 291.272 172.138 291.039 165.383 292.203C156.765 293.601 145.119 295.93 138.365 301.52C125.321 312.235 138.83 322.017 151.641 316.66C160.026 313.166 167.946 306.179 177.495 307.576C188.443 309.207 187.977 312.7 183.318 320.154C178.194 328.073 179.825 327.142 171.905 326.676C163.753 326.21 155.601 325.045 149.079 330.868C145.352 334.129 141.393 340.651 145.352 345.309C150.476 351.133 164.918 343.679 169.809 341.583C171.104 341.007 175.066 338.476 178.4 336.845C181.16 335.494 183.364 337.42 183.809 340.461C183.965 341.524 184.306 342.526 184.695 343.528C185.175 344.765 185.384 345.901 185.317 346.935C184.982 352.123 178.785 354.934 174.753 358.215C170.552 361.634 165.604 364.576 161.89 368.136C159.327 370.698 154.436 374.658 154.669 379.083C155.135 387.934 165.151 385.838 170.741 384.207C178.194 381.878 184.483 369.068 194.266 376.288C203.35 383.043 197.527 386.537 192.402 394.689C185.415 406.102 181.222 407.034 170.275 412.857C163.054 416.816 136.501 437.081 149.312 448.494C154.669 453.152 167.48 440.575 170.275 438.245C178.194 431.025 184.949 421.009 195.663 417.515C205.679 414.254 208.241 420.543 216.626 421.009C222.303 421.577 228.799 422.04 227.489 427.593C227.145 429.05 226.559 430.537 225.786 432.031C225.16 433.244 224.315 434.327 223.394 435.335C218.955 440.194 214.631 444.921 213.365 446.398C211.502 448.727 209.639 451.056 207.775 453.152C204.747 456.413 201.952 459.441 200.322 462.003C199.912 462.659 199.415 463.46 198.903 464.364C196.827 468.028 195.202 471.965 193.642 475.876C192.894 477.751 192.243 479.699 191.688 481.697C191.54 482.23 191.404 482.793 191.372 483.344C191.348 483.739 191.636 484.015 191.969 484.228C199.945 489.335 207.656 485.624 213.132 479.007C217.092 474.348 219.188 468.525 221.518 462.935C224.08 456.646 225.477 448.028 229.67 442.671C231.777 439.721 234.838 436.58 238.162 434.111C238.842 433.605 239.651 433.354 240.498 433.354C242.664 433.354 244.496 435.005 244.701 437.161C244.815 438.357 244.929 439.554 245.043 440.807C244.81 446.63 242.481 453.618 240.85 459.208C237.356 471.087 231.533 480.637 226.642 491.584C224.313 496.709 220.586 506.724 228.272 509.519C234.561 511.849 240.384 504.162 242.713 499.504C244.577 496.01 245.276 492.05 245.974 488.324C246.673 485.063 246.673 481.569 247.372 478.075C248.266 472.263 251.658 466.857 256.955 464.305C264.08 460.871 266.849 462.465 265.262 469.18C265.145 469.672 264.977 470.271 265.314 470.648C265.553 470.915 265.959 470.887 266.309 470.962C276.832 473.21 273.2 481.011 271.596 489.488C271.13 491.584 272.527 491.352 273.925 490.42C279.629 486.769 281.981 483.119 287.985 485.379C288.067 485.41 288.235 485.628 288.296 485.691C288.318 485.713 288.359 485.78 288.347 485.81L285.555 492.872C284.92 494.479 285.692 496.308 287.414 496.44C288.014 496.485 288.635 496.303 289.141 495.978L294.124 492.775C294.588 492.476 295.43 492.635 295.742 493.09C295.898 493.316 295.943 493.31 296.213 493.359C297.802 493.652 299.816 490.813 300.245 489.954C304.74 480.274 309.673 480.694 312.004 491.109C312.6 493.773 313.991 496.027 317.016 497.408C318.646 498.106 320.975 495.544 321.441 494.147C328.15 477.198 333.195 469.941 330.473 487.964C329.888 491.836 329.36 495.178 329.36 497.174C329.36 502.299 330.292 509.752 336.814 510.684C345.665 511.849 348.227 499.97 348.693 494.147C349.159 488.323 344.267 465.497 358.709 469.224C363.134 470.389 366.861 480.637 368.025 484.131C372.218 497.175 367.56 510.917 366.395 523.961C364.997 539.566 370.122 568.216 390.386 569.613C399.703 570.312 406.69 562.393 407.389 553.542C408.321 543.992 402.731 537.47 397.141 530.482C387.824 518.603 383.864 510.218 381.768 495.544C381.096 491.011 379.819 485.872 379.246 481.001C378.822 477.393 377.836 473.74 378.132 470.118C378.218 469.062 378.472 468.053 378.898 467.09C380.988 462.358 384.064 455.776 388.458 453.046C392.961 450.248 396.715 457.438 401.955 458.245C403.389 458.466 405.028 458.249 407.389 457.112C410.65 455.481 413.911 451.755 415.075 448.494C416.268 445.086 421.806 439.814 425.333 440.588C426.084 440.753 426.857 440.903 427.653 441.04C429.517 441.273 431.38 438.245 431.846 436.848C433.942 430.093 430.914 426.832 424.858 423.338C424.347 423.119 423.841 422.905 423.339 422.696C418.989 420.88 417.05 415.867 419.305 411.728C420.434 409.656 422.601 408.025 424.719 409.065C428.162 410.755 431.583 414.984 433.476 417.05C439.299 422.873 443.725 430.559 448.616 437.081C453.973 444.534 460.961 458.51 471.676 458.51C477.731 458.51 483.322 454.317 484.952 448.494C486.35 442.671 483.089 437.547 479.362 433.354C473.042 426.105 450.109 411.439 444.181 399.537C441.672 394.501 446.258 389.858 451.295 387.354C453.983 386.018 456.345 384.135 458.78 382.38C464.404 378.327 470.056 378.626 475.868 383.276C490.309 394.922 478.896 387.934 481.225 390.729C484.253 394.223 487.048 398.649 492.405 398.416C496.365 398.183 500.558 394.456 501.489 390.729C503.08 385.049 498.464 382.028 496.507 377.559C496.409 377.335 496.306 377.125 496.176 376.917C494.585 374.37 496.283 371.141 499.277 370.918C499.797 370.879 500.315 370.84 500.828 370.802C501.719 370.734 502.64 370.866 503.355 371.402C507.062 374.181 507.09 380.107 509.642 383.509C513.368 388.4 515.465 391.428 521.521 392.826C527.577 394.223 534.099 392.36 540.387 393.99C548.307 395.854 554.829 400.512 560.186 406.335C566.475 413.323 572.996 426.366 584.875 421.242C596.056 416.351 593.959 402.375 588.369 393.99C579.052 379.549 563.447 372.328 548.54 365.108C540.853 361.381 531.536 357.189 527.81 348.803C524.782 342.049 525.015 330.635 537.359 330.403C542.018 330.403 548.307 336.226 552.499 338.089C564.844 343.213 583.245 331.8 571.133 318.523C566.242 313.166 559.953 313.632 553.431 313.632C552.266 313.632 545.745 314.797 544.347 313.632C527.81 302.685 544.813 300.822 547.142 295.93C551.193 287.828 559.559 280.27 568.445 278.507C578.486 276.515 588.331 274.206 594.192 264.951C600.248 255.635 597.22 234.905 585.574 230.712C580.916 229.082 578.587 230.945 574.627 232.342C570.434 233.74 568.804 239.33 570.201 231.178C571.133 225.122 579.984 216.038 583.245 210.914C589.767 200.665 600.248 189.485 604.208 177.839C605.373 174.345 607.702 170.385 604.907 166.891C595.59 154.78 583.245 174.112 579.285 179.935Z" fill="#7A75F0"/>
<path d="M30.0559 305.014C21.9036 307.809 13.5184 316.66 16.7793 325.744C19.3223 332.591 25.6437 334.344 31.4667 332.661C33.6392 332.033 36.2093 331.815 37.9752 330.403C41.4691 327.84 43.7983 322.949 44.9629 318.989C48.2238 308.508 40.3045 301.52 30.0559 305.014Z" fill="#7A75F0"/>
<path d="M4.9004 369.533C1.17365 375.356 -3.71766 389.564 5.59921 393.058C9.01954 394.293 12.2073 393.63 14.9729 391.905C23.3419 386.685 29.8253 374.836 24.9317 366.272C19.5745 357.188 9.32592 362.778 4.9004 369.533Z" fill="#7A75F0"/>
<path d="M56.609 261.691C53.1152 264.486 49.1555 269.843 51.4847 274.501C53.8139 278.927 59.4041 280.091 63.3637 277.762C64.0574 277.415 64.6649 276.895 65.2269 276.36C65.3184 276.274 65.3976 276.194 65.46 276.132C68.9538 272.638 71.2831 267.281 68.2551 262.622C65.693 257.964 60.1028 258.896 56.609 261.691Z" fill="#7A75F0"/>
<path d="M110.414 325.511C98.7679 324.579 87.5876 330.17 80.8329 339.719C79.4354 341.583 79.4354 344.844 82.4634 344.378C90.3726 342.881 97.6934 339.816 104.065 335.18C105.177 334.372 106.471 334.019 107.63 333.281C107.873 333.126 108.184 332.859 108.404 332.672C108.61 332.498 108.829 332.335 109.05 332.176C109.988 331.5 110.983 330.827 111.61 329.856C112.729 328.125 112.768 325.692 110.414 325.511Z" fill="#7A75F0"/>
</svg>
