<svg width="274" height="71" viewBox="0 0 274 71" fill="none" xmlns="http://www.w3.org/2000/svg">
<path opacity="0.5" d="M266.034 40.4716C265.636 40.8448 265.194 41.1686 264.717 41.436C264.561 40.8763 264.326 40.342 264.017 39.8496C263.555 39.3517 262.734 38.5292 262.411 38.6653C260.889 39.3083 259.909 38.0358 258.65 37.8624C259.027 37.7263 259.404 37.5897 259.782 37.4527C259.768 37.366 259.758 37.2777 259.744 37.1895H257.353C257.532 37.4571 257.632 37.6067 257.891 37.9925C257.149 37.8893 256.434 37.9476 256.359 37.7562C255.781 36.2789 254.939 37.1401 254.407 37.4302C253.904 37.0474 253.593 36.6258 253.225 36.569C252.183 36.4045 251.115 36.4299 250.067 36.3013C249.67 36.1711 249.295 35.981 248.955 35.7376C249.324 35.3398 249.817 35.0779 250.353 34.9943C250.889 34.9107 251.438 35.0103 251.911 35.277C252.337 35.5208 252.972 35.8991 253.286 35.748C254.783 35.0303 256.03 35.9753 257.382 36.1697C257.971 36.3494 258.596 36.3746 259.198 36.243C260.941 35.4266 262.698 36.3177 264.429 36.0306C264.737 36.0061 265.047 36.0247 265.35 36.086C267.064 36.3028 268.778 36.5405 270.494 36.7319C270.818 36.7069 271.136 36.6307 271.436 36.5061V34.8868C270.404 34.2035 269.068 34.3784 268.287 33.8834C267.031 33.088 266.025 34.4487 264.854 33.6995C264.915 32.3359 264.981 30.8914 265.044 29.5098C263.845 28.9102 263.378 29.6145 263.049 30.4309C261.574 30.1184 260.914 30.4458 260.079 31.8903C259.606 31.826 259.099 31.7572 258.481 31.6719C259.017 30.8361 259.436 30.1827 259.746 29.6982C259.168 29.3229 258.257 28.8519 258.298 28.7382C258.581 27.9757 257.941 27.9816 257.631 27.6706C256.693 26.7211 255.498 26.9589 254.368 26.8721C254.03 27.9861 254.03 27.9861 252.776 28.4018C252.857 27.2519 251.255 26.7779 251.951 25.344C250.087 26.3039 248.547 25.9884 248.116 24.4962C248.049 24.1717 247.88 23.8772 247.633 23.6568C247.385 23.4364 247.073 23.3018 246.743 23.273C245.172 22.9007 243.596 22.5343 242.036 22.1142C240.418 21.6776 238.813 21.1946 237.211 20.6997C236.324 20.426 235.457 20.0851 234.582 19.7741C235.632 19.4481 236.617 19.1341 237.515 19.81C237.54 18.9622 236.942 18.868 236.292 18.7424C233.326 18.1697 230.37 17.5521 227.404 16.9854C226.92 16.9712 226.437 17.0134 225.963 17.111C227.025 18.243 228.261 17.7779 229.249 18.1547C230.296 18.5037 231.361 18.7971 232.439 19.0339C232.404 19.167 232.371 19.3001 232.337 19.4317C229.327 18.7469 226.238 18.4358 223.249 17.6358C223.263 17.5058 223.275 17.3742 223.285 17.2426L224.942 17.0901C224.945 16.963 224.95 16.8359 224.953 16.7088C223.882 16.5727 222.799 16.4994 221.742 16.2886C217.838 15.5096 213.942 14.6797 210.042 13.8782C208.943 13.651 207.845 13.4252 206.737 13.2503C203.309 12.712 199.878 12.1861 196.445 11.6727C195.194 11.3362 193.9 11.1865 192.605 11.2286C191.57 11.3457 190.522 11.2443 189.529 10.9311C187.671 10.4915 185.809 10.004 183.922 9.74832C179.753 9.18161 175.564 8.75996 171.387 8.25606C168.451 7.90168 165.518 7.52435 162.587 7.12411C161.791 7.01645 160.922 6.51107 160.235 6.70694C158.701 7.14655 157.2 6.43329 155.706 6.83252C155.483 6.89233 155.083 6.89981 155 6.77421C154.625 6.21348 154.286 6.35557 153.762 6.58584C153.349 6.73306 152.908 6.77945 152.474 6.72118C152.04 6.66291 151.626 6.50167 151.267 6.2509C150.759 5.84998 150.151 5.59654 149.509 5.51846C148.866 5.44038 148.215 5.54066 147.626 5.80827C147.418 5.92191 147.059 5.75145 146.77 5.71107C146.285 5.6408 145.737 5.39112 145.329 5.53617C144.01 5.9132 142.595 5.75183 141.395 5.08756C140.601 4.75112 139.845 4.43711 139.076 5.2281C138.895 5.41501 138.375 5.34028 138.03 5.28346C137.679 5.22514 137.352 4.92758 137.015 4.92908C135.456 4.92884 133.919 4.56313 132.528 3.86143C132.207 3.61767 131.813 3.48983 131.41 3.49879C131.008 3.50775 130.62 3.65302 130.31 3.9108C129.959 4.10632 129.565 4.21289 129.163 4.22123C128.761 4.22958 128.363 4.1394 128.004 3.95862C126.072 2.67269 123.712 3.44279 121.76 2.43648C121.549 2.32882 121.188 2.52764 120.893 2.55904C120.532 2.61611 120.165 2.63917 119.799 2.62786C117.707 2.44992 115.612 2.2884 113.529 2.0372C112.689 1.93552 111.981 1.9729 111.668 2.52765C110.604 2.31383 109.771 2.07162 108.921 1.99088C107.367 1.84434 105.805 1.02044 104.242 2.05367C103.86 2.30679 103.394 2.40067 102.943 2.31532C102.089 2.00605 101.256 1.64298 100.448 1.22828C100.132 1.5064 99.8197 1.78301 99.4605 2.103C99.3692 1.55274 99.2973 1.12211 99.233 0.731849C98.3709 0.85147 97.6406 0.924751 96.9237 1.06232C96.3194 1.15639 95.7275 1.31787 95.1592 1.54378C93.6028 2.23609 93.1179 2.06113 92.4159 0.304186C92.2133 0.618267 91.9442 0.88417 91.6276 1.08312C91.311 1.28208 90.9546 1.40924 90.5835 1.45571C90.2124 1.50218 89.8356 1.46681 89.4796 1.35208C89.1237 1.23734 88.7972 1.04607 88.5233 0.791672C87.3349 1.32548 86.3637 1.7591 85.346 2.21516C85.0781 1.68285 84.8775 1.28212 84.6755 0.881385C84.3792 1.33296 84.0828 1.78302 83.8673 2.11048C83.1355 1.76807 82.3647 1.09971 81.9651 1.27615C81.4678 1.48601 80.9203 1.54766 80.3887 1.45375C79.8571 1.35983 79.364 1.11435 78.9689 0.746816C76.8138 1.11465 74.9161 2.65776 73.1142 0.500084C72.975 0.373836 72.7948 0.302126 72.6069 0.298208C70.8708 0.193539 69.1332 0.0185973 67.3971 0.0410263C65.7838 0.0634553 64.175 0.316143 62.5631 0.438755C61.021 0.673247 59.4592 0.753398 57.9012 0.678003C56.3387 0.477637 54.878 1.90117 53.3335 0.824573C53.2747 0.804124 53.2115 0.799154 53.1502 0.810153C53.0889 0.821153 53.0314 0.847738 52.9833 0.887363C51.9851 2.05218 51.0123 1.21932 49.9527 0.805134C49.7028 1.21932 49.4544 1.6305 49.1071 2.20768C48.2256 1.49593 47.1286 2.78784 46.0361 1.66639C45.2848 0.896328 43.7163 1.91012 42.757 0.873901C42.8573 1.18641 42.9546 1.49744 43.0878 1.9191H40.5256C40.1499 1.52136 39.7294 1.07578 39.2729 0.592808C38.6608 0.74383 38.0801 0.88588 37.4845 1.03092C37.6476 1.43913 37.7748 1.75313 37.941 2.16433H36.1735C35.9056 1.6993 35.6466 1.24621 35.3563 0.743804C35.0874 0.813411 34.8299 0.921153 34.5915 1.06378C33.6921 1.86524 32.8584 2.2944 31.6851 1.37631C31.3904 1.21878 31.0647 1.1275 30.731 1.10891C30.3973 1.09031 30.0635 1.14485 29.753 1.26866C28.8825 1.52917 27.9766 1.65174 27.0681 1.63199C25.2497 1.8159 23.0332 1.04583 21.9482 3.49359C21.3544 2.92393 20.5683 2.59758 19.7453 2.57903C18.9222 2.56048 18.1222 2.8511 17.5033 3.39343C17.3012 3.56239 16.8088 3.69396 16.6697 3.57883C15.417 2.53214 14.3035 3.46966 13.2275 3.8674C12.9832 4.02387 12.7766 4.23239 12.6224 4.47796C12.4682 4.72353 12.3702 5.00011 12.3355 5.28793C12.3623 5.92086 12.4943 6.54495 12.7261 7.13461C14.6387 6.67556 16.5664 6.21352 18.7425 5.69017C18.7515 6.41837 18.7604 7.11068 18.7709 7.80449C18.0226 7.90616 17.2698 8.00631 16.4556 8.11547C16.0411 9.44775 15.866 9.70942 14.4606 9.42383C12.3325 8.99319 10.9362 10.475 9.22704 11.1329C9.10133 11.1808 9.06092 11.4455 8.93072 11.7086C9.27943 11.8447 9.87058 12.06 9.86459 12.078C9.44704 13.3474 10.6772 13.316 11.2938 13.7302C11.2235 14.0622 11.2505 14.3612 11.1113 14.5197C9.77395 16.1539 8.90961 18.1224 8.61192 20.2122C8.55145 20.7334 8.38658 21.2372 8.12715 21.6934C7.86772 22.1496 7.51902 22.549 7.10184 22.8678C5.37026 24.1492 5.33285 26.2172 4.92128 28.2613C5.48101 27.9876 5.82074 27.8216 6.15897 27.6571L6.41789 27.9368C6.09612 28.345 5.53639 28.7293 5.49598 29.1614C5.34632 30.7434 4.09965 31.0454 3.00563 31.5762C2.81441 31.6484 2.63956 31.7581 2.49135 31.8987C2.34314 32.0394 2.22457 32.2082 2.14259 32.3953C2.06061 32.5824 2.01689 32.7839 2.01398 32.9881C2.01106 33.1923 2.04904 33.3951 2.12565 33.5844C2.86497 33.5081 3.60128 33.4304 4.72822 33.3108C4.06073 33.9118 3.68059 34.2528 3.32141 34.5773C3.84522 35.8183 5.08293 35.5238 6.10361 36.1309C5.29245 37.7906 4.4798 39.4533 3.62075 41.2133C3.93354 41.3718 4.28522 41.5527 4.61148 41.7172C4.11162 43.8704 3.61326 46.0166 3.11638 48.1558C2.99216 48.1528 2.82156 48.1124 2.79462 48.1573C2.21992 49.1337 2.18397 50.4256 0.726277 51.0536C1.44914 51.2734 1.84724 51.396 2.28125 51.5276C2.2154 51.7639 2.17948 51.9388 2.11962 52.1033C1.76792 53.0707 1.37583 54.0232 1.06604 55.0041C0.887941 55.5648 0.917884 56.1974 0.712849 56.7431C0.332711 57.7495 0.414985 58.364 1.36533 58.666C2.25646 58.898 3.17431 59.0116 4.09515 59.004C4.86625 58.9938 5.63622 58.9409 6.40145 58.8454C5.94648 60.4962 5.57531 61.8495 5.2266 63.1145C5.45154 63.616 5.81 64.0461 6.26287 64.3581C6.71574 64.67 7.24564 64.8517 7.79479 64.8833C8.8918 65.0344 9.98731 65.1854 11.0768 65.3753C11.3752 65.4303 11.6548 65.5599 11.8895 65.7521C13.2529 66.896 13.5088 66.887 14.7854 65.6176C16.1009 65.9495 17.3596 66.268 18.6182 66.5849C18.6033 66.6941 18.5883 66.8033 18.5718 66.9139C18.2605 67.0485 17.9492 67.1861 17.4209 67.4178C18.4057 67.7378 19.1106 67.9666 19.8141 68.1954L19.7661 68.2447H19.8395L19.835 68.2372C21.8838 68.0159 23.9327 67.7931 26.01 67.5674C25.8888 67.2055 25.7765 66.872 25.6643 66.5401C25.7466 66.4728 25.8319 66.4055 25.9157 66.3383C26.8406 66.9169 27.764 67.4941 28.6994 68.0802C28.5392 68.1714 28.3851 68.2612 28.0125 68.4765C28.8549 68.5567 29.7037 68.5432 30.5432 68.4361C31.1793 68.2716 31.6791 68.0234 32.2089 68.6185C32.3331 68.7591 32.6594 68.7396 32.8974 68.7531C35.2425 68.8862 37.5892 69.0297 39.9389 69.1359C43.7388 69.3079 47.5387 69.4724 51.34 69.6069C54.646 69.7251 57.9536 69.8267 61.2611 69.8641C61.9346 69.8716 62.8145 69.2137 63.2485 69.4649C64.5865 70.2409 65.9514 69.7953 67.2864 69.8716C69.5283 69.9987 71.7793 70.0166 74.0272 70.0391C76.0468 69.8687 78.0763 69.8492 80.0989 69.9807C80.4271 70.0616 80.774 70.0109 81.0654 69.8397C81.3568 69.6684 81.5696 69.3901 81.6584 69.0641H84.7009C84.8521 69.3153 85.0631 69.6637 85.2397 69.9568C89.2207 69.9568 93.0924 69.9688 96.9641 69.9508C98.338 69.9433 98.3351 69.909 99.2435 68.7606C99.3508 68.6483 99.4691 68.5471 99.5967 68.4585C99.1297 68.1266 98.7301 67.8425 98.0252 67.3416H101.014C100.821 67.7782 100.68 68.0982 100.492 68.5244C101.026 68.7232 101.506 68.9011 102.065 69.106C101.768 69.3452 101.562 69.5097 100.977 69.9777C104.292 69.8506 107.189 69.7415 110.088 69.6308L110.104 69.3946C109.393 69.3497 108.683 69.3064 107.949 69.2615C107.668 67.6945 109.051 68.8473 109.486 68.1251C109.528 67.9397 109.613 67.5404 109.724 67.0455H112.91C113.098 67.7647 113.249 68.3479 113.398 68.9191C112.979 69.0686 112.684 69.1748 112.391 69.2809C112.411 69.4065 112.43 69.5322 112.451 69.6578C117.595 69.5366 122.739 69.417 127.791 69.2989C127.835 68.4271 127.869 67.7602 127.902 67.0889C128.541 66.7456 129.258 66.5726 129.983 66.5865C130.708 66.6003 131.418 66.8007 132.043 67.1681C130.472 67.1233 130.523 68.2971 130.071 69.1598C132.305 69.1598 134.478 69.1643 136.65 69.1508C136.885 69.1493 137.302 69.0671 137.328 68.9579C137.618 67.5913 138.965 68.0788 139.614 67.4283C140.463 68.4526 139.33 68.4107 139.073 68.792H147.967C147.672 68.3344 147.551 68.1445 147.508 68.0788C147.802 67.6048 148.09 67.201 148.32 66.7659C148.594 66.2455 149.435 66.1678 149.467 66.6702C149.516 67.4238 149.908 67.3416 150.366 67.53C150.73 67.6795 150.95 68.1804 151.278 68.5827C151.795 68.5303 152.364 68.472 153.281 68.3793C152.509 68.0922 152.107 67.9412 151.601 67.7528C152.3 67.2145 152.84 66.7958 153.443 66.3323C153.777 66.9035 153.88 67.4836 154.726 67.4059C156.195 67.2683 157.686 67.355 159.169 67.3251C160.006 67.3072 160.965 67.5808 161.326 66.3637C161.384 66.1633 161.942 66.0138 162.275 66.0063C163.012 65.9883 163.753 66.0781 164.548 66.1259C164.846 66.5955 165.169 67.1038 165.585 67.7558C166.64 66.419 167.513 65.8059 168.726 66.2934C168.917 66.6837 169.098 67.0545 169.267 67.3984C169.893 67.2476 170.534 67.1639 171.178 67.1487C172.621 67.2713 174.051 67.5255 175.49 67.6975C176.108 67.7722 176.733 67.7782 177.354 67.8141C177.357 67.7005 177.359 67.5868 177.362 67.4717C176.711 67.4193 176.06 67.367 175.273 67.3027C176.558 66.8691 177.95 67.5031 179.034 66.4669C178.441 65.6983 177.818 66.1498 177.247 66.1678C176.618 66.1872 175.988 66.1723 175.359 66.1723C175.358 66.0198 175.358 65.8672 175.358 65.7162C177.01 65.6564 178.67 65.6803 180.312 65.5129C181.924 65.3499 183.696 65.6744 184.98 64.1806C185.186 63.9399 185.824 64.0684 186.262 64.0265L186.494 64.4901C186.22 64.6172 185.943 64.7458 185.535 64.9342C187.38 64.9342 189.023 64.9746 190.665 64.9252C192.832 64.8609 194.998 64.6934 197.167 64.6321C199.447 64.5663 201.805 64.9238 203.716 63.1818C203.931 63.0551 204.178 62.9924 204.428 63.0008C207.765 62.6898 211.104 62.3683 214.446 62.0902C216.432 61.9272 218.423 61.845 220.413 61.7074C220.683 61.6593 220.947 61.5842 221.202 61.4831C221.192 61.3575 221.183 61.2319 221.172 61.1078C219.978 61.1078 218.782 61.0988 217.585 61.1108C216.402 61.1213 215.22 61.1482 214.038 61.1751C212.804 61.3094 211.561 61.3214 210.325 61.211C209.169 61.0001 207.896 61.9631 206.7 60.8491C207.255 60.6099 207.939 60.5157 208.027 60.2361C208.316 59.324 208.942 59.5587 209.537 59.5931C212.146 59.7516 214.651 58.9411 217.227 58.7737C217.384 58.7647 217.531 58.5868 217.903 58.343C217.549 57.6597 217.2 56.9823 216.842 56.287C216.346 56.7311 216.048 56.9988 215.718 57.2934C215.513 57.0571 215.335 56.9405 215.293 56.785C215.236 56.5086 215.202 56.2281 215.19 55.9461C216.654 55.034 218.641 56.1555 219.955 54.3238C218.83 53.8782 217.799 53.5313 216.823 53.0707C215.687 52.5339 215.196 54.089 214.074 53.7989C214.178 53.452 214.274 53.129 214.407 52.6849C213.935 52.683 213.478 52.5197 213.111 52.2221C212.745 51.9245 212.491 51.5106 212.393 51.0491L212.399 51.0521L212.402 51.0536L212.396 51.0506C212.142 50.7232 211.886 50.3987 211.561 49.98C212.065 49.7453 212.444 49.5673 212.817 49.3924C212.896 48.9139 212.971 48.4503 213.059 47.9076C214.081 47.9076 215.009 47.8478 215.926 47.9196C218.267 48.105 220.603 48.3831 222.946 48.5475C223.57 48.5939 224.296 48.6687 224.673 47.8119C224.782 47.5651 225.433 47.447 225.833 47.4575C228.009 47.5113 230.185 47.6908 232.361 47.7042C236.65 47.7311 240.939 47.6848 245.232 47.6549C246.643 47.6444 248.056 47.5921 249.468 47.5442C250.832 47.4994 252.194 47.4455 253.554 47.3738C254.05 47.3483 254.539 47.2198 255.033 47.2078C257.273 47.1555 259.515 47.1285 261.756 47.0822C261.853 47.0807 261.949 46.9641 262.046 46.8998C261.968 46.6785 261.889 46.4602 261.829 46.2927C264.705 45.3596 267.562 44.4356 270.547 43.4696C269.975 42.091 271.412 41.8966 272.01 41.1983C270.663 40.7362 269.474 40.2383 268.234 39.9363C267.857 39.7906 267.444 39.7638 267.05 39.8594C266.657 39.9551 266.303 40.1688 266.034 40.4716ZM2.70482 50.1041C2.86496 49.3924 3.00412 48.7883 3.13282 48.1932C3.33636 48.093 3.53994 47.9883 3.82879 47.8448C3.71804 48.7479 3.83626 49.6286 2.70482 50.1041ZM6.04077 41.5452C5.92104 41.4376 5.80128 41.3329 5.68155 41.2267C5.86264 41.0398 6.04224 40.8499 6.2368 40.6779C6.24428 40.672 6.48223 40.8739 6.46726 40.9008C6.3368 41.1231 6.19445 41.3382 6.04077 41.5452ZM13.1002 16.9406C13.1197 16.6116 13.1332 16.2826 13.1721 15.9552C13.272 15.9317 13.375 15.9236 13.4774 15.9313C13.5358 16.2632 13.5747 16.5981 13.6181 16.9346C13.446 16.9361 13.2723 16.9391 13.1002 16.9406ZM14.2227 11.2645C14.2017 10.9759 14.1673 10.6889 14.1748 10.4018C14.1763 10.3554 14.3589 10.315 14.4577 10.2732C14.534 10.5618 14.6118 10.8488 14.6896 11.1389C14.534 11.1808 14.3783 11.2212 14.2227 11.2645ZM18.0974 9.5913C18.1812 10.4122 18.3893 11.2854 17.0438 11.571C16.7385 10.3987 17.3551 9.96063 18.0974 9.5913ZM15.5352 13.6928C15.9056 13.3305 16.3663 13.0739 16.8696 12.9498C17.3728 12.8257 17.9002 12.8386 18.3967 12.9871C17.7412 14.451 16.6861 13.4282 15.5352 13.6928ZM21.4019 66.4265H23.1559C22.475 66.8511 22.0859 67.1891 21.4019 66.4265ZM27.981 5.90401C27.8687 7.46208 26.8631 7.6355 25.5939 7.80745C23.7172 8.06314 21.8808 8.59548 20.0161 8.94538C19.3153 9.00814 18.6106 9.01413 17.9089 8.96331C18.3309 8.42202 18.5718 8.1155 18.8113 7.81046C19.7482 7.2916 19.0164 6.17762 19.627 5.51522C22.4032 4.42816 23.9282 4.52536 24.672 5.96082C25.2034 5.53767 25.785 5.18158 26.4036 4.90065C27.2325 4.73647 28.0758 4.65534 28.9209 4.65843C28.436 5.28047 28.0049 5.57804 27.981 5.90401ZM74.521 67.6705C74.3923 67.4612 74.2142 67.2863 74.2486 67.2025C74.3205 67.0336 74.509 66.9154 74.6497 66.7749C74.7186 66.9169 74.8518 67.0679 74.8383 67.2055C74.8248 67.3431 74.6677 67.4672 74.521 67.6705ZM81.9861 68.2417C81.6015 68.158 81.2159 68.0738 80.8292 67.989L80.9085 67.5689L82.031 67.7916C82.016 67.9427 82.0011 68.0922 81.9861 68.2417ZM83.9916 68.3778C85.0706 67.0694 85.8459 66.9139 86.9279 67.7827C86.0247 68.2534 85.0069 68.4596 83.9916 68.3778ZM87.0087 67.7947C87.5071 67.5719 88.0114 67.3446 88.7523 67.0096C88.2165 68.1685 88.1985 68.1894 87.0087 67.7947ZM90.846 67.7767C90.8325 67.6706 90.8176 67.5673 90.8026 67.4627H92.7437L92.7527 67.7767H90.846ZM93.2421 67.8216C95.3284 66.8885 95.3284 66.8885 95.9405 67.8724C95.0231 67.8575 94.2059 68.5782 93.2421 67.8216ZM105.172 7.27365H97.8726C98.332 6.78769 98.4937 6.64562 98.6209 6.47815C98.7571 6.29273 98.8648 6.08493 99.0579 5.76793C98.7376 5.64681 98.5086 5.47183 98.3186 5.50473C97.6975 5.61388 97.0914 5.80083 96.3401 5.99372C96.385 6.18063 96.4733 6.56341 96.6304 7.2303C95.5813 7.04339 94.6668 6.87442 93.7509 6.71443C93.3334 6.64116 92.853 6.41387 92.5117 6.54545C92.1529 6.73279 91.7445 6.80336 91.3436 6.74733C90.9427 6.69129 90.5694 6.51143 90.2758 6.23292C90.0304 6.0176 89.3075 6.1537 88.9049 6.34659C87.2661 7.13011 85.7216 7.73719 84.3148 5.89502C84.0918 5.60344 83.4139 5.65877 82.896 5.54214C82.7224 6.04904 82.5862 6.44825 82.4111 6.96262H70.3215C70.6403 6.25087 70.8588 5.76643 71.1581 5.09655C68.2532 5.77689 65.4022 4.5687 62.5197 5.44194C62.4568 5.97575 62.4015 6.4408 62.3431 6.94022C62.1231 6.95517 61.9151 7.03292 61.7759 6.96563C61.2744 6.7355 60.7911 6.46756 60.3302 6.16415C60.058 5.94954 59.7138 5.84742 59.3685 5.87886C59.0233 5.9103 58.7032 6.0729 58.4744 6.33313C57.1693 7.48448 57.1649 7.48 56.3313 5.86211C56.1591 6.28378 56.0364 6.58133 55.9077 6.89235C55.4093 6.53647 54.908 6.17759 54.4066 5.82022L54.1567 6.03109C54.3063 6.29426 54.4575 6.5559 54.67 6.92972C50.4585 7.29606 46.277 7.07327 42.097 7.12411C37.9948 7.17196 33.9016 7.05086 29.4642 7.32001C30.0179 6.23744 30.3471 5.59146 30.621 5.05466C32.2448 4.84981 33.71 4.60461 35.1842 4.49845C35.9729 4.44312 36.808 4.79747 37.5758 4.67486C40.096 4.34794 42.6475 4.3409 45.1696 4.65392C46.0994 4.64345 47.0251 4.52863 47.9293 4.31154C48.1591 4.23968 48.3979 4.20088 48.6387 4.19637C52.6631 4.91858 56.7114 4.313 60.7448 4.42964C63.7305 4.51636 66.7222 4.4207 69.7094 4.40874C71.3901 4.40276 73.0708 4.39525 74.7515 4.40422C77.372 4.41768 80.0016 4.59264 82.6087 4.42667C85.3879 4.24724 88.1461 4.70924 90.9103 4.46701C92.368 4.33842 93.8048 5.04419 95.3254 4.30105C95.9225 4.00947 96.9402 4.71225 97.7768 4.76608C100.439 4.93953 103.109 5.00833 105.773 5.14889C106.245 5.20986 106.711 5.30934 107.167 5.44641L107.179 5.95032H103.995C103.932 7.05233 105.625 5.7724 105.172 7.27365ZM106.572 7.39179C106.563 7.2931 106.556 7.19589 106.548 7.0987C106.858 7.0344 107.168 6.96913 107.478 6.90284C107.493 7.06433 107.511 7.22881 107.527 7.39179H106.572ZM108.198 5.70811C108.687 5.64979 109.045 5.60792 109.385 5.56605C109.709 6.20753 110.01 6.80115 110.312 7.39626C108.573 7.61457 108.461 7.53533 108.198 5.70811ZM112.198 5.45093C113.294 5.60195 113.294 5.60192 113.674 7.42615C113.271 7.26209 112.921 6.99147 112.661 6.64343C112.401 6.29538 112.241 5.88311 112.198 5.45093ZM114.682 69.3632C114.421 69.1359 114.254 68.9894 114.09 68.8458C114.235 68.6903 114.374 68.4212 114.531 68.4107C114.64 68.4193 114.744 68.4549 114.835 68.5142C114.926 68.5735 115.001 68.6546 115.052 68.7501C115.097 68.8668 114.855 69.094 114.682 69.3632ZM115.401 7.62054C115.133 7.49793 114.864 7.37384 114.596 7.24974C114.65 7.14507 114.726 6.94022 114.753 6.9477C115.02 7.0181 115.284 7.10194 115.543 7.1989C115.497 7.33946 115.449 7.47999 115.401 7.62054ZM119.618 68.8832C118.903 68.9385 118.102 68.9984 117.302 69.0597C117.276 68.9714 117.249 68.8832 117.224 68.795C117.551 68.6634 117.881 68.5318 118.231 68.3912C117.921 68.0399 117.656 67.7378 117.239 67.2653C117.863 67.1003 118.5 66.9833 119.142 66.9154C119.295 66.9094 119.466 67.3535 119.629 67.5943C118.559 68.0473 119.973 68.3584 119.618 68.8832ZM119.707 8.05117C119.304 7.87506 118.946 7.61148 118.659 7.27963C118.598 7.20935 118.954 6.7787 119.277 6.25387C119.729 6.81908 120.042 7.18843 120.301 7.59065C120.317 7.61458 119.823 8.10201 119.707 8.05117ZM123.417 68.8144C123.27 68.7965 123.126 68.7785 122.98 68.7606C123.022 68.3494 123.064 67.9397 123.108 67.5315L123.608 67.5704C123.544 67.9846 123.481 68.4002 123.417 68.8144ZM134.722 68.7651C134.676 68.6694 134.629 68.5752 134.584 68.481C134.792 68.318 134.984 68.0668 135.216 68.0234C135.388 67.989 135.611 68.2253 136.051 68.4825C135.437 68.6125 135.08 68.6888 134.722 68.7651ZM138.278 7.32749C137.075 7.99289 136.148 9.31021 134.589 9.15022C132.83 8.96929 130.979 9.51653 129.339 8.5147C129.969 8.0761 130.652 7.71798 131.371 7.4486C131.998 7.4105 132.627 7.48442 133.228 7.6669L133.224 7.66389C133.088 7.21531 132.996 6.76228 133.664 6.71443C134.468 6.65462 135.273 6.61425 136.078 6.61874C136.768 6.62322 137.458 6.70247 138.242 6.75331C138.253 6.8834 138.362 7.27965 138.278 7.32749ZM141.21 68.2014C142.683 67.6369 144.301 67.5769 145.812 68.0309C144.351 68.0653 142.961 69.0836 141.21 68.2014ZM149.993 10.1102C146.256 9.97112 142.503 9.83357 138.546 9.68703C138.945 8.78688 139.224 8.16333 139.555 7.4157C141.111 6.61872 142.784 7.44411 144.452 7.53831C145.147 7.72474 145.883 7.68331 146.553 7.42017C146.716 7.34557 146.895 7.30851 147.074 7.31166C147.254 7.31481 147.431 7.35809 147.592 7.43838C147.753 7.51867 147.894 7.63391 148.004 7.77565C148.115 7.91738 148.192 8.08203 148.23 8.25752C148.498 9.21449 149.061 8.67769 149.518 8.70909C149.703 8.99768 149.898 9.28181 150.061 9.58386C150.106 9.66759 150.035 9.81411 149.993 10.1102ZM149.577 8.63731C149.925 7.79099 150.529 8.50274 151.014 8.63731H149.577ZM154.356 65.9211C154.777 66.0302 155.197 66.1379 155.595 66.2396C155.532 66.8825 155.155 66.8347 154.356 65.9211ZM151.53 9.99952C153.059 9.59685 154.665 9.58706 156.198 9.97109C157.565 10.2282 158.962 10.2766 160.342 10.1146C160.663 10.0362 160.997 10.0296 161.32 10.0953C161.643 10.161 161.947 10.2973 162.212 10.4944C163.427 11.5247 163.988 11.4036 165.188 9.97711C165.902 10.5468 166.621 11.1185 167.344 11.6921C162.019 11.8889 156.693 11.3188 151.53 9.99952ZM167.454 11.6593C168.31 11.74 168.924 11.7983 169.596 11.8611C168.976 12.8002 168.839 12.7912 167.454 11.6593ZM172.067 12.7389C172.55 11.9568 172.55 11.9568 173.662 12.7389H172.067ZM174.744 12.691C175.401 12.6327 176.06 12.5729 176.932 12.4951C176.627 12.0331 176.473 11.7998 176.32 11.5681C176.437 11.4784 176.579 11.3423 176.597 11.3572C177.042 11.7088 177.451 12.104 177.817 12.537C178.407 12.8031 179.252 12.516 179.736 13.3429C178.906 13.6026 178.03 13.6787 177.168 13.5662C176.306 13.4536 175.479 13.1549 174.744 12.691ZM182.727 14.0233C182.061 13.9485 181.395 13.8733 180.729 13.7975C180.747 13.633 180.764 13.4685 180.78 13.3041C181.446 13.3788 182.113 13.4526 182.78 13.5254C182.762 13.6928 182.745 13.8588 182.727 14.0233ZM188.419 12.8645C188.451 13.1189 188.469 13.3751 188.471 13.6316C188.328 13.6608 188.182 13.6792 188.036 13.6869L187.988 12.863C188.132 12.863 188.275 12.8645 188.419 12.8645ZM184.504 14.2117L184.499 13.9455C184.848 13.8723 185.203 13.8333 185.559 13.8289C186.852 13.9246 188.152 14.0039 189.429 14.2102C190.07 14.3149 190.956 14.2536 191.045 15.2539C188.857 14.922 186.681 14.5676 184.504 14.2117ZM193.218 15.5799C192.518 15.4752 191.828 15.372 191.138 15.2674C191.552 14.9704 192.008 14.7375 192.491 14.5765C193.106 14.4509 193.391 14.8502 193.218 15.5799ZM196.903 63.3896C197.75 63.3073 198.283 63.258 198.819 63.2057C198.308 64.2404 197.773 64.1925 196.903 63.3896ZM197.291 15.8565C197.963 15.9282 199.233 15.0386 200.571 16.2542C199.061 16.9839 197.99 15.6905 197.291 15.8565ZM205.571 50.146C205.368 49.8185 205.205 49.5538 205.039 49.2862C204.747 49.5359 204.516 49.7318 204.248 49.9621C203.891 49.5733 203.538 49.1905 203.084 48.6971C203.681 48.2934 204.254 47.9046 204.862 47.4919C205.408 47.8612 205.901 48.1962 206.475 48.5864C206.196 49.0694 205.944 49.503 205.571 50.146ZM205.977 46.8325C207.029 47.2422 207.682 47.4964 208.408 47.782C207.067 48.419 207.067 48.4189 205.977 46.8325ZM210.917 49.9471C210.507 49.8709 210.099 49.7946 209.702 49.7213C209.002 50.7665 208.858 50.8338 207.414 50.7471C207.427 50.5329 207.461 50.3206 207.516 50.1131C207.602 49.9532 207.711 49.8063 207.839 49.6765C207.545 49.4866 207.281 49.3176 207.016 49.1471C207.028 49.023 207.038 48.8989 207.05 48.7748C207.791 48.6466 208.546 48.6134 209.295 48.6761C209.927 48.9066 210.518 49.234 211.049 49.6466C211.004 49.7468 210.961 49.8469 210.917 49.9471ZM214.886 18.844C212.466 18.4687 210.047 18.0929 207.629 17.7166C207.655 17.5387 207.683 17.3592 207.709 17.1798C210.124 17.5566 212.538 17.9339 214.951 18.3117C214.93 18.4896 214.907 18.6661 214.886 18.844ZM215.665 16.2109C215.373 16.1466 215.082 16.0808 214.792 16.0165C214.834 15.9282 214.876 15.8401 214.919 15.7518C215.186 15.8042 215.455 15.8565 215.723 15.9088C215.703 16.0105 215.683 16.1107 215.665 16.2109ZM221.567 17.2127C221.085 17.1364 220.602 17.0602 219.792 16.9316C219.915 16.8045 220.066 16.7088 220.233 16.6527C220.4 16.5965 220.579 16.5816 220.753 16.6092C220.927 16.6368 221.093 16.7061 221.234 16.8112C221.376 16.9163 221.49 17.054 221.567 17.2127ZM216.712 19.1072C216.759 18.9293 216.805 18.7513 216.854 18.5734C218.824 18.9009 220.912 18.6975 222.655 20.0821C220.674 19.7562 218.693 19.4312 216.712 19.1072ZM224.53 19.6111C225.569 19.8907 226.642 19.3375 227.522 20.4739C225.888 21.0944 225.158 20.8971 224.53 19.6111ZM238.132 34.5593C238.075 34.5608 238.013 34.3873 237.823 34.0823C238.226 34.2543 238.443 34.3455 238.661 34.4397C238.49 34.4988 238.312 34.5389 238.132 34.5593ZM247.179 35.9708C245.618 35.3443 243.817 35.8617 242.08 35.0333C243.095 34.6436 244.191 34.5128 245.27 34.6527C246.348 34.7927 247.374 35.199 248.256 35.8348C247.819 35.8976 247.442 36.077 247.179 35.9708ZM237.517 19.8115L237.515 19.81L237.518 19.8234L237.517 19.8115ZM20.1538 68.771C22.0583 69.0095 23.992 68.8299 25.8199 68.2447H19.8395C19.9428 68.4511 20.04 68.7636 20.1538 68.771ZM180.895 67.4059C180.593 67.4567 180.298 67.5419 180 67.6122C180.008 67.6436 180.014 67.6735 180.021 67.7034C180.662 67.6586 181.304 67.6107 181.943 67.5644C181.936 67.4717 181.927 67.3775 181.918 67.2833C181.576 67.3236 181.234 67.349 180.895 67.4059ZM208.081 63.4269L208.095 63.7036C208.943 63.6498 209.792 63.5969 210.64 63.5451L210.558 63.4269H208.081ZM261.483 28.6904C261.188 28.4795 260.891 28.2717 260.596 28.0609C260.473 28.2328 260.35 28.4078 260.228 28.5812C260.481 28.7952 260.756 28.9826 261.048 29.1404C261.112 29.1689 261.334 28.8489 261.483 28.6904ZM158.247 67.998C158.247 68.0787 158.249 68.1595 158.25 68.2387H159.853C159.853 68.1595 159.852 68.0787 159.85 67.998H158.247ZM221.227 53.3459L222.371 53.4685L222.402 53.0543H221.235C221.232 53.1515 221.229 53.2487 221.227 53.3459ZM17.0124 68.795C17.0244 68.8668 17.0348 68.9385 17.0453 69.0118C17.6425 68.946 18.2426 68.8802 18.8398 68.8144C18.8308 68.7382 18.8233 68.6604 18.8158 68.5856C18.2141 68.6559 17.613 68.7257 17.0124 68.795ZM272.995 35.3817C272.794 35.4514 272.606 35.5545 272.44 35.6868C272.579 35.8363 272.72 36.1084 272.859 36.1069C273.043 36.1069 273.229 35.8946 273.501 35.7167C273.259 35.5477 273.11 35.3608 272.995 35.3817M8.83946 66.3741C8.84096 66.4474 8.84395 66.5222 8.84545 66.5954H10.2852C10.2523 66.5222 10.2194 66.4474 10.1864 66.3741H8.83946ZM187.742 66.0033C188.097 66.0213 188.451 66.0387 188.805 66.0557C188.81 65.948 188.813 65.8403 188.817 65.7312H187.751L187.742 66.0033ZM186.47 67.1621H187.183C187.184 67.0934 187.186 67.0231 187.189 66.9543C186.952 66.9393 186.716 66.9229 186.479 66.9094L186.47 67.1621ZM8.829 67.7976C8.64313 67.8465 8.46067 67.9074 8.28276 67.9801H9.28998C9.28998 67.9173 9.28846 67.8544 9.28696 67.7916C9.13446 67.7794 8.98114 67.7814 8.829 67.7976ZM166.099 67.9262L166.101 67.9935H167.405L167.387 67.8515L166.099 67.9262ZM237.548 19.801C238.037 19.792 238.527 19.7921 239.289 19.7921C238.434 18.9801 237.997 19.4511 237.548 19.801ZM237.523 19.8025C237.519 19.8088 237.517 19.8162 237.518 19.8234L237.548 19.801L237.523 19.8025ZM213.87 51.4245C213.381 51.3003 212.891 51.1767 212.402 51.0536C212.844 51.3078 213.284 51.562 213.724 51.8162C213.773 51.6861 213.821 51.5545 213.87 51.4245ZM180.74 66.1618C180.771 66.2994 180.803 66.4385 180.834 66.5775C181.208 66.4878 181.584 66.398 181.958 66.3083C181.945 66.2261 181.934 66.1424 181.921 66.0586C181.527 66.0945 181.133 66.1274 180.74 66.1618ZM31.3559 5.73051C32.0144 5.91593 32.4784 6.04603 32.9454 6.17761C32.2719 5.5496 32.2719 5.54958 31.3559 5.73051ZM94.4768 5.59896C94.7747 5.79633 95.0755 5.99072 95.3733 6.1866C95.4481 6.07296 95.52 5.95781 95.5948 5.84268C95.2895 5.65873 94.9832 5.47483 94.6759 5.29094C94.61 5.39411 94.5427 5.49578 94.4768 5.59896ZM144.131 8.13194C144 8.11549 143.845 8.27397 143.702 8.35472C143.833 8.5162 143.965 8.67771 144.145 8.89901C144.311 8.69416 144.51 8.54611 144.486 8.45191C144.457 8.37379 144.41 8.30383 144.348 8.24807C144.286 8.19232 144.212 8.15246 144.131 8.13194ZM134.456 7.94654C134.468 7.82692 134.481 7.7073 134.492 7.58618C134.07 7.6116 133.646 7.63698 133.224 7.66389L133.229 7.6669L134.456 7.94654Z" fill="#7A75F0"/>
</svg>
