<svg width="558" height="95" viewBox="0 0 558 95" fill="none" xmlns="http://www.w3.org/2000/svg">
<path opacity="0.5" d="M554.144 35.3336C554.887 35.0765 555.869 34.7322 557.475 34.1744C555.733 33.9952 554.676 33.8872 553.535 33.7706C553.52 32.6738 553.54 31.5636 553.48 30.4561C553.408 29.1148 556.361 28.6803 556.611 27.4185C555.991 26.7859 555.102 26.2428 554.015 25.8329C552.928 25.4229 551.673 25.1574 550.35 25.0577C549.666 24.2497 549.408 23.3524 549.606 22.4628C549.803 21.5731 550.448 20.7251 551.471 20.0103C550.379 18.8142 549.101 17.6711 547.651 16.5929C546.601 15.9712 545.131 15.6004 543.559 15.5605C541.667 15.5786 540.692 15.0774 539.004 14.4361C540.888 14.3084 542.227 14.2189 543.566 14.1278C543.54 13.9797 543.514 13.8301 543.488 13.6788C540.693 14.274 537.794 12.8201 534.852 14.2757C531.755 13.4425 528.573 12.5879 525.458 11.7517C525.596 10.6253 526.747 10.3755 528.297 10.404C531.648 10.4674 534.998 10.5335 538.348 10.6023C533.349 9.97972 528.283 9.51167 523.174 9.2004C519.348 8.98226 515.456 9.01022 511.591 8.99428C510.782 9.03978 509.969 8.9574 509.254 8.75723C508.538 8.55707 507.951 8.24782 507.563 7.86741C507.099 7.49112 506.377 7.22972 505.55 7.13862C503.356 6.93987 501.126 6.83519 498.903 6.75299C495.462 6.62955 492.01 6.55628 488.323 6.45398C489.01 6.0347 489.798 5.73341 488.399 5.67852C486.962 5.61773 485.531 5.55846 484.092 5.52996C478.516 5.41668 472.94 5.31789 467.358 5.21598C466.114 5.23662 464.871 5.21071 463.636 5.13839C458.908 4.60738 453.988 4.71305 449.311 5.44613C448.576 5.53676 447.823 5.56784 447.075 5.53833C440.373 5.52128 433.674 5.50579 426.978 5.46123C423.982 5.44296 420.991 5.35202 417.992 5.30797C414.993 5.26554 411.983 5.30395 408.995 5.18555C406.19 5.0759 403.247 5.65701 400.564 4.79711C400.196 4.68119 399.58 4.79458 399.079 4.78376C391.746 4.63347 384.41 4.50097 377.082 4.31834C369.598 4.12979 362.127 3.79748 354.638 3.69612C346.981 3.59224 339.33 3.44312 331.686 3.19386C326.701 3.02886 321.682 3.07402 316.685 2.9737C309.756 2.83556 302.817 3.20898 295.883 2.92732C291.161 2.73447 286.384 2.89087 281.631 2.86784C269.282 2.80786 256.933 2.73012 244.584 2.67013C241.334 2.65538 238.081 2.69712 234.83 2.69366C225.601 2.68574 216.366 2.49397 207.148 2.694C190.142 3.06461 173.147 3.74321 156.142 4.14285C140.003 4.51923 123.971 5.48298 107.964 6.68032C104.39 6.94752 100.798 7.14724 96.8494 7.40026C97.6615 7.79559 98.1414 8.02932 98.7331 8.31799C95.9679 9.79689 93.5022 8.63555 91.5315 8.3724C89.8272 8.72507 88.6021 9.0356 87.3245 9.23396C83.4906 9.80883 79.5697 10.185 75.6157 10.3574C69.2042 10.8053 62.8336 11.4297 56.5291 12.2281C55.8434 12.3021 55.2578 12.6732 54.6253 12.9029C54.6992 13.0391 54.776 13.1751 54.8498 13.3096C57.1467 13.3514 59.4486 13.2097 61.6807 12.8893C63.9481 12.3108 66.4443 12.0551 68.9268 12.147C75.8983 12.5734 82.347 10.758 89.1841 10.7909C93.7575 9.31929 98.6152 10.6266 103.303 10.2456C103.386 10.238 103.521 10.4362 103.74 10.6365C103.259 10.8811 102.682 11.0638 102.054 11.1707C101.426 11.2776 100.763 11.3057 100.117 11.2528C98.8499 11.1267 97.0494 11.0194 96.2358 11.3871C94.8562 12.0112 93.2835 11.6893 91.8765 12.0766C91.1803 12.2783 90.4063 12.3864 89.6216 12.3917C88.8368 12.3969 88.065 12.299 87.3731 12.1066C86.9968 11.9956 86.2148 12.2597 85.6225 12.3599C84.9596 12.5414 84.2447 12.6594 83.5104 12.7085C77.2793 12.6081 71.043 13.0856 65.074 14.1201C63.1047 14.3893 61.2426 14.6086 59.7141 13.7941C56.5568 14.8023 52.9858 15.3616 49.3437 15.4185C46.8931 15.5798 44.3792 15.4935 41.9658 15.7431C32.0937 16.7556 22.2498 17.8548 12.3964 18.9219L12.509 19.264C17.7666 18.9106 23.0241 18.5577 28.2817 18.2054C26.6075 18.7107 24.8155 19.09 22.9569 19.3325C20.468 19.759 18.0223 20.2703 15.5304 20.6952C14.5851 20.8567 13.5414 20.8421 12.5717 20.9732C11.7085 21.0587 10.8818 21.234 10.138 21.4892C9.64899 21.688 9.63822 22.2076 9.17382 22.4512C8.46102 22.7612 7.69323 23.0324 6.88212 23.2605C6.93158 23.3679 6.97808 23.4786 7.02754 23.586C10.3547 23.7126 13.6847 23.836 16.9938 23.9612C16.7418 25.6845 13.7957 25.359 12.1386 26.0837C12.2883 26.5059 12.4413 26.9426 12.5849 27.3553C11.9193 27.8122 11.0728 28.1841 10.109 28.443C9.14511 28.7019 8.08885 28.8412 7.01934 28.8503C4.79962 28.9573 2.57283 28.9972 0.349353 28.9699C1.76731 29.5956 2.52679 30.3127 4.35098 30.1746C6.03136 30.0449 5.19416 30.8663 5.48103 31.2286C10.043 31.5317 10.0429 31.5317 10.8486 32.7644C9.64477 32.5547 8.39716 32.4215 7.13091 32.3673C5.9554 32.4629 4.80366 32.636 3.70174 32.8826C3.68556 33.0135 3.66943 33.1444 3.65026 33.2753C6.49211 33.6555 9.33699 34.0389 12.2059 34.4235C12.2431 34.0761 12.2806 33.7594 12.3182 33.4362C15.155 33.2341 14.7178 34.5743 15.9953 35.2359C12.4627 36.2978 8.38305 34.8781 4.96839 36.4434C12.3835 37.7643 20.0323 38.6927 27.8075 39.2155C30.0468 39.391 32.1766 39.452 33.2082 40.7574C29.5682 41.8563 28.1915 41.8334 27.1361 40.7494C25.9205 40.8839 24.7289 41.0165 23.5133 41.1511C22.7565 40.6276 22.0844 40.1642 21.6939 39.8937C19.7598 40.1076 18.0592 40.294 15.9485 40.5265C19.3288 41.2525 21.2656 43.1827 25.3852 42.7224C26.0161 42.69 26.6432 42.7823 27.1489 42.982C29.694 43.7737 32.5705 44.2162 35.5296 44.2713C41.3131 44.6544 47.1108 44.9872 52.9083 45.3072C55.2339 45.4347 57.5995 45.4085 59.9135 45.5669C63.14 45.7885 66.3264 46.1509 69.5502 46.3919C72.4617 46.6082 75.3991 46.7418 78.3252 46.9256C78.4843 46.9347 78.6092 47.0814 78.8389 47.2154C77.915 47.4024 77.0599 47.5788 76.0552 47.7846C76.5085 48.0381 76.6999 48.2178 76.8346 48.2062C78.5746 48.0483 80.358 48.4302 82.0618 47.6064C83.9532 46.6946 85.4678 48.2337 87.4994 48.1314C91.0381 47.9534 94.607 47.9976 98.1626 47.9485C97.2684 48.1574 96.3209 48.2892 95.3554 48.339C87.6022 49.0608 79.852 49.781 72.1083 50.5383C71.716 50.5759 71.418 50.9318 70.8352 51.2851C74.3039 51.6759 77.3323 50.3611 80.7383 51.2078C77.6581 51.5908 75.0089 51.9211 72.1113 52.2822C73.0996 52.8448 74.3343 53.2653 75.7066 53.5069C77.0789 53.7484 78.5467 53.8035 79.9807 53.6673C83.4373 53.7275 86.8786 53.9106 90.2821 54.2154C90.5312 54.2329 90.7179 54.5062 90.9359 54.6597C86.6915 55.5977 82.2331 56.2106 77.6927 56.4802C73.1178 56.9775 68.3523 56.4835 63.8595 57.491C65.9308 57.847 68.1494 57.9026 70.2936 57.6521C73.8903 57.095 77.6293 56.8806 81.3403 57.0187C81.964 57.0213 82.5641 57.4809 83.1733 57.7306C82.5534 58.0102 81.9901 58.4714 81.3014 58.5406C78.7502 58.7969 76.1615 58.9391 73.5818 59.0893C72.5919 59.187 71.5809 59.1901 70.5954 59.0984C67.7848 58.917 64.9229 59.2078 62.4 59.9312C63.1845 60.7173 63.4141 61.4998 65.4268 61.551C66.1273 61.566 66.7901 61.7158 67.2949 61.9731C67.7996 62.2304 68.1129 62.5783 68.1779 62.9537C68.5233 64.0798 66.5386 64.1008 65.2134 64.5434C66.1124 65.5942 66.9679 66.5965 67.7797 67.5506C69.5544 67.739 71.146 67.9106 72.9268 68.1006C72.7268 68.4364 72.3017 68.7219 71.7352 68.9009C71.1687 69.0798 70.502 69.1392 69.8666 69.0673C68.8202 69.0705 67.778 69.1607 66.6243 69.217C68.2782 71.2898 71.3431 71.5378 74.8101 71.3705C73.0451 73.1889 74.3683 74.7709 77.5607 74.9124C78.9065 74.9168 80.2523 74.8507 81.579 74.7149C82.316 74.6708 83.1404 74.4416 83.7656 74.5508C87.5303 74.9671 91.3977 75.0842 95.2457 74.8986C96.3417 74.9475 97.4302 75.0311 98.5056 75.1488C98.4865 75.283 98.4644 75.4172 98.4392 75.5514L95.0545 76.029C101.501 76.6393 108.082 76.8026 114.636 76.5149C114.239 75.7928 113.99 75.3493 113.691 74.8081C116.186 74.7914 118.444 74.3698 120.744 75.243C119.738 75.578 118.938 75.8424 118.138 76.1083C123.323 76.9623 128.933 76.8065 133.994 75.6681C132.587 75.3761 131.179 75.0848 129.769 74.794L129.907 74.5646L137.096 74.4653C136.487 75.0819 136.067 75.5071 135.544 76.0338C136.493 76.3032 137.517 76.4905 138.58 76.5888C144.864 76.5116 151.152 76.3375 157.442 76.2441C164.667 76.1378 171.892 76.0815 179.118 76.0058C179.197 76.7743 178.119 76.8327 177.13 76.8706C172.146 77.0621 167.16 77.2402 162.171 77.4049C155.5 77.6197 148.772 77.032 142.153 78.0156C141.657 78.0627 141.153 78.075 140.654 78.0524C136.918 78.0605 133.181 78.0234 129.446 78.0767C125.483 78.1331 121.521 78.3347 117.558 78.362C113.066 78.3902 108.576 78.2894 104.084 78.2531C98.9737 78.2108 93.8669 78.1846 88.7597 78.1278C87.8991 78.0642 87.0182 78.1443 86.2353 78.3573C85.4524 78.5703 84.8051 78.906 84.3803 79.3192C85.812 79.4221 87.0908 79.5237 88.3753 79.606C89.0956 79.6525 90.1733 79.5263 90.4761 79.7367C90.9705 80.1774 91.3341 80.6578 91.5542 81.1609C93.9414 82.0523 95.2843 80.7221 96.7232 80.257C99.0128 79.5154 99.21 79.2465 102.095 79.9293C101.787 80.4063 101.473 80.8866 101.059 81.5279C105.578 81.5816 109.949 81.5116 114.258 81.7246C115.687 81.8973 117.19 81.8155 118.542 81.4915C119.895 81.1675 121.024 80.6186 121.762 79.9269C123.902 80.0602 125.15 80.5335 124.801 81.7805L149.912 81.4334C150.197 80.7438 150.414 80.2229 150.78 79.3402C151.572 80.2875 152.051 80.8617 152.49 81.3848L158.672 81.2993C159.323 80.0513 160.695 80.5744 161.756 80.9824C162.052 81.1464 162.417 81.2702 162.82 81.3438C163.224 81.4174 163.656 81.4389 164.081 81.4065C164.507 81.3741 164.914 81.2887 165.271 81.1573C165.627 81.0258 165.923 80.8518 166.135 80.6492C167.658 80.8492 168.821 81.0268 170.007 81.1572C177.611 81.9958 185.291 80.9588 192.937 81.1773C196.164 81.145 199.385 80.9764 202.571 80.6731C202.924 80.6368 203.282 80.6178 203.64 80.6164C205.963 80.7279 208.274 80.8685 210.599 80.9703C211.406 81.0568 212.249 80.9784 212.966 80.7503C213.682 80.5222 214.221 80.1607 214.477 79.7358C214.559 79.6168 215.032 79.5732 215.445 79.4643C215.661 79.9598 215.847 80.375 216.042 80.824C221.738 80.7453 227.233 80.6322 232.729 80.6014C250.491 80.4914 268.256 80.4152 286.024 80.3228C293.903 80.2833 301.782 80.2067 309.662 80.2042C316.67 80.2025 323.673 80.3154 330.677 80.2928C332.013 80.1768 333.315 79.9566 334.539 79.6392C335.377 80.5537 337.228 80.4264 338.932 80.4626C346.64 80.627 354.359 80.7155 362.06 80.9576C372.526 81.2872 382.976 81.7364 393.441 82.1193C394.803 82.1682 396.581 82.4212 397.47 82.0653C397.788 81.885 398.174 81.743 398.6 81.6489C399.026 81.5548 399.484 81.5108 399.941 81.52C400.398 81.5291 400.845 81.5912 401.25 81.7019C401.655 81.8126 402.01 81.9693 402.29 82.1615C402.669 82.3285 403.136 82.4284 403.628 82.448C408.7 82.7489 413.783 83.0061 418.849 83.3265C424.503 83.6855 430.169 84.0315 435.786 84.5121C441.538 85.0037 447.25 85.6249 452.961 86.2429C458.799 86.8769 464.681 87.4424 470.405 88.2909C474.063 88.9379 477.627 89.7254 481.067 90.6474C483.426 91.2052 485.676 91.9276 488.257 90.8223C488.618 90.6689 489.492 90.7503 490.033 90.8542C492.623 91.3121 495.165 91.8413 497.65 92.4397C500.303 93.1004 503.243 93.3749 506.18 93.2364C507.066 93.6161 508.038 93.9343 509.075 94.1837C510.489 94.3771 512.018 94.3448 513.457 94.5072C517.914 95.0118 519.076 94.6876 520.486 92.4159C520.721 92.0368 520.823 91.6369 520.998 91.2199C519.453 90.3345 517.957 89.4776 516.37 88.5687C516.437 87.966 516.511 87.2825 516.599 86.4714C519.461 86.9981 521.969 87.5604 524.58 87.9195C529.444 88.5912 530.684 88.2643 533.568 85.8287C532.888 84.8168 532.064 83.7716 531.473 82.6843C529.969 79.9205 531.533 78.7406 536.852 78.5267C537.272 78.5096 537.692 78.5135 538.294 78.5052C538.133 77.3923 538.143 76.2725 538.323 75.1572C538.619 74.2125 536.316 73.1714 538.917 72.1643C539.504 72.7482 539.993 73.2287 540.51 73.7411C541.709 73.0647 541.709 73.0647 545.1 73.0517C544.954 71.1242 544.637 69.0232 549.44 68.547C548.613 67.755 547.921 67.0934 546.927 66.1424C548.744 65.9189 549.986 65.7662 550.729 65.6753C551.285 64.7319 551.669 63.8522 552.326 63.0332C552.987 62.211 553.768 61.45 552.844 60.5561C550.219 57.8164 549.377 54.6678 550.453 51.6063C551.037 49.3461 551.821 47.096 552.264 44.8312C552.076 43.5715 552.458 42.3005 553.376 41.1262C553.456 41.0062 553.488 40.879 553.471 40.7528C553.454 40.6265 553.387 40.5041 553.276 40.3936C552.767 39.8712 552.552 39.2778 552.66 38.6853C552.767 38.0927 553.191 37.5265 553.88 37.0554C554.357 36.6568 554.07 35.9977 554.144 35.3336ZM36.8036 39.8962C36.8861 40.0079 36.9656 40.1182 37.1184 40.3306C36.7722 40.4467 36.3962 40.5713 36.0201 40.6975C35.8921 40.5509 35.6039 40.3032 35.6664 40.2717C36.0212 40.1261 36.4022 40.0002 36.8036 39.8962ZM74.2038 43.7722C60.6276 43.6595 47.1146 42.9266 33.8104 41.5815C34.9306 41.6094 36.0549 41.5349 37.1357 41.3613C37.9722 41.1416 38.4767 40.5426 39.1245 40.119C42.1644 40.7255 45.4209 41.3774 48.9539 42.0836C49.7705 40.2025 52.572 40.0557 54.6683 39.8605C56.9715 40.7531 58.9853 41.5319 61.183 42.384C62.6606 41.4634 63.9806 40.2174 66.2857 41.6762C66.5035 41.8152 67.5309 41.7365 67.9875 41.5833C70.4888 40.7534 72.4595 41.2295 74.4921 42.2855C74.4082 42.7255 74.3048 43.2706 74.2038 43.7722ZM79.0837 44.0854C78.4481 44.0878 77.823 43.5543 77.0233 43.1879C78.7984 42.7552 80.0267 42.4558 81.4731 42.1019C82.6516 43.6263 85.1052 43.2552 87.3832 42.9737C88.5746 42.8249 89.6672 42.4694 91.0773 43.1807C87.2332 43.9465 83.1404 44.2552 79.0837 44.0854ZM143.88 74.7377L143.83 74.4254L146.208 74.3926L146.247 74.6082C145.459 74.6513 144.668 74.6945 143.88 74.7377ZM115.478 80.3768C115.413 80.2518 115.348 80.1285 115.284 80.0052C115.822 79.9203 116.361 79.8274 116.912 79.7681C117.019 79.8721 117.105 79.9823 117.168 80.0969C116.606 80.1902 116.043 80.2818 115.478 80.3768ZM129.02 80.8542C128.614 80.6049 128.207 80.3552 127.798 80.1048C128.031 80.0242 128.257 79.9403 128.484 79.8581L129.41 80.6955C129.282 80.7489 129.151 80.8024 129.02 80.8542ZM144.436 80.4846C143.93 80.311 143.427 80.1372 142.92 79.9619C143.027 79.8652 143.134 79.7669 143.237 79.6719C143.779 79.7806 144.317 79.8877 144.855 79.998C144.716 80.1597 144.578 80.323 144.436 80.4846ZM215.617 72.6214C216.457 72.6566 217.294 72.6919 218.137 72.7286C218.094 72.8744 218.054 73.0218 218.017 73.1691C217.201 73.0933 216.39 73.0173 215.577 72.9399L215.617 72.6214ZM191.659 6.66552L195.007 6.61922C195.005 6.69185 195.006 6.76445 195.004 6.83708L191.659 6.88333C191.661 6.8107 191.66 6.7381 191.659 6.66552ZM162.268 73.7365C163.096 73.7928 163.925 73.8475 164.678 73.8968C164.757 74.6217 164.427 74.6262 162.268 73.7365ZM172.476 7.23886L174.51 7.53662C174.437 7.66831 174.367 7.79834 174.291 7.92845C173.62 7.81995 172.947 7.71254 172.271 7.60627C172.342 7.4843 172.409 7.36079 172.476 7.23886ZM175.001 73.8267C174.994 73.7816 174.985 73.7366 174.978 73.6899L179.043 73.6337C179.05 73.6804 179.056 73.7255 179.057 73.7707L175.001 73.8267ZM175.816 7.01037L181.716 6.92881C181.349 7.15793 180.897 7.34351 180.39 7.4733C179.883 7.60309 179.333 7.67416 178.776 7.68187C178.219 7.68957 177.667 7.63374 177.157 7.518C176.647 7.40227 176.19 7.22925 175.816 7.01037ZM427.768 79.7378C423.191 79.4349 418.642 79.0219 414.06 78.761C409.745 78.5141 405.39 78.4178 401.057 78.2373C393.473 77.9211 385.891 77.5693 378.303 77.2741C369.582 76.9365 360.86 76.5925 352.125 76.3438C342.544 76.0713 332.952 75.87 323.361 75.7089C318.514 75.6275 313.655 75.727 308.809 75.6907C305.693 75.666 302.583 75.4492 299.471 75.4745C291.775 75.5422 284.077 75.6922 276.384 75.8211C267.418 75.9677 258.499 75.644 249.572 75.3996C249.323 75.3934 249.049 75.3069 248.836 75.3437C244.978 76.0343 240.967 75.6751 237.052 75.9502C235.994 75.989 234.934 75.9955 233.876 75.9699C232.149 75.873 230.4 75.9087 228.681 76.0757C225.39 76.5022 221.997 76.6233 218.65 76.4337C216.185 76.4065 213.704 76.5505 211.234 76.5621C209.273 76.5698 207.314 76.4888 205.349 76.4595C204.623 76.4469 203.895 76.4634 203.17 76.4815C199.953 76.5583 196.737 76.6786 193.521 76.7134C190.445 76.6181 187.357 76.6274 184.277 76.7412C183.37 76.8136 182.449 76.7855 181.571 76.6586C180.692 76.5318 179.875 76.3087 179.169 76.0034C187.345 75.721 195.526 75.3482 203.706 75.1803C216.551 74.914 229.413 74.5538 242.236 74.6766C252.607 74.7737 262.908 74.2473 273.242 74.1222C277.479 74.0701 281.715 74.2325 285.952 74.282C287.071 74.294 288.192 74.2302 289.313 74.2211C292.404 74.1929 295.499 74.2195 298.586 74.1397C301.271 73.9981 303.97 73.9877 306.649 74.1089C308.613 74.1598 310.584 74.1411 312.549 74.0531C314.777 74.0465 317.002 74.0819 319.23 74.1027C323.186 74.14 327.152 74.3062 331.097 74.1742C333.683 74.0868 336.305 74.8023 338.89 73.9761C339.386 73.8176 340.356 73.9769 341.015 74.1113C343.774 74.6602 346.739 74.8646 349.689 74.7093C350.399 74.7163 351.104 74.7645 351.793 74.8529C352.368 74.9495 352.974 74.9849 353.578 74.9572C359.52 73.9587 359.502 73.9606 364.741 75.3337C365.545 75.4844 366.384 75.5784 367.237 75.6137C368.503 75.7875 369.797 75.9035 371.104 75.9604C373.632 75.9707 376.115 76.4832 378.664 75.3655C379.503 75.0116 380.504 74.789 381.556 74.7225C382.608 74.6561 383.668 74.7486 384.616 74.9895C386.47 75.6376 388.697 75.9137 390.915 75.7704C391.539 75.7648 392.15 75.8566 392.673 76.0349C395.571 76.7837 395.565 76.7919 397.858 75.447C399.905 75.7704 402.523 75.1453 404.161 76.5456C404.407 76.7519 406.241 76.4119 407.235 76.3337C409.153 76.9073 411.153 77.5444 413.232 78.0997C413.52 78.1428 413.823 78.1507 414.119 78.1229C414.415 78.0951 414.698 78.0322 414.945 77.9388C415.738 77.6557 416.643 77.479 417.583 77.4238C418.523 77.3687 419.469 77.4367 420.341 77.6222C423.064 78.2371 425.987 78.5678 428.957 78.597C429.716 78.5575 430.56 79.112 431.255 79.7025C430.094 79.7595 428.929 79.7713 427.768 79.7378ZM432.379 79.0562C435.914 78.996 435.914 78.9961 436.463 80.3549C434.234 80.4616 432.868 80.1739 432.379 79.0562ZM444.897 80.7562C444.207 80.7173 443.517 80.6817 442.824 80.6445C442.831 80.525 442.836 80.4072 442.843 80.2893L444.972 80.2599L444.897 80.7562ZM523.737 12.5886C523.36 12.5924 522.984 12.5853 522.609 12.5671C520.31 12.3892 518.637 10.9248 515.773 11.713C515.417 11.8115 514.328 11.1118 513.583 10.7817C513.683 10.6335 513.786 10.4837 513.888 10.3338C517.303 10.9449 520.9 9.94811 524.599 10.7327C524.275 11.4244 524.019 11.9845 523.737 12.5886ZM52.8714 13.1192C50.7513 12.6892 48.4411 12.585 46.1955 12.8178C39.7077 13.5448 33.2136 14.2476 26.7289 14.9793C24.9416 15.1815 23.1824 15.4639 21.4106 15.7078C21.4798 15.9392 21.5489 16.1689 21.6151 16.4003C31.9193 14.9753 42.6276 15.0128 52.8714 13.1192ZM384.164 2.78944C383.674 2.50635 383.081 2.28092 382.419 2.12685C381.758 1.97277 381.043 1.89327 380.318 1.89319C379.592 1.8931 378.872 1.97242 378.2 2.12634C377.528 2.28026 376.919 2.50555 376.41 2.78852C377.615 3.09149 378.932 3.2485 380.271 3.24865C381.61 3.2488 382.939 3.09213 384.164 2.78944ZM389.136 3.2644C393.796 3.45004 397.795 3.6109 401.797 3.77175C397.872 2.75565 393.355 2.57467 389.136 3.2644ZM372.235 2.51553C370.9 1.5644 369.24 2.08102 367.562 2.17036C365.978 2.16426 364.405 2.06151 362.871 1.86414C364.263 2.30084 365.808 2.58326 367.415 2.69506C369.022 2.80686 370.66 2.74583 372.235 2.51553ZM357.653 1.17964C356.304 1.22733 355.882 1.67521 355.523 2.19643C357.387 2.33683 358.972 2.45691 361.091 2.61637C360.337 1.63623 359.445 1.11776 357.653 1.17964ZM70.514 53.6304C71.3457 53.0639 71.517 52.4404 69.8052 52.0333C68.8033 52.4392 67.8469 52.8767 68.6905 53.6024C68.9633 53.6883 69.273 53.7359 69.5914 53.7408C69.9098 53.7457 70.2269 53.7077 70.514 53.6304ZM309.961 1.33077C311.285 1.25116 312.549 1.17558 314.074 1.08352C310.972 0.0729226 310.471 0.10567 309.961 1.33077ZM540.721 75.5402C540.939 75.9202 541.261 76.2799 541.674 76.6079C541.971 76.7781 542.669 76.7443 543.188 76.8C543.301 76.4629 543.691 76.0493 543.468 75.8023C543.048 75.337 542.278 74.9573 540.721 75.5402ZM326.527 1.94552C327.829 1.99689 328.846 2.03767 330.385 2.09867C329.317 0.535633 329.29 0.536021 326.527 1.94552ZM59.5653 70.0389L62.7731 69.9946C60.9051 69.5655 60.9051 69.5654 59.5653 70.0389ZM444.662 3.63576L447.459 3.59709C445.518 2.63175 445.518 2.63175 444.662 3.63576ZM347.246 1.70104C347.094 1.75799 347.1 1.93537 346.956 2.19064C347.854 2.26696 348.718 2.34215 350.252 2.4742C349.307 1.52414 348.621 1.1819 347.246 1.70104ZM319.281 0.508221C319.03 0.834341 318.792 1.14898 318.571 1.4392C319.101 1.58514 319.615 1.72971 320.13 1.87424C320.401 1.3381 321.08 0.730183 319.281 0.508221ZM320.142 1.87727C321.002 1.80247 321.864 1.72762 323.008 1.62792C321.562 0.907405 321.002 1.8154 320.13 1.87424L320.127 1.87586L320.142 1.87727ZM70.1556 10.1376C70.1274 10.0492 70.1021 9.95764 70.0739 9.86769C69.0857 9.96201 68.1005 10.0547 67.1092 10.1475C67.1376 10.2503 67.169 10.3531 67.1974 10.456C68.1854 10.3487 69.1715 10.2426 70.1556 10.1376ZM334.303 1.58151L330.987 1.62735C332.539 2.13668 333.321 2.53242 334.303 1.58151ZM264.689 0.470794C264.579 0.322131 264.442 0.179773 264.281 0.0456827C263.998 0.139948 263.825 0.197181 263.651 0.254427C263.83 0.392742 264.028 0.52324 264.245 0.644727C264.272 0.657257 264.707 0.502806 264.689 0.470794Z" fill="#7A75F0"/>
</svg>
