<svg width="52" height="52" viewBox="0 0 52 52" fill="none" xmlns="http://www.w3.org/2000/svg">
<g clip-path="url(#clip0_1_95)">
<path d="M10.6271 35.4083C9.33668 34.4717 8.31278 33.2431 7.63778 31.8388C8.89352 31.9309 10.1595 31.8132 11.3806 31.4877L11.3305 30.0355C7.23699 29.242 4.08119 25.9297 3.59366 21.8491C4.80548 22.3171 6.13508 22.6095 7.54763 22.6095H10.13L7.94495 21.2332C5.32152 19.5807 3.62586 16.6735 3.62586 13.3891C3.62586 12.0397 3.91852 10.7459 4.44846 9.58158C9.72242 15.4357 17.3488 19.2611 25.8623 19.6804L26.8481 19.729L26.6253 18.7675C26.4663 18.0816 26.3757 17.3525 26.3757 16.6029C26.3757 11.3886 30.7175 7.13564 36.0644 7.13564C38.9446 7.13564 41.4586 8.24599 43.2437 10.1392L43.5275 10.4401L43.9329 10.3586C45.6493 10.0139 47.3073 9.48687 48.8711 8.77621C48.044 10.1653 46.8663 11.3266 45.4615 12.1509L45.9309 13.5337C47.2035 13.3751 48.452 13.1148 49.6609 12.7522C48.6304 13.9184 47.4706 14.9604 46.1949 15.8481L45.8539 16.0854L45.8763 16.5002C45.8995 16.9293 45.8996 17.3381 45.8996 17.7932C45.8996 30.9507 35.5847 46.1146 16.8088 46.1146C12.1605 46.1146 7.76136 45.0445 3.85952 43.1477C8.52304 43.0345 13.0317 41.4492 16.7021 38.6185L18.3851 37.3205L16.2601 37.2828C14.2254 37.2466 12.2555 36.5901 10.6271 35.4083ZM3.21896 43.1539C3.21955 43.1539 3.22013 43.1539 3.22071 43.1539L3.2205 42.8273L3.21896 43.1539Z" fill="#BFE0F7" stroke="black" stroke-width="1.491"/>
</g>
<defs>
<clipPath id="clip0_1_95">
<rect width="51.12" height="51.12" fill="white" transform="translate(0.729996)"/>
</clipPath>
</defs>
</svg>
