<svg width="272" height="74" viewBox="0 0 272 74" fill="none" xmlns="http://www.w3.org/2000/svg">
<path opacity="0.3" d="M270.366 29.6256C270.731 29.4395 271.212 29.1902 272 28.7864C271.151 28.6331 270.635 28.5407 270.079 28.4409C270.079 27.6138 270.097 26.777 270.075 25.9414C270.048 24.9295 271.493 24.6327 271.624 23.6839C271.326 23.2005 270.895 22.7818 270.367 22.4614C269.839 22.141 269.228 21.9278 268.583 21.8388C268.254 21.2225 268.134 20.5433 268.237 19.8747C268.339 19.206 268.66 18.5734 269.164 18.0451C268.639 17.1319 268.023 16.2568 267.322 15.4289C266.813 14.9491 266.098 14.6543 265.331 14.6078C264.407 14.6018 263.934 14.2138 263.114 13.7126C264.035 13.636 264.69 13.5825 265.344 13.5278C265.332 13.4159 265.321 13.3027 265.309 13.1884C263.94 13.608 262.534 12.4817 261.088 13.5484C259.581 12.888 258.034 12.2105 256.518 11.5476C256.593 10.6999 257.157 10.5235 257.914 10.5612C259.549 10.6439 261.185 10.7286 262.82 10.8154C260.383 10.2939 257.913 9.88825 255.42 9.60033C253.553 9.39599 251.653 9.3765 249.766 9.3242C249.37 9.35006 248.974 9.27949 248.626 9.12113C248.278 8.96276 247.993 8.72349 247.807 8.43265C247.582 8.1441 247.232 7.9395 246.829 7.8622C245.758 7.68949 244.671 7.58733 243.586 7.50219C241.906 7.37326 240.221 7.28204 238.422 7.16649C238.76 6.85754 239.146 6.6386 238.464 6.58265C237.763 6.52183 237.064 6.46223 236.362 6.42574C233.64 6.28222 230.918 6.14963 228.193 6.01462C227.586 6.01721 226.979 5.98472 226.376 5.91733C224.071 5.4677 221.668 5.4961 219.379 6.00003C219.02 6.06071 218.652 6.07628 218.287 6.04624C215.015 5.96353 211.744 5.88204 208.474 5.77865C207.012 5.73365 205.552 5.63392 204.088 5.56945C202.624 5.5062 201.154 5.50379 199.695 5.38337C198.327 5.27147 196.886 5.67891 195.581 5.00265C195.403 4.91142 195.101 4.99049 194.857 4.97711C191.277 4.78737 187.695 4.61101 184.119 4.39694C180.466 4.17679 176.82 3.84838 173.164 3.69391C169.426 3.53579 165.691 3.34362 161.96 3.07603C159.527 2.89967 157.076 2.88141 154.637 2.75369C151.255 2.57733 147.864 2.78653 144.48 2.50192C142.176 2.30731 139.842 2.37543 137.521 2.30853C131.492 2.1346 125.463 1.94728 119.433 1.77335C117.846 1.72835 116.258 1.72591 114.671 1.68942C110.164 1.58725 105.656 1.34643 101.154 1.40116C92.8477 1.50333 84.5446 1.83781 76.2386 1.96188C68.3558 2.07743 60.5212 2.63693 52.6969 3.3728C50.9502 3.537 49.1947 3.65013 47.265 3.79974C47.6588 4.10625 47.8916 4.28747 48.1786 4.51127C46.8184 5.59743 45.6223 4.69617 44.6618 4.47723C43.8272 4.72536 43.2269 4.94671 42.6017 5.08294C40.7259 5.47639 38.8088 5.71916 36.877 5.80787C33.7433 6.07873 30.6284 6.48308 27.5446 7.01931C27.2094 7.06796 26.9209 7.34164 26.6105 7.50828C26.6457 7.61166 26.6823 7.71505 26.7174 7.81722C27.8386 7.87263 28.9636 7.78984 30.0556 7.57153C31.1667 7.15902 32.3873 6.99225 33.5988 7.08742C37 7.48151 40.161 6.18007 43.4993 6.27616C45.7423 5.21432 48.1054 6.2506 50.3968 6.0122C50.4378 6.00734 50.5022 6.15816 50.6076 6.31142C50.3713 6.49081 50.0885 6.62261 49.781 6.69664C49.4736 6.77067 49.1497 6.78493 48.8345 6.73832C48.2167 6.63007 47.3382 6.53035 46.9385 6.79916C46.2606 7.25527 45.4949 6.99618 44.8053 7.2735C44.464 7.41831 44.0853 7.4918 43.7021 7.48756C43.3189 7.48333 42.9427 7.40149 42.6061 7.24919C42.4231 7.16161 42.0395 7.35257 41.7496 7.4219C41.4247 7.55184 41.0748 7.63336 40.716 7.66273C37.6741 7.52212 34.6258 7.81713 31.7042 8.53483C30.7408 8.71728 29.8301 8.86322 29.0893 8.23317C27.5408 8.96038 25.7934 9.34486 24.0146 9.34974C22.817 9.44583 21.59 9.35461 20.4099 9.51759C15.5827 10.178 10.7687 10.9042 5.95021 11.606L6.00289 11.8651C8.57244 11.6535 11.142 11.4422 13.7116 11.2314C12.8907 11.5949 12.0131 11.8622 11.1039 12.0256C9.88578 12.3212 8.68812 12.6812 7.4685 12.9756C7.00583 13.0875 6.49631 13.0656 6.02193 13.1544C5.5999 13.2098 5.19503 13.3334 4.83013 13.518C4.59002 13.6628 4.58125 14.0544 4.35284 14.2332C4.0027 14.4596 3.62597 14.656 3.22838 14.8195C3.25181 14.901 3.27377 14.9849 3.29719 15.0664C4.92091 15.1965 6.54608 15.3243 8.16102 15.4532C8.02632 16.7498 6.59001 16.4737 5.77596 17.0028C5.84623 17.3227 5.91798 17.6535 5.98533 17.9661C5.65721 18.3037 5.24138 18.5752 4.76901 18.7604C4.29663 18.9455 3.77994 19.0395 3.25765 19.0352C2.17308 19.0928 1.08551 19.0997 0 19.0559C0.688141 19.5424 1.05414 20.091 1.9458 20.0058C2.76717 19.9256 2.35284 20.5361 2.49047 20.8122C4.71594 21.0883 4.71593 21.0883 5.10099 22.0261C4.5146 21.8555 3.90631 21.742 3.28839 21.688C2.71376 21.7478 2.15022 21.8663 1.61051 22.0407C1.60172 22.1392 1.59296 22.2377 1.58271 22.3363C2.96778 22.6525 4.3543 22.9712 5.75254 23.2911C5.77304 23.0296 5.79353 22.7912 5.81402 22.5479C7.20055 22.4251 6.97803 23.431 7.59736 23.943C5.86529 24.7069 3.88284 23.5939 2.20495 24.7385C5.81671 25.8117 9.54525 26.5913 13.3382 27.0665C14.4304 27.2222 15.47 27.2903 15.9649 28.2853C14.1801 29.0759 13.5081 29.0442 13 28.2159C12.4056 28.3047 11.8228 28.3923 11.2284 28.4811C10.8623 28.0785 10.5373 27.7221 10.3485 27.5141C9.40263 27.6552 8.57099 27.778 7.53878 27.9313C9.18446 28.5139 10.1171 29.9893 12.1317 29.6852C12.44 29.6673 12.7456 29.7434 12.9912 29.8993C14.2286 30.5227 15.6301 30.8863 17.0747 30.9587C19.896 31.3078 22.7247 31.6191 25.5534 31.9208C26.6881 32.0412 27.8433 32.0461 28.9722 32.1896C30.5461 32.3903 32.0995 32.6968 33.672 32.9121C35.0922 33.1055 36.5256 33.2368 37.9532 33.4059C38.0308 33.4144 38.0908 33.5263 38.202 33.6297C37.7496 33.7611 37.3309 33.8851 36.8389 34.0299C37.0585 34.2257 37.1508 34.3631 37.2167 34.3559C38.0673 34.2549 38.9356 34.5614 39.773 33.9581C40.7028 33.2904 41.4319 34.4665 42.4246 34.4106C44.1537 34.3133 45.896 34.3838 47.6325 34.3838C47.1945 34.532 46.7309 34.6215 46.2592 34.649C42.4685 35.1124 38.6794 35.5746 34.8931 36.0648C34.7013 36.0891 34.5534 36.3542 34.2665 36.6145C35.9575 36.9454 37.4451 35.9857 39.1025 36.6595C37.5959 36.9162 36.3001 37.1375 34.8829 37.3796C35.3616 37.814 35.9616 38.144 36.6301 38.3404C37.2985 38.5368 38.0149 38.5936 38.716 38.5059C40.4034 38.5873 42.0825 38.7612 43.7423 39.0265C43.8638 39.0423 43.9531 39.2503 44.0585 39.3683C41.9797 40.0312 39.7986 40.4468 37.5798 40.6028C35.3426 40.93 33.019 40.5079 30.8184 41.2207C31.8274 41.5107 32.9103 41.5757 33.959 41.4092C35.719 41.0267 37.5461 40.904 39.3572 41.0467C39.6618 41.0552 39.9517 41.408 40.2474 41.6026C39.9429 41.8069 39.6647 42.1487 39.328 42.1937C38.0805 42.3604 36.8155 42.4406 35.5549 42.527C35.0709 42.5903 34.5772 42.5821 34.0966 42.5027C32.7255 42.3367 31.3261 42.5261 30.0893 43.0451C30.4671 43.646 30.5739 44.2383 31.5563 44.2979C31.8983 44.3165 32.2209 44.4364 32.4656 44.6356C32.7103 44.8349 32.861 45.1005 32.8902 45.3841C33.0512 46.2367 32.082 46.2319 31.4319 46.5518C31.8638 47.3533 32.2747 48.118 32.6647 48.8457C33.53 49.0063 34.306 49.1522 35.1742 49.314C35.0743 49.5651 34.8648 49.7759 34.587 49.9049C34.3092 50.034 33.9832 50.0718 33.6735 50.011C33.1625 50.0024 32.653 50.0596 32.0893 50.09C32.8829 51.67 34.3777 51.8889 36.0717 51.7989C35.1977 53.1514 35.8331 54.358 37.3909 54.4979C38.048 54.5153 38.7056 54.4795 39.3543 54.3909C39.7145 54.3654 40.1186 54.2011 40.4231 54.2899C42.2585 54.643 44.1462 54.7717 46.0263 54.6718C46.5611 54.7201 47.092 54.7945 47.6164 54.8945C47.6061 54.9954 47.5944 55.0963 47.5812 55.1973L45.9253 55.5221C49.069 56.0494 52.281 56.2411 55.4832 56.0925C55.2943 55.5439 55.1757 55.207 55.0337 54.7959C56.2518 54.8092 57.3572 54.5149 58.4744 55.1973C57.981 55.4393 57.5885 55.6303 57.1962 55.8225C59.7221 56.5203 62.4624 56.4613 64.9414 55.6558C64.2562 55.4211 63.5705 55.1867 62.8843 54.9528L62.9531 54.7813H66.4641C66.1625 55.2399 65.9546 55.5561 65.6955 55.9477C66.1572 56.1607 66.6561 56.3126 67.1742 56.3978C70.243 56.4051 73.3148 56.3394 76.3865 56.3345C79.9151 56.3296 83.4436 56.3625 86.9722 56.3808C87.0058 56.9609 86.4788 56.9938 85.9956 57.012C83.5608 57.1044 81.1249 57.1868 78.6881 57.2589C75.429 57.3514 72.1479 56.8381 68.9092 57.5107C68.6668 57.541 68.4208 57.545 68.1771 57.5228C66.3528 57.49 64.5286 57.4231 62.7043 57.4243C60.7687 57.4255 58.8331 57.5362 56.8975 57.5156C54.7042 57.49 52.5124 57.3672 50.3192 57.293C47.8243 57.2079 45.3309 57.1349 42.8375 57.0388C42.4177 56.9819 41.987 57.0331 41.6033 57.1855C41.2196 57.3379 40.9013 57.5843 40.6911 57.8914C41.3895 57.9839 42.0132 58.0738 42.6398 58.1493C42.9912 58.1918 43.5183 58.1079 43.6647 58.2697C43.9032 58.6071 44.0775 58.9731 44.1816 59.3546C45.3411 60.0516 46.0059 59.0627 46.7116 58.727C47.8345 58.1919 47.9326 57.9911 49.3367 58.536C49.183 58.8924 49.0264 59.2512 48.8199 59.7304C51.0264 59.818 53.1611 59.8108 55.2635 60.0163C55.9602 60.1614 56.6946 60.1154 57.3572 59.8852C58.0198 59.655 58.575 59.253 58.94 58.7391C59.9839 58.862 60.59 59.2318 60.4114 60.1684H72.675C72.8185 59.6514 72.9282 59.2609 73.1127 58.5993C73.4934 59.3218 73.7233 59.7596 73.9341 60.1586H76.9531C77.2796 59.2244 77.9458 59.6331 78.4612 59.9518C78.6046 60.0785 78.7817 60.1756 78.9783 60.2353C79.175 60.295 79.3856 60.3157 79.5936 60.2958C79.8016 60.2758 80.001 60.2157 80.1761 60.1203C80.3511 60.0249 80.4969 59.8968 80.6018 59.7463C81.3441 59.9129 81.9107 60.0589 82.489 60.1696C86.1962 60.8811 89.9532 60.1793 93.6852 60.4237C95.2607 60.433 96.8346 60.3395 98.3924 60.144C98.5651 60.1203 98.7401 60.1097 98.9151 60.1124C100.048 60.2206 101.176 60.3508 102.31 60.4517C102.704 60.5253 103.116 60.475 103.468 60.3105C103.819 60.146 104.084 59.8791 104.212 59.5614C104.253 59.4726 104.485 59.4447 104.687 59.3668C104.789 59.7427 104.877 60.0576 104.969 60.3982C107.751 60.3982 110.435 60.3702 113.119 60.4043C121.792 60.5065 130.467 60.6342 139.143 60.7497C142.991 60.802 146.839 60.8264 150.687 60.9067C154.108 60.9784 157.527 61.1365 160.947 61.1925C161.601 61.119 162.237 60.9665 162.837 60.74C163.24 61.4382 164.145 61.3615 164.977 61.4065C168.739 61.6108 172.508 61.758 176.266 62.0207C181.375 62.3783 186.474 62.826 191.581 63.2237C192.246 63.2748 193.113 63.484 193.549 63.2249C193.706 63.0924 193.895 62.9893 194.104 62.9228C194.312 62.8563 194.536 62.8279 194.759 62.8396C194.982 62.8512 195.2 62.9027 195.397 62.9904C195.594 63.078 195.767 63.1999 195.902 63.3477C196.086 63.4776 196.313 63.5578 196.553 63.5776C199.028 63.8574 201.508 64.1043 203.98 64.3986C206.738 64.7283 209.502 65.0482 212.242 65.469C215.047 65.8996 217.832 66.4275 220.616 66.9529C223.463 67.4918 226.331 67.9794 229.12 68.6788C230.902 69.2047 232.637 69.8355 234.31 70.5665C235.458 71.0117 236.552 71.5798 237.82 70.7733C237.997 70.6614 238.423 70.732 238.687 70.8159C239.948 71.1881 241.186 71.6136 242.395 72.0906C243.686 72.6164 245.12 72.854 246.555 72.7802C246.985 73.0757 247.458 73.3257 247.962 73.5246C248.652 73.6851 249.398 73.6767 250.1 73.8141C252.272 74.241 252.842 74.0087 253.546 72.3107C253.663 72.0273 253.716 71.7269 253.804 71.4143C253.056 70.7308 252.331 70.0691 251.562 69.3673C251.599 68.9136 251.64 68.3991 251.688 67.7885C253.082 68.2154 254.303 68.6654 255.575 68.9634C257.946 69.5205 258.553 69.287 259.978 67.4808C259.653 66.7108 259.258 65.9142 258.977 65.0883C258.261 62.989 259.032 62.1156 261.631 62.0098C261.836 62.0013 262.041 62.0086 262.335 62.0086C262.264 61.1679 262.277 60.3238 262.372 59.4848C262.523 58.7757 261.406 57.9668 262.682 57.2346C262.965 57.681 263.201 58.0483 263.449 58.44C264.04 57.9425 264.04 57.9425 265.695 57.968C265.637 56.5133 265.496 54.926 267.845 54.6171C267.447 54.0114 267.113 53.5054 266.634 52.778C267.523 52.6284 268.13 52.5263 268.493 52.4655C268.772 51.76 268.965 51.1007 269.291 50.4902C269.619 49.8771 270.006 49.3116 269.561 48.628C268.297 46.5351 267.908 44.1525 268.454 41.8556C268.754 40.1576 269.152 38.4694 269.384 36.7666C269.301 35.8149 269.496 34.8606 269.952 33.9848C269.992 33.8952 270.008 33.7996 270.001 33.7043C269.993 33.6089 269.962 33.516 269.908 33.4314C269.663 33.0323 269.562 32.5827 269.619 32.1371C269.675 31.6915 269.886 31.269 270.226 30.921C270.461 30.6254 270.325 30.1255 270.366 29.6256ZM17.7262 27.6734C17.7658 27.7586 17.8038 27.8425 17.877 28.0043C17.7072 28.0882 17.5228 28.1782 17.3383 28.2694C17.2768 28.1575 17.1377 27.9678 17.1684 27.9447C17.3427 27.8386 17.5296 27.7477 17.7262 27.6734ZM35.962 30.9855C29.3337 30.759 22.7405 30.0657 16.2534 28.9129C16.8001 28.9456 17.3496 28.9011 17.8785 28.7815C18.2885 28.6246 18.5389 28.1782 18.858 27.8656C20.3383 28.3546 21.9239 28.88 23.6443 29.4493C24.0557 28.0396 25.4247 27.9581 26.4495 27.8328C27.5681 28.5297 28.5462 29.1379 29.6135 29.8032C30.3412 29.1245 30.9942 28.1989 32.1099 29.3228C32.2153 29.4298 32.7175 29.3811 32.9415 29.2705C34.1684 28.6708 35.1274 29.0503 36.1128 29.8677C36.0689 30.1985 36.0147 30.6084 35.962 30.9855ZM38.3427 31.2725C38.0323 31.2676 37.7307 30.859 37.3427 30.5743C38.2124 30.2666 38.8141 30.0537 39.5228 29.802C40.0879 30.9635 41.2885 30.7093 42.4027 30.5208C42.9854 30.4211 43.5213 30.1644 44.2051 30.7154C42.3228 31.2527 40.3223 31.4428 38.3427 31.2725ZM69.7746 55.0574L69.7526 54.8215H70.9137L70.9313 54.9844C70.5462 55.0088 70.1597 55.0331 69.7746 55.0574ZM55.8683 59.0129C55.8376 58.918 55.8068 58.8243 55.776 58.7307C56.0396 58.6723 56.3031 58.6078 56.5725 58.5689C56.6245 58.6484 56.6657 58.7324 56.6955 58.8195C56.4202 58.8839 56.145 58.9472 55.8683 59.0129ZM62.4774 59.514C62.2812 59.3218 62.084 59.1292 61.8859 58.9362C62.0001 58.8779 62.1114 58.817 62.2226 58.7574L62.6692 59.3984C62.6062 59.4373 62.5418 59.4763 62.4774 59.514ZM70.0074 59.396C69.7614 59.2598 69.5169 59.1235 69.2709 58.9861C69.3236 58.9143 69.3764 58.8413 69.4276 58.7708C69.6911 58.8583 69.9532 58.9447 70.2153 59.0335C70.1465 59.1539 70.0777 59.2756 70.0074 59.396ZM104.817 54.2096C105.227 54.2449 105.635 54.2802 106.047 54.3167C106.025 54.4261 106.004 54.5369 105.985 54.6475C105.587 54.5819 105.192 54.5161 104.795 54.4492L104.817 54.2096ZM93.5637 4.23395H95.1992C95.1977 4.28869 95.1977 4.34343 95.1963 4.39817H93.5623C93.5638 4.34343 93.5637 4.28869 93.5637 4.23395ZM78.7599 54.4942C79.164 54.5453 79.5682 54.5952 79.9356 54.6402C79.9693 55.1875 79.8083 55.1875 78.7599 54.4942ZM84.1933 4.46628L85.1845 4.71197C85.1479 4.81049 85.1128 4.90779 85.0748 5.0051C84.7482 4.91631 84.4203 4.82831 84.0909 4.74115C84.126 4.64992 84.1596 4.5575 84.1933 4.46628ZM84.9766 54.695C84.9737 54.6609 84.9693 54.6268 84.9664 54.5916H86.9517C86.9547 54.6268 86.9576 54.6609 86.9576 54.695H84.9766ZM85.8259 4.32883H88.7072C88.5263 4.49774 88.3044 4.63295 88.0561 4.72552C87.8078 4.81809 87.5387 4.86594 87.2665 4.86594C86.9944 4.86594 86.7253 4.81809 86.477 4.72552C86.2286 4.63295 86.0068 4.49774 85.8259 4.32883ZM208.359 61.786C206.126 61.5099 203.908 61.1511 201.672 60.9067C199.567 60.6756 197.441 60.5575 195.327 60.3763C191.625 60.0588 187.925 59.7146 184.223 59.413C179.966 59.0676 175.71 58.7173 171.447 58.4388C166.77 58.1335 162.088 57.8817 157.406 57.6603C155.04 57.5484 152.666 57.5728 150.3 57.4949C148.779 57.4438 147.262 57.2479 145.742 57.2346C141.984 57.2054 138.224 57.2383 134.467 57.2553C130.088 57.2723 125.735 56.9354 121.378 56.658C121.256 56.6507 121.123 56.5827 121.019 56.6082C119.13 57.0887 117.174 56.776 115.261 56.9427C114.744 56.9609 114.226 56.9548 113.71 56.9244C112.867 56.8334 112.013 56.842 111.173 56.95C109.563 57.2373 107.905 57.2932 106.272 57.1154C105.069 57.0692 103.857 57.1519 102.65 57.1349C101.693 57.1203 100.737 57.0388 99.7775 56.9962C99.4232 56.9792 99.0674 56.984 98.7131 56.9901C97.1421 57.0144 95.5711 57.0716 94.0001 57.0643C92.4988 56.9604 90.9912 56.9352 89.4862 56.9889C89.0432 57.0341 88.5937 57.0033 88.1656 56.8985C87.7375 56.7937 87.3398 56.617 86.9971 56.3795C90.9913 56.2518 94.9884 56.056 98.984 56.0146C105.258 55.9477 111.54 55.8103 117.801 56.0365C122.864 56.2178 127.898 55.9283 132.944 55.9416C135.013 55.9465 137.081 56.1132 139.149 56.1946C139.696 56.2153 140.243 56.1789 140.791 56.1837C142.3 56.1947 143.811 56.247 145.319 56.219C146.631 56.1402 147.949 56.1605 149.256 56.2798C150.215 56.3386 151.178 56.3451 152.138 56.2992C153.226 56.3175 154.312 56.3674 155.4 56.4063C157.331 56.4756 159.267 56.6423 161.193 56.5839C162.457 56.545 163.732 57.1117 165 56.5157C165.243 56.4014 165.716 56.5316 166.037 56.6399C167.38 57.0824 168.827 57.2674 170.268 57.181C170.615 57.1937 170.959 57.2374 171.294 57.3113C171.574 57.3901 171.87 57.4231 172.166 57.4085C175.073 56.7176 175.064 56.7189 177.614 57.8087C178.005 57.9307 178.414 58.0103 178.83 58.0458C179.448 58.1901 180.078 58.291 180.716 58.3475C181.95 58.3816 183.16 58.7939 184.411 57.9778C184.824 57.7197 185.314 57.5623 185.828 57.5232C186.342 57.4841 186.859 57.5648 187.321 57.7564C188.222 58.2643 189.307 58.4957 190.391 58.4108C190.696 58.4131 190.993 58.4886 191.248 58.6285C192.657 59.2232 192.655 59.2294 193.783 58.2393C194.78 58.5045 196.063 58.0605 196.854 59.1333C196.972 59.2914 197.87 59.0542 198.356 59.0055C199.289 59.458 200.261 59.9592 201.272 60.3995C201.412 60.435 201.56 60.4441 201.705 60.4262C201.85 60.4083 201.988 60.3639 202.11 60.2961C202.499 60.0908 202.942 59.967 203.401 59.9353C203.861 59.9035 204.322 59.9647 204.747 60.1136C206.072 60.6055 207.497 60.8854 208.947 60.9383C209.318 60.9164 209.726 61.3433 210.062 61.7957C209.494 61.8266 208.925 61.8233 208.359 61.786ZM210.615 61.3202C212.341 61.3116 212.341 61.3117 212.6 62.3419C211.511 62.3991 210.846 62.1679 210.615 61.3202ZM216.716 62.7323C216.379 62.6958 216.043 62.6618 215.704 62.6265C215.709 62.5365 215.712 62.4477 215.716 62.3589H216.756L216.716 62.7323ZM255.672 12.1606C255.488 12.1596 255.304 12.1503 255.122 12.1327C254 11.9746 253.193 10.8531 251.789 11.4175C251.615 11.488 251.088 10.9492 250.726 10.6925C250.776 10.5819 250.827 10.47 250.879 10.3581C252.542 10.8543 254.305 10.1403 256.106 10.7704C255.943 11.2885 255.814 11.7082 255.672 12.1606ZM25.7526 7.653C24.7204 7.30677 23.593 7.20408 22.4949 7.35624C19.3222 7.83668 16.1465 8.29885 12.9752 8.78294C12.1011 8.91673 11.2402 9.11135 10.3734 9.27676C10.4056 9.45191 10.4378 9.62584 10.4686 9.80099C15.5096 8.83403 20.738 8.97391 25.7526 7.653ZM187.587 3.31809C187.35 3.09955 187.062 2.92341 186.74 2.80035C186.418 2.6773 186.069 2.60991 185.715 2.60229C185.361 2.59466 185.009 2.64695 184.68 2.756C184.351 2.86504 184.052 3.02854 183.801 3.23657C184.387 3.47754 185.029 3.60965 185.683 3.62372C186.337 3.63779 186.987 3.53352 187.587 3.31809ZM190.012 3.72799C192.286 3.91652 194.237 4.07947 196.19 4.24245C194.281 3.43548 192.076 3.25195 190.012 3.72799ZM181.764 2.98725C181.119 2.25624 180.305 2.62844 179.485 2.67831C178.712 2.6572 177.944 2.56333 177.196 2.39854C177.873 2.7423 178.625 2.97132 179.409 3.07236C180.194 3.1734 180.994 3.14446 181.764 2.98725ZM174.653 1.8281C173.994 1.84999 173.785 2.18326 173.606 2.57248C174.515 2.69776 175.289 2.80481 176.322 2.94712C175.961 2.20031 175.529 1.80013 174.653 1.8281ZM34.0938 38.3794C34.5037 37.961 34.5916 37.4927 33.7585 37.1679C33.2665 37.4635 32.7966 37.7834 33.2036 38.3393C33.3362 38.4069 33.4871 38.446 33.6425 38.453C33.798 38.46 33.9531 38.4347 34.0938 38.3794ZM151.365 1.44496C152.012 1.39874 152.63 1.35494 153.375 1.30142C151.867 0.507172 151.622 0.526647 151.365 1.44496ZM263.54 59.7986C263.644 60.0874 263.799 60.3619 263.999 60.6135C264.142 60.7449 264.483 60.7266 264.737 60.7741C264.794 60.5211 264.987 60.2133 264.88 60.0248C264.678 59.6696 264.305 59.3753 263.54 59.7986ZM159.45 2.0811C160.085 2.1334 160.581 2.17475 161.332 2.23678C160.821 1.04723 160.808 1.04724 159.45 2.0811ZM28.637 50.6361H30.2036C29.2943 50.2931 29.2944 50.2931 28.637 50.6361ZM217.122 4.58669H218.488C217.546 3.83866 217.546 3.83866 217.122 4.58669ZM169.568 2.11273C169.493 2.15408 169.495 2.28787 169.423 2.47883C169.861 2.54573 170.283 2.61142 171.031 2.72697C170.575 2.00083 170.243 1.73567 169.568 2.11273ZM155.921 0.921956C155.797 1.16522 155.678 1.39995 155.568 1.61645C155.826 1.732 156.076 1.84636 156.327 1.96069C156.463 1.55931 156.798 1.10805 155.921 0.921956ZM156.332 1.9631C156.753 1.91567 157.174 1.86822 157.734 1.80498C157.032 1.24669 156.753 1.92542 156.327 1.96069L156.325 1.96188L156.332 1.9631ZM34.2124 5.58526C34.1992 5.51837 34.1875 5.44904 34.1743 5.38092C33.6911 5.44174 33.2094 5.50135 32.7248 5.56095C32.738 5.63879 32.7526 5.71662 32.7658 5.79447C33.2489 5.72392 33.7311 5.65419 34.2124 5.58526ZM163.249 1.88771H161.63C162.384 2.28788 162.763 2.59439 163.249 1.88771ZM129.265 0.324752C129.212 0.211524 129.147 0.102774 129.069 0C128.93 0.0681133 128.845 0.109459 128.76 0.150814C128.846 0.256953 128.942 0.357406 129.047 0.451253C129.06 0.460984 129.274 0.349078 129.265 0.324752Z" fill="#FF914D"/>
</svg>
